  0
SECTION
  2
HEADER
  9
$ACADVER
  1
AC1024
  9
$ACADMAINTVER
 70
6
  9
$DWGCODEPAGE
  3
ANSI_1252
  9
$LASTSAVEDBY
  1
ezdxf
  9
$INSBASE
 10
0.0
 20
0.0
 30
0.0
  9
$EXTMIN
 10
1e+20
 20
1e+20
 30
1e+20
  9
$EXTMAX
 10
-1e+20
 20
-1e+20
 30
-1e+20
  9
$LIMMIN
 10
0.0
 20
0.0
  9
$LIMMAX
 10
420.0
 20
297.0
  9
$ORTHOMODE
 70
0
  9
$REGENMODE
 70
1
  9
$FILLMODE
 70
1
  9
$QTEXTMODE
 70
0
  9
$MIRRTEXT
 70
1
  9
$LTSCALE
 40
1.0
  9
$ATTMODE
 70
1
  9
$TEXTSIZE
 40
2.5
  9
$TRACEWID
 40
1.0
  9
$TEXTSTYLE
  7
Standard
  9
$CLAYER
  8
0
  9
$CELTYPE
  6
ByLayer
  9
$CECOLOR
 62
256
  9
$CELTSCALE
 40
1.0
  9
$DISPSILH
 70
0
  9
$DIMSCALE
 40
1.0
  9
$DIMASZ
 40
2.5
  9
$DIMEXO
 40
0.625
  9
$DIMDLI
 40
3.75
  9
$DIMRND
 40
0.0
  9
$DIMDLE
 40
0.0
  9
$DIMEXE
 40
1.25
  9
$DIMTP
 40
0.0
  9
$DIMTM
 40
0.0
  9
$DIMTXT
 40
2.5
  9
$DIMCEN
 40
2.5
  9
$DIMTSZ
 40
0.0
  9
$DIMTOL
 70
0
  9
$DIMLIM
 70
0
  9
$DIMTIH
 70
0
  9
$DIMTOH
 70
0
  9
$DIMSE1
 70
0
  9
$DIMSE2
 70
0
  9
$DIMTAD
 70
1
  9
$DIMZIN
 70
8
  9
$DIMBLK
  1

  9
$DIMASO
 70
1
  9
$DIMSHO
 70
1
  9
$DIMPOST
  1

  9
$DIMAPOST
  1

  9
$DIMALT
 70
0
  9
$DIMALTD
 70
3
  9
$DIMALTF
 40
0.03937007874
  9
$DIMLFAC
 40
1.0
  9
$DIMTOFL
 70
1
  9
$DIMTVP
 40
0.0
  9
$DIMTIX
 70
0
  9
$DIMSOXD
 70
0
  9
$DIMSAH
 70
0
  9
$DIMBLK1
  1

  9
$DIMBLK2
  1

  9
$DIMSTYLE
  2
ISO-25
  9
$DIMCLRD
 70
0
  9
$DIMCLRE
 70
0
  9
$DIMCLRT
 70
0
  9
$DIMTFAC
 40
1.0
  9
$DIMGAP
 40
0.625
  9
$DIMJUST
 70
0
  9
$DIMSD1
 70
0
  9
$DIMSD2
 70
0
  9
$DIMTOLJ
 70
0
  9
$DIMTZIN
 70
8
  9
$DIMALTZ
 70
0
  9
$DIMALTTZ
 70
0
  9
$DIMUPT
 70
0
  9
$DIMDEC
 70
2
  9
$DIMTDEC
 70
2
  9
$DIMALTU
 70
2
  9
$DIMALTTD
 70
3
  9
$DIMTXSTY
  7
Standard
  9
$DIMAUNIT
 70
0
  9
$DIMADEC
 70
0
  9
$DIMALTRND
 40
0.0
  9
$DIMAZIN
 70
0
  9
$DIMDSEP
 70
44
  9
$DIMATFIT
 70
3
  9
$DIMFRAC
 70
0
  9
$DIMLDRBLK
  1

  9
$DIMLUNIT
 70
2
  9
$DIMLWD
 70
-2
  9
$DIMLWE
 70
-2
  9
$DIMTMOVE
 70
0
  9
$DIMFXL
 40
1.0
  9
$DIMFXLON
 70
0
  9
$DIMJOGANG
 40
0.785398163397
  9
$DIMTFILL
 70
0
  9
$DIMTFILLCLR
 70
0
  9
$DIMARCSYM
 70
0
  9
$DIMLTYPE
  6

  9
$DIMLTEX1
  6

  9
$DIMLTEX2
  6

  9
$DIMTXTDIRECTION
 70
0
  9
$LUNITS
 70
2
  9
$LUPREC
 70
4
  9
$SKETCHINC
 40
1.0
  9
$FILLETRAD
 40
10.0
  9
$AUNITS
 70
0
  9
$AUPREC
 70
2
  9
$MENU
  1
.
  9
$ELEVATION
 40
0.0
  9
$PELEVATION
 40
0.0
  9
$THICKNESS
 40
0.0
  9
$LIMCHECK
 70
0
  9
$CHAMFERA
 40
0.0
  9
$CHAMFERB
 40
0.0
  9
$CHAMFERC
 40
0.0
  9
$CHAMFERD
 40
0.0
  9
$SKPOLY
 70
0
  9
$TDCREATE
 40
2461181.4231018517
  9
$TDUCREATE
 40
2458532.153996898
  9
$TDUPDATE
 40
2461181.4231018517
  9
$TDUUPDATE
 40
2458532.1544311
  9
$TDINDWG
 40
0.0
  9
$TDUSRTIMER
 40
0.0
  9
$USRTIMER
 70
1
  9
$ANGBASE
 50
0.0
  9
$ANGDIR
 70
0
  9
$PDMODE
 70
0
  9
$PDSIZE
 40
0.0
  9
$PLINEWID
 40
0.0
  9
$SPLFRAME
 70
0
  9
$SPLINETYPE
 70
6
  9
$SPLINESEGS
 70
8
  9
$HANDSEED
  5
3D
  9
$SURFTAB1
 70
6
  9
$SURFTAB2
 70
6
  9
$SURFTYPE
 70
6
  9
$SURFU
 70
6
  9
$SURFV
 70
6
  9
$UCSBASE
  2

  9
$UCSNAME
  2

  9
$UCSORG
 10
0.0
 20
0.0
 30
0.0
  9
$UCSXDIR
 10
1.0
 20
0.0
 30
0.0
  9
$UCSYDIR
 10
0.0
 20
1.0
 30
0.0
  9
$UCSORTHOREF
  2

  9
$UCSORTHOVIEW
 70
0
  9
$UCSORGTOP
 10
0.0
 20
0.0
 30
0.0
  9
$UCSORGBOTTOM
 10
0.0
 20
0.0
 30
0.0
  9
$UCSORGLEFT
 10
0.0
 20
0.0
 30
0.0
  9
$UCSORGRIGHT
 10
0.0
 20
0.0
 30
0.0
  9
$UCSORGFRONT
 10
0.0
 20
0.0
 30
0.0
  9
$UCSORGBACK
 10
0.0
 20
0.0
 30
0.0
  9
$PUCSBASE
  2

  9
$PUCSNAME
  2

  9
$PUCSORG
 10
0.0
 20
0.0
 30
0.0
  9
$PUCSXDIR
 10
1.0
 20
0.0
 30
0.0
  9
$PUCSYDIR
 10
0.0
 20
1.0
 30
0.0
  9
$PUCSORTHOREF
  2

  9
$PUCSORTHOVIEW
 70
0
  9
$PUCSORGTOP
 10
0.0
 20
0.0
 30
0.0
  9
$PUCSORGBOTTOM
 10
0.0
 20
0.0
 30
0.0
  9
$PUCSORGLEFT
 10
0.0
 20
0.0
 30
0.0
  9
$PUCSORGRIGHT
 10
0.0
 20
0.0
 30
0.0
  9
$PUCSORGFRONT
 10
0.0
 20
0.0
 30
0.0
  9
$PUCSORGBACK
 10
0.0
 20
0.0
 30
0.0
  9
$USERI1
 70
0
  9
$USERI2
 70
0
  9
$USERI3
 70
0
  9
$USERI4
 70
0
  9
$USERI5
 70
0
  9
$USERR1
 40
0.0
  9
$USERR2
 40
0.0
  9
$USERR3
 40
0.0
  9
$USERR4
 40
0.0
  9
$USERR5
 40
0.0
  9
$WORLDVIEW
 70
1
  9
$SHADEDGE
 70
3
  9
$SHADEDIF
 70
70
  9
$TILEMODE
 70
1
  9
$MAXACTVP
 70
64
  9
$PINSBASE
 10
0.0
 20
0.0
 30
0.0
  9
$PLIMCHECK
 70
0
  9
$PEXTMIN
 10
1e+20
 20
1e+20
 30
1e+20
  9
$PEXTMAX
 10
-1e+20
 20
-1e+20
 30
-1e+20
  9
$PLIMMIN
 10
0.0
 20
0.0
  9
$PLIMMAX
 10
420.0
 20
297.0
  9
$UNITMODE
 70
0
  9
$VISRETAIN
 70
1
  9
$PLINEGEN
 70
0
  9
$PSLTSCALE
 70
1
  9
$TREEDEPTH
 70
3020
  9
$CMLSTYLE
  2
Standard
  9
$CMLJUST
 70
0
  9
$CMLSCALE
 40
20.0
  9
$PROXYGRAPHICS
 70
1
  9
$MEASUREMENT
 70
1
  9
$CELWEIGHT
370
-1
  9
$ENDCAPS
280
0
  9
$JOINSTYLE
280
0
  9
$LWDISPLAY
290
0
  9
$INSUNITS
 70
6
  9
$HYPERLINKBASE
  1

  9
$STYLESHEET
  1

  9
$XEDIT
290
1
  9
$CEPSNTYPE
380
0
  9
$PSTYLEMODE
290
1
  9
$FINGERPRINTGUID
  2
{A94F2C5D-4C8B-4B99-807B-BE9106A0E042}
  9
$VERSIONGUID
  2
{6220C539-786B-41F8-8FA6-D94DBE6F38BF}
  9
$EXTNAMES
290
1
  9
$PSVPSCALE
 40
0.0
  9
$OLESTARTUP
290
0
  9
$SORTENTS
280
127
  9
$INDEXCTL
280
0
  9
$HIDETEXT
280
1
  9
$XCLIPFRAME
280
1
  9
$HALOGAP
280
0
  9
$OBSCOLOR
 70
257
  9
$OBSLTYPE
280
0
  9
$INTERSECTIONDISPLAY
280
0
  9
$INTERSECTIONCOLOR
 70
257
  9
$DIMASSOC
280
2
  9
$PROJECTNAME
  1

  9
$CAMERADISPLAY
290
0
  9
$LENSLENGTH
 40
50.0
  9
$CAMERAHEIGHT
 40
0.0
  9
$STEPSPERSEC
 40
24.0
  9
$STEPSIZE
 40
100.0
  9
$3DDWFPREC
 40
2.0
  9
$PSOLWIDTH
 40
0.005
  9
$PSOLHEIGHT
 40
0.08
  9
$LOFTANG1
 40
1.570796326795
  9
$LOFTANG2
 40
1.570796326795
  9
$LOFTMAG1
 40
0.0
  9
$LOFTMAG2
 40
0.0
  9
$LOFTPARAM
 70
7
  9
$LOFTNORMALS
280
1
  9
$LATITUDE
 40
37.795
  9
$LONGITUDE
 40
-122.394
  9
$NORTHDIRECTION
 40
0.0
  9
$TIMEZONE
 70
-8000
  9
$LIGHTGLYPHDISPLAY
280
1
  9
$TILEMODELIGHTSYNCH
280
1
  9
$CMATERIAL
347
20
  9
$SOLIDHIST
280
0
  9
$SHOWHIST
280
1
  9
$DWFFRAME
280
2
  9
$DGNFRAME
280
2
  9
$REALWORLDSCALE
290
1
  9
$INTERFERECOLOR
 62
256
  9
$CSHADOW
280
0
  9
$SHADOWPLANELOCATION
 40
0.0
  0
ENDSEC
  0
SECTION
  2
CLASSES
  0
CLASS
  1
ACDBDICTIONARYWDFLT
  2
AcDbDictionaryWithDefault
  3
ObjectDBX Classes
 90
0
 91
0
280
0
281
0
  0
CLASS
  1
SUN
  2
AcDbSun
  3
SCENEOE
 90
1153
 91
0
280
0
281
0
  0
CLASS
  1
VISUALSTYLE
  2
AcDbVisualStyle
  3
ObjectDBX Classes
 90
4095
 91
0
280
0
281
0
  0
CLASS
  1
MATERIAL
  2
AcDbMaterial
  3
ObjectDBX Classes
 90
1153
 91
0
280
0
281
0
  0
CLASS
  1
SCALE
  2
AcDbScale
  3
ObjectDBX Classes
 90
1153
 91
0
280
0
281
0
  0
CLASS
  1
TABLESTYLE
  2
AcDbTableStyle
  3
ObjectDBX Classes
 90
4095
 91
0
280
0
281
0
  0
CLASS
  1
MLEADERSTYLE
  2
AcDbMLeaderStyle
  3
ACDB_MLEADERSTYLE_CLASS
 90
4095
 91
0
280
0
281
0
  0
CLASS
  1
DICTIONARYVAR
  2
AcDbDictionaryVar
  3
ObjectDBX Classes
 90
0
 91
0
280
0
281
0
  0
CLASS
  1
CELLSTYLEMAP
  2
AcDbCellStyleMap
  3
ObjectDBX Classes
 90
1152
 91
0
280
0
281
0
  0
CLASS
  1
MENTALRAYRENDERSETTINGS
  2
AcDbMentalRayRenderSettings
  3
SCENEOE
 90
1024
 91
0
280
0
281
0
  0
CLASS
  1
ACDBDETAILVIEWSTYLE
  2
AcDbDetailViewStyle
  3
ObjectDBX Classes
 90
1025
 91
0
280
0
281
0
  0
CLASS
  1
ACDBSECTIONVIEWSTYLE
  2
AcDbSectionViewStyle
  3
ObjectDBX Classes
 90
1025
 91
0
280
0
281
0
  0
CLASS
  1
RASTERVARIABLES
  2
AcDbRasterVariables
  3
ISM
 90
0
 91
0
280
0
281
0
  0
CLASS
  1
ACDBPLACEHOLDER
  2
AcDbPlaceHolder
  3
ObjectDBX Classes
 90
0
 91
0
280
0
281
0
  0
CLASS
  1
LAYOUT
  2
AcDbLayout
  3
ObjectDBX Classes
 90
0
 91
0
280
0
281
0
  0
ENDSEC
  0
SECTION
  2
TABLES
  0
TABLE
  2
VPORT
  5
8
330
0
100
AcDbSymbolTable
 70
1
  0
VPORT
  5
23
330
8
100
AcDbSymbolTableRecord
100
AcDbViewportTableRecord
  2
*Active
 70
0
 10
0.0
 20
0.0
 11
1.0
 21
1.0
 12
0.0
 22
0.0
 13
0.0
 23
0.0
 14
0.5
 24
0.5
 15
0.5
 25
0.5
 16
0.0
 26
0.0
 36
1.0
 17
0.0
 27
0.0
 37
0.0
 40
1000.0
 41
1.34
 42
50.0
 43
0.0
 44
0.0
 50
0.0
 51
0.0
 71
0
 72
1000
 73
1
 74
3
 75
0
 76
0
 77
0
 78
0
281
0
 65
0
146
0.0
  0
ENDTAB
  0
TABLE
  2
LTYPE
  5
2
330
0
100
AcDbSymbolTable
 70
3
  0
LTYPE
  5
24
330
2
100
AcDbSymbolTableRecord
100
AcDbLinetypeTableRecord
  2
ByBlock
 70
0
  3

 72
65
 73
0
 40
0.0
  0
LTYPE
  5
25
330
2
100
AcDbSymbolTableRecord
100
AcDbLinetypeTableRecord
  2
ByLayer
 70
0
  3

 72
65
 73
0
 40
0.0
  0
LTYPE
  5
26
330
2
100
AcDbSymbolTableRecord
100
AcDbLinetypeTableRecord
  2
Continuous
 70
0
  3

 72
65
 73
0
 40
0.0
  0
ENDTAB
  0
TABLE
  2
LAYER
  5
1
330
0
100
AcDbSymbolTable
 70
6
  0
LAYER
  5
27
330
1
100
AcDbSymbolTableRecord
100
AcDbLayerTableRecord
  2
0
 70
0
 62
7
  6
Continuous
370
-3
390
13
347
21
  0
LAYER
  5
28
330
1
100
AcDbSymbolTableRecord
100
AcDbLayerTableRecord
  2
Defpoints
 70
0
 62
7
  6
Continuous
290
0
370
-3
390
13
347
21
  0
LAYER
  5
2F
330
1
100
AcDbSymbolTableRecord
100
AcDbLayerTableRecord
  2
MERGED_GROUND
 70
0
 62
7
  6
Continuous
370
-3
390
13
347
21
  0
LAYER
  5
30
330
1
100
AcDbSymbolTableRecord
100
AcDbLayerTableRecord
  2
MERGED_CATENARY
 70
0
 62
7
  6
Continuous
370
-3
390
13
347
21
  0
LAYER
  5
31
330
1
100
AcDbSymbolTableRecord
100
AcDbLayerTableRecord
  2
MERGED_SUPPORTS
 70
0
 62
7
  6
Continuous
370
-3
390
13
347
21
  0
LAYER
  5
32
330
1
100
AcDbSymbolTableRecord
100
AcDbLayerTableRecord
  2
MERGED_LABELS
 70
0
 62
7
  6
Continuous
370
-3
390
13
347
21
  0
ENDTAB
  0
TABLE
  2
STYLE
  5
5
330
0
100
AcDbSymbolTable
 70
1
  0
STYLE
  5
29
330
5
100
AcDbSymbolTableRecord
100
AcDbTextStyleTableRecord
  2
Standard
 70
0
 40
0.0
 41
1.0
 50
0.0
 71
0
 42
2.5
  3
txt
  4

  0
ENDTAB
  0
TABLE
  2
VIEW
  5
7
330
0
100
AcDbSymbolTable
 70
0
  0
ENDTAB
  0
TABLE
  2
UCS
  5
6
330
0
100
AcDbSymbolTable
 70
0
  0
ENDTAB
  0
TABLE
  2
APPID
  5
3
330
0
100
AcDbSymbolTable
 70
3
  0
APPID
  5
2A
330
3
100
AcDbSymbolTableRecord
100
AcDbRegAppTableRecord
  2
ACAD
 70
0
  0
APPID
  5
3A
330
3
100
AcDbSymbolTableRecord
100
AcDbRegAppTableRecord
  2
HATCHBACKGROUNDCOLOR
 70
0
  0
APPID
  5
3B
330
3
100
AcDbSymbolTableRecord
100
AcDbRegAppTableRecord
  2
EZDXF
 70
0
  0
ENDTAB
  0
TABLE
  2
DIMSTYLE
  5
4
330
0
100
AcDbSymbolTable
 70
1
100
AcDbDimStyleTable
  0
DIMSTYLE
105
2B
330
4
100
AcDbSymbolTableRecord
100
AcDbDimStyleTableRecord
  2
Standard
 70
0
 40
1.0
 41
2.5
 42
0.625
 43
3.75
 44
1.25
 45
0.0
 46
0.0
 47
0.0
 48
0.0
 49
2.5
140
2.5
141
2.5
142
0.0
143
0.03937007874
144
1.0
145
0.0
146
1.0
147
0.625
148
0.0
 69
0
 70
0
 71
0
 72
0
 73
0
 74
0
 75
0
 76
0
 77
1
 78
8
 79
3
170
0
171
3
172
1
173
0
174
0
175
0
176
0
177
0
178
0
179
2
271
2
272
2
273
2
274
3
275
0
276
0
277
2
278
44
279
0
280
0
281
0
282
0
283
0
284
8
285
0
286
0
288
0
289
3
290
0
371
-2
372
-2
  0
ENDTAB
  0
TABLE
  2
BLOCK_RECORD
  5
9
330
0
100
AcDbSymbolTable
 70
2
  0
BLOCK_RECORD
  5
17
330
9
100
AcDbSymbolTableRecord
100
AcDbBlockTableRecord
  2
*Model_Space
340
1A
 70
0
280
1
281
0
  0
BLOCK_RECORD
  5
1B
330
9
100
AcDbSymbolTableRecord
100
AcDbBlockTableRecord
  2
*Paper_Space
340
1E
 70
0
280
1
281
0
  0
ENDTAB
  0
ENDSEC
  0
SECTION
  2
BLOCKS
  0
BLOCK
  5
18
330
17
100
AcDbEntity
  8
0
100
AcDbBlockBegin
  2
*Model_Space
 70
0
 10
0.0
 20
0.0
 30
0.0
  3
*Model_Space
  1

  0
ENDBLK
  5
19
330
17
100
AcDbEntity
  8
0
100
AcDbBlockEnd
  0
BLOCK
  5
1C
330
1B
100
AcDbEntity
  8
0
100
AcDbBlockBegin
  2
*Paper_Space
 70
0
 10
0.0
 20
0.0
 30
0.0
  3
*Paper_Space
  1

  0
ENDBLK
  5
1D
330
1B
100
AcDbEntity
  8
0
100
AcDbBlockEnd
  0
ENDSEC
  0
SECTION
  2
ENTITIES
  0
LWPOLYLINE
  5
33
330
17
100
AcDbEntity
  8
MERGED_GROUND
100
AcDbPolyline
 90
300
 70
0
 10
0.0
 20
1.5270867860910917
 10
0.050306384469870326
 20
1.5277991340808794
 10
0.10061276893974197
 20
1.5282968715641863
 10
0.1509191534096123
 20
1.5285806822595147
 10
0.2012255378794826
 20
1.5286513708694085
 10
0.2515319223493526
 20
1.5285098629049003
 10
0.3018383068192246
 20
1.528157204418373
 10
0.3521446912890946
 20
1.5275945616450637
 10
0.40245107575896494
 20
1.5268232205535195
 10
0.4527574602288353
 20
1.525844586305439
 10
0.5030638446987069
 20
1.5246601826253996
 10
0.5533702291685773
 20
1.5232716510810755
 10
0.6036766136384476
 20
1.5216807502746543
 10
0.6539829981083193
 20
1.519889354946233
 10
0.7042893825781896
 20
1.5178994549900802
 10
0.75459576704806
 20
1.5157131543847349
 10
0.80490215151793
 20
1.5133326700379954
 10
0.855208535987802
 20
1.5107603305479493
 10
0.905514920457672
 20
1.5079985748812696
 10
0.9558213049275424
 20
1.5050499509700905
 10
1.0061276893974127
 20
1.5019171142288539
 10
1.0564340738672844
 20
1.498602825992602
 10
1.1067404583371547
 20
1.4951099518782582
 10
1.157046842807025
 20
1.491441460070525
 10
1.207353227276895
 20
1.4876004195340853
 10
1.2576596117467669
 20
1.4835899981538823
 10
1.3079659962166372
 20
1.4794134608052991
 10
1.3582723806865071
 20
1.475074167356136
 10
1.408578765156379
 20
1.4705755706023473
 10
1.4588851496262494
 20
1.4659212141395495
 10
1.5091915340961193
 20
1.4611147301723724
 10
1.5594979185659896
 20
1.4561598372637836
 10
1.6098043030358613
 20
1.4510603380265605
 10
1.6601106875057317
 20
1.445820116759133
 10
1.710417071975602
 20
1.4404431370280601
 10
1.760723456445472
 20
1.4349334391994624
 10
1.8110298409153438
 20
1.4292951379217431
 10
1.8613362253852141
 20
1.42353241956199
 10
1.911642609855084
 20
1.4176495395984652
 10
1.9619489943249544
 20
1.4116508199716309
 10
2.0122553787948263
 20
1.4055406463961755
 10
2.0625617632646964
 20
1.3993234656365308
 10
2.1128681477345665
 20
1.3930037827483854
 10
2.163174532204438
 20
1.3865861582887264
 10
2.213480916674308
 20
1.3800752054969379
 10
2.2637873011441783
 20
1.3734755874495037
 10
2.3140936856140484
 20
1.3667920141908652
 10
2.3644000700839185
 20
1.3600292398429965
 10
2.41470645455379
 20
1.3531920596962321
 10
2.46501283902366
 20
1.3462853072839147
 10
2.515319223493532
 20
1.3393138514433958
 10
2.565625607963402
 20
1.3322825933659264
 10
2.6159319924332722
 20
1.3251964636379518
 10
2.6662383769031424
 20
1.318060419276325
 10
2.7165447613730125
 20
1.3108794407599111
 10
2.7668511458428844
 20
1.3036585290600562
 10
2.8171575303127545
 20
1.296402702672356
 10
2.8674639147826246
 20
1.2891169946521335
 10
2.9177702992524965
 20
1.281806449656013
 10
2.9680766837223667
 20
1.2744761209919329
 10
3.018383068192237
 20
1.2671310676799183
 10
3.068689452662107
 20
1.2597763515258842
 10
3.118995837131979
 20
1.2524170342107093
 10
3.169302221601849
 20
1.245058174396774
 10
3.219608606071719
 20
1.2377048248541136
 10
3.269914990541589
 20
1.2303620296082882
 10
3.320221375011461
 20
1.2230348211120277
 10
3.370527759481331
 20
1.215728217442655
 10
3.4208341439512013
 20
1.2084472195272393
 10
3.4711405284210715
 20
1.2011968083973832
 10
3.521446912890943
 20
1.1939819424754805
 10
3.571753297360813
 20
1.1868075548942383
 10
3.622059681830683
 20
1.1796785508511816
 10
3.672366066300555
 20
1.1725998049998252
 10
3.722672450770425
 20
1.165576158879102
 10
3.7729788352402953
 20
1.1586124183826085
 10
3.8232852197101654
 20
1.1517133512691413
 10
3.8735916041800356
 20
1.1448836847159514
 10
3.9238979886499075
 20
1.1381281029160601
 10
3.9742043731197776
 20
1.1314512447209444
 10
4.024510757589649
 20
1.1248577013297938
 10
4.074817142059519
 20
1.118352014026515
 10
4.125123526529389
 20
1.1119386719655673
 10
4.175429910999259
 20
1.105622110007655
 10
4.2257362954691295
 20
1.0994067066062367
 10
4.2760426799390014
 20
1.093296781745741
 10
4.326349064408872
 20
1.0872965949323172
 10
4.3766554488787435
 20
1.0814103432378759
 10
4.426961833348614
 20
1.075642159398113
 10
4.477268217818484
 20
1.069996109965146
 10
4.527574602288354
 20
1.0644761935153204
 10
4.577880986758224
 20
1.059086338912688
 10
4.628187371228094
 20
1.0538304036285833
 10
4.678493755697964
 20
1.048712172117673
 10
4.728800140167836
 20
1.0437353542507843
 10
4.779106524637708
 20
1.038903583804755
 10
4.829412909107578
 20
1.0342204170094935
 10
4.879719293577448
 20
1.0296893311523736
 10
4.930025678047318
 20
1.0253137232400296
 10
4.9803320625171885
 20
1.0210969087175616
 10
5.03063844698706
 20
1.0170421202451132
 10
5.0809448314569305
 20
1.0131525065317069
 10
5.1312512159268024
 20
1.0094311312261954
 10
5.181557600396673
 20
1.005880971865126
 10
5.231863984866543
 20
1.0025049188772472
 10
5.282170369336413
 20
0.9993057746443763
 10
5.332476753806283
 20
0.9962862526182592
 10
5.382783138276155
 20
0.9934489764930357
 10
5.433089522746025
 20
0.9907964794328703
 10
5.483395907215897
 20
0.9883312033542666
 10
5.533702291685767
 20
0.9860554982625435
 10
5.584008676155637
 20
0.9839716216419144
 10
5.634315060625507
 20
0.9820817378985744
 10
5.684621445095377
 20
0.9803879178561635
 10
5.7349278295652475
 20
0.9788921383029418
 10
5.785234214035118
 20
0.977596281589984
 10
5.8355405985049895
 20
0.9765021352796699
 10
5.885846982974861
 20
0.9756113918437143
 10
5.9361533674447315
 20
0.9749256484099692
 10
5.986459751914602
 20
0.9744464065571897
 10
6.036766136384472
 20
0.9741750721569465
 10
6.087072520854342
 20
0.9741129552618449
 10
6.137378905324212
 20
0.9742612700391828
 10
6.187685289794084
 20
0.9746211347491844
 10
6.237991674263956
 20
0.9751935717669076
 10
6.288298058733826
 20
0.9759795076469306
 10
6.338604443203696
 20
0.9769797732298998
 10
6.388910827673566
 20
0.9781951037900194
 10
6.439217212143436
 20
0.9796261392225492
 10
6.4895235966133065
 20
0.9812734242703806
 10
6.539829981083177
 20
0.9831374087887433
 10
6.5901363655530485
 20
0.9852184480471092
 10
6.640442750022919
 20
0.9875168030673442
 10
6.6907491344927905
 20
0.9900326409971655
 10
6.741055518962661
 20
0.9927660355179706
 10
6.791361903432531
 20
0.995716967286093
 10
6.841668287902401
 20
0.9988853244065581
 10
6.891974672372271
 20
1.0022709029384091
 10
6.942281056842143
 20
1.0058734074306945
 10
6.992587441312013
 20
1.0096924514881895
 10
7.042893825781885
 20
1.0137275583659762
 10
7.093200210251755
 20
1.01797816159197
 10
7.143506594721625
 20
1.022443605616536
 10
7.193812979191495
 20
1.0271231464883168
 10
7.244119363661365
 20
1.0320159525554344
 10
7.294425748131237
 20
1.0371211051912235
 10
7.344732132601109
 20
1.0424375995436823
 10
7.395038517070979
 20
1.0479643453078409
 10
7.4453449015408495
 20
1.0537001675202575
 10
7.49565128601072
 20
1.0596438073748793
 10
7.54595767048059
 20
1.0657939230595197
 10
7.59626405495046
 20
1.0721490906122249
 10
7.64657043942033
 20
1.0787078047968133
 10
7.696876823890202
 20
1.0854684799969105
 10
7.747183208360072
 20
1.0924294511277979
 10
7.797489592829944
 20
1.099588974565435
 10
7.847795977299814
 20
1.1069452290920248
 10
7.898102361769684
 20
1.1144963168575146
 10
7.948408746239554
 20
1.1222402643564493
 10
7.998715130709424
 20
1.130175023419609
 10
8.049021515179296
 20
1.1382984722198919
 10
8.099327899649166
 20
1.1466084162919143
 10
8.149634284119037
 20
1.1551025895648352
 10
8.199940668588908
 20
1.1637786554079155
 10
8.250247053058779
 20
1.172634207688359
 10
8.300553437528649
 20
1.181666771840992
 10
8.35085982199852
 20
1.190873805949365
 10
8.40116620646839
 20
1.2002527018378737
 10
8.45147259093826
 20
1.2098007861745208
 10
8.501778975408133
 20
1.2195153215839585
 10
8.552085359878003
 20
1.2293935077704643
 10
8.602391744347873
 20
1.2394324826505299
 10
8.652698128817743
 20
1.24962932349475
 10
8.703004513287615
 20
1.2599810480787277
 10
8.753310897757485
 20
1.270484615842706
 10
8.803617282227355
 20
1.2811369290596861
 10
8.853923666697227
 20
1.2919348340117698
 10
8.904230051167097
 20
1.302875122174501
 10
8.954536435636967
 20
1.3139545314089922
 10
9.004842820106838
 20
1.325169747161621
 10
9.055149204576708
 20
1.3365174036711107
 10
9.105455589046578
 20
1.3479940851828063
 10
9.155761973516448
 20
1.359596327169974
 10
9.20606835798632
 20
1.3713206175619592
 10
9.25637474245619
 20
1.383163397979046
 10
9.30668112692606
 20
1.3951210649738686
 10
9.35698751139593
 20
1.407189971279236
 10
9.407293895865802
 20
1.4193664270622204
 10
9.457600280335672
 20
1.4316467011843919
 10
9.507906664805542
 20
1.4440270224680578
 10
9.558213049275414
 20
1.456503580968383
 10
9.608519433745284
 20
1.4690725292512694
 10
9.658825818215155
 20
1.481729983676865
 10
9.709132202685026
 20
1.4944720256885808
 10
9.759438587154897
 20
1.5072947031074841
 10
9.809744971624767
 20
1.520194031431951
 10
9.860051356094637
 20
1.5331659951424388
 10
9.910357740564509
 20
1.5462065490112398
 10
9.960664125034379
 20
1.559311619417089
 10
10.010970509504249
 20
1.5724771056644733
 10
10.06127689397412
 20
1.5856988813074853
 10
10.111583278443991
 20
1.598972795478077
 10
10.161889662913861
 20
1.612294674218532
 10
10.212196047383731
 20
1.625660321817988
 10
10.262502431853603
 20
1.6390655221528243
 10
10.312808816323473
 20
1.6525060400307103
 10
10.363115200793343
 20
1.6659776225381202
 10
10.413421585263215
 20
1.679476000391083
 10
10.463727969733085
 20
1.6929968892889384
 10
10.514034354202956
 20
1.7065359912708649
 10
10.564340738672827
 20
1.7200889960749017
 10
10.614647123142698
 20
1.733651582499205
 10
10.664953507612568
 20
1.7472194197652506
 10
10.715259892082438
 20
1.7607881688826699
 10
10.76556627655231
 20
1.7743534840154085
 10
10.81587266102218
 20
1.7879110138488654
 10
10.86617904549205
 20
1.8014564029576656
 10
10.916485429961922
 20
1.8149852931736927
 10
10.966791814431792
 20
1.8284933249539916
 10
11.017098198901662
 20
1.8419761387481468
 10
11.067404583371532
 20
1.8554293763647
 10
11.117710967841402
 20
1.8688486823361767
 10
11.168017352311272
 20
1.8822297052822563
 10
11.218323736781143
 20
1.8955680992706134
 10
11.268630121251014
 20
1.9088595251749303
 10
11.318936505720885
 20
1.9220996520295677
 10
11.369242890190755
 20
1.9352841583803666
 10
11.419549274660627
 20
1.9484087336310207
 10
11.469855659130497
 20
1.9614690793844598
 10
11.520162043600367
 20
1.9744609107786562
 10
11.570468428070237
 20
1.9873799578162459
 10
11.620774812540109
 20
2.000221966687351
 10
11.671081197009979
 20
2.012982701084955
 10
11.72138758147985
 20
2.025657943512194
 10
11.771693965949721
 20
2.038243496580874
 10
11.822000350419591
 20
2.0507351843005406
 10
11.872306734889461
 20
2.0631288533574033
 10
11.922613119359331
 20
2.075420374382389
 10
11.972919503829203
 20
2.087605643207609
 10
12.023225888299073
 20
2.099680582110489
 10
12.073532272768944
 20
2.1116411410448164
 10
12.123838657238815
 20
2.123483298857942
 10
12.174145041708686
 20
2.1352030644933526
 10
12.224451426178556
 20
2.1467964781778535
 10
12.274757810648426
 20
2.158259612592539
 10
12.325064195118298
 20
2.169588574026791
 10
12.375370579588168
 20
2.1807795035144624
 10
12.425676964058038
 20
2.1918285779514766
 10
12.47598334852791
 20
2.2027320111940027
 10
12.52628973299778
 20
2.2134860551364057
 10
12.57659611746765
 20
2.22408700076816
 10
12.626902501937522
 20
2.234531179208909
 10
12.677208886407392
 20
2.2448149627208553
 10
12.727515270877262
 20
2.2549347656976897
 10
12.777821655347132
 20
2.2648870456292443
 10
12.828128039817004
 20
2.274668304041082
 10
12.878434424286874
 20
2.2842750874082243
 10
12.928740808756745
 20
2.293703988042276
 10
12.979047193226615
 20
2.3029516449511314
 10
13.029353577696485
 20
2.31201474467057
 10
13.079659962166355
 20
2.3208900220669606
 10
13.129966346636225
 20
2.3295742611103902
 10
13.180272731106097
 20
2.3380642956175093
 10
13.230579115575967
 20
2.346357009963421
 10
13.280885500045837
 20
2.354449339761964
 10
13.33119188451571
 20
2.3623382725137727
 10
13.38149826898558
 20
2.370020848221497
 10
13.43180465345545
 20
2.377494159971649
 10
13.482111037925321
 20
2.384755354482505
 10
13.532417422395191
 20
2.3918016326175873
 10
13.582723806865062
 20
2.398630249864258
 10
13.633030191334932
 20
2.4052385167769823
 10
13.683336575804804
 20
2.4116237993849015
 10
13.733642960274674
 20
2.417783519563349
 10
13.783949344744544
 20
2.4237151553690257
 10
13.834255729214416
 20
2.429416241338581
 10
13.884562113684286
 20
2.4348843687503914
 10
13.934868498154156
 20
2.440117185849393
 10
13.985174882624026
 20
2.4451123980348655
 10
14.035481267093898
 20
2.4498677680111274
 10
14.085787651563768
 20
2.454381115901157
 10
14.136094036033638
 20
2.4586503193232057
 10
14.18640042050351
 20
2.462673313430562
 10
14.23670680497338
 20
2.466448090914624
 10
14.28701318944325
 20
2.469972701971588
 10
14.33731957391312
 20
2.4732452542330514
 10
14.387625958382992
 20
2.476263912660937
 10
14.437932342852863
 20
2.4790268994072107
 10
14.488238727322733
 20
2.481532493638929
 10
14.538545111792605
 20
2.483779031329217
 10
14.588851496262475
 20
2.4857649050148813
 10
14.639157880732345
 20
2.4874885635214037
 10
14.689464265202217
 20
2.4889485116561554
 10
14.739770649672087
 20
2.490143309870747
 10
14.790077034141957
 20
2.49107157389351
 10
14.840383418611827
 20
2.4917319743331663
 10
14.890689803081699
 20
2.492123236254851
 10
14.940996187551569
 20
2.492244138729706
 10
14.99130257202144
 20
2.492093514359357
 10
15.04160895649131
 20
2.491670248776654
  0
LWPOLYLINE
  5
34
330
17
100
AcDbEntity
  8
MERGED_CATENARY
100
AcDbPolyline
 90
300
 70
0
 10
0.0
 20
6.5270867860910915
 10
0.050306384469870326
 20
6.48948312335238
 10
0.10061276893974197
 20
6.452194947587189
 10
0.1509191534096123
 20
6.415221315129616
 10
0.2012255378794826
 20
6.378561290274023
 10
0.2515319223493526
 20
6.342213945251352
 10
0.3018383068192246
 20
6.306178360205661
 10
0.3521446912890946
 20
6.270453623170824
 10
0.40245107575896494
 20
6.235038830047475
 10
0.4527574602288353
 20
6.199933084580104
 10
0.5030638446987069
 20
6.165135498334394
 10
0.5533702291685773
 20
6.1306451906747235
 10
0.6036766136384476
 20
6.096461288741892
 10
0.6539829981083193
 20
6.062582927431022
 10
0.7042893825781896
 20
6.029009249369663
 10
0.75459576704806
 20
5.995739404896103
 10
0.80490215151793
 20
5.96277255203786
 10
0.855208535987802
 20
5.930107856490379
 10
0.905514920457672
 20
5.897744491595902
 10
0.9558213049275424
 20
5.865681638322573
 10
1.0061276893974127
 20
5.833918485243689
 10
1.0564340738672844
 20
5.802454228517176
 10
1.1067404583371547
 20
5.771288071865235
 10
1.157046842807025
 20
5.740419226554212
 10
1.207353227276895
 20
5.7098469113746075
 10
1.2576596117467669
 20
5.679570352621335
 10
1.3079659962166372
 20
5.649588784074117
 10
1.3582723806865071
 20
5.619901446978113
 10
1.408578765156379
 20
5.5905075900247
 10
1.4588851496262494
 20
5.561406469332473
 10
1.5091915340961193
 20
5.532597348428414
 10
1.5594979185659896
 20
5.504079498229249
 10
1.6098043030358613
 20
5.475852197023006
 10
1.6601106875057317
 20
5.447914730450747
 10
1.710417071975602
 20
5.42026639148848
 10
1.760723456445472
 20
5.392906480429282
 10
1.8110298409153438
 20
5.365834304865582
 10
1.8613362253852141
 20
5.33904917967164
 10
1.911642609855084
 20
5.3125504269862045
 10
1.9619489943249544
 20
5.286337376195364
 10
2.0122553787948263
 20
5.2604093639155725
 10
2.0625617632646964
 20
5.234765733976854
 10
2.1128681477345665
 20
5.2094058374062175
 10
2.163174532204438
 20
5.184329032411208
 10
2.213480916674308
 20
5.159534684363676
 10
2.2637873011441783
 20
5.135022165783722
 10
2.3140936856140484
 20
5.110790856323808
 10
2.3644000700839185
 20
5.08684014275306
 10
2.41470645455379
 20
5.063169418941749
 10
2.46501283902366
 20
5.039778085845956
 10
2.515319223493532
 20
5.01666555149241
 10
2.565625607963402
 20
4.993831230963495
 10
2.6159319924332722
 20
4.971274546382465
 10
2.6662383769031424
 20
4.948994926898811
 10
2.7165447613730125
 20
4.926991808673811
 10
2.7668511458428844
 20
4.905264634866267
 10
2.8171575303127545
 20
4.883812855618412
 10
2.8674639147826246
 20
4.862635928041987
 10
2.9177702992524965
 20
4.841733316204517
 10
2.9680766837223667
 20
4.821104491115729
 10
3.018383068192237
 20
4.800748930714178
 10
3.068689452662107
 20
4.780666119854036
 10
3.118995837131979
 20
4.760855550292042
 10
3.169302221601849
 20
4.741316720674655
 10
3.219608606071719
 20
4.722049136525355
 10
3.269914990541589
 20
4.703052310232136
 10
3.320221375011461
 20
4.684325761035161
 10
3.370527759481331
 20
4.6658690150145965
 10
3.4208341439512013
 20
4.647681605078624
 10
3.4711405284210715
 20
4.629763070951607
 10
3.521446912890943
 20
4.6121129591624594
 10
3.571753297360813
 20
4.594730823033155
 10
3.622059681830683
 20
4.577616222667428
 10
3.672366066300555
 20
4.560768724939644
 10
3.722672450770425
 20
4.544187903483832
 10
3.7729788352402953
 20
4.5278733386829
 10
3.8232852197101654
 20
4.511824617658016
 10
3.8735916041800356
 20
4.49604133425815
 10
3.9238979886499075
 20
4.480523089049808
 10
3.9742043731197776
 20
4.465269489306916
 10
4.024510757589649
 20
4.4502801490008785
 10
4.074817142059519
 20
4.435554688790817
 10
4.125123526529389
 20
4.421092736013968
 10
4.175429910999259
 20
4.406893924676243
 10
4.2257362954691295
 20
4.392957895442979
 10
4.2760426799390014
 20
4.379284295629833
 10
4.326349064408872
 20
4.365872779193872
 10
4.3766554488787435
 20
4.352723006724794
 10
4.426961833348614
 20
4.339834645436358
 10
4.477268217818484
 20
4.32720736915795
 10
4.527574602288354
 20
4.3148408583263365
 10
4.577880986758224
 20
4.30273479997757
 10
4.628187371228094
 20
4.290888887739072
 10
4.678493755697964
 20
4.279302821821885
 10
4.728800140167836
 20
4.26797630901307
 10
4.779106524637708
 20
4.256909062668308
 10
4.829412909107578
 20
4.246100802704625
 10
4.879719293577448
 20
4.235551255593315
 10
4.930025678047318
 20
4.225260154353019
 10
4.9803320625171885
 20
4.2152272385429645
 10
5.03063844698706
 20
4.20545225425637
 10
5.0809448314569305
 20
4.195934954114029
 10
5.1312512159268024
 20
4.186675097258039
 10
5.181557600396673
 20
4.1776724493457245
 10
5.231863984866543
 20
4.168926782543676
 10
5.282170369336413
 20
4.160437875522014
 10
5.332476753806283
 20
4.152205513448772
 10
5.382783138276155
 20
4.144229487984463
 10
5.433089522746025
 20
4.136509597276808
 10
5.483395907215897
 20
4.129045645955625
 10
5.533702291685767
 20
4.121837445127885
 10
5.584008676155637
 20
4.114884812372939
 10
5.634315060625507
 20
4.108187571737892
 10
5.684621445095377
 20
4.101745553733149
 10
5.7349278295652475
 20
4.095558595328139
 10
5.785234214035118
 20
4.089626539947173
 10
5.8355405985049895
 20
4.083949237465494
 10
5.885846982974861
 20
4.07852654420547
 10
5.9361533674447315
 20
4.073358322932958
 10
5.986459751914602
 20
4.06844444285384
 10
6.036766136384472
 20
4.0637847796107
 10
6.087072520854342
 20
4.059379215279684
 10
6.137378905324212
 20
4.055227638367523
 10
6.187685289794084
 20
4.051329943808688
 10
6.237991674263956
 20
4.047686032962763
 10
6.288298058733826
 20
4.04429581361192
 10
6.338604443203696
 20
4.041159199958604
 10
6.388910827673566
 20
4.038276112623347
 10
6.439217212143436
 20
4.035646478642776
 10
6.4895235966133065
 20
4.033270231467753
 10
6.539829981083177
 20
4.031147310961698
 10
6.5901363655530485
 20
4.029277663399058
 10
6.640442750022919
 20
4.027661241463962
 10
6.6907491344927905
 20
4.026298004249009
 10
6.741055518962661
 20
4.025187917254243
 10
6.791361903432531
 20
4.024330952386275
 10
6.841668287902401
 20
4.0237270879575675
 10
6.891974672372271
 20
4.0233763086859025
 10
6.942281056842143
 20
4.023278605693972
 10
6.992587441312013
 20
4.023433976509172
 10
7.042893825781885
 20
4.023842425063533
 10
7.093200210251755
 20
4.024503961693808
 10
7.143506594721625
 20
4.025418603141764
 10
7.193812979191495
 20
4.0265863725545685
 10
7.244119363661365
 20
4.028007299485406
 10
7.294425748131237
 20
4.029681419894207
 10
7.344732132601109
 20
4.031608776148568
 10
7.395038517070979
 20
4.0337894170248205
 10
7.4453449015408495
 20
4.0362233977092625
 10
7.49565128601072
 20
4.0389107797995605
 10
7.54595767048059
 20
4.041851631306306
 10
7.59626405495046
 20
4.045046026654733
 10
7.64657043942033
 20
4.04849404668661
 10
7.696876823890202
 20
4.052195778662277
 10
7.747183208360072
 20
4.056151316262859
 10
7.797489592829944
 20
4.060360759592639
 10
7.847795977299814
 20
4.064824215181577
 10
7.898102361769684
 20
4.069541795988032
 10
7.948408746239554
 20
4.074513621401592
 10
7.998715130709424
 20
4.07973981724612
 10
8.049021515179296
 20
4.085220515782919
 10
8.099327899649166
 20
4.090955855714089
 10
8.149634284119037
 20
4.096945982186043
 10
8.199940668588908
 20
4.103191046793162
 10
8.250247053058779
 20
4.109691207581649
 10
8.300553437528649
 20
4.116446629053523
 10
8.35085982199852
 20
4.123457482170776
 10
8.40116620646839
 20
4.130723944359711
 10
8.45147259093826
 20
4.138246199515418
 10
8.501778975408133
 20
4.146024438006446
 10
8.552085359878003
 20
4.154058856679601
 10
8.602391744347873
 20
4.162349658864946
 10
8.652698128817743
 20
4.170897054380931
 10
8.703004513287615
 20
4.179701259539714
 10
8.753310897757485
 20
4.188762497152629
 10
8.803617282227355
 20
4.198080996535831
 10
8.853923666697227
 20
4.207656993516089
 10
8.904230051167097
 20
4.217490730436769
 10
8.954536435636967
 20
4.227582456163949
 10
9.004842820106838
 20
4.237932426092737
 10
9.055149204576708
 20
4.248540902153715
 10
9.105455589046578
 20
4.259408152819586
 10
9.155761973516448
 20
4.270534453111949
 10
9.20606835798632
 20
4.281920084608282
 10
9.25637474245619
 20
4.293565335449044
 10
9.30668112692606
 20
4.305470500344981
 10
9.35698751139593
 20
4.317635880584589
 10
9.407293895865802
 20
4.330061784041728
 10
9.457600280335672
 20
4.342748525183408
 10
9.507906664805542
 20
4.355696425077773
 10
9.558213049275414
 20
4.368905811402195
 10
9.608519433745284
 20
4.382377018451589
 10
9.658825818215155
 20
4.396110387146868
 10
9.709132202685026
 20
4.410106265043561
 10
9.759438587154897
 20
4.42436500634062
 10
9.809744971624767
 20
4.438886971889384
 10
9.860051356094637
 20
4.453672529202701
 10
9.910357740564509
 20
4.468722052464238
 10
9.960664125034379
 20
4.484035922537948
 10
10.010970509504249
 20
4.499614526977704
 10
10.06127689397412
 20
4.51545826003712
 10
10.111583278443991
 20
4.531567522679509
 10
10.161889662913861
 20
4.54794272258805
 10
10.212196047383731
 20
4.564584274176093
 10
10.262502431853603
 20
4.581492598597652
 10
10.312808816323473
 20
4.598668123758056
 10
10.363115200793343
 20
4.616111284324793
 10
10.413421585263215
 20
4.633822521738491
 10
10.463727969733085
 20
4.651802284224107
 10
10.514034354202956
 20
4.67005102680226
 10
10.564340738672827
 20
4.68856921130075
 10
10.614647123142698
 20
4.707357306366244
 10
10.664953507612568
 20
4.726415787476141
 10
10.715259892082438
 20
4.745745136950599
 10
10.76556627655231
 20
4.765345843964743
 10
10.81587266102218
 20
4.785218404561045
 10
10.86617904549205
 20
4.805363321661882
 10
10.916485429961922
 20
4.825781105082251
 10
10.966791814431792
 20
4.846472271542693
 10
11.017098198901662
 20
4.867437344682344
 10
11.067404583371532
 20
4.888676855072205
 10
11.117710967841402
 20
4.910191340228565
 10
11.168017352311272
 20
4.931981344626601
 10
11.218323736781143
 20
4.954047419714158
 10
11.268630121251014
 20
4.976390123925709
 10
11.318936505720885
 20
4.9990100226964795
 10
11.369242890190755
 20
5.0219076884767695
 10
11.419549274660627
 20
5.045083700746429
 10
11.469855659130497
 20
5.068538646029523
 10
11.520162043600367
 20
5.09227311790919
 10
11.570468428070237
 20
5.11628771704264
 10
11.620774812540109
 20
5.1405830511763835
 10
11.671081197009979
 20
5.165159735161586
 10
11.72138758147985
 20
5.1900183909696445
 10
11.771693965949721
 20
5.215159647707923
 10
11.822000350419591
 20
5.240584141635671
 10
11.872306734889461
 20
5.266292516180129
 10
11.922613119359331
 20
5.2922854219528155
 10
11.972919503829203
 20
5.318563516765984
 10
12.023225888299073
 20
5.345127465649275
 10
12.073532272768944
 20
5.371977940866546
 10
12.123838657238815
 20
5.3991156219328795
 10
12.174145041708686
 20
5.4265411956317955
 10
12.224451426178556
 20
5.454255356032611
 10
12.274757810648426
 20
5.482258804508023
 10
12.325064195118298
 20
5.510552249751843
 10
12.375370579588168
 20
5.539136407796946
 10
12.425676964058038
 20
5.56801200203338
 10
12.47598334852791
 20
5.597179763226685
 10
12.52628973299778
 20
5.626640429536376
 10
12.57659611746765
 20
5.656394746534628
 10
12.626902501937522
 20
5.686443467225148
 10
12.677208886407392
 20
5.716787352062223
 10
12.727515270877262
 20
5.747427168969974
 10
12.777821655347132
 20
5.778363693361781
 10
12.828128039817004
 20
5.809597708159924
 10
12.878434424286874
 20
5.841130003815371
 10
12.928740808756745
 20
5.872961378327803
 10
12.979047193226615
 20
5.905092637265803
 10
13.029353577696485
 20
5.937524593787238
 10
13.079659962166355
 20
5.970258068659842
 10
13.129966346636225
 20
6.003293890281993
 10
13.180272731106097
 20
6.036632894703673
 10
13.230579115575967
 20
6.070275925647611
 10
13.280885500045837
 20
6.104223834530664
 10
13.33119188451571
 20
6.138477480485349
 10
13.38149826898558
 20
6.173037730381576
 10
13.43180465345545
 20
6.207905458848608
 10
13.482111037925321
 20
6.24308154829718
 10
13.532417422395191
 20
6.278566888941828
 10
13.582723806865062
 20
6.314362378823432
 10
13.633030191334932
 20
6.350468923831936
 10
13.683336575804804
 20
6.3868874377292695
 10
13.733642960274674
 20
6.423618842172476
 10
13.783949344744544
 20
6.4606640667370385
 10
13.834255729214416
 20
6.498024048940407
 10
13.884562113684286
 20
6.535699734265719
 10
13.934868498154156
 20
6.573692076185729
 10
13.985174882624026
 20
6.612002036186939
 10
14.035481267093898
 20
6.650630583793937
 10
14.085787651563768
 20
6.689578696593919
 10
14.136094036033638
 20
6.72884736026144
 10
14.18640042050351
 20
6.768437568583366
 10
14.23670680497338
 20
6.808350323483998
 10
14.28701318944325
 20
6.848586635050459
 10
14.33731957391312
 20
6.889147521558239
 10
14.387625958382992
 20
6.9300340094969615
 10
14.437932342852863
 20
6.971247133596372
 10
14.488238727322733
 20
7.012787936852527
 10
14.538545111792605
 20
7.054657470554173
 10
14.588851496262475
 20
7.096856794309366
 10
14.639157880732345
 20
7.139386976072282
 10
14.689464265202217
 20
7.182249092170247
 10
14.739770649672087
 20
7.225444227330973
 10
14.790077034141957
 20
7.26897347471001
 10
14.840383418611827
 20
7.312837935918415
 10
14.890689803081699
 20
7.357038721050624
 10
14.940996187551569
 20
7.401576948712547
 10
14.99130257202144
 20
7.4464537460498885
 10
15.04160895649131
 20
7.491670248776656
  0
LINE
  5
35
330
17
100
AcDbEntity
  8
MERGED_SUPPORTS
100
AcDbLine
 10
0.0
 20
1.5270867860910917
 30
0.0
 11
0.0
 21
6.5270867860910915
 31
0.0
  0
LINE
  5
36
330
17
100
AcDbEntity
  8
MERGED_SUPPORTS
100
AcDbLine
 10
15.04160895649131
 20
2.491670248776654
 30
0.0
 11
15.04160895649131
 21
7.4916702487766536
 31
0.0
  0
LWPOLYLINE
  5
37
330
17
100
AcDbEntity
  8
MERGED_GROUND
100
AcDbPolyline
 90
300
 70
0
 10
15.04160895649131
 20
2.491670248776654
 10
15.10180962538763
 20
2.4907611894816686
 10
15.162010294283952
 20
2.4894516821481782
 10
15.222210963180272
 20
2.487739591693047
 10
15.282411632076593
 20
2.4856228468798287
 10
15.342612300972915
 20
2.4830994370934256
 10
15.402812969869236
 20
2.4801674090248187
 10
15.463013638765556
 20
2.4768248632748397
 10
15.523214307661878
 20
2.473069950886486
 10
15.583414976558199
 20
2.4689008698159265
 10
15.64361564545452
 20
2.464315861352916
 10
15.703816314350842
 20
2.459313206501953
 10
15.764016983247162
 20
2.453891222336067
 10
15.824217652143483
 20
2.448048258335777
 10
15.884418321039805
 20
2.4417826927262736
 10
15.944618989936126
 20
2.4350929288264855
 10
16.004819658832446
 20
2.4279773914242613
 10
16.065020327728767
 20
2.4204345231923887
 10
16.12522099662509
 20
2.4124627811607704
 10
16.18542166552141
 20
2.4040606332605265
 10
16.24562233441773
 20
2.3952265549562948
 10
16.305823003314053
 20
2.3859590259834804
 10
16.366023672210375
 20
2.3762565272075973
 10
16.426224341106693
 20
2.366117537623271
 10
16.486425010003014
 20
2.3555405315108304
 10
16.546625678899336
 20
2.344523975768729
 10
16.606826347795657
 20
2.333066327440336
 10
16.66702701669198
 20
2.3211660314538674
 10
16.7272276855883
 20
2.3088215185944354
 10
16.78742835448462
 20
2.2960312037273063
 10
16.847629023380943
 20
2.2827934842915925
 10
16.90782969227726
 20
2.26910673908359
 10
16.968030361173582
 20
2.2549693273489817
 10
17.028231030069904
 20
2.2403795882030093
 10
17.088431698966225
 20
2.2253358403975887
 10
17.148632367862547
 20
2.2098363824540925
 10
17.208833036758868
 20
2.193879493180253
 10
17.26903370565519
 20
2.1774634325892444
 10
17.32923437455151
 20
2.1605864432385893
 10
17.389435043447833
 20
2.1432467520059912
 10
17.449635712344154
 20
2.125442572318583
 10
17.509836381240472
 20
2.1071721068514386
 10
17.570037050136794
 20
2.088433550710368
 10
17.630237719033115
 20
2.0692250951132176
 10
17.690438387929436
 20
2.049544931582922
 10
17.750639056825758
 20
2.029391256664543
 10
17.81083972572208
 20
2.008762277177424
 10
17.8710403946184
 20
1.9876562160123723
 10
17.93124106351472
 20
1.966071318482502
 10
17.99144173241104
 20
1.9440058592350205
 10
18.05164240130736
 20
1.921458149729729
 10
18.111843070203683
 20
1.8984265462885328
 10
18.172043739100005
 20
1.874909458718572
 10
18.232244407996326
 20
1.8509053595099232
 10
18.292445076892648
 20
1.8264127936070156
 10
18.35264574578897
 20
1.8014303887510514
 10
18.41284641468529
 20
1.7759568663888132
 10
18.473047083581612
 20
1.749991053141213
 10
18.53324775247793
 20
1.723531892822916
 10
18.59344842137425
 20
1.696578459002226
 10
18.653649090270573
 20
1.669129968088274
 10
18.713849759166894
 20
1.6411857929303277
 10
18.774050428063216
 20
1.612745476911782
 10
18.834251096959537
 20
1.5838087485191084
 10
18.89445176585586
 20
1.5543755363637164
 10
18.95465243475218
 20
1.5244459846323464
 10
19.0148531036485
 20
1.494020468939262
 10
19.07505377254482
 20
1.4630996125511688
 10
19.13525444144114
 20
1.431684302953409
 10
19.195455110337463
 20
1.3997757087236753
 10
19.255655779233784
 20
1.3673752966771642
 10
19.315856448130106
 20
1.334484849244793
 10
19.376057117026427
 20
1.3011064820438902
 10
19.43625778592275
 20
1.2672426615985497
 10
19.49645845481907
 20
1.232896223164742
 10
19.55665912371539
 20
1.1980703886131943
 10
19.616859792611713
 20
1.162768784321087
 10
19.67706046150803
 20
1.1269954590217282
 10
19.737261130404352
 20
1.0907549015595888
 10
19.797461799300674
 20
1.0540520584964077
 10
19.857662468196995
 20
1.016892351512531
 10
19.917863137093317
 20
0.9792816945462419
 10
19.97806380598964
 20
0.9412265106125491
 10
20.038264474885956
 20
0.9027337482418065
 10
20.098465143782278
 20
0.8638108974775545
 10
20.1586658126786
 20
0.8244660053722088
 10
20.21886648157492
 20
0.7847076909185828
 10
20.279067150471242
 20
0.744545159354848
 10
20.339267819367564
 20
0.7039882157802784
 10
20.399468488263885
 20
0.6630472780191015
 10
20.459669157160207
 20
0.6217333886699941
 10
20.519869826056528
 20
0.5800582262791099
 10
20.58007049495285
 20
0.538034115575193
 10
20.64027116384917
 20
0.49567403670613097
 10
20.70047183274549
 20
0.4529916334174018
 10
20.76067250164181
 20
0.4100012201141504
 10
20.820873170538132
 20
0.3667177877501807
 10
20.881073839434453
 20
0.3231570084888806
 10
20.941274508330775
 20
0.27933523908315916
 10
21.001475177227096
 20
0.23526952292363768
 10
21.061675846123418
 20
0.19097759070686138
 10
21.121876515019736
 20
0.146477859677957
 10
21.182077183916057
 20
0.10178943140509888
 10
21.24227785281238
 20
0.05693208804628491
 10
21.3024785217087
 20
0.011926287072262731
 10
21.36267919060502
 20
-0.03320684558695963
 10
21.422879859501343
 20
-0.07844552400085214
 10
21.483080528397664
 20
-0.12376731232720983
 10
21.543281197293986
 20
-0.16914913655183272
 10
21.603481866190307
 20
-0.2145672978954758
 10
21.66368253508663
 20
-0.25999748789999955
 10
21.72388320398295
 20
-0.30541480520109343
 10
21.78408387287927
 20
-0.35079377399014255
 10
21.84428454177559
 20
-0.39610836416299633
 10
21.90448521067191
 20
-0.4413320131483882
 10
21.964685879568233
 20
-0.48643764940374024
 10
22.024886548464554
 20
-0.5313977175609245
 10
22.085087217360876
 20
-0.5761842051994207
 10
22.145287886257197
 20
-0.6207686712190515
 10
22.205488555153515
 20
-0.6651222757792916
 10
22.265689224049837
 20
-0.7092158117668955
 10
22.325889892946158
 20
-0.7530197377483877
 10
22.38609056184248
 20
-0.7965042123588177
 10
22.4462912307388
 20
-0.8396391300730507
 10
22.506491899635122
 20
-0.8823941583008761
 10
22.566692568531444
 20
-0.924738775742267
 10
22.626893237427765
 20
-0.9666423119343633
 10
22.687093906324087
 20
-1.0080739879170442
 10
22.74729457522041
 20
-1.0490029579395224
 10
22.80749524411673
 20
-1.0893983521260002
 10
22.867695913013048
 20
-1.1292293200143868
 10
22.92789658190937
 20
-1.1684650748781054
 10
22.98809725080569
 20
-1.2070749387373858
 10
23.048297919702012
 20
-1.2450283879630228
 10
23.108498588598334
 20
-1.282295099372397
 10
23.16869925749465
 20
-1.318844996714728
 10
23.228899926390973
 20
-1.354648297439931
 10
23.289100595287294
 20
-1.3896755596431754
 10
23.349301264183616
 20
-1.4238977290753527
 10
23.409501933079937
 20
-1.4572861861080018
 10
23.46970260197626
 20
-1.4898127925400035
 10
23.52990327087258
 20
-1.5214499381324622
 10
23.590103939768902
 20
-1.552170586757591
 10
23.650304608665223
 20
-1.5819483220473025
 10
23.710505277561545
 20
-1.610757392427328
 10
23.770705946457866
 20
-1.6385727554232954
 10
23.830906615354188
 20
-1.6653701211260805
 10
23.89110728425051
 20
-1.6911259947051154
 10
23.951307953146827
 20
-1.7158177178599534
 10
24.01150862204315
 20
-1.7394235091024988
 10
24.07170929093947
 20
-1.7619225027646703
 10
24.13190995983579
 20
-1.7832947866290978
 10
24.192110628732113
 20
-1.8035214380835374
 10
24.25231129762843
 20
-1.8225845587031775
 10
24.312511966524752
 20
-1.840467307168825
 10
24.372712635421074
 20
-1.8571539304330402
 10
24.432913304317395
 20
-1.8726297930507811
 10
24.493113973213717
 20
-1.886881404595783
 10
24.55331464211004
 20
-1.8998964450889366
 10
24.61351531100636
 20
-1.9116637883701637
 10
24.67371597990268
 20
-1.9221735233508093
 10
24.733916648799003
 20
-1.9314169730892694
 10
24.794117317695324
 20
-1.9393867116385195
 10
24.854317986591646
 20
-1.9460765786202905
 10
24.914518655487967
 20
-1.9514816914869217
 10
24.97471932438429
 20
-1.95559845543831
 10
25.034919993280607
 20
-1.9584245709678791
 10
25.095120662176928
 20
-1.9599590390181163
 10
25.15532133107325
 20
-1.9602021637328586
 10
25.21552199996957
 20
-1.9591555528002527
 10
25.27572266886589
 20
-1.9568221153869998
 10
25.33592333776221
 20
-1.9532060576712453
 10
25.396124006658532
 20
-1.94831287598813
 10
25.456324675554853
 20
-1.9421493476086533
 10
25.516525344451175
 20
-1.9347235191790475
 10
25.576726013347496
 20
-1.9260446928542905
 10
25.636926682243818
 20
-1.9161234101656972
 10
25.69712735114014
 20
-1.9049714336686956
 10
25.75732802003646
 20
-1.8926017264228592
 10
25.817528688932782
 20
-1.8790284293620874
 10
25.877729357829104
 20
-1.8642668366183721
 10
25.937930026725425
 20
-1.8483333688679502
 10
25.998130695621747
 20
-1.8312455447737257
 10
26.058331364518068
 20
-1.8130219506026601
 10
26.118532033414386
 20
-1.7936822081013704
 10
26.178732702310707
 20
-1.7732469407174047
 10
26.23893337120703
 20
-1.751737738257587
 10
26.29913404010335
 20
-1.7291771200784085
 10
26.35933470899967
 20
-1.7055884969067079
 10
26.41953537789599
 20
-1.6809961313917894
 10
26.47973604679231
 20
-1.6554250974926852
 10
26.539936715688633
 20
-1.6289012388064568
 10
26.600137384584954
 20
-1.6014511259452795
 10
26.660338053481276
 20
-1.5731020130714854
 10
26.720538722377597
 20
-1.5438817937008769
 10
26.78073939127392
 20
-1.5138189558853026
 10
26.84094006017024
 20
-1.4829425368858653
 10
26.90114072906656
 20
-1.4512820774481179
 10
26.961341397962883
 20
-1.4188675757902205
 10
27.021542066859205
 20
-1.3857294414143198
 10
27.081742735755526
 20
-1.3518984488503052
 10
27.141943404651844
 20
-1.3174056914397076
 10
27.202144073548165
 20
-1.2822825352657343
 10
27.262344742444487
 20
-1.2465605733333884
 10
27.32254541134081
 20
-1.2102715801012085
 10
27.38274608023713
 20
-1.1734474664635302
 10
27.442946749133448
 20
-1.1361202352791948
 10
27.50314741802977
 20
-1.098321937539421
 10
27.56334808692609
 20
-1.060084629264098
 10
27.623548755822412
 20
-1.0214403292120349
 10
27.683749424718734
 20
-0.9824209774868169
 10
27.743950093615055
 20
-0.9430583951157853
 10
27.804150762511377
 20
-0.9033842446753898
 10
27.864351431407698
 20
-0.863429992031689
 10
27.92455210030402
 20
-0.8232268692602032
 10
27.98475276920034
 20
-0.7828058388046177
 10
28.044953438096663
 20
-0.7421975589290033
 10
28.105154106992984
 20
-0.7014323505133663
 10
28.165354775889305
 20
-0.6605401652373407
 10
28.225555444785623
 20
-0.6195505551918844
 10
28.285756113681945
 20
-0.5784926439537993
 10
28.345956782578266
 20
-0.5373950991528921
 10
28.406157451474588
 20
-0.4962861065565658
 10
28.466358120370906
 20
-0.455193345691689
 10
28.526558789267227
 20
-0.4141439670186454
 10
28.58675945816355
 20
-0.37316457066764397
 10
28.64696012705987
 20
-0.33228118674257157
 10
28.70716079595619
 20
-0.2915192571930355
 10
28.767361464852513
 20
-0.25090361925067706
 10
28.827562133748835
 20
-0.21045849042142362
 10
28.887762802645156
 20
-0.1702074550210928
 10
28.947963471541478
 20
-0.13017345223759536
 10
29.0081641404378
 20
-0.09037876569909364
 10
29.06836480933412
 20
-0.05084501452364509
 10
29.128565478230442
 20
-0.011593145822332174
 10
29.188766147126763
 20
0.027356571375570682
 10
29.248966816023085
 20
0.06598455080997434
 10
29.309167484919403
 20
0.10427189232747491
 10
29.369368153815724
 20
0.142200383909316
 10
29.429568822712046
 20
0.17975250243267082
 10
29.489769491608367
 20
0.21691141321044338
 10
29.549970160504685
 20
0.25366096835685026
 10
29.610170829401007
 20
0.28998570402792145
 10
29.670371498297328
 20
0.3258708365876747
 10
29.73057216719365
 20
0.3613022577521494
 10
29.79077283608997
 20
0.396266528764631
 10
29.850973504986293
 20
0.4307508736563852
 10
29.911174173882614
 20
0.46474317164792256
 10
29.971374842778935
 20
0.4982319487463701
 10
30.031575511675257
 20
0.5312063685947966
 10
30.09177618057158
 20
0.5636562226294688
 10
30.1519768494679
 20
0.595571919600896
 10
30.21217751836422
 20
0.6269444745142332
 10
30.272378187260543
 20
0.6577654970441515
 10
30.33257885615686
 20
0.6880271794785987
 10
30.392779525053182
 20
0.717722284245078
 10
30.452980193949504
 20
0.7468441310720629
 10
30.513180862845825
 20
0.7753865838370513
 10
30.573381531742147
 20
0.8033440371514708
 10
30.633582200638465
 20
0.8307114027312387
 10
30.693782869534786
 20
0.857484095600261
 10
30.753983538431108
 20
0.8836580201724886
 10
30.81418420732743
 20
0.9092295562564392
 10
30.87438487622375
 20
0.9341955450242305
 10
30.934585545120072
 20
0.9585532749852697
 10
30.994786214016393
 20
0.9823004680027588
 10
31.054986882912715
 20
1.005435265389138
 10
31.115187551809036
 20
1.027956214114485
 10
31.175388220705358
 20
1.049862253159771
 10
31.23558888960168
 20
1.0711527000447036
 10
31.295789558497997
 20
1.0918272375577183
 10
31.35599022739432
 20
1.1118859007134774
 10
31.41619089629064
 20
1.1313290639610507
 10
31.47639156518696
 20
1.1501574286637801
 10
31.536592234083283
 20
1.1683720108696427
 10
31.596792902979605
 20
1.1859741293887969
 10
31.656993571875926
 20
1.2029653941928826
 10
31.717194240772248
 20
1.219347695148571
 10
31.77739490966857
 20
1.23512319109584
 10
31.837595578564887
 20
1.2502942992794572
 10
31.89779624746121
 20
1.2648636851402661
 10
31.95799691635753
 20
1.2788342524709737
 10
32.01819758525385
 20
1.2922091339393995
 10
32.07839825415017
 20
1.3049916819803855
 10
32.138598923046494
 20
1.3171854600559627
 10
32.198799591942816
 20
1.328794234281791
 10
32.25900026083914
 20
1.3398219654164183
 10
32.31920092973546
 20
1.3502728012085208
 10
32.37940159863177
 20
1.3601510690959744
 10
32.4396022675281
 20
1.3694612692493893
 10
32.499802936424416
 20
1.3782080679516344
 10
32.560003605320745
 20
1.3863962913038184
 10
32.62020427421706
 20
1.3940309192472742
 10
32.68040494311339
 20
1.4011170798902286
 10
32.7406056120097
 20
1.407660044127081
 10
32.80080628090603
 20
1.4136652205375544
 10
32.861006949802345
 20
1.419138150552382
 10
32.921207618698666
 20
1.4240845038717165
 10
32.98140828759499
 20
1.4285100741220291
 10
33.04160895649131
 20
1.4324207747369426
  0
LWPOLYLINE
  5
38
330
17
100
AcDbEntity
  8
MERGED_CATENARY
100
AcDbPolyline
 90
300
 70
0
 10
15.04160895649131
 20
7.4916702487766536
 10
15.10180962538763
 20
7.4697231531068535
 10
15.162010294283952
 20
7.447904594923294
 10
15.222210963180272
 20
7.426214486366963
 10
15.282411632076593
 20
7.404652740096084
 10
15.342612300972915
 20
7.383219269285782
 10
15.402812969869236
 20
7.361913987627711
 10
15.463013638765556
 20
7.3407368093297265
 10
15.523214307661878
 20
7.319687649115522
 10
15.583414976558199
 20
7.298766422224294
 10
15.64361564545452
 20
7.277973044410411
 10
15.703816314350842
 20
7.2573074319430635
 10
15.764016983247162
 20
7.236769501605911
 10
15.824217652143483
 20
7.216359170696782
 10
15.884418321039805
 20
7.196076357027321
 10
15.944618989936126
 20
7.17592097892264
 10
16.004819658832446
 20
7.155892955221037
 10
16.065020327728767
 20
7.135992205273629
 10
16.12522099662509
 20
7.116218648944019
 10
16.18542166552141
 20
7.096572206608034
 10
16.24562233441773
 20
7.077052799153329
 10
16.305823003314053
 20
7.057660347979113
 10
16.366023672210375
 20
7.0383947749958375
 10
16.426224341106693
 20
7.019256002624852
 10
16.486425010003014
 20
7.000243953798105
 10
16.546625678899336
 20
6.9813585519578485
 10
16.606826347795657
 20
6.962599721056302
 10
16.66702701669198
 20
6.94396738555537
 10
16.7272276855883
 20
6.925461470426335
 10
16.78742835448462
 20
6.907081901149534
 10
16.847629023380943
 20
6.8888286037140904
 10
16.90782969227726
 20
6.8707015046175846
 10
16.968030361173582
 20
6.852700530865774
 10
17.028231030069904
 20
6.834825609972308
 10
17.088431698966225
 20
6.817076669958424
 10
17.148632367862547
 20
6.799453639352646
 10
17.208833036758868
 20
6.781956447190534
 10
17.26903370565519
 20
6.76458502301434
 10
17.32923437455151
 20
6.7473392968728
 10
17.389435043447833
 20
6.730219199320786
 10
17.449635712344154
 20
6.713224661419042
 10
17.509836381240472
 20
6.696355614733949
 10
17.570037050136794
 20
6.679611991337184
 10
17.630237719033115
 20
6.662993723805495
 10
17.690438387929436
 20
6.6465007452204095
 10
17.750639056825758
 20
6.630132989167974
 10
17.81083972572208
 20
6.613890389738463
 10
17.8710403946184
 20
6.597772881526165
 10
17.93124106351472
 20
6.581780399629054
 10
17.99144173241104
 20
6.56591287964857
 10
18.05164240130736
 20
6.550170257689365
 10
18.111843070203683
 20
6.534552470359007
 10
18.172043739100005
 20
6.5190594547677705
 10
18.232244407996326
 20
6.503691148528339
 10
18.292445076892648
 20
6.488447489755589
 10
18.35264574578897
 20
6.4733284170663286
 10
18.41284641468529
 20
6.458333869579052
 10
18.473047083581612
 20
6.443463786913677
 10
18.53324775247793
 20
6.42871810919133
 10
18.59344842137425
 20
6.4140967770340795
 10
18.653649090270573
 20
6.399599731564731
 10
18.713849759166894
 20
6.385226914406548
 10
18.774050428063216
 20
6.370978267683038
 10
18.834251096959537
 20
6.356853734017727
 10
18.89445176585586
 20
6.342853256533909
 10
18.95465243475218
 20
6.328976778854436
 10
19.0148531036485
 20
6.315224245101492
 10
19.07505377254482
 20
6.301595599896334
 10
19.13525444144114
 20
6.288090788359111
 10
19.195455110337463
 20
6.274709756108621
 10
19.255655779233784
 20
6.261452449262106
 10
19.315856448130106
 20
6.248318814435003
 10
19.376057117026427
 20
6.235308798740771
 10
19.43625778592275
 20
6.222422349790655
 10
19.49645845481907
 20
6.209659415693478
 10
19.55665912371539
 20
6.1970199450554375
 10
19.616859792611713
 20
6.184503886979873
 10
19.67706046150803
 20
6.172111191067113
 10
19.737261130404352
 20
6.15984180741421
 10
19.797461799300674
 20
6.147695686614805
 10
19.857662468196995
 20
6.135672779758861
 10
19.917863137093317
 20
6.123773038432518
 10
19.97806380598964
 20
6.1119964147178685
 10
20.038264474885956
 20
6.100342861192791
 10
20.098465143782278
 20
6.088812330930731
 10
20.1586658126786
 20
6.0774047775005275
 10
20.21886648157492
 20
6.066120154966215
 10
20.279067150471242
 20
6.05495841788686
 10
20.339267819367564
 20
6.04391952131635
 10
20.399468488263885
 20
6.033003420803249
 10
20.459669157160207
 20
6.022210072390573
 10
20.519869826056528
 20
6.01153943261564
 10
20.58007049495285
 20
6.00099145850991
 10
20.64027116384917
 20
5.990566107598772
 10
20.70047183274549
 20
5.980263337901405
 10
20.76067250164181
 20
5.970083107930593
 10
20.820873170538132
 20
5.96002537669257
 10
20.881073839434453
 20
5.9500901036868425
 10
20.941274508330775
 20
5.940277248906039
 10
21.001475177227096
 20
5.930586772835726
 10
21.061675846123418
 20
5.9210186364542805
 10
21.121876515019736
 20
5.911572801232721
 10
21.182077183916057
 20
5.902249229134526
 10
21.24227785281238
 20
5.89304788261553
 10
21.3024785217087
 20
5.883968724623716
 10
21.36267919060502
 20
5.87501171859913
 10
21.422879859501343
 20
5.866176828473677
 10
21.483080528397664
 20
5.857464018671001
 10
21.543281197293986
 20
5.848873254106348
 10
21.603481866190307
 20
5.840404500186402
 10
21.66368253508663
 20
5.832057722809177
 10
21.72388320398295
 20
5.8238328883638495
 10
21.78408387287927
 20
5.81572996373064
 10
21.84428454177559
 20
5.807748916280677
 10
21.90448521067191
 20
5.799889713875867
 10
21.964685879568233
 20
5.792152324868747
 10
22.024886548464554
 20
5.784536718102398
 10
22.085087217360876
 20
5.777042862910271
 10
22.145287886257197
 20
5.769670729116099
 10
22.205488555153515
 20
5.762420287033754
 10
22.265689224049837
 20
5.755291507467144
 10
22.325889892946158
 20
5.748284361710086
 10
22.38609056184248
 20
5.741398821546195
 10
22.4462912307388
 20
5.734634859248766
 10
22.506491899635122
 20
5.727992447580652
 10
22.566692568531444
 20
5.721471559794189
 10
22.626893237427765
 20
5.715072169631041
 10
22.687093906324087
 20
5.708794251322149
 10
22.74729457522041
 20
5.702637779587554
 10
22.80749524411673
 20
5.696602729636386
 10
22.867695913013048
 20
5.690689077166686
 10
22.92789658190937
 20
5.684896798365349
 10
22.98809725080569
 20
5.679225869908011
 10
23.048297919702012
 20
5.6736762689589675
 10
23.108498588598334
 20
5.668247973171079
 10
23.16869925749465
 20
5.662940960685665
 10
23.228899926390973
 20
5.65775521013244
 10
23.289100595287294
 20
5.652690700629428
 10
23.349301264183616
 20
5.647747411782829
 10
23.409501933079937
 20
5.642925323687011
 10
23.46970260197626
 20
5.638224416924382
 10
23.52990327087258
 20
5.633644672565317
 10
23.590103939768902
 20
5.629186072168086
 10
23.650304608665223
 20
5.624848597778806
 10
23.710505277561545
 20
5.6206322319313085
 10
23.770705946457866
 20
5.61653695764714
 10
23.830906615354188
 20
5.612562758435427
 10
23.89110728425051
 20
5.6087096182928615
 10
23.951307953146827
 20
5.604977521703612
 10
24.01150862204315
 20
5.601366453639269
 10
24.07170929093947
 20
5.597876399558768
 10
24.13190995983579
 20
5.594507345408362
 10
24.192110628732113
 20
5.591259277621523
 10
24.25231129762843
 20
5.588132183118941
 10
24.312511966524752
 20
5.585126049308422
 10
24.372712635421074
 20
5.582240864084856
 10
24.432913304317395
 20
5.579476615830174
 10
24.493113973213717
 20
5.576833293413297
 10
24.55331464211004
 20
5.574310886190084
 10
24.61351531100636
 20
5.5719093840033125
 10
24.67371597990268
 20
5.569628777182601
 10
24.733916648799003
 20
5.5674690565443985
 10
24.794117317695324
 20
5.565430213391938
 10
24.854317986591646
 20
5.563512239515198
 10
24.914518655487967
 20
5.561715127190885
 10
24.97471932438429
 20
5.56003886918238
 10
25.034919993280607
 20
5.5584834587397225
 10
25.095120662176928
 20
5.5570488895995895
 10
25.15532133107325
 20
5.555735155985242
 10
25.21552199996957
 20
5.554542252606551
 10
25.27572266886589
 20
5.55347017465992
 10
25.33592333776221
 20
5.552518917828301
 10
25.396124006658532
 20
5.55168847828118
 10
25.456324675554853
 20
5.550978852674538
 10
25.516525344451175
 20
5.5503900381508515
 10
25.576726013347496
 20
5.549922032339087
 10
25.636926682243818
 20
5.549574833354665
 10
25.69712735114014
 20
5.549348439799495
 10
25.75732802003646
 20
5.549242850761935
 10
25.817528688932782
 20
5.549258065816791
 10
25.877729357829104
 20
5.549394085025341
 10
25.937930026725425
 20
5.549650908935306
 10
25.998130695621747
 20
5.550028538580854
 10
26.058331364518068
 20
5.550526975482633
 10
26.118532033414386
 20
5.551146221647752
 10
26.178732702310707
 20
5.551886279569782
 10
26.23893337120703
 20
5.552747152228807
 10
26.29913404010335
 20
5.553728843091381
 10
26.35933470899967
 20
5.554831356110568
 10
26.41953537789599
 20
5.556054695725989
 10
26.47973604679231
 20
5.557398866863785
 10
26.539936715688633
 20
5.558863874936653
 10
26.600137384584954
 20
5.560449725843912
 10
26.660338053481276
 20
5.56215642597145
 10
26.720538722377597
 20
5.56398398219182
 10
26.78073939127392
 20
5.565932401864231
 10
26.84094006017024
 20
5.568001692834579
 10
26.90114072906656
 20
5.570191863435485
 10
26.961341397962883
 20
5.572502922486342
 10
27.021542066859205
 20
5.574934879293318
 10
27.081742735755526
 20
5.577487743649434
 10
27.141943404651844
 20
5.580161525834553
 10
27.202144073548165
 20
5.582956236615475
 10
27.262344742444487
 20
5.585871887245945
 10
27.32254541134081
 20
5.5889084894667125
 10
27.38274608023713
 20
5.592066055505576
 10
27.442946749133448
 20
5.595344598077416
 10
27.50314741802977
 20
5.598744130384294
 10
27.56334808692609
 20
5.602264666115433
 10
27.623548755822412
 20
5.605906219447345
 10
27.683749424718734
 20
5.6096688050438415
 10
27.743950093615055
 20
5.613552438056109
 10
27.804150762511377
 20
5.61755713412277
 10
27.864351431407698
 20
5.621682909369941
 10
27.92455210030402
 20
5.625929780411303
 10
27.98475276920034
 20
5.630297764348158
 10
28.044953438096663
 20
5.634786878769522
 10
28.105154106992984
 20
5.63939714175217
 10
28.165354775889305
 20
5.644128571860709
 10
28.225555444785623
 20
5.648981188147668
 10
28.285756113681945
 20
5.653955010153588
 10
28.345956782578266
 20
5.659050057907056
 10
28.406157451474588
 20
5.664266351924818
 10
28.466358120370906
 20
5.66960391321186
 10
28.526558789267227
 20
5.675062763261489
 10
28.58675945816355
 20
5.680642924055395
 10
28.64696012705987
 20
5.686344418063802
 10
28.70716079595619
 20
5.692167268245488
 10
28.767361464852513
 20
5.698111498047913
 10
28.827562133748835
 20
5.704177131407326
 10
28.887762802645156
 20
5.710364192748816
 10
28.947963471541478
 20
5.716672706986459
 10
29.0081641404378
 20
5.723102699523395
 10
29.06836480933412
 20
5.729654196251932
 10
29.128565478230442
 20
5.736327223553648
 10
29.188766147126763
 20
5.743121808299501
 10
29.248966816023085
 20
5.750037977849938
 10
29.309167484919403
 20
5.7570757600550015
 10
29.369368153815724
 20
5.764235183254449
 10
29.429568822712046
 20
5.7715162762778665
 10
29.489769491608367
 20
5.7789190684447655
 10
29.549970160504685
 20
5.786443589564723
 10
29.610170829401007
 20
5.794089869937499
 10
29.670371498297328
 20
5.8018579403531545
 10
29.73057216719365
 20
5.8097478320921585
 10
29.79077283608997
 20
5.81775957692555
 10
29.850973504986293
 20
5.825893207115042
 10
29.911174173882614
 20
5.834148755413144
 10
29.971374842778935
 20
5.842526255063323
 10
30.031575511675257
 20
5.851025739800106
 10
30.09177618057158
 20
5.859647243849231
 10
30.1519768494679
 20
5.8683908019277915
 10
30.21217751836422
 20
5.877256449244365
 10
30.272378187260543
 20
5.886244221499162
 10
30.33257885615686
 20
5.895354154884149
 10
30.392779525053182
 20
5.904586286083231
 10
30.452980193949504
 20
5.91394065227237
 10
30.513180862845825
 20
5.923417291119746
 10
30.573381531742147
 20
5.933016240785916
 10
30.633582200638465
 20
5.942737539923932
 10
30.693782869534786
 20
5.952581227679556
 10
30.753983538431108
 20
5.962547343691353
 10
30.81418420732743
 20
5.972635928090915
 10
30.87438487622375
 20
5.982847021502964
 10
30.934585545120072
 20
5.99318066504555
 10
30.994786214016393
 20
6.00363690033022
 10
31.054986882912715
 20
6.014215769462147
 10
31.115187551809036
 20
6.02491731504035
 10
31.175388220705358
 20
6.035741580157836
 10
31.23558888960168
 20
6.046688608401767
 10
31.295789558497997
 20
6.0577584438536665
 10
31.35599022739432
 20
6.068951131089566
 10
31.41619089629064
 20
6.080266715180205
 10
31.47639156518696
 20
6.091705241691194
 10
31.536592234083283
 20
6.103266756683217
 10
31.596792902979605
 20
6.114951306712197
 10
31.656993571875926
 20
6.12675893882952
 10
31.717194240772248
 20
6.1386897005821695
 10
31.77739490966857
 20
6.150743640012957
 10
31.837595578564887
 20
6.162920805660715
 10
31.89779624746121
 20
6.175221246560478
 10
31.95799691635753
 20
6.1876450122436815
 10
32.01819758525385
 20
6.200192152738378
 10
32.07839825415017
 20
6.212862718569405
 10
32.138598923046494
 20
6.225656760758637
 10
32.198799591942816
 20
6.238574330825138
 10
32.25900026083914
 20
6.251615480785402
 10
32.31920092973546
 20
6.264780263153558
 10
32.37940159863177
 20
6.2780687309415795
 10
32.4396022675281
 20
6.291480937659504
 10
32.499802936424416
 20
6.3050169373156155
 10
32.560003605320745
 20
6.318676784416713
 10
32.62020427421706
 20
6.332460533968289
 10
32.68040494311339
 20
6.346368241474787
 10
32.7406056120097
 20
6.360399962939773
 10
32.80080628090603
 20
6.374555754866218
 10
32.861006949802345
 20
6.38883567425669
 10
32.921207618698666
 20
6.403239778613605
 10
32.98140828759499
 20
6.417768125939427
 10
33.04160895649131
 20
6.432420774736944
  0
LINE
  5
39
330
17
100
AcDbEntity
  8
MERGED_SUPPORTS
100
AcDbLine
 10
33.04160895649131
 20
1.4324207747369426
 30
0.0
 11
33.04160895649131
 21
6.432420774736943
 31
0.0
  0
ENDSEC
  0
SECTION
  2
OBJECTS
  0
DICTIONARY
  5
A
330
0
100
AcDbDictionary
281
1
  3
ACAD_COLOR
350
B
  3
ACAD_GROUP
350
C
  3
ACAD_LAYOUT
350
D
  3
ACAD_MATERIAL
350
E
  3
ACAD_MLEADERSTYLE
350
F
  3
ACAD_MLINESTYLE
350
10
  3
ACAD_PLOTSETTINGS
350
11
  3
ACAD_PLOTSTYLENAME
350
12
  3
ACAD_SCALELIST
350
14
  3
ACAD_TABLESTYLE
350
15
  3
ACAD_VISUALSTYLE
350
16
  3
EZDXF_META
350
2D
  0
DICTIONARY
  5
B
330
A
100
AcDbDictionary
281
1
  0
DICTIONARY
  5
C
330
A
100
AcDbDictionary
281
1
  0
DICTIONARY
  5
D
330
A
100
AcDbDictionary
281
1
  3
Model
350
1A
  3
Layout1
350
1E
  0
DICTIONARY
  5
E
330
A
100
AcDbDictionary
281
1
  3
ByBlock
350
1F
  3
ByLayer
350
20
  3
Global
350
21
  0
DICTIONARY
  5
F
330
A
100
AcDbDictionary
281
1
  3
Standard
350
2C
  0
DICTIONARY
  5
10
330
A
100
AcDbDictionary
281
1
  3
Standard
350
22
  0
DICTIONARY
  5
11
330
A
100
AcDbDictionary
281
1
  0
ACDBDICTIONARYWDFLT
  5
12
330
A
100
AcDbDictionary
281
1
  3
Normal
350
13
100
AcDbDictionaryWithDefault
340
13
  0
ACDBPLACEHOLDER
  5
13
330
12
  0
DICTIONARY
  5
14
330
A
100
AcDbDictionary
281
1
  0
DICTIONARY
  5
15
330
A
100
AcDbDictionary
281
1
  0
DICTIONARY
  5
16
330
A
100
AcDbDictionary
281
1
  0
LAYOUT
  5
1A
330
D
100
AcDbPlotSettings
  1

  4
A3
  6

 40
7.5
 41
20.0
 42
7.5
 43
20.0
 44
420.0
 45
297.0
 46
0.0
 47
0.0
 48
0.0
 49
0.0
140
0.0
141
0.0
142
1.0
143
1.0
 70
1024
 72
1
 73
0
 74
5
  7

 75
16
 76
0
 77
2
 78
300
147
1.0
148
0.0
149
0.0
100
AcDbLayout
  1
Model
 70
1
 71
0
 10
0.0
 20
0.0
 11
420.0
 21
297.0
 12
0.0
 22
0.0
 32
0.0
 14
1e+20
 24
1e+20
 34
1e+20
 15
-1e+20
 25
-1e+20
 35
-1e+20
146
0.0
 13
0.0
 23
0.0
 33
0.0
 16
1.0
 26
0.0
 36
0.0
 17
0.0
 27
1.0
 37
0.0
 76
1
330
17
  0
LAYOUT
  5
1E
330
D
100
AcDbPlotSettings
  1

  4
A3
  6

 40
7.5
 41
20.0
 42
7.5
 43
20.0
 44
420.0
 45
297.0
 46
0.0
 47
0.0
 48
0.0
 49
0.0
140
0.0
141
0.0
142
1.0
143
1.0
 70
0
 72
1
 73
0
 74
5
  7

 75
16
 76
0
 77
2
 78
300
147
1.0
148
0.0
149
0.0
100
AcDbLayout
  1
Layout1
 70
1
 71
1
 10
0.0
 20
0.0
 11
420.0
 21
297.0
 12
0.0
 22
0.0
 32
0.0
 14
1e+20
 24
1e+20
 34
1e+20
 15
-1e+20
 25
-1e+20
 35
-1e+20
146
0.0
 13
0.0
 23
0.0
 33
0.0
 16
1.0
 26
0.0
 36
0.0
 17
0.0
 27
1.0
 37
0.0
 76
1
330
1B
  0
MATERIAL
  5
1F
102
{ACAD_REACTORS
330
E
102
}
330
E
100
AcDbMaterial
  1
ByBlock
  2

 70
0
 40
1.0
 71
1
 41
1.0
 91
-1023410177
 42
1.0
 72
1
  3

 73
1
 74
1
 75
1
 44
0.5
 73
0
 45
1.0
 46
1.0
 77
1
  4

 78
1
 79
1
170
1
 48
1.0
171
1
  6

172
1
173
1
174
1
140
1.0
141
1.0
175
1
  7

176
1
177
1
178
1
143
1.0
179
1
  8

270
1
271
1
272
1
145
1.0
146
1.0
273
1
  9

274
1
275
1
276
1
 42
1.0
 72
1
  3

 73
1
 74
1
 75
1
 94
63
  0
MATERIAL
  5
20
102
{ACAD_REACTORS
330
E
102
}
330
E
100
AcDbMaterial
  1
ByLayer
  2

 70
0
 40
1.0
 71
1
 41
1.0
 91
-1023410177
 42
1.0
 72
1
  3

 73
1
 74
1
 75
1
 44
0.5
 73
0
 45
1.0
 46
1.0
 77
1
  4

 78
1
 79
1
170
1
 48
1.0
171
1
  6

172
1
173
1
174
1
140
1.0
141
1.0
175
1
  7

176
1
177
1
178
1
143
1.0
179
1
  8

270
1
271
1
272
1
145
1.0
146
1.0
273
1
  9

274
1
275
1
276
1
 42
1.0
 72
1
  3

 73
1
 74
1
 75
1
 94
63
  0
MATERIAL
  5
21
102
{ACAD_REACTORS
330
E
102
}
330
E
100
AcDbMaterial
  1
Global
  2

 70
0
 40
1.0
 71
1
 41
1.0
 91
-1023410177
 42
1.0
 72
1
  3

 73
1
 74
1
 75
1
 44
0.5
 73
0
 45
1.0
 46
1.0
 77
1
  4

 78
1
 79
1
170
1
 48
1.0
171
1
  6

172
1
173
1
174
1
140
1.0
141
1.0
175
1
  7

176
1
177
1
178
1
143
1.0
179
1
  8

270
1
271
1
272
1
145
1.0
146
1.0
273
1
  9

274
1
275
1
276
1
 42
1.0
 72
1
  3

 73
1
 74
1
 75
1
 94
63
  0
MLINESTYLE
  5
22
102
{ACAD_REACTORS
330
10
102
}
330
10
100
AcDbMlineStyle
  2
Standard
 70
0
  3

 62
256
 51
90.0
 52
90.0
 71
2
 49
0.5
 62
256
  6
BYLAYER
 49
-0.5
 62
256
  6
BYLAYER
  0
MLEADERSTYLE
  5
2C
102
{ACAD_REACTORS
330
F
102
}
330
F
100
AcDbMLeaderStyle
179
2
170
2
171
1
172
0
 90
2
 40
0.0
 41
0.0
173
1
 91
-1056964608
 92
-2
290
1
 42
2.0
291
1
 43
8.0
  3
Standard
 44
4.0
300

342
29
174
1
175
1
176
0
178
1
 93
-1056964608
 45
4.0
292
0
297
0
 46
4.0
 94
-1056964608
 47
1.0
 49
1.0
140
1.0
294
1
141
0.0
177
0
142
1.0
295
0
296
0
143
3.75
271
0
272
9
273
9
  0
DICTIONARY
  5
2D
330
A
100
AcDbDictionary
280
1
281
1
  3
CREATED_BY_EZDXF
350
2E
  3
WRITTEN_BY_EZDXF
350
3C
  0
DICTIONARYVAR
  5
2E
330
2D
100
DictionaryVariables
280
0
  1
1.4.4 @ 2026-05-20T10:09:16.824533+00:00
  0
DICTIONARYVAR
  5
3C
330
2D
100
DictionaryVariables
280
0
  1
1.4.4 @ 2026-05-20T10:09:16.859186+00:00
  0
ENDSEC
  0
EOF
