  0
SECTION
  2
HEADER
  9
$ACADVER
  1
AC1024
  9
$ACADMAINTVER
 70
6
  9
$DWGCODEPAGE
  3
ANSI_1252
  9
$LASTSAVEDBY
  1
ezdxf
  9
$INSBASE
 10
0.0
 20
0.0
 30
0.0
  9
$EXTMIN
 10
1e+20
 20
1e+20
 30
1e+20
  9
$EXTMAX
 10
-1e+20
 20
-1e+20
 30
-1e+20
  9
$LIMMIN
 10
0.0
 20
0.0
  9
$LIMMAX
 10
420.0
 20
297.0
  9
$ORTHOMODE
 70
0
  9
$REGENMODE
 70
1
  9
$FILLMODE
 70
1
  9
$QTEXTMODE
 70
0
  9
$MIRRTEXT
 70
1
  9
$LTSCALE
 40
1.0
  9
$ATTMODE
 70
1
  9
$TEXTSIZE
 40
2.5
  9
$TRACEWID
 40
1.0
  9
$TEXTSTYLE
  7
Standard
  9
$CLAYER
  8
0
  9
$CELTYPE
  6
ByLayer
  9
$CECOLOR
 62
256
  9
$CELTSCALE
 40
1.0
  9
$DISPSILH
 70
0
  9
$DIMSCALE
 40
1.0
  9
$DIMASZ
 40
2.5
  9
$DIMEXO
 40
0.625
  9
$DIMDLI
 40
3.75
  9
$DIMRND
 40
0.0
  9
$DIMDLE
 40
0.0
  9
$DIMEXE
 40
1.25
  9
$DIMTP
 40
0.0
  9
$DIMTM
 40
0.0
  9
$DIMTXT
 40
2.5
  9
$DIMCEN
 40
2.5
  9
$DIMTSZ
 40
0.0
  9
$DIMTOL
 70
0
  9
$DIMLIM
 70
0
  9
$DIMTIH
 70
0
  9
$DIMTOH
 70
0
  9
$DIMSE1
 70
0
  9
$DIMSE2
 70
0
  9
$DIMTAD
 70
1
  9
$DIMZIN
 70
8
  9
$DIMBLK
  1

  9
$DIMASO
 70
1
  9
$DIMSHO
 70
1
  9
$DIMPOST
  1

  9
$DIMAPOST
  1

  9
$DIMALT
 70
0
  9
$DIMALTD
 70
3
  9
$DIMALTF
 40
0.03937007874
  9
$DIMLFAC
 40
1.0
  9
$DIMTOFL
 70
1
  9
$DIMTVP
 40
0.0
  9
$DIMTIX
 70
0
  9
$DIMSOXD
 70
0
  9
$DIMSAH
 70
0
  9
$DIMBLK1
  1

  9
$DIMBLK2
  1

  9
$DIMSTYLE
  2
ISO-25
  9
$DIMCLRD
 70
0
  9
$DIMCLRE
 70
0
  9
$DIMCLRT
 70
0
  9
$DIMTFAC
 40
1.0
  9
$DIMGAP
 40
0.625
  9
$DIMJUST
 70
0
  9
$DIMSD1
 70
0
  9
$DIMSD2
 70
0
  9
$DIMTOLJ
 70
0
  9
$DIMTZIN
 70
8
  9
$DIMALTZ
 70
0
  9
$DIMALTTZ
 70
0
  9
$DIMUPT
 70
0
  9
$DIMDEC
 70
2
  9
$DIMTDEC
 70
2
  9
$DIMALTU
 70
2
  9
$DIMALTTD
 70
3
  9
$DIMTXSTY
  7
Standard
  9
$DIMAUNIT
 70
0
  9
$DIMADEC
 70
0
  9
$DIMALTRND
 40
0.0
  9
$DIMAZIN
 70
0
  9
$DIMDSEP
 70
44
  9
$DIMATFIT
 70
3
  9
$DIMFRAC
 70
0
  9
$DIMLDRBLK
  1

  9
$DIMLUNIT
 70
2
  9
$DIMLWD
 70
-2
  9
$DIMLWE
 70
-2
  9
$DIMTMOVE
 70
0
  9
$DIMFXL
 40
1.0
  9
$DIMFXLON
 70
0
  9
$DIMJOGANG
 40
0.785398163397
  9
$DIMTFILL
 70
0
  9
$DIMTFILLCLR
 70
0
  9
$DIMARCSYM
 70
0
  9
$DIMLTYPE
  6

  9
$DIMLTEX1
  6

  9
$DIMLTEX2
  6

  9
$DIMTXTDIRECTION
 70
0
  9
$LUNITS
 70
2
  9
$LUPREC
 70
4
  9
$SKETCHINC
 40
1.0
  9
$FILLETRAD
 40
10.0
  9
$AUNITS
 70
0
  9
$AUPREC
 70
2
  9
$MENU
  1
.
  9
$ELEVATION
 40
0.0
  9
$PELEVATION
 40
0.0
  9
$THICKNESS
 40
0.0
  9
$LIMCHECK
 70
0
  9
$CHAMFERA
 40
0.0
  9
$CHAMFERB
 40
0.0
  9
$CHAMFERC
 40
0.0
  9
$CHAMFERD
 40
0.0
  9
$SKPOLY
 70
0
  9
$TDCREATE
 40
2461181.463923611
  9
$TDUCREATE
 40
2458532.153996898
  9
$TDUPDATE
 40
2461181.463923611
  9
$TDUUPDATE
 40
2458532.1544311
  9
$TDINDWG
 40
0.0
  9
$TDUSRTIMER
 40
0.0
  9
$USRTIMER
 70
1
  9
$ANGBASE
 50
0.0
  9
$ANGDIR
 70
0
  9
$PDMODE
 70
0
  9
$PDSIZE
 40
0.0
  9
$PLINEWID
 40
0.0
  9
$SPLFRAME
 70
0
  9
$SPLINETYPE
 70
6
  9
$SPLINESEGS
 70
8
  9
$HANDSEED
  5
40
  9
$SURFTAB1
 70
6
  9
$SURFTAB2
 70
6
  9
$SURFTYPE
 70
6
  9
$SURFU
 70
6
  9
$SURFV
 70
6
  9
$UCSBASE
  2

  9
$UCSNAME
  2

  9
$UCSORG
 10
0.0
 20
0.0
 30
0.0
  9
$UCSXDIR
 10
1.0
 20
0.0
 30
0.0
  9
$UCSYDIR
 10
0.0
 20
1.0
 30
0.0
  9
$UCSORTHOREF
  2

  9
$UCSORTHOVIEW
 70
0
  9
$UCSORGTOP
 10
0.0
 20
0.0
 30
0.0
  9
$UCSORGBOTTOM
 10
0.0
 20
0.0
 30
0.0
  9
$UCSORGLEFT
 10
0.0
 20
0.0
 30
0.0
  9
$UCSORGRIGHT
 10
0.0
 20
0.0
 30
0.0
  9
$UCSORGFRONT
 10
0.0
 20
0.0
 30
0.0
  9
$UCSORGBACK
 10
0.0
 20
0.0
 30
0.0
  9
$PUCSBASE
  2

  9
$PUCSNAME
  2

  9
$PUCSORG
 10
0.0
 20
0.0
 30
0.0
  9
$PUCSXDIR
 10
1.0
 20
0.0
 30
0.0
  9
$PUCSYDIR
 10
0.0
 20
1.0
 30
0.0
  9
$PUCSORTHOREF
  2

  9
$PUCSORTHOVIEW
 70
0
  9
$PUCSORGTOP
 10
0.0
 20
0.0
 30
0.0
  9
$PUCSORGBOTTOM
 10
0.0
 20
0.0
 30
0.0
  9
$PUCSORGLEFT
 10
0.0
 20
0.0
 30
0.0
  9
$PUCSORGRIGHT
 10
0.0
 20
0.0
 30
0.0
  9
$PUCSORGFRONT
 10
0.0
 20
0.0
 30
0.0
  9
$PUCSORGBACK
 10
0.0
 20
0.0
 30
0.0
  9
$USERI1
 70
0
  9
$USERI2
 70
0
  9
$USERI3
 70
0
  9
$USERI4
 70
0
  9
$USERI5
 70
0
  9
$USERR1
 40
0.0
  9
$USERR2
 40
0.0
  9
$USERR3
 40
0.0
  9
$USERR4
 40
0.0
  9
$USERR5
 40
0.0
  9
$WORLDVIEW
 70
1
  9
$SHADEDGE
 70
3
  9
$SHADEDIF
 70
70
  9
$TILEMODE
 70
1
  9
$MAXACTVP
 70
64
  9
$PINSBASE
 10
0.0
 20
0.0
 30
0.0
  9
$PLIMCHECK
 70
0
  9
$PEXTMIN
 10
1e+20
 20
1e+20
 30
1e+20
  9
$PEXTMAX
 10
-1e+20
 20
-1e+20
 30
-1e+20
  9
$PLIMMIN
 10
0.0
 20
0.0
  9
$PLIMMAX
 10
420.0
 20
297.0
  9
$UNITMODE
 70
0
  9
$VISRETAIN
 70
1
  9
$PLINEGEN
 70
0
  9
$PSLTSCALE
 70
1
  9
$TREEDEPTH
 70
3020
  9
$CMLSTYLE
  2
Standard
  9
$CMLJUST
 70
0
  9
$CMLSCALE
 40
20.0
  9
$PROXYGRAPHICS
 70
1
  9
$MEASUREMENT
 70
1
  9
$CELWEIGHT
370
-1
  9
$ENDCAPS
280
0
  9
$JOINSTYLE
280
0
  9
$LWDISPLAY
290
0
  9
$INSUNITS
 70
6
  9
$HYPERLINKBASE
  1

  9
$STYLESHEET
  1

  9
$XEDIT
290
1
  9
$CEPSNTYPE
380
0
  9
$PSTYLEMODE
290
1
  9
$FINGERPRINTGUID
  2
{9A8D6D52-243F-4D75-AF0A-158B3130AD68}
  9
$VERSIONGUID
  2
{4FBB19A8-28DF-46EF-A025-38A29CCB1F26}
  9
$EXTNAMES
290
1
  9
$PSVPSCALE
 40
0.0
  9
$OLESTARTUP
290
0
  9
$SORTENTS
280
127
  9
$INDEXCTL
280
0
  9
$HIDETEXT
280
1
  9
$XCLIPFRAME
280
1
  9
$HALOGAP
280
0
  9
$OBSCOLOR
 70
257
  9
$OBSLTYPE
280
0
  9
$INTERSECTIONDISPLAY
280
0
  9
$INTERSECTIONCOLOR
 70
257
  9
$DIMASSOC
280
2
  9
$PROJECTNAME
  1

  9
$CAMERADISPLAY
290
0
  9
$LENSLENGTH
 40
50.0
  9
$CAMERAHEIGHT
 40
0.0
  9
$STEPSPERSEC
 40
24.0
  9
$STEPSIZE
 40
100.0
  9
$3DDWFPREC
 40
2.0
  9
$PSOLWIDTH
 40
0.005
  9
$PSOLHEIGHT
 40
0.08
  9
$LOFTANG1
 40
1.570796326795
  9
$LOFTANG2
 40
1.570796326795
  9
$LOFTMAG1
 40
0.0
  9
$LOFTMAG2
 40
0.0
  9
$LOFTPARAM
 70
7
  9
$LOFTNORMALS
280
1
  9
$LATITUDE
 40
37.795
  9
$LONGITUDE
 40
-122.394
  9
$NORTHDIRECTION
 40
0.0
  9
$TIMEZONE
 70
-8000
  9
$LIGHTGLYPHDISPLAY
280
1
  9
$TILEMODELIGHTSYNCH
280
1
  9
$CMATERIAL
347
20
  9
$SOLIDHIST
280
0
  9
$SHOWHIST
280
1
  9
$DWFFRAME
280
2
  9
$DGNFRAME
280
2
  9
$REALWORLDSCALE
290
1
  9
$INTERFERECOLOR
 62
256
  9
$CSHADOW
280
0
  9
$SHADOWPLANELOCATION
 40
0.0
  0
ENDSEC
  0
SECTION
  2
CLASSES
  0
CLASS
  1
ACDBDICTIONARYWDFLT
  2
AcDbDictionaryWithDefault
  3
ObjectDBX Classes
 90
0
 91
0
280
0
281
0
  0
CLASS
  1
SUN
  2
AcDbSun
  3
SCENEOE
 90
1153
 91
0
280
0
281
0
  0
CLASS
  1
VISUALSTYLE
  2
AcDbVisualStyle
  3
ObjectDBX Classes
 90
4095
 91
0
280
0
281
0
  0
CLASS
  1
MATERIAL
  2
AcDbMaterial
  3
ObjectDBX Classes
 90
1153
 91
0
280
0
281
0
  0
CLASS
  1
SCALE
  2
AcDbScale
  3
ObjectDBX Classes
 90
1153
 91
0
280
0
281
0
  0
CLASS
  1
TABLESTYLE
  2
AcDbTableStyle
  3
ObjectDBX Classes
 90
4095
 91
0
280
0
281
0
  0
CLASS
  1
MLEADERSTYLE
  2
AcDbMLeaderStyle
  3
ACDB_MLEADERSTYLE_CLASS
 90
4095
 91
0
280
0
281
0
  0
CLASS
  1
DICTIONARYVAR
  2
AcDbDictionaryVar
  3
ObjectDBX Classes
 90
0
 91
0
280
0
281
0
  0
CLASS
  1
CELLSTYLEMAP
  2
AcDbCellStyleMap
  3
ObjectDBX Classes
 90
1152
 91
0
280
0
281
0
  0
CLASS
  1
MENTALRAYRENDERSETTINGS
  2
AcDbMentalRayRenderSettings
  3
SCENEOE
 90
1024
 91
0
280
0
281
0
  0
CLASS
  1
ACDBDETAILVIEWSTYLE
  2
AcDbDetailViewStyle
  3
ObjectDBX Classes
 90
1025
 91
0
280
0
281
0
  0
CLASS
  1
ACDBSECTIONVIEWSTYLE
  2
AcDbSectionViewStyle
  3
ObjectDBX Classes
 90
1025
 91
0
280
0
281
0
  0
CLASS
  1
RASTERVARIABLES
  2
AcDbRasterVariables
  3
ISM
 90
0
 91
0
280
0
281
0
  0
CLASS
  1
ACDBPLACEHOLDER
  2
AcDbPlaceHolder
  3
ObjectDBX Classes
 90
0
 91
0
280
0
281
0
  0
CLASS
  1
LAYOUT
  2
AcDbLayout
  3
ObjectDBX Classes
 90
0
 91
0
280
0
281
0
  0
ENDSEC
  0
SECTION
  2
TABLES
  0
TABLE
  2
VPORT
  5
8
330
0
100
AcDbSymbolTable
 70
1
  0
VPORT
  5
23
330
8
100
AcDbSymbolTableRecord
100
AcDbViewportTableRecord
  2
*Active
 70
0
 10
0.0
 20
0.0
 11
1.0
 21
1.0
 12
0.0
 22
0.0
 13
0.0
 23
0.0
 14
0.5
 24
0.5
 15
0.5
 25
0.5
 16
0.0
 26
0.0
 36
1.0
 17
0.0
 27
0.0
 37
0.0
 40
1000.0
 41
1.34
 42
50.0
 43
0.0
 44
0.0
 50
0.0
 51
0.0
 71
0
 72
1000
 73
1
 74
3
 75
0
 76
0
 77
0
 78
0
281
0
 65
0
146
0.0
  0
ENDTAB
  0
TABLE
  2
LTYPE
  5
2
330
0
100
AcDbSymbolTable
 70
3
  0
LTYPE
  5
24
330
2
100
AcDbSymbolTableRecord
100
AcDbLinetypeTableRecord
  2
ByBlock
 70
0
  3

 72
65
 73
0
 40
0.0
  0
LTYPE
  5
25
330
2
100
AcDbSymbolTableRecord
100
AcDbLinetypeTableRecord
  2
ByLayer
 70
0
  3

 72
65
 73
0
 40
0.0
  0
LTYPE
  5
26
330
2
100
AcDbSymbolTableRecord
100
AcDbLinetypeTableRecord
  2
Continuous
 70
0
  3

 72
65
 73
0
 40
0.0
  0
ENDTAB
  0
TABLE
  2
LAYER
  5
1
330
0
100
AcDbSymbolTable
 70
6
  0
LAYER
  5
27
330
1
100
AcDbSymbolTableRecord
100
AcDbLayerTableRecord
  2
0
 70
0
 62
7
  6
Continuous
370
-3
390
13
347
21
  0
LAYER
  5
28
330
1
100
AcDbSymbolTableRecord
100
AcDbLayerTableRecord
  2
Defpoints
 70
0
 62
7
  6
Continuous
290
0
370
-3
390
13
347
21
  0
LAYER
  5
2F
330
1
100
AcDbSymbolTableRecord
100
AcDbLayerTableRecord
  2
MERGED_GROUND
 70
0
 62
7
  6
Continuous
370
-3
390
13
347
21
  0
LAYER
  5
30
330
1
100
AcDbSymbolTableRecord
100
AcDbLayerTableRecord
  2
MERGED_CATENARY
 70
0
 62
7
  6
Continuous
370
-3
390
13
347
21
  0
LAYER
  5
31
330
1
100
AcDbSymbolTableRecord
100
AcDbLayerTableRecord
  2
MERGED_SUPPORTS
 70
0
 62
7
  6
Continuous
370
-3
390
13
347
21
  0
LAYER
  5
32
330
1
100
AcDbSymbolTableRecord
100
AcDbLayerTableRecord
  2
MERGED_LABELS
 70
0
 62
7
  6
Continuous
370
-3
390
13
347
21
  0
ENDTAB
  0
TABLE
  2
STYLE
  5
5
330
0
100
AcDbSymbolTable
 70
1
  0
STYLE
  5
29
330
5
100
AcDbSymbolTableRecord
100
AcDbTextStyleTableRecord
  2
Standard
 70
0
 40
0.0
 41
1.0
 50
0.0
 71
0
 42
2.5
  3
txt
  4

  0
ENDTAB
  0
TABLE
  2
VIEW
  5
7
330
0
100
AcDbSymbolTable
 70
0
  0
ENDTAB
  0
TABLE
  2
UCS
  5
6
330
0
100
AcDbSymbolTable
 70
0
  0
ENDTAB
  0
TABLE
  2
APPID
  5
3
330
0
100
AcDbSymbolTable
 70
3
  0
APPID
  5
2A
330
3
100
AcDbSymbolTableRecord
100
AcDbRegAppTableRecord
  2
ACAD
 70
0
  0
APPID
  5
3D
330
3
100
AcDbSymbolTableRecord
100
AcDbRegAppTableRecord
  2
HATCHBACKGROUNDCOLOR
 70
0
  0
APPID
  5
3E
330
3
100
AcDbSymbolTableRecord
100
AcDbRegAppTableRecord
  2
EZDXF
 70
0
  0
ENDTAB
  0
TABLE
  2
DIMSTYLE
  5
4
330
0
100
AcDbSymbolTable
 70
1
100
AcDbDimStyleTable
  0
DIMSTYLE
105
2B
330
4
100
AcDbSymbolTableRecord
100
AcDbDimStyleTableRecord
  2
Standard
 70
0
 40
1.0
 41
2.5
 42
0.625
 43
3.75
 44
1.25
 45
0.0
 46
0.0
 47
0.0
 48
0.0
 49
2.5
140
2.5
141
2.5
142
0.0
143
0.03937007874
144
1.0
145
0.0
146
1.0
147
0.625
148
0.0
 69
0
 70
0
 71
0
 72
0
 73
0
 74
0
 75
0
 76
0
 77
1
 78
8
 79
3
170
0
171
3
172
1
173
0
174
0
175
0
176
0
177
0
178
0
179
2
271
2
272
2
273
2
274
3
275
0
276
0
277
2
278
44
279
0
280
0
281
0
282
0
283
0
284
8
285
0
286
0
288
0
289
3
290
0
371
-2
372
-2
  0
ENDTAB
  0
TABLE
  2
BLOCK_RECORD
  5
9
330
0
100
AcDbSymbolTable
 70
2
  0
BLOCK_RECORD
  5
17
330
9
100
AcDbSymbolTableRecord
100
AcDbBlockTableRecord
  2
*Model_Space
340
1A
 70
0
280
1
281
0
  0
BLOCK_RECORD
  5
1B
330
9
100
AcDbSymbolTableRecord
100
AcDbBlockTableRecord
  2
*Paper_Space
340
1E
 70
0
280
1
281
0
  0
ENDTAB
  0
ENDSEC
  0
SECTION
  2
BLOCKS
  0
BLOCK
  5
18
330
17
100
AcDbEntity
  8
0
100
AcDbBlockBegin
  2
*Model_Space
 70
0
 10
0.0
 20
0.0
 30
0.0
  3
*Model_Space
  1

  0
ENDBLK
  5
19
330
17
100
AcDbEntity
  8
0
100
AcDbBlockEnd
  0
BLOCK
  5
1C
330
1B
100
AcDbEntity
  8
0
100
AcDbBlockBegin
  2
*Paper_Space
 70
0
 10
0.0
 20
0.0
 30
0.0
  3
*Paper_Space
  1

  0
ENDBLK
  5
1D
330
1B
100
AcDbEntity
  8
0
100
AcDbBlockEnd
  0
ENDSEC
  0
SECTION
  2
ENTITIES
  0
LWPOLYLINE
  5
33
330
17
100
AcDbEntity
  8
MERGED_GROUND
100
AcDbPolyline
 90
300
 70
0
 10
0.0
 20
1.5270933903714035
 10
0.050306384469870326
 20
1.5278062330404965
 10
0.10061276893974197
 20
1.5283045001105988
 10
0.1509191534096123
 20
1.5285888775954355
 10
0.2012255378794826
 20
1.528660172631107
 10
0.2515319223493526
 20
1.5285193133079764
 10
0.3018383068192246
 20
1.5281673484113094
 10
0.3521446912890946
 20
1.5276054470709086
 10
0.40245107575896494
 20
1.5268348983200608
 10
0.4527574602288353
 20
1.5258571105642458
 10
0.5030638446987069
 20
1.524673610960114
 10
0.5533702291685773
 20
1.5232860447053558
 10
0.6036766136384476
 20
1.5216961742401767
 10
0.6539829981083193
 20
1.5199058783611756
 10
0.7042893825781896
 20
1.5179171512485221
 10
0.75459576704806
 20
1.5157321014074145
 10
0.80490215151793
 20
1.5133529505248906
 10
0.855208535987802
 20
1.5107820322431427
 10
0.905514920457672
 20
1.5080217908505855
 10
0.9558213049275424
 20
1.505074779891993
 10
1.0061276893974127
 20
1.501943660699113
 10
1.0564340738672844
 20
1.4986312008432403
 10
1.1067404583371547
 20
1.4951402725113068
 10
1.157046842807025
 20
1.4914738508071252
 10
1.207353227276895
 20
1.4876350119794821
 10
1.2576596117467669
 20
1.4836269315788673
 10
1.3079659962166372
 20
1.4794528825446691
 10
1.3582723806865071
 20
1.4751162332247423
 10
1.408578765156379
 20
1.4706204453293188
 10
1.4588851496262494
 20
1.4659690718212808
 10
1.5091915340961193
 20
1.4611657547448744
 10
1.5594979185659896
 20
1.4562142229950017
 10
1.6098043030358613
 20
1.4511182900292672
 10
1.6601106875057317
 20
1.445881851525012
 10
1.710417071975602
 20
1.4405088829835981
 10
1.760723456445472
 20
1.4350034372842662
 10
1.8110298409153438
 20
1.4293696421899078
 10
1.8613362253852141
 20
1.4236116978071356
 10
1.911642609855084
 20
1.4177338740030645
 10
1.9619489943249544
 20
1.4117405077812468
 10
2.0122553787948263
 20
1.4056360006192214
 10
2.0625617632646964
 20
1.3994248157701636
 10
2.1128681477345665
 20
1.3931114755311331
 10
2.163174532204438
 20
1.3867005584804464
 10
2.213480916674308
 20
1.3801966966866865
 10
2.2637873011441783
 20
1.3736045728918922
 10
2.3140936856140484
 20
1.366928917671457
 10
2.3644000700839185
 20
1.3601745065732904
 10
2.41470645455379
 20
1.3533461572387537
 10
2.46501283902366
 20
1.3464487265079206
 10
2.515319223493532
 20
1.3394871075116714
 10
2.565625607963402
 20
1.332466226753135
 10
2.6159319924332722
 20
1.3253910411809642
 10
2.6662383769031424
 20
1.3182665352569278
 10
2.7165447613730125
 20
1.311097718020264
 10
2.7668511458428844
 20
1.303889620151228
 10
2.8171575303127545
 20
1.2966472910362368
 10
2.8674639147826246
 20
1.2893757958369745
 10
2.9177702992524965
 20
1.282080212565808
 10
2.9680766837223667
 20
1.2747656291698017
 10
3.018383068192237
 20
1.2674371406256129
 10
3.068689452662107
 20
1.2600998460474724
 10
3.118995837131979
 20
1.2527588458104508
 10
3.169302221601849
 20
1.2454192386911302
 10
3.219608606071719
 20
1.2380861190277803
 10
3.269914990541589
 20
1.2307645739020696
 10
3.320221375011461
 20
1.223459680344304
 10
3.370527759481331
 20
1.2161765025641231
 10
3.4208341439512013
 20
1.2089200892085294
 10
3.4711405284210715
 20
1.2016954706490754
 10
3.521446912890943
 20
1.1945076562999661
 10
3.571753297360813
 20
1.1873616319687799
 10
3.622059681830683
 20
1.1802623572414406
 10
3.672366066300555
 20
1.173214762903033
 10
3.722672450770425
 20
1.1662237483959503
 10
3.7729788352402953
 20
1.1592941793168436
 10
3.8232852197101654
 20
1.1524308849537355
 10
3.8735916041800356
 20
1.1456386558646268
 10
3.9238979886499075
 20
1.1389222414988267
 10
3.9742043731197776
 20
1.132286347862204
 10
4.024510757589649
 20
1.125735635227449
 10
4.074817142059519
 20
1.1192747158903995
 10
4.125123526529389
 20
1.1129081519733999
 10
4.175429910999259
 20
1.106640453276594
 10
4.2257362954691295
 20
1.1004760751779858
 10
4.2760426799390014
 20
1.0944194165830312
 10
4.326349064408872
 20
1.088474817924462
 10
4.3766554488787435
 20
1.0826465592129626
 10
4.426961833348614
 20
1.0769388581392612
 10
4.477268217818484
 20
1.0713558682281326
 10
4.527574602288354
 20
1.0659016770447312
 10
4.577880986758224
 20
1.0605803044536228
 10
4.628187371228094
 20
1.055395700930803
 10
4.678493755697964
 20
1.0503517459289398
 10
4.728800140167836
 20
1.045452246296009
 10
4.779106524637708
 20
1.0407009347474292
 10
4.829412909107578
 20
1.036101468391747
 10
4.879719293577448
 20
1.0316574273098598
 10
4.930025678047318
 20
1.0273723131877117
 10
4.9803320625171885
 20
1.0232495480023365
 10
5.03063844698706
 20
1.0192924727610784
 10
5.0809448314569305
 20
1.0155043462937516
 10
5.1312512159268024
 20
1.0118883440974664
 10
5.181557600396673
 20
1.0084475572337994
 10
5.231863984866543
 20
1.00518499127792
 10
5.282170369336413
 20
1.0021035653192725
 10
5.332476753806283
 20
0.9992061110133406
 10
5.382783138276155
 20
0.9964953716839983
 10
5.433089522746025
 20
0.9939740014759101
 10
5.483395907215897
 20
0.9916445645564036
 10
5.533702291685767
 20
0.9895095343662077
 10
5.584008676155637
 20
0.9875712929184138
 10
5.634315060625507
 20
0.9858321301449959
 10
5.684621445095377
 20
0.9842942432901892
 10
5.7349278295652475
 20
0.9829597363500092
 10
5.785234214035118
 20
0.9818306195571689
 10
5.8355405985049895
 20
0.9809088089106317
 10
5.885846982974861
 20
0.9801961257490172
 10
5.9361533674447315
 20
0.979694296367071
 10
5.986459751914602
 20
0.9794049516743838
 10
6.036766136384472
 20
0.9793296268955453
 10
6.087072520854342
 20
0.9794697613109075
 10
6.137378905324212
 20
0.9798266980371172
 10
6.187685289794084
 20
0.9804016838465929
 10
6.237991674263956
 20
0.9811958690250965
 10
6.288298058733826
 20
0.9822103072665711
 10
6.338604443203696
 20
0.9834459556044047
 10
6.388910827673566
 20
0.9849036743782948
 10
6.439217212143436
 20
0.986584227235885
 10
6.4895235966133065
 20
0.988488281168368
 10
6.539829981083177
 20
0.9906164065792417
 10
6.5901363655530485
 20
0.9929690773854379
 10
6.640442750022919
 20
0.9955466711500407
 10
6.6907491344927905
 20
0.9983494692458336
 10
6.741055518962661
 20
1.0013776570489403
 10
6.791361903432531
 20
1.0046313241618292
 10
6.841668287902401
 20
1.00811046466498
 10
6.891974672372271
 20
1.0118149773965335
 10
6.942281056842143
 20
1.0157446662592717
 10
6.992587441312013
 20
1.0198992405542826
 10
7.042893825781885
 20
1.0242783153407213
 10
7.093200210251755
 20
1.0288814118210698
 10
7.143506594721625
 20
1.0337079577513566
 10
7.193812979191495
 20
1.0387572878758005
 10
7.244119363661365
 20
1.0440286443853943
 10
7.294425748131237
 20
1.0495211773999527
 10
7.344732132601109
 20
1.0552339454731943
 10
7.395038517070979
 20
1.0611659161204543
 10
7.4453449015408495
 20
1.0673159663686493
 10
7.49565128601072
 20
1.073682883328151
 10
7.54595767048059
 20
1.0802653647862581
 10
7.59626405495046
 20
1.087062019821987
 10
7.64657043942033
 20
1.09407136944192
 10
7.696876823890202
 20
1.1012918472369053
 10
7.747183208360072
 20
1.1087218000594046
 10
7.797489592829944
 20
1.1163594887213322
 10
7.847795977299814
 20
1.1242030887122554
 10
7.898102361769684
 20
1.1322506909378458
 10
7.948408746239554
 20
1.140500302478511
 10
7.998715130709424
 20
1.1489498473681483
 10
8.049021515179296
 20
1.1575971673930023
 10
8.099327899649166
 20
1.1664400229106182
 10
8.149634284119037
 20
1.1754760936889195
 10
8.199940668588908
 20
1.1847029797654474
 10
8.250247053058779
 20
1.1941182023268293
 10
8.300553437528649
 20
1.2037192046085576
 10
8.35085982199852
 20
1.2135033528151802
 10
8.40116620646839
 20
1.2234679370610153
 10
8.45147259093826
 20
1.2336101723315267
 10
8.501778975408133
 20
1.2439271994654937
 10
8.552085359878003
 20
1.2544160861581342
 10
8.602391744347873
 20
1.2650738279853402
 10
8.652698128817743
 20
1.275897349449193
 10
8.703004513287615
 20
1.2868835050449365
 10
8.753310897757485
 20
1.298029080349569
 10
8.803617282227355
 20
1.3093307931322518
 10
8.853923666697227
 20
1.3207852944866934
 10
8.904230051167097
 20
1.3323891699856831
 10
8.954536435636967
 20
1.3441389408579487
 10
9.004842820106838
 20
1.3560310651874858
 10
9.055149204576708
 20
1.368061939135517
 10
9.105455589046578
 20
1.3802278981852127
 10
9.155761973516448
 20
1.3925252184092978
 10
9.20606835798632
 20
1.404950117760653
 10
9.25637474245619
 20
1.4174987573860003
 10
9.30668112692606
 20
1.4301672429627388
 10
9.35698751139593
 20
1.4429516260589867
 10
9.407293895865802
 20
1.4558479055168372
 10
9.457600280335672
 20
1.468852028858844
 10
9.507906664805542
 20
1.4819598937176959
 10
9.558213049275414
 20
1.4951673492890178
 10
9.608519433745284
 20
1.5084701978072197
 10
9.658825818215155
 20
1.5218641960442567
 10
9.709132202685026
 20
1.5353450568311504
 10
9.759438587154897
 20
1.5489084506020683
 10
9.809744971624767
 20
1.5625500069607428
 10
9.860051356094637
 20
1.5762653162689477
 10
9.910357740564509
 20
1.5900499312567222
 10
9.960664125034379
 20
1.6038993686539975
 10
10.010970509504249
 20
1.6178091108432275
 10
10.06127689397412
 20
1.6317746075325827
 10
10.111583278443991
 20
1.6457912774492367
 10
10.161889662913861
 20
1.659854510052205
 10
10.212196047383731
 20
1.6739596672641788
 10
10.262502431853603
 20
1.6881020852217279
 10
10.312808816323473
 20
1.7022770760432093
 10
10.363115200793343
 20
1.716479929613681
 10
10.413421585263215
 20
1.7307059153860544
 10
10.463727969733085
 20
1.7449502841976856
 10
10.514034354202956
 20
1.7592082701015646
 10
10.564340738672827
 20
1.7734750922111961
 10
10.614647123142698
 20
1.7877459565582363
 10
10.664953507612568
 20
1.8020160579619064
 10
10.715259892082438
 20
1.8162805819091392
 10
10.76556627655231
 20
1.8305347064443993
 10
10.81587266102218
 20
1.8447736040680476
 10
10.86617904549205
 20
1.8589924436421024
 10
10.916485429961922
 20
1.8731863923021936
 10
10.966791814431792
 20
1.8873506173744663
 10
11.017098198901662
 20
1.9014802882961719
 10
11.067404583371532
 20
1.9155705785386186
 10
11.117710967841402
 20
1.929616667531143
 10
11.168017352311272
 20
1.9436137425847206
 10
11.218323736781143
 20
1.9575570008138037
 10
11.268630121251014
 20
1.9714416510549415
 10
11.318936505720885
 20
1.9852629157807224
 10
11.369242890190755
 20
1.9990160330075388
 10
11.419549274660627
 20
2.012696258195658
 10
11.469855659130497
 20
2.026298866140063
 10
11.520162043600367
 20
2.039819152850518
 10
11.570468428070237
 20
2.0532524374192644
 10
11.620774812540109
 20
2.066594063874789
 10
11.671081197009979
 20
2.0798394030200487
 10
11.72138758147985
 20
2.0929838542535673
 10
11.771693965949721
 20
2.1060228473717766
 10
11.822000350419591
 20
2.118951844351004
 10
11.872306734889461
 20
2.1317663411074927
 10
11.922613119359331
 20
2.1444618692338464
 10
11.972919503829203
 20
2.1570339977102906
 10
12.023225888299073
 20
2.1694783345891677
 10
12.073532272768944
 20
2.181790528651071
 10
12.123838657238815
 20
2.1939662710310635
 10
12.174145041708686
 20
2.206001296813417
 10
12.224451426178556
 20
2.2178913865933576
 10
12.274757810648426
 20
2.2296323680042858
 10
12.325064195118298
 20
2.241220117209023
 10
12.375370579588168
 20
2.2526505603535942
 10
12.425676964058038
 20
2.263919674982161
 10
12.47598334852791
 20
2.2750234914116914
 10
12.52628973299778
 20
2.2859580940650304
 10
12.57659611746765
 20
2.2967196227610582
 10
12.626902501937522
 20
2.3073042739606686
 10
12.677208886407392
 20
2.3177083019673392
 10
12.727515270877262
 20
2.3279280200811314
 10
12.777821655347132
 20
2.3379598017049847
 10
12.828128039817004
 20
2.347800081402238
 10
12.878434424286874
 20
2.3574453559043516
 10
12.928740808756745
 20
2.366892185067895
 10
12.979047193226615
 20
2.376137192779862
 10
13.029353577696485
 20
2.3851770678105173
 10
13.079659962166355
 20
2.3940085646129594
 10
13.129966346636225
 20
2.4026285040687227
 10
13.180272731106097
 20
2.41103377417876
 10
13.230579115575967
 20
2.419221330699237
 10
13.280885500045837
 20
2.427188197721643
 10
13.33119188451571
 20
2.4349314681967873
 10
13.38149826898558
 20
2.4424483044023195
 10
13.43180465345545
 20
2.4497359383535233
 10
13.482111037925321
 20
2.456791672157145
 10
13.532417422395191
 20
2.4636128783081688
 10
13.582723806865062
 20
2.470196999929488
 10
13.633030191334932
 20
2.4765415509544972
 10
13.683336575804804
 20
2.4826441162527515
 10
13.733642960274674
 20
2.4885023516988745
 10
13.783949344744544
 20
2.4941139841850166
 10
13.834255729214416
 20
2.4994768115772312
 10
13.884562113684286
 20
2.5045887026162252
 10
13.934868498154156
 20
2.50944759676302
 10
13.985174882624026
 20
2.514051503990166
 10
14.035481267093898
 20
2.518398504519202
 10
14.085787651563768
 20
2.52248674850518
 10
14.136094036033638
 20
2.5263144556691204
 10
14.18640042050351
 20
2.529879914879394
 10
14.23670680497338
 20
2.533181483683051
 10
14.28701318944325
 20
2.536217587788284
 10
14.33731957391312
 20
2.5389867204992176
 10
14.387625958382992
 20
2.541487442104347
 10
14.437932342852863
 20
2.543718379220035
 10
14.488238727322733
 20
2.5456782240905333
 10
14.538545111792605
 20
2.5473657338460876
 10
14.588851496262475
 20
2.5487797297207897
 10
14.639157880732345
 20
2.549919096231884
 10
14.689464265202217
 20
2.5507827803223373
 10
14.739770649672087
 20
2.5513697904685593
 10
14.790077034141957
 20
2.551679195755232
 10
14.840383418611827
 20
2.551710124919276
 10
14.890689803081699
 20
2.55146176536507
 10
14.940996187551569
 20
2.550933362153104
 10
14.99130257202144
 20
2.550124216964313
 10
15.04160895649131
 20
2.5490336870424017
  0
LWPOLYLINE
  5
34
330
17
100
AcDbEntity
  8
MERGED_CATENARY
100
AcDbPolyline
 90
300
 70
0
 10
0.0
 20
6.5270933903714035
 10
0.050306384469870326
 20
6.517852670601993
 10
0.10061276893974197
 20
6.508697707009303
 10
0.1509191534096123
 20
6.499628473850252
 10
0.2012255378794826
 20
6.490644945622832
 10
0.2515319223493526
 20
6.4817470970660445
 10
0.3018383068192246
 20
6.472934903159788
 10
0.3521446912890946
 20
6.4642083391248395
 10
0.40245107575896494
 20
6.455567380422753
 10
0.4527574602288353
 20
6.447012002755786
 10
0.5030638446987069
 20
6.438542182066859
 10
0.5533702291685773
 20
6.430157894539468
 10
0.6036766136384476
 20
6.421859116597628
 10
0.6539829981083193
 20
6.413645824905787
 10
0.7042893825781896
 20
6.405517996368779
 10
0.75459576704806
 20
6.39747560813176
 10
0.80490215151793
 20
6.389518637580132
 10
0.855208535987802
 20
6.381647062339493
 10
0.905514920457672
 20
6.373860860275549
 10
0.9558213049275424
 20
6.366160009494086
 10
1.0061276893974127
 20
6.358544488340893
 10
1.0564340738672844
 20
6.351014275401681
 10
1.1067404583371547
 20
6.343569349502058
 10
1.157046842807025
 20
6.336209689707446
 10
1.207353227276895
 20
6.328935275323024
 10
1.2576596117467669
 20
6.321746085893696
 10
1.3079659962166372
 20
6.314642101203985
 10
1.3582723806865071
 20
6.3076233012780225
 10
1.408578765156379
 20
6.300689666379458
 10
1.4588851496262494
 20
6.293841177011439
 10
1.5091915340961193
 20
6.287077813916511
 10
1.5594979185659896
 20
6.280399558076606
 10
1.6098043030358613
 20
6.273806390712973
 10
1.6601106875057317
 20
6.267298293286108
 10
1.710417071975602
 20
6.260875247495723
 10
1.760723456445472
 20
6.254537235280706
 10
1.8110298409153438
 20
6.248284238819033
 10
1.8613362253852141
 20
6.242116240527742
 10
1.911642609855084
 20
6.23603322306288
 10
1.9619489943249544
 20
6.230035169319457
 10
2.0122553787948263
 20
6.224122062431396
 10
2.0625617632646964
 20
6.218293885771473
 10
2.1128681477345665
 20
6.212550622951303
 10
2.163174532204438
 20
6.20689225782125
 10
2.213480916674308
 20
6.20131877447041
 10
2.2637873011441783
 20
6.195830157226572
 10
2.3140936856140484
 20
6.190426390656148
 10
2.3644000700839185
 20
6.185107459564152
 10
2.41470645455379
 20
6.179873348994143
 10
2.46501283902366
 20
6.174724044228192
 10
2.515319223493532
 20
6.169659530786844
 10
2.565625607963402
 20
6.1646797944290554
 10
2.6159319924332722
 20
6.159784821152194
 10
2.6662383769031424
 20
6.154974597191938
 10
2.7165447613730125
 20
6.150249109022319
 10
2.7668511458428844
 20
6.145608343355593
 10
2.8171575303127545
 20
6.141052287142292
 10
2.8674639147826246
 20
6.136580927571124
 10
2.9177702992524965
 20
6.132194252068947
 10
2.9680766837223667
 20
6.127892248300768
 10
3.018383068192237
 20
6.123674904169669
 10
3.068689452662107
 20
6.1195422078167905
 10
3.118995837131979
 20
6.115494147621295
 10
3.169302221601849
 20
6.111530712200346
 10
3.219608606071719
 20
6.107651890409067
 10
3.269914990541589
 20
6.103857671340482
 10
3.320221375011461
 20
6.10014804432554
 10
3.370527759481331
 20
6.096522998933036
 10
3.4208341439512013
 20
6.092982524969632
 10
3.4711405284210715
 20
6.089526612479766
 10
3.521446912890943
 20
6.0861552517456685
 10
3.571753297360813
 20
6.082868433287332
 10
3.622059681830683
 20
6.079666147862454
 10
3.672366066300555
 20
6.0765483864664604
 10
3.722672450770425
 20
6.073515140332441
 10
3.7729788352402953
 20
6.070566400931121
 10
3.8232852197101654
 20
6.067702159970871
 10
3.8735916041800356
 20
6.064922409397662
 10
3.9238979886499075
 20
6.062227141395038
 10
3.9742043731197776
 20
6.059616348384109
 10
4.024510757589649
 20
6.057090023023521
 10
4.074817142059519
 20
6.054648158209424
 10
4.125123526529389
 20
6.052290747075495
 10
4.175429910999259
 20
6.050017782992851
 10
4.2257362954691295
 20
6.047829259570099
 10
4.2760426799390014
 20
6.045725170653274
 10
4.326349064408872
 20
6.043705510325834
 10
4.3766554488787435
 20
6.0417702729086304
 10
4.426961833348614
 20
6.0399194529599365
 10
4.477268217818484
 20
6.038153045275387
 10
4.527574602288354
 20
6.036471044887963
 10
4.577880986758224
 20
6.034873447068008
 10
4.628187371228094
 20
6.033360247323194
 10
4.678493755697964
 20
6.031931441398526
 10
4.728800140167836
 20
6.030587025276297
 10
4.779106524637708
 20
6.029326995176119
 10
4.829412909107578
 20
6.028151347554871
 10
4.879719293577448
 20
6.027060079106725
 10
4.930025678047318
 20
6.026053186763116
 10
4.9803320625171885
 20
6.025130667692742
 10
5.03063844698706
 20
6.024292519301538
 10
5.0809448314569305
 20
6.023538739232701
 10
5.1312512159268024
 20
6.022869325366655
 10
5.181557600396673
 20
6.022284275821059
 10
5.231863984866543
 20
6.021783588950789
 10
5.282170369336413
 20
6.021367263347964
 10
5.332476753806283
 20
6.021035297841899
 10
5.382783138276155
 20
6.0207876914991365
 10
5.433089522746025
 20
6.020624443623426
 10
5.483395907215897
 20
6.020545553755721
 10
5.533702291685767
 20
6.020551021674199
 10
5.584008676155637
 20
6.020640847394221
 10
5.634315060625507
 20
6.020815031168385
 10
5.684621445095377
 20
6.021073573486473
 10
5.7349278295652475
 20
6.0214164750754895
 10
5.785234214035118
 20
6.021843736899644
 10
5.8355405985049895
 20
6.022355360160374
 10
5.885846982974861
 20
6.022951346296317
 10
5.9361533674447315
 20
6.023631696983351
 10
5.986459751914602
 20
6.024396414134561
 10
6.036766136384472
 20
6.025245499900285
 10
6.087072520854342
 20
6.026178956668087
 10
6.137378905324212
 20
6.027196787062767
 10
6.187685289794084
 20
6.028298993946397
 10
6.237991674263956
 20
6.029485580418303
 10
6.288298058733826
 20
6.03075654981507
 10
6.338604443203696
 20
6.03211190571058
 10
6.388910827673566
 20
6.033551651915983
 10
6.439217212143436
 20
6.035075792479734
 10
6.4895235966133065
 20
6.036684331687619
 10
6.539829981083177
 20
6.038377274062712
 10
6.5901363655530485
 20
6.040154624365459
 10
6.640442750022919
 20
6.042016387593623
 10
6.6907491344927905
 20
6.043962568982348
 10
6.741055518962661
 20
6.045993174004152
 10
6.791361903432531
 20
6.048108208368945
 10
6.841668287902401
 20
6.050307678024045
 10
6.891974672372271
 20
6.05259158915419
 10
6.942281056842143
 20
6.054959948181578
 10
6.992587441312013
 20
6.057412761765852
 10
7.042893825781885
 20
6.0599500368041515
 10
7.093200210251755
 20
6.062571780431087
 10
7.143506594721625
 20
6.065278000018823
 10
7.193812979191495
 20
6.068068703177039
 10
7.244119363661365
 20
6.070943897752983
 10
7.294425748131237
 20
6.073903591831488
 10
7.344732132601109
 20
6.076947793734999
 10
7.395038517070979
 20
6.08007651202358
 10
7.4453449015408495
 20
6.083289755494947
 10
7.49565128601072
 20
6.08658753318452
 10
7.54595767048059
 20
6.089969854365387
 10
7.59626405495046
 20
6.093436728548394
 10
7.64657043942033
 20
6.096988165482122
 10
7.696876823890202
 20
6.1006241751529515
 10
7.747183208360072
 20
6.104344767785075
 10
7.797489592829944
 20
6.108149953840519
 10
7.847795977299814
 20
6.112039744019182
 10
7.898102361769684
 20
6.116014149258864
 10
7.948408746239554
 20
6.12007318073529
 10
7.998715130709424
 20
6.124216849862172
 10
8.049021515179296
 20
6.128445168291181
 10
8.099327899649166
 20
6.132758147912041
 10
8.149634284119037
 20
6.137155800852523
 10
8.199940668588908
 20
6.141638139478509
 10
8.250247053058779
 20
6.146205176393997
 10
8.300553437528649
 20
6.150856924441149
 10
8.35085982199852
 20
6.155593396700345
 10
8.40116620646839
 20
6.160414606490181
 10
8.45147259093826
 20
6.165320567367538
 10
8.501778975408133
 20
6.170311293127622
 10
8.552085359878003
 20
6.175386797803979
 10
8.602391744347873
 20
6.180547095668554
 10
8.652698128817743
 20
6.185792201231706
 10
8.703004513287615
 20
6.19112212924229
 10
8.753310897757485
 20
6.196536894687665
 10
8.803617282227355
 20
6.202036512793758
 10
8.853923666697227
 20
6.207620999025066
 10
8.904230051167097
 20
6.213290369084758
 10
8.954536435636967
 20
6.219044638914686
 10
9.004842820106838
 20
6.224883824695411
 10
9.055149204576708
 20
6.230807942846306
 10
9.105455589046578
 20
6.23681701002554
 10
9.155761973516448
 20
6.242911043130168
 10
9.20606835798632
 20
6.249090059296152
 10
9.25637474245619
 20
6.255354075898419
 10
9.30668112692606
 20
6.261703110550925
 10
9.35698751139593
 20
6.26813718110669
 10
9.407293895865802
 20
6.274656305657822
 10
9.457600280335672
 20
6.281260502535623
 10
9.507906664805542
 20
6.287949790310607
 10
9.558213049275414
 20
6.294724187792546
 10
9.608519433745284
 20
6.301583714030543
 10
9.658825818215155
 20
6.308528388313075
 10
9.709132202685026
 20
6.315558230168041
 10
9.759438587154897
 20
6.322673259362843
 10
9.809744971624767
 20
6.32987349590441
 10
9.860051356094637
 20
6.337158960039266
 10
9.910357740564509
 20
6.344529672253598
 10
9.960664125034379
 20
6.351985653273293
 10
10.010970509504249
 20
6.359526924064021
 10
10.06127689397412
 20
6.367153505831271
 10
10.111583278443991
 20
6.374865420020424
 10
10.161889662913861
 20
6.382662688316798
 10
10.212196047383731
 20
6.390545332645743
 10
10.262502431853603
 20
6.39851337517266
 10
10.312808816323473
 20
6.406566838303089
 10
10.363115200793343
 20
6.414705744682781
 10
10.413421585263215
 20
6.422930117197714
 10
10.463727969733085
 20
6.43123997897423
 10
10.514034354202956
 20
6.439635353379032
 10
10.564340738672827
 20
6.448116264019282
 10
10.614647123142698
 20
6.456682734742669
 10
10.664953507612568
 20
6.46533478963748
 10
10.715259892082438
 20
6.474072453032647
 10
10.76556627655231
 20
6.482895749497821
 10
10.81587266102218
 20
6.491804703843458
 10
10.86617904549205
 20
6.500799341120871
 10
10.916485429961922
 20
6.509879686622309
 10
10.966791814431792
 20
6.5190457658810335
 10
11.017098198901662
 20
6.528297604671367
 10
11.067404583371532
 20
6.5376352290088
 10
11.117710967841402
 20
6.547058665150023
 10
11.168017352311272
 20
6.556567939593052
 10
11.218323736781143
 20
6.566163079077252
 10
11.268630121251014
 20
6.575844110583433
 10
11.318936505720885
 20
6.585611061333934
 10
11.369242890190755
 20
6.595463958792704
 10
11.419549274660627
 20
6.60540283066535
 10
11.469855659130497
 20
6.6154277048992345
 10
11.520162043600367
 20
6.625538609683557
 10
11.570468428070237
 20
6.635735573449439
 10
11.620774812540109
 20
6.646018624869974
 10
11.671081197009979
 20
6.656387792860336
 10
11.72138758147985
 20
6.666843106577851
 10
11.771693965949721
 20
6.677384595422087
 10
11.822000350419591
 20
6.688012289034919
 10
11.872306734889461
 20
6.698726217300637
 10
11.922613119359331
 20
6.709526410346001
 10
11.972919503829203
 20
6.720412898540351
 10
12.023225888299073
 20
6.7313857124956815
 10
12.073532272768944
 20
6.74244488306673
 10
12.123838657238815
 20
6.753590441351054
 10
12.174145041708686
 20
6.764822418689132
 10
12.224451426178556
 20
6.776140846664451
 10
12.274757810648426
 20
6.787545757103595
 10
12.325064195118298
 20
6.799037182076302
 10
12.375370579588168
 20
6.810615153895618
 10
12.425676964058038
 20
6.822279705117936
 10
12.47598334852791
 20
6.8340308685430955
 10
12.52628973299778
 20
6.845868677214499
 10
12.57659611746765
 20
6.857793164419181
 10
12.626902501937522
 20
6.869804363687906
 10
12.677208886407392
 20
6.881902308795276
 10
12.727515270877262
 20
6.894087033759813
 10
12.777821655347132
 20
6.906358572844049
 10
12.828128039817004
 20
6.918716960554643
 10
12.878434424286874
 20
6.931162231642456
 10
12.928740808756745
 20
6.943694421102662
 10
12.979047193226615
 20
6.956313564174845
 10
13.029353577696485
 20
6.969019696343102
 10
13.079659962166355
 20
6.981812853336118
 10
13.129966346636225
 20
6.994693071127298
 10
13.180272731106097
 20
7.007660385934864
 10
13.230579115575967
 20
7.020714834221929
 10
13.280885500045837
 20
7.033856452696634
 10
13.33119188451571
 20
7.047085278312222
 10
13.38149826898558
 20
7.060401348267176
 10
13.43180465345545
 20
7.073804700005284
 10
13.482111037925321
 20
7.087295371215778
 10
13.532417422395191
 20
7.100873399833421
 10
13.582723806865062
 20
7.114538824038603
 10
13.633030191334932
 20
7.128291682257495
 10
13.683336575804804
 20
7.142132013162101
 10
13.733642960274674
 20
7.156059855670398
 10
13.783949344744544
 20
7.170075248946444
 10
13.834255729214416
 20
7.184178232400487
 10
13.884562113684286
 20
7.1983688456890516
 10
13.934868498154156
 20
7.212647128715092
 10
13.985174882624026
 20
7.227013121628081
 10
14.035481267093898
 20
7.241466864824108
 10
14.085787651563768
 20
7.256008398946032
 10
14.136094036033638
 20
7.270637764883556
 10
14.18640042050351
 20
7.285355003773368
 10
14.23670680497338
 20
7.300160156999245
 10
14.28701318944325
 20
7.315053266192184
 10
14.33731957391312
 20
7.330034373230488
 10
14.387625958382992
 20
7.345103520239911
 10
14.437932342852863
 20
7.360260749593779
 10
14.488238727322733
 20
7.375506103913092
 10
14.538545111792605
 20
7.390839626066638
 10
14.588851496262475
 20
7.406261359171156
 10
14.639157880732345
 20
7.421771346591395
 10
14.689464265202217
 20
7.437369631940283
 10
14.739770649672087
 20
7.453056259079047
 10
14.790077034141957
 20
7.468831272117312
 10
14.840383418611827
 20
7.484694715413232
 10
14.890689803081699
 20
7.500646633573627
 10
14.940996187551569
 20
7.516687071454102
 10
14.99130257202144
 20
7.532816074159179
 10
15.04160895649131
 20
7.549033687042403
  0
LINE
  5
35
330
17
100
AcDbEntity
  8
MERGED_SUPPORTS
100
AcDbLine
 10
0.0
 20
1.5270933903714035
 30
0.0
 11
0.0
 21
6.5270933903714035
 31
0.0
  0
LINE
  5
36
330
17
100
AcDbEntity
  8
MERGED_SUPPORTS
100
AcDbLine
 10
15.04160895649131
 20
2.5490336870424017
 30
0.0
 11
15.04160895649131
 21
7.549033687042401
 31
0.0
  0
LWPOLYLINE
  5
37
330
17
100
AcDbEntity
  8
MERGED_GROUND
100
AcDbPolyline
 90
300
 70
0
 10
15.04160895649131
 20
2.5490336870424017
 10
15.10180962538763
 20
2.546226676970827
 10
15.162010294283952
 20
2.54306042373794
 10
15.222210963180272
 20
2.5395328829227632
 10
15.282411632076593
 20
2.5356420218680977
 10
15.342612300972915
 20
2.5313858181576614
 10
15.402812969869236
 20
2.526762258044989
 10
15.463013638765556
 20
2.521769334837492
 10
15.523214307661878
 20
2.516405047239702
 10
15.583414976558199
 20
2.510667397660483
 10
15.64361564545452
 20
2.5045543904896714
 10
15.703816314350842
 20
2.498064030350367
 10
15.764016983247162
 20
2.4911943203337796
 10
15.824217652143483
 20
2.4839432602243545
 10
15.884418321039805
 20
2.4763088447235657
 10
15.944618989936126
 20
2.468289061681557
 10
16.004819658832446
 20
2.459881890346547
 10
16.065020327728767
 20
2.451085299642603
 10
16.12522099662509
 20
2.4418972464871755
 10
16.18542166552141
 20
2.4323156741604266
 10
16.24562233441773
 20
2.4223385107390984
 10
16.305823003314053
 20
2.411963667608348
 10
16.366023672210375
 20
2.4011890380655667
 10
16.426224341106693
 20
2.390012496030854
 10
16.486425010003014
 20
2.3784318948793635
 10
16.546625678899336
 20
2.3664450664112744
 10
16.606826347795657
 20
2.3540498199756503
 10
16.66702701669198
 20
2.3412439417648763
 10
16.7272276855883
 20
2.3280251942967785
 10
16.78742835448462
 20
2.314391316101856
 10
16.847629023380943
 20
2.300340021633378
 10
16.90782969227726
 20
2.2858690014182783
 10
16.968030361173582
 20
2.2709759224669903
 10
17.028231030069904
 20
2.255658428960422
 10
17.088431698966225
 20
2.239914143232325
 10
17.148632367862547
 20
2.2237406670652438
 10
17.208833036758868
 20
2.2071355833181125
 10
17.26903370565519
 20
2.19009645790335
 10
17.32923437455151
 20
2.172620842131031
 10
17.389435043447833
 20
2.1547062754373343
 10
17.449635712344154
 20
2.13635028851397
 10
17.509836381240472
 20
2.1175504068548117
 10
17.570037050136794
 20
2.0983041547352275
 10
17.630237719033115
 20
2.078609059638948
 10
17.690438387929436
 20
2.058462657146429
 10
17.750639056825758
 20
2.037862496297765
 10
17.81083972572208
 20
2.0168061454422035
 10
17.8710403946184
 20
1.9952911985851618
 10
17.93124106351472
 20
1.9733152822424864
 10
17.99144173241104
 20
1.9508760628103692
 10
18.05164240130736
 20
1.9279712544579344
 10
18.111843070203683
 20
1.9045986275480602
 10
18.172043739100005
 20
1.8807560175903864
 10
18.232244407996326
 20
1.8564413347288335
 10
18.292445076892648
 20
1.831652573764191
 10
18.35264574578897
 20
1.806387824710514
 10
18.41284641468529
 20
1.7806452838821833
 10
18.473047083581612
 20
1.7544232655064753
 10
18.53324775247793
 20
1.7277202138544798
 10
18.59344842137425
 20
1.700534715881069
 10
18.653649090270573
 20
1.6728655143624744
 10
18.713849759166894
 20
1.6447115215178039
 10
18.774050428063216
 20
1.6160718330985735
 10
18.834251096959537
 20
1.5869457429280214
 10
18.89445176585586
 20
1.5573327578696476
 10
18.95465243475218
 20
1.5272326132020588
 10
19.0148531036485
 20
1.4966452883748316
 10
19.07505377254482
 20
1.4655710231177346
 10
19.13525444144114
 20
1.4340103338732502
 10
19.195455110337463
 20
1.4019640305199939
 10
19.255655779233784
 20
1.369433233352277
 10
19.315856448130106
 20
1.3364193902787218
 10
19.376057117026427
 20
1.3029242942005927
 10
19.43625778592275
 20
1.2689501005282413
 10
19.49645845481907
 20
1.2344993447919292
 10
19.55665912371539
 20
1.1995749603011694
 10
19.616859792611713
 20
1.1641802958047185
 10
19.67706046150803
 20
1.1283191331014202
 10
19.737261130404352
 20
1.0919957045502822
 10
19.797461799300674
 20
1.055214710426447
 10
19.857662468196995
 20
1.0179813360681285
 10
19.917863137093317
 20
0.98030126875813
 10
19.97806380598964
 20
0.9421807142822334
 10
20.038264474885956
 20
0.9036264131056022
 10
20.098465143782278
 20
0.8646456561073185
 10
20.1586658126786
 20
0.8252462998123631
 10
20.21886648157492
 20
0.7854367810596694
 10
20.279067150471242
 20
0.7452261310444541
 10
20.339267819367564
 20
0.7046239886727291
 10
20.399468488263885
 20
0.6636406131658362
 10
20.459669157160207
 20
0.6222868958530203
 10
20.519869826056528
 20
0.5805743710903718
 10
20.58007049495285
 20
0.5385152262450921
 10
20.64027116384917
 20
0.49612231068480694
 10
20.70047183274549
 20
0.45340914371271335
 10
20.76067250164181
 20
0.41038992139059693
 10
20.820873170538132
 20
0.3670795221932723
 10
20.881073839434453
 20
0.323493511439703
 10
20.941274508330775
 20
0.2796481444480872
 10
21.001475177227096
 20
0.23556036836433186
 10
21.061675846123418
 20
0.1912478226158353
 10
21.121876515019736
 20
0.14672883794513317
 10
21.182077183916057
 20
0.10202243398087416
 10
21.24227785281238
 20
0.05714831530671039
 10
21.3024785217087
 20
0.01212686599200364
 10
21.36267919060502
 20
-0.03302085744817652
 10
21.422879859501343
 20
-0.07827313469257284
 10
21.483080528397664
 20
-0.1236075918776327
 10
21.543281197293986
 20
-0.16900121350650657
 10
21.603481866190307
 20
-0.21443035601961494
 10
21.66368253508663
 20
-0.2598707630387525
 10
21.72388320398295
 20
-0.3052975822921532
 10
21.78408387287927
 20
-0.35068538422314843
 10
21.84428454177559
 20
-0.3960081822802509
 10
21.90448521067191
 20
-0.4412394548814946
 10
21.964685879568233
 20
-0.48635216904085526
 10
22.024886548464554
 20
-0.5313188056394234
 10
22.085087217360876
 20
-0.5761113863188708
 10
22.145287886257197
 20
-0.6207015019695065
 10
22.205488555153515
 20
-0.6650603427800302
 10
22.265689224049837
 20
-0.7091587298108522
 10
22.325889892946158
 20
-0.7529671480476423
 10
22.38609056184248
 20
-0.7964557808866419
 10
22.4462912307388
 20
-0.8395945459981335
 10
22.506491899635122
 20
-0.8823531325094861
 10
22.566692568531444
 20
-0.9247010394442353
 10
22.626893237427765
 20
-0.9666076153489084
 10
22.687093906324087
 20
-1.0080420990345893
 10
22.74729457522041
 20
-1.0489736613557912
 10
22.80749524411673
 20
-1.0893714479448044
 10
22.867695913013048
 20
-1.1292046228156545
 10
22.92789658190937
 20
-1.1684424127478261
 10
22.98809725080569
 20
-1.2070541523562774
 10
23.048297919702012
 20
-1.245009329750849
 10
23.108498588598334
 20
-1.2822776326849927
 10
23.16869925749465
 20
-1.3188289950909076
 10
23.228899926390973
 20
-1.3546336438955753
 10
23.289100595287294
 20
-1.3896621460099106
 10
23.349301264183616
 20
-1.4238854553813474
 10
23.409501933079937
 20
-1.4572749599985195
 10
23.46970260197626
 20
-1.4898025287354553
 10
23.52990327087258
 20
-1.5214405579218109
 10
23.590103939768902
 20
-1.5521620175250586
 10
23.650304608665223
 20
-1.581940496830431
 10
23.710505277561545
 20
-1.6107502495045398
 10
23.770705946457866
 20
-1.6385662379291925
 10
23.830906615354188
 20
-1.6653641766928071
 10
23.89110728425051
 20
-1.6911205751282
 10
23.951307953146827
 20
-1.7158127787871216
 10
24.01150862204315
 20
-1.7394190097440358
 10
24.07170929093947
 20
-1.7619184056239798
 10
24.13190995983579
 20
-1.7832910572521825
 10
24.192110628732113
 20
-1.8035180448261958
 10
24.25231129762843
 20
-1.8225814725147753
 10
24.312511966524752
 20
-1.8404645013915681
 10
24.372712635421074
 20
-1.8571513806157334
 10
24.432913304317395
 20
-1.8726274767761169
 10
24.493113973213717
 20
-1.8868793013202616
 10
24.55331464211004
 20
-1.8998945359945698
 10
24.61351531100636
 20
-1.9116620562271631
 10
24.67371597990268
 20
-1.9221719523905145
 10
24.733916648799003
 20
-1.9314155488866105
 10
24.794117317695324
 20
-1.9393854210033536
 10
24.854317986591646
 20
-1.9460754094969948
 10
24.914518655487967
 20
-1.9514806328616612
 10
24.97471932438429
 20
-1.955597497253439
 10
25.034919993280607
 20
-1.9584237040429644
 10
25.095120662176928
 20
-1.9599582549771095
 10
25.15532133107325
 20
-1.9602014549369708
 10
25.21552199996957
 20
-1.9591549122861165
 10
25.27572266886589
 20
-1.9568215368097308
 10
25.33592333776221
 20
-1.953205535252041
 10
25.396124006658532
 20
-1.9483124044660678
 10
25.456324675554853
 20
-1.9421489221963746
 10
25.516525344451175
 20
-1.9347231355220338
 10
25.576726013347496
 20
-1.9260443469934587
 10
25.636926682243818
 20
-1.9161230985030615
 10
25.69712735114014
 20
-1.9049711529358582
 10
25.75732802003646
 20
-1.8926014736521135
 10
25.817528688932782
 20
-1.8790282018599287
 10
25.877729357829104
 20
-1.864266631941226
 10
25.937930026725425
 20
-1.8483331847999467
 10
25.998130695621747
 20
-1.8312453793063537
 10
26.058331364518068
 20
-1.8130218019161546
 10
26.118532033414386
 20
-1.7936820745476905
 10
26.178732702310707
 20
-1.7732468208046774
 10
26.23893337120703
 20
-1.7517376306358936
 10
26.29913404010335
 20
-1.7291770235268074
 10
26.35933470899967
 20
-1.7055884103213899
 10
26.41953537789599
 20
-1.680996053775272
 10
26.47973604679231
 20
-1.6554250279439613
 10
26.539936715688633
 20
-1.6289011765120152
 10
26.600137384584954
 20
-1.6014510701709257
 10
26.660338053481276
 20
-1.5731019631548946
 10
26.720538722377597
 20
-1.543881749044817
 10
26.78073939127392
 20
-1.5138189159514686
 10
26.84094006017024
 20
-1.4829425011892754
 10
26.90114072906656
 20
-1.4512820455520188
 10
26.961341397962883
 20
-1.4188675473014614
 10
27.021542066859205
 20
-1.3857294159791518
 10
27.081742735755526
 20
-1.3518984261505693
 10
27.141943404651844
 20
-1.317405671189377
 10
27.202144073548165
 20
-1.2822825172077799
 10
27.262344742444487
 20
-1.2465605572369385
 10
27.32254541134081
 20
-1.2102715657589755
 10
27.38274608023713
 20
-1.1734474536894817
 10
27.442946749133448
 20
-1.1361202239064454
 10
27.50314741802977
 20
-1.0983219274183262
 10
27.56334808692609
 20
-1.0600846202605303
 10
27.623548755822412
 20
-1.0214403212058265
 10
27.683749424718734
 20
-0.9824209703703526
 10
27.743950093615055
 20
-0.943058388792733
 10
27.804150762511377
 20
-0.9033842390595542
 10
27.864351431407698
 20
-0.8634299870459778
 10
27.92455210030402
 20
-0.8232268648356953
 10
27.98475276920034
 20
-0.7828058348797237
 10
28.044953438096663
 20
-0.7421975554487085
 10
28.105154106992984
 20
-0.7014323474285504
 10
28.165354775889305
 20
-0.6605401625041649
 10
28.225555444785623
 20
-0.6195505527712399
 10
28.285756113681945
 20
-0.5784926418108122
 10
28.345956782578266
 20
-0.5373950972564776
 10
28.406157451474588
 20
-0.496286104879029
 10
28.466358120370906
 20
-0.4551933442083652
 10
28.526558789267227
 20
-0.4141439657075781
 10
28.58675945816355
 20
-0.3731645695092957
 10
28.64696012705987
 20
-0.332281185719565
 10
28.70716079595619
 20
-0.29151925628992104
 10
28.767361464852513
 20
-0.2509036184537248
 10
28.827562133748835
 20
-0.21045848971843717
 10
28.887762802645156
 20
-0.17020745440124269
 10
28.947963471541478
 20
-0.13017345169126976
 10
29.0081641404378
 20
-0.0903787652177652
 10
29.06836480933412
 20
-0.050845014099751715
 10
29.128565478230442
 20
-0.011593145449170656
 10
29.188766147126763
 20
0.02735657170393971
 10
29.248966816023085
 20
0.06598455109881121
 10
29.309167484919403
 20
0.10427189258143661
 10
29.369368153815724
 20
0.14220038413252356
 10
29.429568822712046
 20
0.17975250262876952
 10
29.489769491608367
 20
0.21691141338265627
 10
29.549970160504685
 20
0.25366096850802583
 10
29.610170829401007
 20
0.28998570416057623
 10
29.670371498297328
 20
0.3258708367040308
 10
29.73057216719365
 20
0.3613022578541683
 10
29.79077283608997
 20
0.39626652885404323
 10
29.850973504986293
 20
0.4307508737347171
 10
29.911174173882614
 20
0.46474317171651963
 10
29.971374842778935
 20
0.49823194880641797
 10
30.031575511675257
 20
0.5312063686473396
 10
30.09177618057158
 20
0.5636562226754263
 10
30.1519768494679
 20
0.5955719196410773
 10
30.21217751836422
 20
0.6269444745493501
 10
30.272378187260543
 20
0.65776549707483
 10
30.33257885615686
 20
0.6880271795053889
 10
30.392779525053182
 20
0.7177222842684633
 10
30.452980193949504
 20
0.7468441310924679
 10
30.513180862845825
 20
0.7753865838548486
 10
30.573381531742147
 20
0.8033440371669874
 10
30.633582200638465
 20
0.8307114027447614
 10
30.693782869534786
 20
0.8574840956120413
 10
30.753983538431108
 20
0.883658020182747
 10
30.81418420732743
 20
0.9092295562653686
 10
30.87438487622375
 20
0.934195545032
 10
30.934585545120072
 20
0.9585532749920271
 10
30.994786214016393
 20
0.9823004680086338
 10
31.054986882912715
 20
1.0054352653942438
 10
31.115187551809036
 20
1.02795621411892
 10
31.175388220705358
 20
1.0498622531636224
 10
31.23558888960168
 20
1.0711527000480465
 10
31.295789558497997
 20
1.0918272375606188
 10
31.35599022739432
 20
1.111885900715993
 10
31.41619089629064
 20
1.1313290639632316
 10
31.47639156518696
 20
1.1501574286656702
 10
31.536592234083283
 20
1.1683720108712798
 10
31.596792902979605
 20
1.1859741293902146
 10
31.656993571875926
 20
1.2029653941941096
 10
31.717194240772248
 20
1.2193476951496327
 10
31.77739490966857
 20
1.2351231910967582
 10
31.837595578564887
 20
1.250294299280251
 10
31.89779624746121
 20
1.264863685140952
 10
31.95799691635753
 20
1.2788342524715663
 10
32.01819758525385
 20
1.292209133939911
 10
32.07839825415017
 20
1.3049916819808272
 10
32.138598923046494
 20
1.3171854600563437
 10
32.198799591942816
 20
1.3287942342821197
 10
32.25900026083914
 20
1.3398219654167016
 10
32.31920092973546
 20
1.3502728012087648
 10
32.37940159863177
 20
1.3601510690961847
 10
32.4396022675281
 20
1.3694612692495702
 10
32.499802936424416
 20
1.3782080679517903
 10
32.560003605320745
 20
1.3863962913039525
 10
32.62020427421706
 20
1.3940309192473894
 10
32.68040494311339
 20
1.4011170798903276
 10
32.7406056120097
 20
1.4076600441271663
 10
32.80080628090603
 20
1.4136652205376274
 10
32.861006949802345
 20
1.4191381505524447
 10
32.921207618698666
 20
1.4240845038717704
 10
32.98140828759499
 20
1.4285100741220753
 10
33.04160895649131
 20
1.4324207747369824
  0
LWPOLYLINE
  5
38
330
17
100
AcDbEntity
  8
MERGED_CATENARY
100
AcDbPolyline
 90
300
 70
0
 10
15.04160895649131
 20
7.549033687042401
 10
15.10180962538763
 20
7.482722902320084
 10
15.162010294283952
 20
7.416950085122878
 10
15.222210963180272
 20
7.351712851757405
 10
15.282411632076593
 20
7.2870088379405535
 10
15.342612300972915
 20
7.222835698713792
 10
15.402812969869236
 20
7.159191108358176
 10
15.463013638765556
 20
7.096072760310074
 10
15.523214307661878
 20
7.033478367077561
 10
15.583414976558199
 20
6.971405660157528
 10
15.64361564545452
 20
6.909852389953463
 10
15.703816314350842
 20
6.848816325693923
 10
15.764016983247162
 20
6.78829525535169
 10
15.824217652143483
 20
6.7282869855636
 10
15.884418321039805
 20
6.668789341551053
 10
15.944618989936126
 20
6.609800167041208
 10
16.004819658832446
 20
6.551317324188819
 10
16.065020327728767
 20
6.4933386934987665
 10
16.12522099662509
 20
6.43586217374924
 10
16.18542166552141
 20
6.378885681915602
 10
16.24562233441773
 20
6.3224071530948684
 10
16.305823003314053
 20
6.266424540430899
 10
16.366023672210375
 20
6.210935815040203
 10
16.426224341106693
 20
6.155938965938416
 10
16.486425010003014
 20
6.101431999967419
 10
16.546625678899336
 20
6.047412941723094
 10
16.606826347795657
 20
5.9938798334837475
 10
16.66702701669198
 20
5.940830735139153
 10
16.7272276855883
 20
5.888263724120234
 10
16.78742835448462
 20
5.836176895329398
 10
16.847629023380943
 20
5.784568361071487
 10
16.90782969227726
 20
5.73343625098536
 10
16.968030361173582
 20
5.68277871197612
 10
17.028231030069904
 20
5.632593908147949
 10
17.088431698966225
 20
5.582880020737575
 10
17.148632367862547
 20
5.533635248048349
 10
17.208833036758868
 20
5.484857805384966
 10
17.26903370565519
 20
5.436545924988767
 10
17.32923437455151
 20
5.388697855973689
 10
17.389435043447833
 20
5.341311864262798
 10
17.449635712344154
 20
5.294386232525452
 10
17.509836381240472
 20
5.247919260115059
 10
17.570037050136794
 20
5.201909263007442
 10
17.630237719033115
 20
5.156354573739813
 10
17.690438387929436
 20
5.111253541350335
 10
17.750639056825758
 20
5.0666045313182995
 10
17.81083972572208
 20
5.022405925504874
 10
17.8710403946184
 20
4.9786561220944705
 10
17.93124106351472
 20
4.935353535536695
 10
17.99144173241104
 20
4.892496596488873
 10
18.05164240130736
 20
4.850083751759184
 10
18.111843070203683
 20
4.808113464250374
 10
18.172043739100005
 20
4.766584212904039
 10
18.232244407996326
 20
4.725494492645505
 10
18.292445076892648
 20
4.684842814329286
 10
18.35264574578897
 20
4.644627704685114
 10
18.41284641468529
 20
4.604847706264536
 10
18.473047083581612
 20
4.565501377388108
 10
18.53324775247793
 20
4.526587292093138
 10
18.59344842137425
 20
4.4881040400820105
 10
18.653649090270573
 20
4.450050226671076
 10
18.713849759166894
 20
4.412424472740101
 10
18.774050428063216
 20
4.375225414682292
 10
18.834251096959537
 20
4.338451704354879
 10
18.89445176585586
 20
4.302102009030246
 10
18.95465243475218
 20
4.266175011347643
 10
19.0148531036485
 20
4.230669409265436
 10
19.07505377254482
 20
4.1955839160139226
 10
19.13525444144114
 20
4.160917260048699
 10
19.195455110337463
 20
4.126668185004569
 10
19.255655779233784
 20
4.092835449650025
 10
19.315856448130106
 20
4.059417827842253
 10
19.376057117026427
 20
4.026414108482703
 10
19.43625778592275
 20
3.9938230954731875
 10
19.49645845481907
 20
3.9616436076725465
 10
19.55665912371539
 20
3.929874478853834
 10
19.616859792611713
 20
3.8985145576620512
 10
19.67706046150803
 20
3.867562707572418
 10
19.737261130404352
 20
3.837017806849194
 10
19.797461799300674
 20
3.8068787485050177
 10
19.857662468196995
 20
3.777144440260784
 10
19.917863137093317
 20
3.7478138045060723
 10
19.97806380598964
 20
3.7188857782600744
 10
20.038264474885956
 20
3.6903593131330843
 10
20.098465143782278
 20
3.6622333752885012
 10
20.1586658126786
 20
3.6345069454053576
 10
20.21886648157492
 20
3.6071790186413772
 10
20.279067150471242
 20
3.580248604596565
 10
20.339267819367564
 20
3.553714727277308
 10
20.399468488263885
 20
3.5275764250610027
 10
20.459669157160207
 20
3.501832750661213
 10
20.519869826056528
 20
3.4764827710933295
 10
20.58007049495285
 20
3.4515255676407604
 10
20.64027116384917
 20
3.4269602358216407
 10
20.70047183274549
 20
3.4027858853560473
 10
20.76067250164181
 20
3.3790016401337337
 10
20.820873170538132
 20
3.355606638182382
 10
20.881073839434453
 20
3.3326000316363587
 10
20.941274508330775
 20
3.3099809867059955
 10
21.001475177227096
 20
3.2877486836473664
 10
21.061675846123418
 20
3.2659023167325736
 10
21.121876515019736
 20
3.2444410942205577
 10
21.182077183916057
 20
3.2233642383284007
 10
21.24227785281238
 20
3.2026709852031283
 10
21.3024785217087
 20
3.182360584894039
 10
21.36267919060502
 20
3.1624323013255258
 10
21.422879859501343
 20
3.142885412270388
 10
21.483080528397664
 20
3.123719209323667
 10
21.543281197293986
 20
3.1049329978769675
 10
21.603481866190307
 20
3.0865260970932846
 10
21.66368253508663
 20
3.0684978398823355
 10
21.72388320398295
 20
3.0508475728763713
 10
21.78408387287927
 20
3.0335746564065142
 10
21.84428454177559
 20
3.016678464479556
 10
21.90448521067191
 20
3.000158384755289
 10
21.964685879568233
 20
2.9840138185243
 10
22.024886548464554
 20
2.9682441806862876
 10
22.085087217360876
 20
2.9528488997288367
 10
22.145287886257197
 20
2.937827417706724
 10
22.205488555153515
 20
2.923179190221696
 10
22.265689224049837
 20
2.9089036864027236
 10
22.325889892946158
 20
2.895000388886781
 10
22.38609056184248
 20
2.8814687938000834
 10
22.4462912307388
 20
2.868308410739839
 10
22.506491899635122
 20
2.8555187627564567
 10
22.566692568531444
 20
2.8430993863362826
 10
22.626893237427765
 20
2.8310498313847816
 10
22.687093906324087
 20
2.81936966121024
 10
22.74729457522041
 20
2.8080584525079373
 10
22.80749524411673
 20
2.797115795344795
 10
22.867695913013048
 20
2.7865412931445306
 10
22.92789658190937
 20
2.776334562673279
 10
22.98809725080569
 20
2.766495234025714
 10
23.048297919702012
 20
2.7570229506116224
 10
23.108498588598334
 20
2.747917369143
 10
23.16869925749465
 20
2.7391781596216043
 10
23.228899926390973
 20
2.7308050053269923
 10
23.289100595287294
 20
2.7227976028050422
 10
23.349301264183616
 20
2.7151556618569557
 10
23.409501933079937
 20
2.7078789055287507
 10
23.46970260197626
 20
2.700967070101205
 10
23.52990327087258
 20
2.694419905080318
 10
23.590103939768902
 20
2.688237173188221
 10
23.650304608665223
 20
2.6824186503545784
 10
23.710505277561545
 20
2.676964125708478
 10
23.770705946457866
 20
2.6718734015707675
 10
23.830906615354188
 20
2.6671462934469177
 10
23.89110728425051
 20
2.6627826300203123
 10
23.951307953146827
 20
2.65878225314605
 10
24.01150862204315
 20
2.6551450178452147
 10
24.07170929093947
 20
2.651870792299617
 10
24.13190995983579
 20
2.6489594578470173
 10
24.192110628732113
 20
2.6464109089768257
 10
24.25231129762843
 20
2.644225053326285
 10
24.312511966524752
 20
2.642401811677108
 10
24.372712635421074
 20
2.6409411179526217
 10
24.432913304317395
 20
2.6398429192153645
 10
24.493113973213717
 20
2.6391071756651714
 10
24.55331464211004
 20
2.638733860637727
 10
24.61351531100636
 20
2.638722960603605
 10
24.67371597990268
 20
2.639074475167777
 10
24.733916648799003
 20
2.639788417069586
 10
24.794117317695324
 20
2.6408648121832297
 10
24.854317986591646
 20
2.642303699518684
 10
24.914518655487967
 20
2.644105131223113
 10
24.97471932438429
 20
2.646269172582773
 10
25.034919993280607
 20
2.6487959020253666
 10
25.095120662176928
 20
2.6516854111228945
 10
25.15532133107325
 20
2.6549378045949608
 10
25.21552199996957
 20
2.658553200312583
 10
25.27572266886589
 20
2.662531729302457
 10
25.33592333776221
 20
2.6668735357517055
 10
25.396124006658532
 20
2.671578777013099
 10
25.456324675554853
 20
2.676647623610768
 10
25.516525344451175
 20
2.6820802592463795
 10
25.576726013347496
 20
2.6878768808057925
 10
25.636926682243818
 20
2.6940376983661913
 10
25.69712735114014
 20
2.700562935203705
 10
25.75732802003646
 20
2.707452827801497
 10
25.817528688932782
 20
2.7147076258583343
 10
25.877729357829104
 20
2.722327592297635
 10
25.937930026725425
 20
2.7303130032770047
 10
25.998130695621747
 20
2.738664148198235
 10
26.058331364518068
 20
2.747381329717797
 10
26.118532033414386
 20
2.75646486375781
 10
26.178732702310707
 20
2.765915079517493
 10
26.23893337120703
 20
2.775732319485091
 10
26.29913404010335
 20
2.7859169394502854
 10
26.35933470899967
 20
2.796469308517095
 10
26.41953537789599
 20
2.807389809117253
 10
26.47973604679231
 20
2.818678837024053
 10
26.539936715688633
 20
2.8303368013667147
 10
26.600137384584954
 20
2.842364124645191
 10
26.660338053481276
 20
2.854761242745491
 10
26.720538722377597
 20
2.8675286049554756
 10
26.78073939127392
 20
2.88066667398114
 10
26.84094006017024
 20
2.8941759259633755
 10
26.90114072906656
 20
2.908056850495237
 10
26.961341397962883
 20
2.922309950639683
 10
27.021542066859205
 20
2.936935742947801
 10
27.081742735755526
 20
2.951934757477534
 10
27.141943404651844
 20
2.9673075378128884
 10
27.202144073548165
 20
2.9830546410836396
 10
27.262344742444487
 20
2.999176637985512
 10
27.32254541134081
 20
3.0156741128008697
 10
27.38274608023713
 20
3.032547663419893
 10
27.442946749133448
 20
3.0497979013622407
 10
27.50314741802977
 20
3.0674254517992168
 10
27.56334808692609
 20
3.085430953576424
 10
27.623548755822412
 20
3.1038150592369247
 10
27.683749424718734
 20
3.1225784350448755
 10
27.743950093615055
 20
3.14172176100969
 10
27.804150762511377
 20
3.1612457309106685
 10
27.864351431407698
 20
3.1811510523221505
 10
27.92455210030402
 20
3.201438446639155
 10
27.98475276920034
 20
3.2221086491035273
 10
28.044953438096663
 20
3.2431624088305817
 10
28.105154106992984
 20
3.264600488836253
 10
28.165354775889305
 20
3.2864236660647457
 10
28.225555444785623
 20
3.308632731416698
 10
28.285756113681945
 20
3.3312284897778373
 10
28.345956782578266
 20
3.3542117600481576
 10
28.406157451474588
 20
3.3775833751715885
 10
28.466358120370906
 20
3.4013441821661967
 10
28.526558789267227
 20
3.425495042154862
 10
28.58675945816355
 20
3.4500368303965097
 10
28.64696012705987
 20
3.474970436317812
 10
28.70716079595619
 20
3.500296763545429
 10
28.767361464852513
 20
3.5260167299387586
 10
28.827562133748835
 20
3.5521312676231993
 10
28.887762802645156
 20
3.5786413230239362
 10
28.947963471541478
 20
3.6055478569002304
 10
29.0081641404378
 20
3.6328518443802444
 10
29.06836480933412
 20
3.6605542749963855
 10
29.128565478230442
 20
3.688656152721163
 10
29.188766147126763
 20
3.7171584960035737
 10
29.248966816023085
 20
3.746062337806015
 10
29.309167484919403
 20
3.775368725641714
 10
29.369368153815724
 20
3.805078721612702
 10
29.429568822712046
 20
3.835193402448291
 10
29.489769491608367
 20
3.8657138595441127
 10
29.549970160504685
 20
3.8966411990016576
 10
29.610170829401007
 20
3.927976541668376
 10
29.670371498297328
 20
3.959721023178284
 10
29.73057216719365
 20
3.991875793993129
 10
29.79077283608997
 20
4.024442019444082
 10
29.850973504986293
 20
4.057420879773973
 10
29.911174173882614
 20
4.09081357018006
 10
29.971374842778935
 20
4.124621300857351
 10
30.031575511675257
 20
4.158845297042452
 10
30.09177618057158
 20
4.193486799057986
 10
30.1519768494679
 20
4.228547062357532
 10
30.21217751836422
 20
4.264027357571129
 10
30.272378187260543
 20
4.299928970551328
 10
30.33257885615686
 20
4.3362532024197815
 10
30.392779525053182
 20
4.373001369614418
 10
30.452980193949504
 20
4.41017480393713
 10
30.513180862845825
 20
4.4477748526020555
 10
30.573381531742147
 20
4.485802878284391
 10
30.633582200638465
 20
4.52426025916979
 10
30.693782869534786
 20
4.563148389004299
 10
30.753983538431108
 20
4.602468677144873
 10
30.81418420732743
 20
4.642222548610455
 10
30.87438487622375
 20
4.682411444133612
 10
30.934585545120072
 20
4.723036820212762
 10
30.994786214016393
 20
4.764100149164946
 10
31.054986882912715
 20
4.805602919179199
 10
31.115187551809036
 20
4.847546634370472
 10
31.175388220705358
 20
4.889932814834152
 10
31.23558888960168
 20
4.932762996701147
 10
31.295789558497997
 20
4.976038732193562
 10
31.35599022739432
 20
5.019761589680953
 10
31.41619089629064
 20
5.063933153737159
 10
31.47639156518696
 20
5.1085550251977425
 10
31.536592234083283
 20
5.153628821217993
 10
31.596792902979605
 20
5.199156175331538
 10
31.656993571875926
 20
5.2451387375095555
 10
31.717194240772248
 20
5.291578174220554
 10
31.77739490966857
 20
5.338476168490782
 10
31.837595578564887
 20
5.385834419965205
 10
31.89779624746121
 20
5.433654644969135
 10
31.95799691635753
 20
5.4819385765703945
 10
32.01819758525385
 20
5.530687964642149
 10
32.07839825415017
 20
5.579904575926319
 10
32.138598923046494
 20
5.6295901940976085
 10
32.198799591942816
 20
5.679746619828145
 10
32.25900026083914
 20
5.730375670852747
 10
32.31920092973546
 20
5.781479182034783
 10
32.37940159863177
 20
5.833059005432698
 10
32.4396022675281
 20
5.885117010367109
 10
32.499802936424416
 20
5.937655083488555
 10
32.560003605320745
 20
5.99067512884589
 10
32.62020427421706
 20
6.044179067955264
 10
32.68040494311339
 20
6.098168839869782
 10
32.7406056120097
 20
6.1526464012497595
 10
32.80080628090603
 20
6.207613726433651
 10
32.861006949802345
 20
6.263072807509591
 10
32.921207618698666
 20
6.3190256543876
 10
32.98140828759499
 20
6.3754742948724115
 10
33.04160895649131
 20
6.432420774736979
  0
LINE
  5
39
330
17
100
AcDbEntity
  8
MERGED_SUPPORTS
100
AcDbLine
 10
33.04160895649131
 20
1.4324207747369824
 30
0.0
 11
33.04160895649131
 21
6.432420774736983
 31
0.0
  0
LWPOLYLINE
  5
3A
330
17
100
AcDbEntity
  8
MERGED_GROUND
100
AcDbPolyline
 90
300
 70
0
 10
33.04160895649131
 20
1.4324207747369824
 10
33.081742735755526
 20
1.4323515407359493
 10
33.121876515019736
 20
1.432143858126779
 10
33.16201029428395
 20
1.4317977850828474
 10
33.20214407354817
 20
1.431313418531741
 10
33.24227785281238
 20
1.4306908941132057
 10
33.282411632076595
 20
1.4299303861203083
 10
33.322545411340805
 20
1.4290321074238381
 10
33.36267919060502
 20
1.4279963093799874
 10
33.40281296986924
 20
1.4268232817213524
 10
33.44294674913345
 20
1.4255133524313202
 10
33.483080528397664
 20
1.424066887601893
 10
33.52321430766188
 20
1.4224842912750322
 10
33.56334808692609
 20
1.4207660052675941
 10
33.60348186619031
 20
1.4189125089799541
 10
33.64361564545452
 20
1.4169243191884078
 10
33.683749424718734
 20
1.4148019898214612
 10
33.72388320398295
 20
1.4125461117201212
 10
33.76401698324716
 20
1.4101573123823075
 10
33.80415076251138
 20
1.4076362556915176
 10
33.84428454177559
 20
1.4049836416298802
 10
33.8844183210398
 20
1.4022002059757488
 10
33.92455210030402
 20
1.399286719985986
 10
33.96468587956823
 20
1.3962439900630985
 10
34.004819658832446
 20
1.3930728574074032
 10
34.04495343809666
 20
1.38977419765439
 10
34.08508721736087
 20
1.3863489204974784
 10
34.12522099662509
 20
1.3827979692963552
 10
34.165354775889305
 20
1.3791223206710999
 10
34.205488555153515
 20
1.3753229840823038
 10
34.24562233441773
 20
1.3714010013973987
 10
34.28575611368194
 20
1.36735744644343
 10
34.32588989294616
 20
1.3631934245464887
 10
34.366023672210375
 20
1.35891007205806
 10
34.406157451474584
 20
1.3545085558685208
 10
34.4462912307388
 20
1.3499900729080474
 10
34.48642501000302
 20
1.345355849635196
 10
34.52655878926723
 20
1.3406071415134126
 10
34.566692568531444
 20
1.3357452324757602
 10
34.60682634779566
 20
1.3307714343781354
 10
34.64696012705987
 20
1.325687086441266
 10
34.68709390632409
 20
1.3204935546817824
 10
34.727227685588296
 20
1.3151922313326607
 10
34.76736146485251
 20
1.3097845342533525
 10
34.80749524411673
 20
1.3042719063299006
 10
34.84762902338094
 20
1.2986558148653735
 10
34.887762802645156
 20
1.2929377509609266
 10
34.92789658190937
 20
1.2871192288878384
 10
34.96803036117358
 20
1.281201785450838
 10
35.0081641404378
 20
1.2751869793430766
 10
35.04829791970201
 20
1.269076390493083
 10
35.088431698966225
 20
1.2628716194040528
 10
35.12856547823044
 20
1.256574286485825
 10
35.16869925749465
 20
1.2501860313799094
 10
35.20883303675887
 20
1.2437085122779206
 10
35.248966816023085
 20
1.2371434052337935
 10
35.289100595287294
 20
1.2304924034701397
 10
35.32923437455151
 20
1.223757216679134
 10
35.36936815381573
 20
1.216939570318295
 10
35.40950193307994
 20
1.2100412049015479
 10
35.449635712344154
 20
1.2030638752859493
 10
35.489769491608364
 20
1.1960093499544648
 10
35.52990327087258
 20
1.1888794102951816
 10
35.5700370501368
 20
1.1816758498773507
 10
35.61017082940101
 20
1.1744004737246512
 10
35.65030460866522
 20
1.1670550975860672
 10
35.69043838792943
 20
1.159641547204779
 10
35.73057216719365
 20
1.1521616575854567
 10
35.770705946457866
 20
1.144617272260361
 10
35.810839725722076
 20
1.1370102425546427
 10
35.85097350498629
 20
1.1293424268512477
 10
35.89110728425051
 20
1.121615689855813
 10
35.93124106351472
 20
1.1138319018619598
 10
35.971374842778935
 20
1.105992938017385
 10
36.01150862204315
 20
1.0981006775911322
 10
36.05164240130736
 20
1.0901570032424541
 10
36.09177618057158
 20
1.0821638002916478
 10
36.13190995983579
 20
1.074122955993261
 10
36.172043739100005
 20
1.0660363588120572
 10
36.21217751836422
 20
1.0579058977021276
 10
36.25231129762843
 20
1.0497334613895364
 10
36.29244507689265
 20
1.0415209376588739
 10
36.332578856156864
 20
1.03327021264411
 10
36.372712635421074
 20
1.0249831701241103
 10
36.41284641468529
 20
1.016661690823194
 10
36.4529801939495
 20
1.0083076517170977
 10
36.49311397321372
 20
0.9999229253447104
 10
36.53324775247793
 20
0.9915093791259393
 10
36.57338153174214
 20
0.9830688746860569
 10
36.61351531100636
 20
0.9746032671868787
 10
36.65364909027058
 20
0.9661144046651208
 10
36.693782869534786
 20
0.9576041273782628
 10
36.733916648799
 20
0.9490742671582653
 10
36.77405042806322
 20
0.9405266467734452
 10
36.81418420732743
 20
0.9319630792988514
 10
36.854317986591646
 20
0.9233853674954323
 10
36.894451765855855
 20
0.9147953031983177
 10
36.93458554512007
 20
0.9061946667144987
 10
36.97471932438429
 20
0.8975852262302086
 10
37.0148531036485
 20
0.8889687372282801
 10
37.054986882912715
 20
0.8803469419157566
 10
37.095120662176924
 20
0.8717215686620264
 10
37.13525444144114
 20
0.8630943314477368
 10
37.17538822070536
 20
0.8544669293247387
 10
37.21552199996957
 20
0.8458410458873059
 10
37.255655779233784
 20
0.8372183487548607
 10
37.295789558498
 20
0.8286004890664291
 10
37.33592333776221
 20
0.8199891009870429
 10
37.37605711702643
 20
0.8113858012262932
 10
37.416190896290644
 20
0.8027921885692326
 10
37.45632467555485
 20
0.7942098434198113
 10
37.49645845481907
 20
0.7856403273570272
 10
37.53659223408329
 20
0.7770851827039527
 10
37.576726013347496
 20
0.7685459321098026
 10
37.61685979261171
 20
0.7600240781451841
 10
37.65699357187592
 20
0.7515211029106688
 10
37.69712735114014
 20
0.7430384676588165
 10
37.737261130404356
 20
0.7345776124297632
 10
37.777394909668566
 20
0.7261399557004846
 10
37.81752868893278
 20
0.7177268940478295
 10
37.85766246819699
 20
0.7093398018254085
 10
37.89779624746121
 20
0.700980030854416
 10
37.937930026725425
 20
0.6926489101284509
 10
37.978063805989635
 20
0.6843477455323896
 10
38.01819758525385
 20
0.6760778195753576
 10
38.05833136451807
 20
0.6678403911378322
 10
38.09846514378228
 20
0.6596366952329057
 10
38.138598923046494
 20
0.6514679427817147
 10
38.17873270231071
 20
0.6433353204030491
 10
38.21886648157492
 20
0.6352399902171251
 10
38.25900026083914
 20
0.6271830896635135
 10
38.29913404010335
 20
0.6191657313331914
 10
38.339267819367564
 20
0.6111890028146842
 10
38.37940159863178
 20
0.6032539665542512
 10
38.41953537789599
 20
0.5953616597300574
 10
38.45966915716021
 20
0.5875130941402689
 10
38.499802936424416
 20
0.5797092561049944
 10
38.53993671568863
 20
0.5719511063819913
 10
38.58007049495285
 20
0.564239580096041
 10
38.62020427421706
 20
0.5565755866818931
 10
38.660338053481276
 20
0.5489600098406645
 10
38.70047183274549
 20
0.5413937075095793
 10
38.7406056120097
 20
0.5338775118449142
 10
38.78073939127392
 20
0.5264122292180188
 10
38.820873170538135
 20
0.5189986402242627
 10
38.861006949802345
 20
0.5116374997047589
 10
38.90114072906656
 20
0.5043295367807022
 10
38.94127450833078
 20
0.49707545490015526
 10
38.98140828759499
 20
0.489875931897107
 10
39.021542066859205
 20
0.48273162006262316
 10
39.061675846123414
 20
0.47564314622789744
 10
39.10180962538763
 20
0.46861111185900844
 10
39.14194340465185
 20
0.4616360931631841
 10
39.18207718391606
 20
0.45471864120635996
 10
39.222210963180274
 20
0.44785928204182296
 10
39.26234474244448
 20
0.4410585168497174
 10
39.3024785217087
 20
0.43431682208719125
 10
39.34261230097292
 20
0.42763464964895165
 10
39.382746080237126
 20
0.421012427037994
 10
39.42287985950134
 20
0.4144505575462688
 10
39.46301363876556
 20
0.4079494204450385
 10
39.50314741802977
 20
0.4015093711846805
 10
39.543281197293986
 20
0.39513074160368133
 10
39.5834149765582
 20
0.3888138401465715
 10
39.62354875582241
 20
0.38255895209053825
 10
39.66368253508663
 20
0.3763663397804586
 10
39.70381631435084
 20
0.3702362428720872
 10
39.743950093615055
 20
0.36416887858313246
 10
39.78408387287927
 20
0.3581644419519544
 10
39.82421765214348
 20
0.35222310610361063
 10
39.8643514314077
 20
0.34634502252298144
 10
39.90448521067191
 20
0.3405303213346988
 10
39.944618989936124
 20
0.3347791115896052
 10
39.98475276920034
 20
0.32909148155746626
 10
40.02488654846455
 20
0.3234674990256623
 10
40.06502032772877
 20
0.3179072116035807
 10
40.105154106992984
 20
0.31241064703243315
 10
40.145287886257194
 20
0.3069778135002219
 10
40.18542166552141
 20
0.30160869996157763
 10
40.22555544478563
 20
0.29630327646219395
 10
40.26568922404984
 20
0.29106149446758406
 10
40.30582300331405
 20
0.28588328719588557
 10
40.34595678257827
 20
0.2807685699544401
 10
40.38609056184248
 20
0.2757172404798794
 10
40.426224341106696
 20
0.27072917928144513
 10
40.466358120370906
 20
0.26580424998727853
 10
40.50649189963512
 20
0.2609422996934125
 10
40.54662567889934
 20
0.2561431593152036
 10
40.58675945816355
 20
0.2514066439409453
 10
40.626893237427765
 20
0.2467325531874026
 10
40.667027016691975
 20
0.24212067155701503
 10
40.70716079595619
 20
0.23757076879651537
 10
40.74729457522041
 20
0.23308260025671657
 10
40.78742835448462
 20
0.22865590725322116
 10
40.827562133748835
 20
0.22429041742781194
 10
40.86769591301305
 20
0.21998584511028685
 10
40.90782969227726
 20
0.21574189168050278
 10
40.94796347154148
 20
0.21155824593040037
 10
40.988097250805694
 20
0.20743458442578205
 10
41.028231030069904
 20
0.2033705718676231
 10
41.06836480933412
 20
0.19936586145269916
 10
41.10849858859834
 20
0.1954200952333149
 10
41.14863236786255
 20
0.19153290447593024
 10
41.18876614712676
 20
0.1877039100184747
 10
41.22889992639097
 20
0.18393272262615842
 10
41.26903370565519
 20
0.18021894334557975
 10
41.3091674849194
 20
0.17656216385694457
 10
41.349301264183616
 20
0.17296196682421164
 10
41.38943504344783
 20
0.16941792624298718
 10
41.42956882271204
 20
0.16592960778599186
 10
41.46970260197626
 20
0.1624965691459363
 10
41.509836381240476
 20
0.15911836037563742
 10
41.549970160504685
 20
0.1557945242252215
 10
41.5901039397689
 20
0.15252459647625824
 10
41.63023771903312
 20
0.14930810627268232
 10
41.67037149829733
 20
0.14614457644835563
 10
41.710505277561545
 20
0.14303352385113968
 10
41.75063905682576
 20
0.1399744596633409
 10
41.79077283608997
 20
0.13696688971840923
 10
41.83090661535419
 20
0.13401031481376352
 10
41.8710403946184
 20
0.13110423101963492
 10
41.911174173882614
 20
0.1282481299838132
 10
41.951307953146824
 20
0.12544149923219666
 10
41.99144173241104
 20
0.12268382246504195
 10
42.03157551167526
 20
0.11997457984882523
 10
42.07170929093947
 20
0.11731324830362203
 10
42.11184307020368
 20
0.11469930178592505
 10
42.1519768494679
 20
0.1121322115668221
 10
42.19211062873211
 20
0.10961144650546005
 10
42.232244407996326
 20
0.10713647331772902
 10
42.27237818726054
 20
0.10470675684010197
 10
42.31251196652475
 20
0.10232176028857487
 10
42.35264574578897
 20
0.09998094551265145
 10
42.392779525053186
 20
0.0976837732443288
 10
42.432913304317395
 20
0.09542970334203608
 10
42.47304708358161
 20
0.0932181950294929
 10
42.51318086284583
 20
0.0910487071294493
 10
42.55331464211004
 20
0.08892069829228204
 10
42.593448421374255
 20
0.08683362721941919
 10
42.633582200638465
 20
0.08478695288157632
 10
42.67371597990268
 20
0.08278013473178494
 10
42.71384975916689
 20
0.08081263291320455
 10
42.75398353843111
 20
0.0788839084617084
 10
42.794117317695324
 20
0.07699342350324187
 10
42.834251096959534
 20
0.07514064144595142
 10
42.87438487622375
 20
0.07332502716709077
 10
42.91451865548797
 20
0.07154604719471112
 10
42.95465243475218
 20
0.06980316988414761
 10
42.99478621401639
 20
0.06809586558931713
 10
43.03491999328061
 20
0.06642360682884742
 10
43.07505377254482
 20
0.06478586844705746
 10
43.115187551809036
 20
0.06318212776981737
 10
43.15532133107325
 20
0.06161186475531372
 10
43.19545511033746
 20
0.060074562139754574
 10
43.23558888960168
 20
0.05856970557804623
 10
43.27572266886589
 20
0.057096783779481707
 10
43.315856448130106
 20
0.05565528863847878
 10
43.35599022739432
 20
0.05424471536041286
 10
43.39612400665853
 20
0.05286456258258785
 10
43.43625778592275
 20
0.05151433249039411
 10
43.47639156518696
 20
0.05019353092870381
 10
43.516525344451175
 20
0.04890166750855487
 10
43.55665912371539
 20
0.047638255709179615
 10
43.5967929029796
 20
0.04640281297543276
 10
43.63692668224382
 20
0.0451948608106792
 10
43.677060461508034
 20
0.04401392486519993
 10
43.717194240772244
 20
0.04285953502017967
 10
43.75732802003646
 20
0.041731225467338345
 10
43.79746179930068
 20
0.04062853478427298
 10
43.83759557856489
 20
0.03955100600557498
 10
43.877729357829104
 20
0.03849818668979225
 10
43.91786313709332
 20
0.037469628982303584
 10
43.95799691635753
 20
0.03646488967417729
 10
43.99813069562175
 20
0.0354835302570835
 10
44.038264474885956
 20
0.03452511697433432
 10
44.07839825415017
 20
0.03358922086812299
 10
44.11853203341438
 20
0.03267541782303791
 10
44.1586658126786
 20
0.031783288605924116
 10
44.198799591942816
 20
0.03091241890216951
 10
44.238933371207025
 20
0.030062399348489695
 10
44.27906715047124
 20
0.02923282556228913
 10
44.31920092973546
 20
0.028423298167674135
 10
44.35933470899967
 20
0.02763342281819553
 10
44.399468488263885
 20
0.026862810216397207
 10
44.4396022675281
 20
0.026111076130248795
 10
44.47973604679231
 20
0.025377841406538922
 10
44.51986982605653
 20
0.024662731981307386
 10
44.560003605320745
 20
0.023965378887392693
 10
44.600137384584954
 20
0.023285418259173202
 10
44.64027116384917
 20
0.022622491334577874
 10
44.68040494311339
 20
0.021976244454444665
 10
44.7205387223776
 20
0.02134632905930199
 10
44.760672501641814
 20
0.020732401683650262
 10
44.80080628090602
 20
0.020134123947819178
 10
44.84094006017024
 20
0.0195511625474758
 10
44.88107383943445
 20
0.01898318924085873
 10
44.921207618698666
 20
0.018429880833812314
 10
44.96134139796288
 20
0.017890919162695078
 10
45.00147517722709
 20
0.0173659910752348
 10
45.04160895649131
 20
0.016854788409403437
  0
LWPOLYLINE
  5
3B
330
17
100
AcDbEntity
  8
MERGED_CATENARY
100
AcDbPolyline
 90
300
 70
0
 10
33.04160895649131
 20
6.432420774736983
 10
33.081742735755526
 20
6.415285243786493
 10
33.121876515019736
 20
6.398237247946071
 10
33.16201029428395
 20
6.381276718566811
 10
33.20214407354817
 20
6.364403587352026
 10
33.24227785281238
 20
6.347617786356959
 10
33.282411632076595
 20
6.3309192479885095
 10
33.322545411340805
 20
6.314307905004973
 10
33.36267919060502
 20
6.297783690515757
 10
33.40281296986924
 20
6.28134653798113
 10
33.44294674913345
 20
6.26499638121193
 10
33.483080528397664
 20
6.248733154369311
 10
33.52321430766188
 20
6.232556791964486
 10
33.56334808692609
 20
6.21646722885844
 10
33.60348186619031
 20
6.200464400261694
 10
33.64361564545452
 20
6.18454824173403
 10
33.683749424718734
 20
6.168718689184221
 10
33.72388320398295
 20
6.152975678869799
 10
33.76401698324716
 20
6.137319147396781
 10
33.80415076251138
 20
6.1217490317194105
 10
33.84428454177559
 20
6.1062652691399215
 10
33.8844183210398
 20
6.090867797308264
 10
33.92455210030402
 20
6.075556554221871
 10
33.96468587956823
 20
6.060331478225394
 10
34.004819658832446
 20
6.045192508010476
 10
34.04495343809666
 20
6.030139582615475
 10
34.08508721736087
 20
6.015172641425249
 10
34.12522099662509
 20
6.0002916241708775
 10
34.165354775889305
 20
5.985496470929464
 10
34.205488555153515
 20
5.9707871221238555
 10
34.24562233441773
 20
5.956163518522406
 10
34.28575611368194
 20
5.941625601238776
 10
34.32588989294616
 20
5.927173311731638
 10
34.366023672210375
 20
5.91280659180449
 10
34.406157451474584
 20
5.8985253836054
 10
34.4462912307388
 20
5.884329629626766
 10
34.48642501000302
 20
5.8702192727051
 10
34.52655878926723
 20
5.856194256020791
 10
34.566692568531444
 20
5.842254523097872
 10
34.60682634779566
 20
5.828400017803801
 10
34.64696012705987
 20
5.814630684349223
 10
34.68709390632409
 20
5.800946467287769
 10
34.727227685588296
 20
5.787347311515803
 10
34.76736146485251
 20
5.773833162272213
 10
34.80749524411673
 20
5.760403965138206
 10
34.84762902338094
 20
5.74705966603706
 10
34.887762802645156
 20
5.73380021123392
 10
34.92789658190937
 20
5.7206255473355965
 10
34.96803036117358
 20
5.707535621290323
 10
35.0081641404378
 20
5.694530380387562
 10
35.04829791970201
 20
5.681609772257781
 10
35.088431698966225
 20
5.6687737448722535
 10
35.12856547823044
 20
5.656022246542836
 10
35.16869925749465
 20
5.643355225921772
 10
35.20883303675887
 20
5.63077263200148
 10
35.248966816023085
 20
5.618274414114344
 10
35.289100595287294
 20
5.605860521932511
 10
35.32923437455151
 20
5.593530905467706
 10
35.36936815381573
 20
5.581285515071002
 10
35.40950193307994
 20
5.569124301432631
 10
35.449635712344154
 20
5.557047215581801
 10
35.489769491608364
 20
5.545054208886476
 10
35.52990327087258
 20
5.5331452330531965
 10
35.5700370501368
 20
5.521320240126871
 10
35.61017082940101
 20
5.509579182490601
 10
35.65030460866522
 20
5.497922012865464
 10
35.69043838792943
 20
5.486348684310352
 10
35.73057216719365
 20
5.474859150221765
 10
35.770705946457866
 20
5.463453364333624
 10
35.810839725722076
 20
5.452131280717081
 10
35.85097350498629
 20
5.440892853780362
 10
35.89110728425051
 20
5.429738038268533
 10
35.93124106351472
 20
5.418666789263369
 10
35.971374842778935
 20
5.407679062183138
 10
36.01150862204315
 20
5.396774812782444
 10
36.05164240130736
 20
5.385953997152029
 10
36.09177618057158
 20
5.375216571718624
 10
36.13190995983579
 20
5.364562493244727
 10
36.172043739100005
 20
5.353991718828482
 10
36.21217751836422
 20
5.343504205903476
 10
36.25231129762843
 20
5.333099912238566
 10
36.29244507689265
 20
5.322778795937729
 10
36.332578856156864
 20
5.312540815439871
 10
36.372712635421074
 20
5.3023859295186675
 10
36.41284641468529
 20
5.292314097282407
 10
36.4529801939495
 20
5.282325278173817
 10
36.49311397321372
 20
5.272419431969902
 10
36.53324775247793
 20
5.262596518781775
 10
36.57338153174214
 20
5.252856499054522
 10
36.61351531100636
 20
5.243199333567004
 10
36.65364909027058
 20
5.233624983431729
 10
36.693782869534786
 20
5.224133410094687
 10
36.733916648799
 20
5.214724575335186
 10
36.77405042806322
 20
5.205398441265723
 10
36.81418420732743
 20
5.196154970331797
 10
36.854317986591646
 20
5.186994125311777
 10
36.894451765855855
 20
5.177915869316763
 10
36.93458554512007
 20
5.16892016579041
 10
36.97471932438429
 20
5.160006978508805
 10
37.0148531036485
 20
5.151176271580307
 10
37.054986882912715
 20
5.142428009445406
 10
37.095120662176924
 20
5.133762156876583
 10
37.13525444144114
 20
5.125178678978173
 10
37.17538822070536
 20
5.116677541186199
 10
37.21552199996957
 20
5.1082587092682745
 10
37.255655779233784
 20
5.099922149323424
 10
37.295789558498
 20
5.091667827781972
 10
37.33592333776221
 20
5.0834957114054
 10
37.37605711702643
 20
5.075405767286217
 10
37.416190896290644
 20
5.06739796284782
 10
37.45632467555485
 20
5.059472265844363
 10
37.49645845481907
 20
5.051628644360633
 10
37.53659223408329
 20
5.043867066811927
 10
37.576726013347496
 20
5.036187501943908
 10
37.61685979261171
 20
5.0285899188324805
 10
37.65699357187592
 20
5.0210742868836915
 10
37.69712735114014
 20
5.013640575833572
 10
37.737261130404356
 20
5.006288755748048
 10
37.777394909668566
 20
4.999018797022792
 10
37.81752868893278
 20
4.99183067038312
 10
37.85766246819699
 20
4.984724346883869
 10
37.89779624746121
 20
4.977699797909281
 10
37.937930026725425
 20
4.97075699517289
 10
37.978063805989635
 20
4.9638959107174045
 10
38.01819758525385
 20
4.957116516914597
 10
38.05833136451807
 20
4.95041878646519
 10
38.09846514378228
 20
4.9438026923987515
 10
38.138598923046494
 20
4.937268208073576
 10
38.17873270231071
 20
4.930815307176595
 10
38.21886648157492
 20
4.924443963723253
 10
38.25900026083914
 20
4.918154152057411
 10
38.29913404010335
 20
4.911945846851243
 10
38.339267819367564
 20
4.905819023105134
 10
38.37940159863178
 20
4.8997736561475795
 10
38.41953537789599
 20
4.893809721635079
 10
38.45966915716021
 20
4.887927195552056
 10
38.499802936424416
 20
4.8821260542107385
 10
38.53993671568863
 20
4.87640627425108
 10
38.58007049495285
 20
4.870767832640664
 10
38.62020427421706
 20
4.865210706674599
 10
38.660338053481276
 20
4.859734873975435
 10
38.70047183274549
 20
4.854340312493084
 10
38.7406056120097
 20
4.849027000504716
 10
38.78073939127392
 20
4.84379491661467
 10
38.820873170538135
 20
4.838644039754388
 10
38.861006949802345
 20
4.833574349182304
 10
38.90114072906656
 20
4.82858582448378
 10
38.94127450833078
 20
4.823678445571014
 10
38.98140828759499
 20
4.8188521926829635
 10
39.021542066859205
 20
4.8141070463852635
 10
39.061675846123414
 20
4.809442987570154
 10
39.10180962538763
 20
4.804859997456388
 10
39.14194340465185
 20
4.800358057589172
 10
39.18207718391606
 20
4.7959371498400865
 10
39.222210963180274
 20
4.791597256407017
 10
39.26234474244448
 20
4.787338359814067
 10
39.3024785217087
 20
4.783160442911505
 10
39.34261230097292
 20
4.779063488875684
 10
39.382746080237126
 20
4.775047481208985
 10
39.42287985950134
 20
4.771112403739742
 10
39.46301363876556
 20
4.767258240622175
 10
39.50314741802977
 20
4.763484976336326
 10
39.543281197293986
 20
4.75979259568802
 10
39.5834149765582
 20
4.756181083808764
 10
39.62354875582241
 20
4.752650426155716
 10
39.66368253508663
 20
4.749200608511613
 10
39.70381631435084
 20
4.745831616984731
 10
39.743950093615055
 20
4.742543438008802
 10
39.78408387287927
 20
4.739336058342983
 10
39.82421765214348
 20
4.736209465071786
 10
39.8643514314077
 20
4.733163645605048
 10
39.90448521067191
 20
4.7301985876778545
 10
39.944618989936124
 20
4.727314279350499
 10
39.98475276920034
 20
4.72451070900845
 10
40.02488654846455
 20
4.72178786536228
 10
40.06502032772877
 20
4.719145737447639
 10
40.105154106992984
 20
4.716584314625203
 10
40.145287886257194
 20
4.714103586580627
 10
40.18542166552141
 20
4.711703543324511
 10
40.22555544478563
 20
4.709384175192353
 10
40.26568922404984
 20
4.707145472844523
 10
40.30582300331405
 20
4.704987427266206
 10
40.34595678257827
 20
4.7029100297673825
 10
40.38609056184248
 20
4.700913271982781
 10
40.426224341106696
 20
4.698997145871855
 10
40.466358120370906
 20
4.697161643718746
 10
40.50649189963512
 20
4.6954067581322505
 10
40.54662567889934
 20
4.693732482045785
 10
40.58675945816355
 20
4.692138808717379
 10
40.626893237427765
 20
4.690625731729623
 10
40.667027016691975
 20
4.689193244989654
 10
40.70716079595619
 20
4.687841342729134
 10
40.74729457522041
 20
4.686570019504222
 10
40.78742835448462
 20
4.685379270195543
 10
40.827562133748835
 20
4.684269090008193
 10
40.86769591301305
 20
4.683239474471697
 10
40.90782969227726
 20
4.682290419439992
 10
40.94796347154148
 20
4.681421921091425
 10
40.988097250805694
 20
4.680633975928721
 10
41.028231030069904
 20
4.6799265807789885
 10
41.06836480933412
 20
4.6792997327936785
 10
41.10849858859834
 20
4.678753429448606
 10
41.14863236786255
 20
4.678287668543913
 10
41.18876614712676
 20
4.677902448204068
 10
41.22889992639097
 20
4.677597766877868
 10
41.26903370565519
 20
4.677373623338424
 10
41.3091674849194
 20
4.677230016683154
 10
41.349301264183616
 20
4.67716694633378
 10
41.38943504344783
 20
4.677184412036331
 10
41.42956882271204
 20
4.677282413861137
 10
41.46970260197626
 20
4.677460952202835
 10
41.509836381240476
 20
4.677720027780364
 10
41.549970160504685
 20
4.678059641636961
 10
41.5901039397689
 20
4.678479795140194
 10
41.63023771903312
 20
4.678980489981937
 10
41.67037149829733
 20
4.679561728178381
 10
41.710505277561545
 20
4.680223512070068
 10
41.75063905682576
 20
4.680965844321861
 10
41.79077283608997
 20
4.681788727922991
 10
41.83090661535419
 20
4.682692166187044
 10
41.8710403946184
 20
4.683676162751993
 10
41.911174173882614
 20
4.6847407215801855
 10
41.951307953146824
 20
4.6858858469584
 10
41.99144173241104
 20
4.687111543497824
 10
42.03157551167526
 20
4.688417816134101
 10
42.07170929093947
 20
4.689804670127325
 10
42.11184307020368
 20
4.691272111062082
 10
42.1519768494679
 20
4.692820144847472
 10
42.19211062873211
 20
4.694448777717118
 10
42.232244407996326
 20
4.6961580162292
 10
42.27237818726054
 20
4.697947867266488
 10
42.31251196652475
 20
4.6998183380363505
 10
42.35264574578897
 20
4.701769436070807
 10
42.392779525053186
 20
4.703801169226541
 10
42.432913304317395
 20
4.7059135456849415
 10
42.47304708358161
 20
4.708106573952134
 10
42.51318086284583
 20
4.710380262859
 10
42.55331464211004
 20
4.712734621561239
 10
42.593448421374255
 20
4.7151696595393915
 10
42.633582200638465
 20
4.717685386598863
 10
42.67371597990268
 20
4.7202818128699935
 10
42.71384975916689
 20
4.722958948808083
 10
42.75398353843111
 20
4.725716805193419
 10
42.794117317695324
 20
4.728555393131349
 10
42.834251096959534
 20
4.7314747240522985
 10
42.87438487622375
 20
4.734474809711838
 10
42.91451865548797
 20
4.73755566219072
 10
42.95465243475218
 20
4.74071729389493
 10
42.99478621401639
 20
4.743959717555722
 10
43.03491999328061
 20
4.7472829462297055
 10
43.07505377254482
 20
4.7506869932988565
 10
43.115187551809036
 20
4.754171872470601
 10
43.15532133107325
 20
4.757737597777861
 10
43.19545511033746
 20
4.761384183579096
 10
43.23558888960168
 20
4.765111644558393
 10
43.27572266886589
 20
4.768919995725501
 10
43.315856448130106
 20
4.772809252415889
 10
43.35599022739432
 20
4.77677943029083
 10
43.39612400665853
 20
4.780830545337434
 10
43.43625778592275
 20
4.784962613868749
 10
43.47639156518696
 20
4.789175652523794
 10
43.516525344451175
 20
4.793469678267639
 10
43.55665912371539
 20
4.797844708391479
 10
43.5967929029796
 20
4.802300760512688
 10
43.63692668224382
 20
4.806837852574913
 10
43.677060461508034
 20
4.811456002848116
 10
43.717194240772244
 20
4.816155229928681
 10
43.75732802003646
 20
4.820935552739465
 10
43.79746179930068
 20
4.825796990529872
 10
43.83759557856489
 20
4.830739562875961
 10
43.877729357829104
 20
4.835763289680484
 10
43.91786313709332
 20
4.840868191172996
 10
43.95799691635753
 20
4.846054287909925
 10
43.99813069562175
 20
4.8513216007746545
 10
44.038264474885956
 20
4.856670150977614
 10
44.07839825415017
 20
4.862099960056348
 10
44.11853203341438
 20
4.867611049875629
 10
44.1586658126786
 20
4.873203442627523
 10
44.198799591942816
 20
4.878877160831488
 10
44.238933371207025
 20
4.8846322273344605
 10
44.27906715047124
 20
4.890468665310957
 10
44.31920092973546
 20
4.896386498263155
 10
44.35933470899967
 20
4.902385750020993
 10
44.399468488263885
 20
4.908466444742279
 10
44.4396022675281
 20
4.914628606912757
 10
44.47973604679231
 20
4.920872261346239
 10
44.51986982605653
 20
4.927197433184681
 10
44.560003605320745
 20
4.933604147898303
 10
44.600137384584954
 20
4.94009243128567
 10
44.64027116384917
 20
4.94666230947382
 10
44.68040494311339
 20
4.953313808918345
 10
44.7205387223776
 20
4.960046956403519
 10
44.760672501641814
 20
4.966861779042396
 10
44.80080628090602
 20
4.973758304276912
 10
44.84094006017024
 20
4.98073655987801
 10
44.88107383943445
 20
4.987796573945745
 10
44.921207618698666
 20
4.994938374909397
 10
44.96134139796288
 20
5.002161991527577
 10
45.00147517722709
 20
5.009467452888366
 10
45.04160895649131
 20
5.016854788409407
  0
LINE
  5
3C
330
17
100
AcDbEntity
  8
MERGED_SUPPORTS
100
AcDbLine
 10
45.04160895649131
 20
0.016854788409403437
 30
0.0
 11
45.04160895649131
 21
5.016854788409403
 31
0.0
  0
ENDSEC
  0
SECTION
  2
OBJECTS
  0
DICTIONARY
  5
A
330
0
100
AcDbDictionary
281
1
  3
ACAD_COLOR
350
B
  3
ACAD_GROUP
350
C
  3
ACAD_LAYOUT
350
D
  3
ACAD_MATERIAL
350
E
  3
ACAD_MLEADERSTYLE
350
F
  3
ACAD_MLINESTYLE
350
10
  3
ACAD_PLOTSETTINGS
350
11
  3
ACAD_PLOTSTYLENAME
350
12
  3
ACAD_SCALELIST
350
14
  3
ACAD_TABLESTYLE
350
15
  3
ACAD_VISUALSTYLE
350
16
  3
EZDXF_META
350
2D
  0
DICTIONARY
  5
B
330
A
100
AcDbDictionary
281
1
  0
DICTIONARY
  5
C
330
A
100
AcDbDictionary
281
1
  0
DICTIONARY
  5
D
330
A
100
AcDbDictionary
281
1
  3
Model
350
1A
  3
Layout1
350
1E
  0
DICTIONARY
  5
E
330
A
100
AcDbDictionary
281
1
  3
ByBlock
350
1F
  3
ByLayer
350
20
  3
Global
350
21
  0
DICTIONARY
  5
F
330
A
100
AcDbDictionary
281
1
  3
Standard
350
2C
  0
DICTIONARY
  5
10
330
A
100
AcDbDictionary
281
1
  3
Standard
350
22
  0
DICTIONARY
  5
11
330
A
100
AcDbDictionary
281
1
  0
ACDBDICTIONARYWDFLT
  5
12
330
A
100
AcDbDictionary
281
1
  3
Normal
350
13
100
AcDbDictionaryWithDefault
340
13
  0
ACDBPLACEHOLDER
  5
13
330
12
  0
DICTIONARY
  5
14
330
A
100
AcDbDictionary
281
1
  0
DICTIONARY
  5
15
330
A
100
AcDbDictionary
281
1
  0
DICTIONARY
  5
16
330
A
100
AcDbDictionary
281
1
  0
LAYOUT
  5
1A
330
D
100
AcDbPlotSettings
  1

  4
A3
  6

 40
7.5
 41
20.0
 42
7.5
 43
20.0
 44
420.0
 45
297.0
 46
0.0
 47
0.0
 48
0.0
 49
0.0
140
0.0
141
0.0
142
1.0
143
1.0
 70
1024
 72
1
 73
0
 74
5
  7

 75
16
 76
0
 77
2
 78
300
147
1.0
148
0.0
149
0.0
100
AcDbLayout
  1
Model
 70
1
 71
0
 10
0.0
 20
0.0
 11
420.0
 21
297.0
 12
0.0
 22
0.0
 32
0.0
 14
1e+20
 24
1e+20
 34
1e+20
 15
-1e+20
 25
-1e+20
 35
-1e+20
146
0.0
 13
0.0
 23
0.0
 33
0.0
 16
1.0
 26
0.0
 36
0.0
 17
0.0
 27
1.0
 37
0.0
 76
1
330
17
  0
LAYOUT
  5
1E
330
D
100
AcDbPlotSettings
  1

  4
A3
  6

 40
7.5
 41
20.0
 42
7.5
 43
20.0
 44
420.0
 45
297.0
 46
0.0
 47
0.0
 48
0.0
 49
0.0
140
0.0
141
0.0
142
1.0
143
1.0
 70
0
 72
1
 73
0
 74
5
  7

 75
16
 76
0
 77
2
 78
300
147
1.0
148
0.0
149
0.0
100
AcDbLayout
  1
Layout1
 70
1
 71
1
 10
0.0
 20
0.0
 11
420.0
 21
297.0
 12
0.0
 22
0.0
 32
0.0
 14
1e+20
 24
1e+20
 34
1e+20
 15
-1e+20
 25
-1e+20
 35
-1e+20
146
0.0
 13
0.0
 23
0.0
 33
0.0
 16
1.0
 26
0.0
 36
0.0
 17
0.0
 27
1.0
 37
0.0
 76
1
330
1B
  0
MATERIAL
  5
1F
102
{ACAD_REACTORS
330
E
102
}
330
E
100
AcDbMaterial
  1
ByBlock
  2

 70
0
 40
1.0
 71
1
 41
1.0
 91
-1023410177
 42
1.0
 72
1
  3

 73
1
 74
1
 75
1
 44
0.5
 73
0
 45
1.0
 46
1.0
 77
1
  4

 78
1
 79
1
170
1
 48
1.0
171
1
  6

172
1
173
1
174
1
140
1.0
141
1.0
175
1
  7

176
1
177
1
178
1
143
1.0
179
1
  8

270
1
271
1
272
1
145
1.0
146
1.0
273
1
  9

274
1
275
1
276
1
 42
1.0
 72
1
  3

 73
1
 74
1
 75
1
 94
63
  0
MATERIAL
  5
20
102
{ACAD_REACTORS
330
E
102
}
330
E
100
AcDbMaterial
  1
ByLayer
  2

 70
0
 40
1.0
 71
1
 41
1.0
 91
-1023410177
 42
1.0
 72
1
  3

 73
1
 74
1
 75
1
 44
0.5
 73
0
 45
1.0
 46
1.0
 77
1
  4

 78
1
 79
1
170
1
 48
1.0
171
1
  6

172
1
173
1
174
1
140
1.0
141
1.0
175
1
  7

176
1
177
1
178
1
143
1.0
179
1
  8

270
1
271
1
272
1
145
1.0
146
1.0
273
1
  9

274
1
275
1
276
1
 42
1.0
 72
1
  3

 73
1
 74
1
 75
1
 94
63
  0
MATERIAL
  5
21
102
{ACAD_REACTORS
330
E
102
}
330
E
100
AcDbMaterial
  1
Global
  2

 70
0
 40
1.0
 71
1
 41
1.0
 91
-1023410177
 42
1.0
 72
1
  3

 73
1
 74
1
 75
1
 44
0.5
 73
0
 45
1.0
 46
1.0
 77
1
  4

 78
1
 79
1
170
1
 48
1.0
171
1
  6

172
1
173
1
174
1
140
1.0
141
1.0
175
1
  7

176
1
177
1
178
1
143
1.0
179
1
  8

270
1
271
1
272
1
145
1.0
146
1.0
273
1
  9

274
1
275
1
276
1
 42
1.0
 72
1
  3

 73
1
 74
1
 75
1
 94
63
  0
MLINESTYLE
  5
22
102
{ACAD_REACTORS
330
10
102
}
330
10
100
AcDbMlineStyle
  2
Standard
 70
0
  3

 62
256
 51
90.0
 52
90.0
 71
2
 49
0.5
 62
256
  6
BYLAYER
 49
-0.5
 62
256
  6
BYLAYER
  0
MLEADERSTYLE
  5
2C
102
{ACAD_REACTORS
330
F
102
}
330
F
100
AcDbMLeaderStyle
179
2
170
2
171
1
172
0
 90
2
 40
0.0
 41
0.0
173
1
 91
-1056964608
 92
-2
290
1
 42
2.0
291
1
 43
8.0
  3
Standard
 44
4.0
300

342
29
174
1
175
1
176
0
178
1
 93
-1056964608
 45
4.0
292
0
297
0
 46
4.0
 94
-1056964608
 47
1.0
 49
1.0
140
1.0
294
1
141
0.0
177
0
142
1.0
295
0
296
0
143
3.75
271
0
272
9
273
9
  0
DICTIONARY
  5
2D
330
A
100
AcDbDictionary
280
1
281
1
  3
CREATED_BY_EZDXF
350
2E
  3
WRITTEN_BY_EZDXF
350
3F
  0
DICTIONARYVAR
  5
2E
330
2D
100
DictionaryVariables
280
0
  1
1.4.4 @ 2026-05-20T11:08:03.743042+00:00
  0
DICTIONARYVAR
  5
3F
330
2D
100
DictionaryVariables
280
0
  1
1.4.4 @ 2026-05-20T11:08:03.752087+00:00
  0
ENDSEC
  0
EOF
