  0
SECTION
  2
HEADER
  9
$ACADVER
  1
AC1024
  9
$ACADMAINTVER
 70
6
  9
$DWGCODEPAGE
  3
ANSI_1252
  9
$LASTSAVEDBY
  1
ezdxf
  9
$INSBASE
 10
0.0
 20
0.0
 30
0.0
  9
$EXTMIN
 10
1e+20
 20
1e+20
 30
1e+20
  9
$EXTMAX
 10
-1e+20
 20
-1e+20
 30
-1e+20
  9
$LIMMIN
 10
0.0
 20
0.0
  9
$LIMMAX
 10
420.0
 20
297.0
  9
$ORTHOMODE
 70
0
  9
$REGENMODE
 70
1
  9
$FILLMODE
 70
1
  9
$QTEXTMODE
 70
0
  9
$MIRRTEXT
 70
1
  9
$LTSCALE
 40
1.0
  9
$ATTMODE
 70
1
  9
$TEXTSIZE
 40
2.5
  9
$TRACEWID
 40
1.0
  9
$TEXTSTYLE
  7
Standard
  9
$CLAYER
  8
0
  9
$CELTYPE
  6
ByLayer
  9
$CECOLOR
 62
256
  9
$CELTSCALE
 40
1.0
  9
$DISPSILH
 70
0
  9
$DIMSCALE
 40
1.0
  9
$DIMASZ
 40
2.5
  9
$DIMEXO
 40
0.625
  9
$DIMDLI
 40
3.75
  9
$DIMRND
 40
0.0
  9
$DIMDLE
 40
0.0
  9
$DIMEXE
 40
1.25
  9
$DIMTP
 40
0.0
  9
$DIMTM
 40
0.0
  9
$DIMTXT
 40
2.5
  9
$DIMCEN
 40
2.5
  9
$DIMTSZ
 40
0.0
  9
$DIMTOL
 70
0
  9
$DIMLIM
 70
0
  9
$DIMTIH
 70
0
  9
$DIMTOH
 70
0
  9
$DIMSE1
 70
0
  9
$DIMSE2
 70
0
  9
$DIMTAD
 70
1
  9
$DIMZIN
 70
8
  9
$DIMBLK
  1

  9
$DIMASO
 70
1
  9
$DIMSHO
 70
1
  9
$DIMPOST
  1

  9
$DIMAPOST
  1

  9
$DIMALT
 70
0
  9
$DIMALTD
 70
3
  9
$DIMALTF
 40
0.03937007874
  9
$DIMLFAC
 40
1.0
  9
$DIMTOFL
 70
1
  9
$DIMTVP
 40
0.0
  9
$DIMTIX
 70
0
  9
$DIMSOXD
 70
0
  9
$DIMSAH
 70
0
  9
$DIMBLK1
  1

  9
$DIMBLK2
  1

  9
$DIMSTYLE
  2
ISO-25
  9
$DIMCLRD
 70
0
  9
$DIMCLRE
 70
0
  9
$DIMCLRT
 70
0
  9
$DIMTFAC
 40
1.0
  9
$DIMGAP
 40
0.625
  9
$DIMJUST
 70
0
  9
$DIMSD1
 70
0
  9
$DIMSD2
 70
0
  9
$DIMTOLJ
 70
0
  9
$DIMTZIN
 70
8
  9
$DIMALTZ
 70
0
  9
$DIMALTTZ
 70
0
  9
$DIMUPT
 70
0
  9
$DIMDEC
 70
2
  9
$DIMTDEC
 70
2
  9
$DIMALTU
 70
2
  9
$DIMALTTD
 70
3
  9
$DIMTXSTY
  7
Standard
  9
$DIMAUNIT
 70
0
  9
$DIMADEC
 70
0
  9
$DIMALTRND
 40
0.0
  9
$DIMAZIN
 70
0
  9
$DIMDSEP
 70
44
  9
$DIMATFIT
 70
3
  9
$DIMFRAC
 70
0
  9
$DIMLDRBLK
  1

  9
$DIMLUNIT
 70
2
  9
$DIMLWD
 70
-2
  9
$DIMLWE
 70
-2
  9
$DIMTMOVE
 70
0
  9
$DIMFXL
 40
1.0
  9
$DIMFXLON
 70
0
  9
$DIMJOGANG
 40
0.785398163397
  9
$DIMTFILL
 70
0
  9
$DIMTFILLCLR
 70
0
  9
$DIMARCSYM
 70
0
  9
$DIMLTYPE
  6

  9
$DIMLTEX1
  6

  9
$DIMLTEX2
  6

  9
$DIMTXTDIRECTION
 70
0
  9
$LUNITS
 70
2
  9
$LUPREC
 70
4
  9
$SKETCHINC
 40
1.0
  9
$FILLETRAD
 40
10.0
  9
$AUNITS
 70
0
  9
$AUPREC
 70
2
  9
$MENU
  1
.
  9
$ELEVATION
 40
0.0
  9
$PELEVATION
 40
0.0
  9
$THICKNESS
 40
0.0
  9
$LIMCHECK
 70
0
  9
$CHAMFERA
 40
0.0
  9
$CHAMFERB
 40
0.0
  9
$CHAMFERC
 40
0.0
  9
$CHAMFERD
 40
0.0
  9
$SKPOLY
 70
0
  9
$TDCREATE
 40
2461182.550694444
  9
$TDUCREATE
 40
2458532.153996898
  9
$TDUPDATE
 40
2461182.550694444
  9
$TDUUPDATE
 40
2458532.1544311
  9
$TDINDWG
 40
0.0
  9
$TDUSRTIMER
 40
0.0
  9
$USRTIMER
 70
1
  9
$ANGBASE
 50
0.0
  9
$ANGDIR
 70
0
  9
$PDMODE
 70
0
  9
$PDSIZE
 40
0.0
  9
$PLINEWID
 40
0.0
  9
$SPLFRAME
 70
0
  9
$SPLINETYPE
 70
6
  9
$SPLINESEGS
 70
8
  9
$HANDSEED
  5
40
  9
$SURFTAB1
 70
6
  9
$SURFTAB2
 70
6
  9
$SURFTYPE
 70
6
  9
$SURFU
 70
6
  9
$SURFV
 70
6
  9
$UCSBASE
  2

  9
$UCSNAME
  2

  9
$UCSORG
 10
0.0
 20
0.0
 30
0.0
  9
$UCSXDIR
 10
1.0
 20
0.0
 30
0.0
  9
$UCSYDIR
 10
0.0
 20
1.0
 30
0.0
  9
$UCSORTHOREF
  2

  9
$UCSORTHOVIEW
 70
0
  9
$UCSORGTOP
 10
0.0
 20
0.0
 30
0.0
  9
$UCSORGBOTTOM
 10
0.0
 20
0.0
 30
0.0
  9
$UCSORGLEFT
 10
0.0
 20
0.0
 30
0.0
  9
$UCSORGRIGHT
 10
0.0
 20
0.0
 30
0.0
  9
$UCSORGFRONT
 10
0.0
 20
0.0
 30
0.0
  9
$UCSORGBACK
 10
0.0
 20
0.0
 30
0.0
  9
$PUCSBASE
  2

  9
$PUCSNAME
  2

  9
$PUCSORG
 10
0.0
 20
0.0
 30
0.0
  9
$PUCSXDIR
 10
1.0
 20
0.0
 30
0.0
  9
$PUCSYDIR
 10
0.0
 20
1.0
 30
0.0
  9
$PUCSORTHOREF
  2

  9
$PUCSORTHOVIEW
 70
0
  9
$PUCSORGTOP
 10
0.0
 20
0.0
 30
0.0
  9
$PUCSORGBOTTOM
 10
0.0
 20
0.0
 30
0.0
  9
$PUCSORGLEFT
 10
0.0
 20
0.0
 30
0.0
  9
$PUCSORGRIGHT
 10
0.0
 20
0.0
 30
0.0
  9
$PUCSORGFRONT
 10
0.0
 20
0.0
 30
0.0
  9
$PUCSORGBACK
 10
0.0
 20
0.0
 30
0.0
  9
$USERI1
 70
0
  9
$USERI2
 70
0
  9
$USERI3
 70
0
  9
$USERI4
 70
0
  9
$USERI5
 70
0
  9
$USERR1
 40
0.0
  9
$USERR2
 40
0.0
  9
$USERR3
 40
0.0
  9
$USERR4
 40
0.0
  9
$USERR5
 40
0.0
  9
$WORLDVIEW
 70
1
  9
$SHADEDGE
 70
3
  9
$SHADEDIF
 70
70
  9
$TILEMODE
 70
1
  9
$MAXACTVP
 70
64
  9
$PINSBASE
 10
0.0
 20
0.0
 30
0.0
  9
$PLIMCHECK
 70
0
  9
$PEXTMIN
 10
1e+20
 20
1e+20
 30
1e+20
  9
$PEXTMAX
 10
-1e+20
 20
-1e+20
 30
-1e+20
  9
$PLIMMIN
 10
0.0
 20
0.0
  9
$PLIMMAX
 10
420.0
 20
297.0
  9
$UNITMODE
 70
0
  9
$VISRETAIN
 70
1
  9
$PLINEGEN
 70
0
  9
$PSLTSCALE
 70
1
  9
$TREEDEPTH
 70
3020
  9
$CMLSTYLE
  2
Standard
  9
$CMLJUST
 70
0
  9
$CMLSCALE
 40
20.0
  9
$PROXYGRAPHICS
 70
1
  9
$MEASUREMENT
 70
1
  9
$CELWEIGHT
370
-1
  9
$ENDCAPS
280
0
  9
$JOINSTYLE
280
0
  9
$LWDISPLAY
290
0
  9
$INSUNITS
 70
6
  9
$HYPERLINKBASE
  1

  9
$STYLESHEET
  1

  9
$XEDIT
290
1
  9
$CEPSNTYPE
380
0
  9
$PSTYLEMODE
290
1
  9
$FINGERPRINTGUID
  2
{75E4C544-9D86-4DB8-8514-888470AC1C9D}
  9
$VERSIONGUID
  2
{836AF8E4-E197-4C7D-A916-B12CA093FC4A}
  9
$EXTNAMES
290
1
  9
$PSVPSCALE
 40
0.0
  9
$OLESTARTUP
290
0
  9
$SORTENTS
280
127
  9
$INDEXCTL
280
0
  9
$HIDETEXT
280
1
  9
$XCLIPFRAME
280
1
  9
$HALOGAP
280
0
  9
$OBSCOLOR
 70
257
  9
$OBSLTYPE
280
0
  9
$INTERSECTIONDISPLAY
280
0
  9
$INTERSECTIONCOLOR
 70
257
  9
$DIMASSOC
280
2
  9
$PROJECTNAME
  1

  9
$CAMERADISPLAY
290
0
  9
$LENSLENGTH
 40
50.0
  9
$CAMERAHEIGHT
 40
0.0
  9
$STEPSPERSEC
 40
24.0
  9
$STEPSIZE
 40
100.0
  9
$3DDWFPREC
 40
2.0
  9
$PSOLWIDTH
 40
0.005
  9
$PSOLHEIGHT
 40
0.08
  9
$LOFTANG1
 40
1.570796326795
  9
$LOFTANG2
 40
1.570796326795
  9
$LOFTMAG1
 40
0.0
  9
$LOFTMAG2
 40
0.0
  9
$LOFTPARAM
 70
7
  9
$LOFTNORMALS
280
1
  9
$LATITUDE
 40
37.795
  9
$LONGITUDE
 40
-122.394
  9
$NORTHDIRECTION
 40
0.0
  9
$TIMEZONE
 70
-8000
  9
$LIGHTGLYPHDISPLAY
280
1
  9
$TILEMODELIGHTSYNCH
280
1
  9
$CMATERIAL
347
20
  9
$SOLIDHIST
280
0
  9
$SHOWHIST
280
1
  9
$DWFFRAME
280
2
  9
$DGNFRAME
280
2
  9
$REALWORLDSCALE
290
1
  9
$INTERFERECOLOR
 62
256
  9
$CSHADOW
280
0
  9
$SHADOWPLANELOCATION
 40
0.0
  0
ENDSEC
  0
SECTION
  2
CLASSES
  0
CLASS
  1
ACDBDICTIONARYWDFLT
  2
AcDbDictionaryWithDefault
  3
ObjectDBX Classes
 90
0
 91
0
280
0
281
0
  0
CLASS
  1
SUN
  2
AcDbSun
  3
SCENEOE
 90
1153
 91
0
280
0
281
0
  0
CLASS
  1
VISUALSTYLE
  2
AcDbVisualStyle
  3
ObjectDBX Classes
 90
4095
 91
0
280
0
281
0
  0
CLASS
  1
MATERIAL
  2
AcDbMaterial
  3
ObjectDBX Classes
 90
1153
 91
0
280
0
281
0
  0
CLASS
  1
SCALE
  2
AcDbScale
  3
ObjectDBX Classes
 90
1153
 91
0
280
0
281
0
  0
CLASS
  1
TABLESTYLE
  2
AcDbTableStyle
  3
ObjectDBX Classes
 90
4095
 91
0
280
0
281
0
  0
CLASS
  1
MLEADERSTYLE
  2
AcDbMLeaderStyle
  3
ACDB_MLEADERSTYLE_CLASS
 90
4095
 91
0
280
0
281
0
  0
CLASS
  1
DICTIONARYVAR
  2
AcDbDictionaryVar
  3
ObjectDBX Classes
 90
0
 91
0
280
0
281
0
  0
CLASS
  1
CELLSTYLEMAP
  2
AcDbCellStyleMap
  3
ObjectDBX Classes
 90
1152
 91
0
280
0
281
0
  0
CLASS
  1
MENTALRAYRENDERSETTINGS
  2
AcDbMentalRayRenderSettings
  3
SCENEOE
 90
1024
 91
0
280
0
281
0
  0
CLASS
  1
ACDBDETAILVIEWSTYLE
  2
AcDbDetailViewStyle
  3
ObjectDBX Classes
 90
1025
 91
0
280
0
281
0
  0
CLASS
  1
ACDBSECTIONVIEWSTYLE
  2
AcDbSectionViewStyle
  3
ObjectDBX Classes
 90
1025
 91
0
280
0
281
0
  0
CLASS
  1
RASTERVARIABLES
  2
AcDbRasterVariables
  3
ISM
 90
0
 91
0
280
0
281
0
  0
CLASS
  1
ACDBPLACEHOLDER
  2
AcDbPlaceHolder
  3
ObjectDBX Classes
 90
0
 91
0
280
0
281
0
  0
CLASS
  1
LAYOUT
  2
AcDbLayout
  3
ObjectDBX Classes
 90
0
 91
0
280
0
281
0
  0
ENDSEC
  0
SECTION
  2
TABLES
  0
TABLE
  2
VPORT
  5
8
330
0
100
AcDbSymbolTable
 70
1
  0
VPORT
  5
23
330
8
100
AcDbSymbolTableRecord
100
AcDbViewportTableRecord
  2
*Active
 70
0
 10
0.0
 20
0.0
 11
1.0
 21
1.0
 12
0.0
 22
0.0
 13
0.0
 23
0.0
 14
0.5
 24
0.5
 15
0.5
 25
0.5
 16
0.0
 26
0.0
 36
1.0
 17
0.0
 27
0.0
 37
0.0
 40
1000.0
 41
1.34
 42
50.0
 43
0.0
 44
0.0
 50
0.0
 51
0.0
 71
0
 72
1000
 73
1
 74
3
 75
0
 76
0
 77
0
 78
0
281
0
 65
0
146
0.0
  0
ENDTAB
  0
TABLE
  2
LTYPE
  5
2
330
0
100
AcDbSymbolTable
 70
3
  0
LTYPE
  5
24
330
2
100
AcDbSymbolTableRecord
100
AcDbLinetypeTableRecord
  2
ByBlock
 70
0
  3

 72
65
 73
0
 40
0.0
  0
LTYPE
  5
25
330
2
100
AcDbSymbolTableRecord
100
AcDbLinetypeTableRecord
  2
ByLayer
 70
0
  3

 72
65
 73
0
 40
0.0
  0
LTYPE
  5
26
330
2
100
AcDbSymbolTableRecord
100
AcDbLinetypeTableRecord
  2
Continuous
 70
0
  3

 72
65
 73
0
 40
0.0
  0
ENDTAB
  0
TABLE
  2
LAYER
  5
1
330
0
100
AcDbSymbolTable
 70
6
  0
LAYER
  5
27
330
1
100
AcDbSymbolTableRecord
100
AcDbLayerTableRecord
  2
0
 70
0
 62
7
  6
Continuous
370
-3
390
13
347
21
  0
LAYER
  5
28
330
1
100
AcDbSymbolTableRecord
100
AcDbLayerTableRecord
  2
Defpoints
 70
0
 62
7
  6
Continuous
290
0
370
-3
390
13
347
21
  0
LAYER
  5
2F
330
1
100
AcDbSymbolTableRecord
100
AcDbLayerTableRecord
  2
MERGED_GROUND_Y_SCALED
 70
0
 62
7
  6
Continuous
370
-3
390
13
347
21
  0
LAYER
  5
30
330
1
100
AcDbSymbolTableRecord
100
AcDbLayerTableRecord
  2
MERGED_CATENARY_Y_SCALED
 70
0
 62
7
  6
Continuous
370
-3
390
13
347
21
  0
LAYER
  5
31
330
1
100
AcDbSymbolTableRecord
100
AcDbLayerTableRecord
  2
MERGED_SUPPORTS_Y_SCALED
 70
0
 62
7
  6
Continuous
370
-3
390
13
347
21
  0
LAYER
  5
32
330
1
100
AcDbSymbolTableRecord
100
AcDbLayerTableRecord
  2
MERGED_LABELS_Y_SCALED
 70
0
 62
7
  6
Continuous
370
-3
390
13
347
21
  0
ENDTAB
  0
TABLE
  2
STYLE
  5
5
330
0
100
AcDbSymbolTable
 70
1
  0
STYLE
  5
29
330
5
100
AcDbSymbolTableRecord
100
AcDbTextStyleTableRecord
  2
Standard
 70
0
 40
0.0
 41
1.0
 50
0.0
 71
0
 42
2.5
  3
txt
  4

  0
ENDTAB
  0
TABLE
  2
VIEW
  5
7
330
0
100
AcDbSymbolTable
 70
0
  0
ENDTAB
  0
TABLE
  2
UCS
  5
6
330
0
100
AcDbSymbolTable
 70
0
  0
ENDTAB
  0
TABLE
  2
APPID
  5
3
330
0
100
AcDbSymbolTable
 70
3
  0
APPID
  5
2A
330
3
100
AcDbSymbolTableRecord
100
AcDbRegAppTableRecord
  2
ACAD
 70
0
  0
APPID
  5
3D
330
3
100
AcDbSymbolTableRecord
100
AcDbRegAppTableRecord
  2
HATCHBACKGROUNDCOLOR
 70
0
  0
APPID
  5
3E
330
3
100
AcDbSymbolTableRecord
100
AcDbRegAppTableRecord
  2
EZDXF
 70
0
  0
ENDTAB
  0
TABLE
  2
DIMSTYLE
  5
4
330
0
100
AcDbSymbolTable
 70
1
100
AcDbDimStyleTable
  0
DIMSTYLE
105
2B
330
4
100
AcDbSymbolTableRecord
100
AcDbDimStyleTableRecord
  2
Standard
 70
0
 40
1.0
 41
2.5
 42
0.625
 43
3.75
 44
1.25
 45
0.0
 46
0.0
 47
0.0
 48
0.0
 49
2.5
140
2.5
141
2.5
142
0.0
143
0.03937007874
144
1.0
145
0.0
146
1.0
147
0.625
148
0.0
 69
0
 70
0
 71
0
 72
0
 73
0
 74
0
 75
0
 76
0
 77
1
 78
8
 79
3
170
0
171
3
172
1
173
0
174
0
175
0
176
0
177
0
178
0
179
2
271
2
272
2
273
2
274
3
275
0
276
0
277
2
278
44
279
0
280
0
281
0
282
0
283
0
284
8
285
0
286
0
288
0
289
3
290
0
371
-2
372
-2
  0
ENDTAB
  0
TABLE
  2
BLOCK_RECORD
  5
9
330
0
100
AcDbSymbolTable
 70
2
  0
BLOCK_RECORD
  5
17
330
9
100
AcDbSymbolTableRecord
100
AcDbBlockTableRecord
  2
*Model_Space
340
1A
 70
0
280
1
281
0
  0
BLOCK_RECORD
  5
1B
330
9
100
AcDbSymbolTableRecord
100
AcDbBlockTableRecord
  2
*Paper_Space
340
1E
 70
0
280
1
281
0
  0
ENDTAB
  0
ENDSEC
  0
SECTION
  2
BLOCKS
  0
BLOCK
  5
18
330
17
100
AcDbEntity
  8
0
100
AcDbBlockBegin
  2
*Model_Space
 70
0
 10
0.0
 20
0.0
 30
0.0
  3
*Model_Space
  1

  0
ENDBLK
  5
19
330
17
100
AcDbEntity
  8
0
100
AcDbBlockEnd
  0
BLOCK
  5
1C
330
1B
100
AcDbEntity
  8
0
100
AcDbBlockBegin
  2
*Paper_Space
 70
0
 10
0.0
 20
0.0
 30
0.0
  3
*Paper_Space
  1

  0
ENDBLK
  5
1D
330
1B
100
AcDbEntity
  8
0
100
AcDbBlockEnd
  0
ENDSEC
  0
SECTION
  2
ENTITIES
  0
LWPOLYLINE
  5
33
330
17
100
AcDbEntity
  8
MERGED_GROUND_Y_SCALED
100
AcDbPolyline
 90
300
 70
0
 10
0.0
 20
248.8975599423043
 10
0.6688963210702354
 20
247.75681536255854
 10
1.337792642140471
 20
246.51791247862806
 10
2.0066889632107063
 20
245.61225699545932
 10
2.675585284280942
 20
245.23492684340226
 10
3.3444816053511772
 20
245.5316546573894
 10
4.013377926421413
 20
243.284366333435
 10
4.682274247491648
 20
239.69484774495467
 10
5.351170568561884
 20
236.96018656863134
 10
6.020066889632119
 20
235.20344326719874
 10
6.6889632107023544
 20
232.61827854584874
 10
7.35785953177259
 20
230.48630051737587
 10
8.026755852842825
 20
227.6412342649061
 10
8.69565217391306
 20
222.55577953057588
 10
9.364548494983296
 20
216.8865705515285
 10
10.033444816053532
 20
212.126530735921
 10
10.702341137123767
 20
207.70680914495674
 10
11.371237458194003
 20
201.48198054777637
 10
12.040133779264238
 20
195.36997760896497
 10
12.709030100334473
 20
191.07013734993063
 10
13.377926421404709
 20
186.89953691771154
 10
14.046822742474887
 20
182.44283374153216
 10
14.71571906354518
 20
176.1157687690309
 10
15.384615384615358
 20
171.33175955105443
 10
16.053511705685594
 20
166.96801264619603
 10
16.72240802675583
 20
162.42574802686048
 10
17.391304347826065
 20
156.8342961602329
 10
18.0602006688963
 20
151.21369676327683
 10
18.729096989966536
 20
146.4241982608352
 10
19.39799331103677
 20
144.22606833537702
 10
20.066889632107006
 20
142.4420719719827
 10
20.735785953177242
 20
136.3748349640715
 10
21.404682274247477
 20
130.97403716815583
 10
22.073578595317713
 20
128.83916513776566
 10
22.74247491638795
 20
122.39820439205369
 10
23.411371237458184
 20
117.75210857286135
 10
24.08026755852842
 20
116.67178417632147
 10
24.749163879598655
 20
113.72271958509408
 10
25.41806020066889
 20
113.10515209219203
 10
26.086956521739125
 20
111.26894943344072
 10
26.75585284280936
 20
107.49354707692369
 10
27.424749163879596
 20
105.86517910796292
 10
28.093645484949832
 20
103.85771537746861
 10
28.762541806020067
 20
100.88360545001282
 10
29.431438127090303
 20
97.7534990481268
 10
30.100334448160538
 20
96.96335954930507
 10
30.769230769230774
 20
99.16442461905856
 10
31.43812709030101
 20
100.56843917107744
 10
32.107023411371244
 20
98.45759957812837
 10
32.77591973244148
 20
97.63266438605747
 10
33.444816053511715
 20
97.98085690291299
 10
34.11371237458195
 20
97.68291971165836
 10
34.782608695652186
 20
95.80313577432878
 10
35.45150501672242
 20
94.63937841820665
 10
36.12040133779266
 20
96.53161589242802
 10
36.78929765886289
 20
95.62114305822124
 10
37.45819397993313
 20
98.51990586046557
 10
38.12709030100336
 20
99.15690179032714
 10
38.7959866220736
 20
95.64916642395897
 10
39.464882943143834
 20
93.94204846562869
 10
40.13377926421407
 20
98.0137869938943
 10
40.802675585284305
 20
96.10397353166755
 10
41.471571906354484
 20
93.53670317139985
 10
42.140468227424776
 20
92.61995074205129
 10
42.809364548494955
 20
94.42750425687817
 10
43.47826086956525
 20
94.87336791839708
 10
44.147157190635454
 20
95.45157313929805
 10
44.81605351170569
 20
96.48626545888985
 10
45.484949832775925
 20
95.5866173757221
 10
46.15384615384616
 20
97.07941600408503
 10
46.822742474916396
 20
99.7112469935604
 10
47.49163879598663
 20
99.53633152266474
 10
48.16053511705684
 20
97.62270154561848
 10
48.829431438127074
 20
97.08232580618157
 10
49.49832775919731
 20
98.05755423378184
 10
50.167224080267545
 20
98.9688438162876
 10
50.83612040133778
 20
99.16258531903387
 10
51.505016722408016
 20
96.9575883843516
 10
52.17391304347825
 20
97.7494478533907
 10
52.842809364548486
 20
98.32278951106105
 10
53.51170568561872
 20
97.7739499651619
 10
54.18060200668896
 20
95.81022028681808
 10
54.84949832775919
 20
97.34797946179367
 10
55.51839464882943
 20
95.66941248611782
 10
56.187290969899664
 20
92.36032302235797
 10
56.8561872909699
 20
93.93658033832251
 10
57.525083612040135
 20
94.35409864509147
 10
58.19397993311037
 20
94.01508742503061
 10
58.862876254180605
 20
92.72573245362963
 10
59.53177257525084
 20
91.07635829491672
 10
60.200668896321076
 20
90.43360570469545
 10
60.86956521739131
 20
90.61101305229312
 10
61.53846153846155
 20
90.47717990576089
 10
62.20735785953178
 20
89.61914462455609
 10
62.87625418060202
 20
89.276155419768
 10
63.54515050167225
 20
90.02897388081686
 10
64.21404682274249
 20
89.34236069639272
 10
64.88294314381272
 20
84.55399446883189
 10
65.55183946488296
 20
82.87994529133852
 10
66.2207357859532
 20
82.32772478735798
 10
66.88963210702343
 20
82.05656205730824
 10
67.55852842809367
 20
80.859664861583
 10
68.22742474916387
 20
82.1404476041725
 10
68.89632107023411
 20
81.01893602153956
 10
69.56521739130434
 20
78.23091741734983
 10
70.23411371237458
 20
75.16613359945887
 10
70.90301003344482
 20
74.75566350881934
 10
71.57190635451505
 20
75.91701646931828
 10
72.24080267558529
 20
75.71017068754497
 10
72.90969899665552
 20
72.85373431483502
 10
73.57859531772576
 20
71.95487700304231
 10
74.24749163879599
 20
71.47749101470387
 10
74.91638795986623
 20
68.49031884687159
 10
75.58528428093643
 20
67.0299057617731
 10
76.25418060200667
 20
65.78449355273045
 10
76.9230769230769
 20
65.05158052136464
 10
77.59197324414714
 20
65.13954414057436
 10
78.26086956521738
 20
64.32884344022037
 10
78.92976588628761
 20
60.87390335317082
 10
79.59866220735785
 20
58.096606860436324
 10
80.26755852842808
 20
56.88895996873654
 10
80.93645484949832
 20
56.56606917297295
 10
81.60535117056855
 20
56.37827367457534
 10
82.27424749163879
 20
54.35433514150155
 10
82.94314381270902
 20
51.64861033060312
 10
83.61204013377926
 20
50.705379628552606
 10
84.2809364548495
 20
51.41500787787835
 10
84.94983277591973
 20
51.12349322294818
 10
85.61872909698997
 20
51.56125131022538
 10
86.2876254180602
 20
50.762658827703504
 10
86.95652173913044
 20
49.07486011164771
 10
87.62541806020067
 20
46.000225342941256
 10
88.29431438127091
 20
43.26424590783043
 10
88.96321070234114
 20
41.797405277112034
 10
89.63210702341138
 20
38.665232000068514
 10
90.30100334448161
 20
38.058277818513155
 10
90.96989966555185
 20
38.9216736536365
 10
91.63879598662209
 20
37.30977393780349
 10
92.30769230769232
 20
37.676940010950425
 10
92.97658862876256
 20
38.31344666334631
 10
93.64548494983279
 20
38.25648878251652
 10
94.31438127090303
 20
36.616079174234756
 10
94.98327759197326
 20
32.47071633648091
 10
95.6521739130435
 20
33.34622159163373
 10
96.3210702341137
 20
33.51342463344431
 10
96.98996655518394
 20
30.09042819314237
 10
97.65886287625418
 20
28.50451686950256
 10
98.32775919732441
 20
29.942284278346033
 10
98.99665551839465
 20
26.99491254493672
 10
99.66555183946488
 20
26.53583525008324
 10
100.33444816053512
 20
27.379059754195456
 10
101.00334448160535
 20
28.57240926342445
 10
101.67224080267559
 20
27.041283969082095
 10
102.34113712374582
 20
23.757617810620207
 10
103.01003344481606
 20
25.04884307588215
 10
103.67892976588627
 20
24.39986457650533
 10
104.3478260869565
 20
21.70162878273935
 10
105.01672240802674
 20
22.376467103533486
 10
105.68561872909697
 20
20.763909537803187
 10
106.35451505016721
 20
18.67977608749545
 10
107.02341137123744
 20
18.85610242113896
 10
107.69230769230768
 20
18.968832634836353
 10
108.36120401337791
 20
20.03758531415714
 10
109.03010033444815
 20
21.07558265054083
 10
109.69899665551839
 20
16.850319318853536
 10
110.36789297658862
 20
13.419744056764566
 10
111.03678929765886
 20
16.39004423407903
 10
111.70568561872909
 20
18.671738500734357
 10
112.37458193979933
 20
18.090867227652765
 10
113.04347826086956
 20
16.296836422878144
 10
113.7123745819398
 20
15.275239832630342
 10
114.38127090301003
 20
16.829602234200923
 10
115.05016722408027
 20
17.601478477676103
 10
115.7190635451505
 20
15.962073036585771
 10
116.38795986622074
 20
16.332667829896753
 10
117.05685618729098
 20
16.926576090230395
 10
117.72575250836121
 20
16.129825079000657
 10
118.39464882943145
 20
14.89080723008743
 10
119.06354515050168
 20
15.806984626241034
 10
119.73244147157192
 20
14.504346253560334
 10
120.40133779264215
 20
13.258674335192797
 10
121.07023411371239
 20
15.793868783874366
 10
121.73913043478262
 20
16.21496106960736
 10
122.40802675585286
 20
17.4530805201946
 10
123.0769230769231
 20
17.179514171833546
 10
123.74581939799333
 20
14.898212290168669
 10
124.41471571906357
 20
14.47261303653538
 10
125.08361204013377
 20
18.227064138464694
 10
125.75250836120401
 20
18.096705418571503
 10
126.42140468227424
 20
18.924387159446667
 10
127.09030100334448
 20
19.58211479388837
 10
127.75919732441471
 20
20.70560601149191
 10
128.42809364548495
 20
21.683753274578464
 10
129.09698996655518
 20
22.581472439356112
 10
129.76588628762542
 20
23.178830605180014
 10
130.43478260869566
 20
21.727458136099603
 10
131.1036789297659
 20
20.972869442984372
 10
131.77257525083613
 20
21.45753415967469
 10
132.44147157190636
 20
23.28700101998294
 10
133.1103678929766
 20
23.666427489401322
 10
133.77926421404683
 20
25.834397909789523
 10
134.44816053511707
 20
27.106559170753
 10
135.1170568561873
 20
26.393640534121907
 10
135.7859531772575
 20
24.790189697413176
 10
136.45484949832775
 20
25.29771852757987
 10
137.12374581939798
 20
27.599795559673556
 10
137.79264214046822
 20
28.367953414782157
 10
138.46153846153845
 20
30.29794130643186
 10
139.1304347826087
 20
33.913563186276356
 10
139.79933110367892
 20
34.39606399342662
 10
140.46822742474916
 20
31.979076005765545
 10
141.1371237458194
 20
30.401554829457467
 10
141.80602006688963
 20
31.759579190679634
 10
142.47491638795987
 20
34.4622323672904
 10
143.1438127090301
 20
38.39046518551647
 10
143.81270903010034
 20
40.17925856146683
 10
144.48160535117057
 20
40.32229055385272
 10
145.1505016722408
 20
40.584389230266424
 10
145.81939799331104
 20
39.323842140400444
 10
146.48829431438128
 20
40.17473175140826
 10
147.1571906354515
 20
42.780929299863395
 10
147.82608695652175
 20
46.08680254697727
 10
148.49498327759198
 20
46.67359579063795
 10
149.16387959866222
 20
48.05861918007793
 10
149.83277591973246
 20
48.64554264769518
 10
150.50167224080266
 20
49.49128377215654
 10
151.1705685618729
 20
50.19814478268759
 10
151.83946488294313
 20
53.49476154649093
 10
152.50836120401337
 20
57.06850800813773
 10
153.1772575250836
 20
57.20381481434578
 10
153.84615384615384
 20
59.51577460997502
 10
154.51505016722408
 20
60.14454992281421
 10
155.1839464882943
 20
61.968839582154686
 10
155.85284280936455
 20
64.67373991902863
 10
156.52173913043478
 20
66.90787846067633
 10
157.19063545150502
 20
67.22219180494479
 10
157.85953177257525
 20
66.698852369568
 10
158.5284280936455
 20
68.28372573107268
 10
159.19732441471572
 20
71.36155015049563
 10
159.86622073578596
 20
74.23058558013068
 10
160.5351170568562
 20
76.11444146645815
 10
161.20401337792643
 20
76.98525083536116
 10
161.87290969899666
 20
77.82529445978466
 10
162.5418060200669
 20
79.4568827713
 10
163.21070234113714
 20
82.89598853672693
 10
163.87959866220737
 20
81.83757529743723
 10
164.54849498327758
 20
82.4555351418376
 10
165.2173913043478
 20
86.39512823158807
 10
165.88628762541805
 20
89.96612507274284
 10
166.55518394648828
 20
92.19629812424209
 10
167.22408026755852
 20
94.41752974640778
 10
167.89297658862876
 20
95.12470932850204
 10
168.561872909699
 20
96.47025723845647
 10
169.23076923076923
 20
100.1021855692681
 10
169.89966555183946
 20
100.73049133253869
 10
170.5685618729097
 20
100.64174498869045
 10
171.23745819397993
 20
102.15944231051928
 10
171.90635451505017
 20
105.20777666413935
 10
172.5752508361204
 20
107.8457326382545
 10
173.24414715719064
 20
109.99396212617258
 10
173.91304347826087
 20
111.54578919783246
 10
174.5819397993311
 20
112.6540190329278
 10
175.25083612040135
 20
113.71955867714375
 10
175.91973244147158
 20
116.86022897676318
 10
176.58862876254182
 20
117.89809586517073
 10
177.25752508361205
 20
118.3577417576705
 10
177.9264214046823
 20
117.92038287655346
 10
178.5953177257525
 20
119.62910316883045
 10
179.26421404682273
 20
121.66850084944616
 10
179.93311036789297
 20
122.55563913911794
 10
180.6020066889632
 20
125.1126713450814
 10
181.27090301003344
 20
127.8903908571319
 10
181.93979933110367
 20
129.08780112563863
 10
182.6086956521739
 20
129.79694562897808
 10
183.27759197324414
 20
130.04911216521316
 10
183.94648829431438
 20
130.70106798010892
 10
184.6153846153846
 20
132.77030397272264
 10
185.28428093645485
 20
136.40041441330692
 10
185.95317725752508
 20
137.9109399245961
 10
186.62207357859532
 20
137.0982016096803
 10
187.29096989966555
 20
138.1699290988808
 10
187.9598662207358
 20
137.84653038413336
 10
188.62876254180603
 20
140.57138947680525
 10
189.29765886287626
 20
141.9591213452766
 10
189.9665551839465
 20
139.43370547313918
 10
190.63545150501673
 20
139.99949491324716
 10
191.30434782608697
 20
143.26925769479098
 10
191.9732441471572
 20
146.96837988515165
 10
192.6421404682274
 20
148.18856693028695
 10
193.31103678929765
 20
146.74108799106654
 10
193.97993311036788
 20
145.83538582749605
 10
194.64882943143812
 20
145.09599372308287
 10
195.31772575250835
 20
145.19907949341754
 10
195.9866220735786
 20
145.8981275898804
 10
196.65551839464882
 20
146.9206728722
 10
197.32441471571906
 20
147.7899319874737
 10
197.9933110367893
 20
148.85879140751246
 10
198.66220735785953
 20
150.17356949721028
 10
199.33110367892976
 20
150.57653659922954
 10
200.0
 20
148.94429631509846
  0
LWPOLYLINE
  5
34
330
17
100
AcDbEntity
  8
MERGED_CATENARY_Y_SCALED
100
AcDbPolyline
 90
300
 70
0
 10
0.0
 20
448.89755994230427
 10
0.6688963210702354
 20
448.0564924544889
 10
1.337792642140471
 20
447.218841032378
 10
2.0066889632107063
 20
446.3846054608906
 10
2.675585284280942
 20
445.55378552581624
 10
3.3444816053511772
 20
444.72638101382086
 10
4.013377926421413
 20
443.9023917124498
 10
4.682274247491648
 20
443.08181741012754
 10
5.351170568561884
 20
442.2646578961493
 10
6.020066889632119
 20
441.45091296069234
 10
6.6889632107023544
 20
440.6405823948046
 10
7.35785953177259
 20
439.833665990422
 10
8.026755852842825
 20
439.03016354034537
 10
8.69565217391306
 20
438.23007483825734
 10
9.364548494983296
 20
437.4333996787175
 10
10.033444816053532
 20
436.6401378571612
 10
10.702341137123767
 20
435.85028916990086
 10
11.371237458194003
 20
435.0638534141217
 10
12.040133779264238
 20
434.28083038789157
 10
12.709030100334473
 20
433.50121989014883
 10
13.377926421404709
 20
432.72502172071097
 10
14.046822742474887
 20
431.952235680272
 10
14.71571906354518
 20
431.18286157040245
 10
15.384615384615358
 20
430.41689919354303
 10
16.053511705685594
 20
429.65434835301994
 10
16.72240802675583
 20
428.8952088530267
 10
17.391304347826065
 20
428.13948049864234
 10
18.0602006688963
 20
427.3871630958103
 10
18.729096989966536
 20
426.6382564513563
 10
19.39799331103677
 20
425.89276037298544
 10
20.066889632107006
 20
425.15067466927053
 10
20.735785953177242
 20
424.41199914966626
 10
21.404682274247477
 20
423.67673362450114
 10
22.073578595317713
 20
422.94487790497396
 10
22.74247491638795
 20
422.216431803169
 10
23.411371237458184
 20
421.4913951320376
 10
24.08026755852842
 20
420.76976770541114
 10
24.749163879598655
 20
420.05154933799673
 10
25.41806020066889
 20
419.33673984537234
 10
26.086956521739125
 20
418.6253390439952
 10
26.75585284280936
 20
417.9173467511988
 10
27.424749163879596
 20
417.2127627851845
 10
28.093645484949832
 20
416.51158696504154
 10
28.762541806020067
 20
415.813819110718
 10
29.431438127090303
 20
415.1194590430531
 10
30.100334448160538
 20
414.42850658375335
 10
30.769230769230774
 20
413.74096155539337
 10
31.43812709030101
 20
413.05682378143837
 10
32.107023411371244
 20
412.37609308621836
 10
32.77591973244148
 20
411.69876929493694
 10
33.444816053511715
 20
411.0248522336768
 10
34.11371237458195
 20
410.3543417293972
 10
34.782608695652186
 20
409.68723760992503
 10
35.45150501672242
 20
409.0235397039691
 10
36.12040133779266
 20
408.36324784110616
 10
36.78929765886289
 20
407.70636185179205
 10
37.45819397993313
 20
407.05288156735924
 10
38.12709030100336
 20
406.40280682000764
 10
38.7959866220736
 20
405.7561374428164
 10
39.464882943143834
 20
405.11287326974116
 10
40.13377926421407
 20
404.4730141356052
 10
40.802675585284305
 20
403.8365598761109
 10
41.471571906354484
 20
403.20351032783446
 10
42.140468227424776
 20
402.5738653282281
 10
42.809364548494955
 20
401.94762471561194
 10
43.47826086956525
 20
401.3247883291851
 10
44.147157190635454
 20
400.7053560090203
 10
44.81605351170569
 20
400.0893275960669
 10
45.484949832775925
 20
399.4767029321414
 10
46.15384615384616
 20
398.86748185993696
 10
46.822742474916396
 20
398.26166422302896
 10
47.49163879598663
 20
397.6592498658545
 10
48.16053511705684
 20
397.060238633727
 10
48.829431438127074
 20
396.46463037284514
 10
49.49832775919731
 20
395.8724249302634
 10
50.167224080267545
 20
395.2836221539274
 10
50.83612040133778
 20
394.6982218926414
 10
51.505016722408016
 20
394.1162239960951
 10
52.17391304347825
 20
393.53762831484545
 10
52.842809364548486
 20
392.96243470032607
 10
53.51170568561872
 20
392.390643004841
 10
54.18060200668896
 20
391.8222530815677
 10
54.84949832775919
 20
391.257264784563
 10
55.51839464882943
 20
390.6956779687513
 10
56.187290969899664
 20
390.1374924899304
 10
56.8561872909699
 20
389.58270820477765
 10
57.525083612040135
 20
389.0313249708347
 10
58.19397993311037
 20
388.4833426465257
 10
58.862876254180605
 20
387.93876109113944
 10
59.53177257525084
 20
387.39758016484404
 10
60.200668896321076
 20
386.859799728675
 10
60.86956521739131
 20
386.3254196445532
 10
61.53846153846155
 20
385.79443977525546
 10
62.20735785953178
 20
385.26685998444356
 10
62.87625418060202
 20
384.7426801366529
 10
63.54515050167225
 20
384.2219000972834
 10
64.21404682274249
 20
383.7045197326145
 10
64.88294314381272
 20
383.1905389097959
 10
65.55183946488296
 20
382.679957496851
 10
66.2207357859532
 20
382.1727753626795
 10
66.88963210702343
 20
381.6689923770457
 10
67.55852842809367
 20
381.1686084105961
 10
68.22742474916387
 20
380.6716233348422
 10
68.89632107023411
 20
380.17803702217435
 10
69.56521739130434
 20
379.68784934585085
 10
70.23411371237458
 20
379.20106018000615
 10
70.90301003344482
 20
378.71766939964544
 10
71.57190635451505
 20
378.23767688064424
 10
72.24080267558529
 20
377.76108249975744
 10
72.90969899665552
 20
377.28788613460466
 10
73.57859531772576
 20
376.8180876636848
 10
74.24749163879599
 20
376.3516869663674
 10
74.91638795986623
 20
375.88868392288924
 10
75.58528428093643
 20
375.4290784143668
 10
76.25418060200667
 20
374.972870322784
 10
76.9230769230769
 20
374.52005953099814
 10
77.59197324414714
 20
374.07064592274304
 10
78.26086956521738
 20
373.62462938261706
 10
78.92976588628761
 20
373.18200979609804
 10
79.59866220735785
 20
372.74278704953133
 10
80.26755852842808
 20
372.30696103013855
 10
80.93645484949832
 20
371.874531626009
 10
81.60535117056855
 20
371.44549872610855
 10
82.27424749163879
 20
371.0198622202704
 10
82.94314381270902
 20
370.59762199920704
 10
83.61204013377926
 20
370.17877795449294
 10
84.2809364548495
 20
369.7633299785847
 10
84.94983277591973
 20
369.3512779648035
 10
85.61872909698997
 20
368.94262180734705
 10
86.2876254180602
 20
368.5373614012835
 10
86.95652173913044
 20
368.1354966425485
 10
87.62541806020067
 20
367.7370274279631
 10
88.29431438127091
 20
367.34195365520407
 10
88.96321070234114
 20
366.9502752228275
 10
89.63210702341138
 20
366.561992030263
 10
90.30100334448161
 20
366.1771039778107
 10
90.96989966555185
 20
365.79561096663826
 10
91.63879598662209
 20
365.41751289879255
 10
92.30769230769232
 20
365.0428096771825
 10
92.97658862876256
 20
364.671501205602
 10
93.64548494983279
 20
364.30358738870075
 10
94.31438127090303
 20
363.93906813201386
 10
94.98327759197326
 20
363.57794334194364
 10
95.6521739130435
 20
363.22021292575755
 10
96.3210702341137
 20
362.865876791605
 10
96.98996655518394
 20
362.51493484850005
 10
97.65886287625418
 20
362.1673870063303
 10
98.32775919732441
 20
361.82323317585383
 10
98.99665551839465
 20
361.4824732687024
 10
99.66555183946488
 20
361.14510719737785
 10
100.33444816053512
 20
360.81113487525295
 10
101.00334448160535
 20
360.4805562165737
 10
101.67224080267559
 20
360.1533711364538
 10
102.34113712374582
 20
359.82957955088614
 10
103.01003344481606
 20
359.5091813767255
 10
103.67892976588627
 20
359.192176531703
 10
104.3478260869565
 20
358.87856493442024
 10
105.01672240802674
 20
358.56834650435223
 10
105.68561872909697
 20
358.2615211618388
 10
106.35451505016721
 20
357.9580888280989
 10
107.02341137123744
 20
357.6580494252221
 10
107.69230769230768
 20
357.3614028761598
 10
108.36120401337791
 20
357.06814910474264
 10
109.03010033444815
 20
356.77828803567456
 10
109.69899665551839
 20
356.49181959452443
 10
110.36789297658862
 20
356.20874370773436
 10
111.03678929765886
 20
355.9290603026201
 10
111.70568561872909
 20
355.65276930736775
 10
112.37458193979933
 20
355.37987065102806
 10
113.04347826086956
 20
355.1103642635314
 10
113.7123745819398
 20
354.84425007567523
 10
114.38127090301003
 20
354.5815280191281
 10
115.05016722408027
 20
354.3221980264316
 10
115.7190635451505
 20
354.06626003099507
 10
116.38795986622074
 20
353.8137139670983
 10
117.05685618729098
 20
353.56455976990054
 10
117.72575250836121
 20
353.3187973754226
 10
118.39464882943145
 20
353.0764267205559
 10
119.06354515050168
 20
352.83744774307127
 10
119.73244147157192
 20
352.60186038160106
 10
120.40133779264215
 20
352.36966457565705
 10
121.07023411371239
 20
352.14086026561574
 10
121.73913043478262
 20
351.9154473927241
 10
122.40802675585286
 20
351.69342589910536
 10
123.0769230769231
 20
351.47479572775063
 10
123.74581939799333
 20
351.2595568225183
 10
124.41471571906357
 20
351.04770912814047
 10
125.08361204013377
 20
350.83925259022544
 10
125.75250836120401
 20
350.63418715524335
 10
126.42140468227424
 20
350.43251277053776
 10
127.09030100334448
 20
350.2342293843286
 10
127.75919732441471
 20
350.0393369457005
 10
128.42809364548495
 20
349.8478354046057
 10
129.09698996655518
 20
349.65972471187854
 10
129.76588628762542
 20
349.47500481921236
 10
130.43478260869566
 20
349.2936756791797
 10
131.1036789297659
 20
349.11573724521486
 10
131.77257525083613
 20
348.9411894716345
 10
132.44147157190636
 20
348.7700323136137
 10
133.1103678929766
 20
348.60226572720734
 10
133.77926421404683
 20
348.43788966933766
 10
134.44816053511707
 20
348.27690409779734
 10
135.1170568561873
 20
348.1193089712468
 10
135.7859531772575
 20
347.96510424921996
 10
136.45484949832775
 20
347.8142898921269
 10
137.12374581939798
 20
347.6668658612367
 10
137.79264214046822
 20
347.5228321186947
 10
138.46153846153845
 20
347.3821886275198
 10
139.1304347826087
 20
347.24493535159843
 10
139.79933110367892
 20
347.1110722556847
 10
140.46822742474916
 20
346.98059930541194
 10
141.1371237458194
 20
346.8535164672722
 10
141.80602006688963
 20
346.72982370863417
 10
142.47491638795987
 20
346.60952099774556
 10
143.1438127090301
 20
346.4926083037044
 10
143.81270903010034
 20
346.3790855964965
 10
144.48160535117057
 20
346.2689528469697
 10
145.1505016722408
 20
346.16221002684813
 10
145.81939799331104
 20
346.05885710872036
 10
146.48829431438128
 20
345.9588940660517
 10
147.1571906354515
 20
345.86232087316887
 10
147.82608695652175
 20
345.76913750528115
 10
148.49498327759198
 20
345.6793439384563
 10
149.16387959866222
 20
345.5929401496388
 10
149.83277591973246
 20
345.50992611664043
 10
150.50167224080266
 20
345.43030181815243
 10
151.1705685618729
 20
345.35406723372193
 10
151.83946488294313
 20
345.28122234377815
 10
152.50836120401337
 20
345.2117671296182
 10
153.1772575250836
 20
345.1457015734005
 10
153.84615384615384
 20
345.0830256581691
 10
154.51505016722408
 20
345.02373936782357
 10
155.1839464882943
 20
344.9678426871459
 10
155.85284280936455
 20
344.9153356017828
 10
156.52173913043478
 20
344.86621809824834
 10
157.19063545150502
 20
344.8204901639361
 10
157.85953177257525
 20
344.7781517870983
 10
158.5284280936455
 20
344.73920295686975
 10
159.19732441471572
 20
344.7036436632436
 10
159.86622073578596
 20
344.6714738970927
 10
160.5351170568562
 20
344.6426936501572
 10
161.20401337792643
 20
344.61730291504205
 10
161.87290969899666
 20
344.5953016852345
 10
162.5418060200669
 20
344.5766899550806
 10
163.21070234113714
 20
344.5614677198026
 10
163.87959866220737
 20
344.5496349754934
 10
164.54849498327758
 20
344.54119171911077
 10
165.2173913043478
 20
344.53613794849133
 10
165.88628762541805
 20
344.53447366233087
 10
166.55518394648828
 20
344.5361988602102
 10
167.22408026755852
 20
344.5413135425691
 10
167.89297658862876
 20
344.5498177107206
 10
168.561872909699
 20
344.56171136684543
 10
169.23076923076923
 20
344.57699451400066
 10
169.89966555183946
 20
344.59566715611106
 10
170.5685618729097
 20
344.6177292979687
 10
171.23745819397993
 20
344.6431809452424
 10
171.90635451505017
 20
344.6720221044655
 10
172.5752508361204
 20
344.70425278303884
 10
173.24414715719064
 20
344.7398729892486
 10
173.91304347826087
 20
344.7788827322338
 10
174.5819397993311
 20
344.82128202200977
 10
175.25083612040135
 20
344.86707086946836
 10
175.91973244147158
 20
344.9162492863632
 10
176.58862876254182
 20
344.9688172853271
 10
177.25752508361205
 20
345.02477487985163
 10
177.9264214046823
 20
345.08412208431076
 10
178.5953177257525
 20
345.1468589139401
 10
179.26421404682273
 20
345.21298538484876
 10
179.93311036789297
 20
345.28250151401926
 10
180.6020066889632
 20
345.355407319296
 10
181.27090301003344
 20
345.4317028194024
 10
181.93979933110367
 20
345.51138803393263
 10
182.6086956521739
 20
345.59446298334257
 10
183.27759197324414
 20
345.6809276889615
 10
183.94648829431438
 20
345.77078217300095
 10
184.6153846153846
 20
345.86402645852553
 10
185.28428093645485
 20
345.9606605694788
 10
185.95317725752508
 20
346.06068453067246
 10
186.62207357859532
 20
346.16409836779405
 10
187.29096989966555
 20
346.2709021073931
 10
187.9598662207358
 20
346.38109577689863
 10
188.62876254180603
 20
346.4946794046039
 10
189.29765886287626
 20
346.6116530196731
 10
189.9665551839465
 20
346.73201665214066
 10
190.63545150501673
 20
346.85577033291463
 10
191.30434782608697
 20
346.9829140937736
 10
191.9732441471572
 20
347.1134479673577
 10
192.6421404682274
 20
347.2473719871894
 10
193.31103678929765
 20
347.384686187659
 10
193.97993311036788
 20
347.5253906040239
 10
194.64882943143812
 20
347.66948527240964
 10
195.31772575250835
 20
347.81697022981774
 10
195.9866220735786
 20
347.96784551412037
 10
196.65551839464882
 20
348.12211116405444
 10
197.32441471571906
 20
348.27976721923613
 10
197.9933110367893
 20
348.44081372014324
 10
198.66220735785953
 20
348.6052507081273
 10
199.33110367892976
 20
348.7730782254158
 10
200.0
 20
348.9442963151014
  0
LINE
  5
35
330
17
100
AcDbEntity
  8
MERGED_SUPPORTS_Y_SCALED
100
AcDbLine
 10
0.0
 20
248.8975599423043
 30
0.0
 11
0.0
 21
448.89755994230427
 31
0.0
  0
LINE
  5
36
330
17
100
AcDbEntity
  8
MERGED_SUPPORTS_Y_SCALED
100
AcDbLine
 10
200.0
 20
148.94429631509846
 30
0.0
 11
200.0
 21
348.9442963150984
 31
0.0
  0
LWPOLYLINE
  5
37
330
17
100
AcDbEntity
  8
MERGED_GROUND_Y_SCALED
100
AcDbPolyline
 90
300
 70
0
 10
200.0
 20
148.94429631509846
 10
200.66889632107024
 20
147.3022928054314
 10
201.33779264214047
 20
145.21603924534298
 10
202.0066889632107
 20
147.82667083325433
 10
202.67558528428094
 20
148.95113850641468
 10
203.34448160535118
 20
147.48132963079738
 10
204.0133779264214
 20
148.5089901117336
 10
204.68227424749165
 20
148.5617754032339
 10
205.35117056856188
 20
146.9039586662252
 10
206.02006688963212
 20
145.8799977322116
 10
206.68896321070235
 20
144.36541549490175
 10
207.3578595317726
 20
142.2084374319444
 10
208.02675585284283
 20
141.66654383931993
 10
208.69565217391306
 20
142.7029566988838
 10
209.3645484949833
 20
143.77540932368032
 10
210.03344481605353
 20
139.5523759242107
 10
210.70234113712374
 20
138.85634067776382
 10
211.37123745819397
 20
140.07582099806814
 10
212.0401337792642
 20
137.8380596431032
 10
212.70903010033445
 20
135.81987897533563
 10
213.37792642140468
 20
136.3602024186571
 10
214.04682274247492
 20
137.49206032745948
 10
214.71571906354515
 20
139.41025860323933
 10
215.3846153846154
 20
137.72452737824744
 10
216.05351170568562
 20
134.04864148551445
 10
216.72240802675586
 20
130.87591258487996
 10
217.3913043478261
 20
131.01536668351966
 10
218.06020066889633
 20
130.62019540849465
 10
218.72909698996656
 20
129.43749808288518
 10
219.39799331103677
 20
128.15761088404633
 10
220.066889632107
 20
126.63017120706255
 10
220.73578595317724
 20
123.74150177316217
 10
221.40468227424748
 20
123.13510500427681
 10
222.0735785953177
 20
121.33227717793908
 10
222.74247491638795
 20
118.37597505598086
 10
223.41137123745818
 20
118.03608682022683
 10
224.08026755852842
 20
116.37193005597692
 10
224.74916387959865
 20
115.70797485390621
 10
225.4180602006689
 20
114.67297096591844
 10
226.08695652173913
 20
111.83322647324262
 10
226.75585284280936
 20
109.76842775794279
 10
227.4247491638796
 20
107.54020970955679
 10
228.09364548494983
 20
105.42853981415391
 10
228.76254180602007
 20
103.75057275580828
 10
229.4314381270903
 20
102.66775140530287
 10
230.10033444816054
 20
100.87075211564262
 10
230.76923076923077
 20
99.89850639863715
 10
231.438127090301
 20
99.82107764520077
 10
232.10702341137124
 20
92.99106081707791
 10
232.77591973244148
 20
91.77361343679024
 10
233.44481605351172
 20
93.47506199613862
 10
234.11371237458195
 20
93.60617143413897
 10
234.7826086956522
 20
90.73438157982564
 10
235.45150501672242
 20
87.04938286365298
 10
236.12040133779266
 20
85.93606589760714
 10
236.7892976588629
 20
85.65069950986704
 10
237.45819397993313
 20
84.34417185280539
 10
238.12709030100334
 20
78.57030521977606
 10
238.79598662207357
 20
75.67296536791952
 10
239.4648829431438
 20
75.73115034897295
 10
240.13377926421404
 20
75.97120275946203
 10
240.80267558528428
 20
75.450761974551
 10
241.4715719063545
 20
73.83168326872719
 10
242.14046822742475
 20
70.42106219491664
 10
242.80936454849498
 20
68.03961222112163
 10
243.47826086956522
 20
65.43306996774243
 10
244.14715719063545
 20
65.62222773671984
 10
244.8160535117057
 20
65.48654898194991
 10
245.48494983277592
 20
62.88307978777837
 10
246.15384615384616
 20
59.52244862526215
 10
246.8227424749164
 20
57.41665621172113
 10
247.49163879598663
 20
57.96071228475269
 10
248.16053511705684
 20
56.92473024802979
 10
248.82943143812707
 20
53.99069419216915
 10
249.4983277591973
 20
51.1631204423172
 10
250.16722408026754
 20
51.28218126133426
 10
250.83612040133778
 20
51.1097335506745
 10
251.50501672240802
 20
50.943042645252675
 10
252.17391304347825
 20
48.99454293881825
 10
252.8428093645485
 20
48.42705251529988
 10
253.51170568561872
 20
46.81432024923505
 10
254.18060200668896
 20
44.86948315808956
 10
254.8494983277592
 20
43.1930642136782
 10
255.51839464882943
 20
43.89254516126729
 10
256.18729096989966
 20
40.72658640474418
 10
256.8561872909699
 20
38.73861086612714
 10
257.52508361204013
 20
37.880856383802
 10
258.19397993311037
 20
37.069197818166515
 10
258.8628762541806
 20
38.08543194628595
 10
259.53177257525084
 20
38.89193453778729
 10
260.2006688963211
 20
35.991984587864835
 10
260.8695652173913
 20
34.272780893162874
 10
261.53846153846155
 20
33.53838799056685
 10
262.2073578595318
 20
31.143681617278407
 10
262.876254180602
 20
30.899049425192796
 10
263.54515050167225
 20
31.545493942258055
 10
264.2140468227425
 20
29.08128886021297
 10
264.8829431438127
 20
28.02428797476353
 10
265.55183946488296
 20
29.055417041912367
 10
266.2207357859532
 20
28.509796489832052
 10
266.88963210702343
 20
26.589188845795686
 10
267.55852842809367
 20
25.281128827784492
 10
268.2274247491639
 20
23.757198519357054
 10
268.8963210702341
 20
24.605227087464236
 10
269.5652173913044
 20
25.745056466873294
 10
270.23411371237455
 20
25.07537392612459
 10
270.90301003344484
 20
23.04401458545523
 10
271.571906354515
 20
21.984469746497535
 10
272.2408026755853
 20
21.23974536693192
 10
272.9096989966555
 20
22.616755590807184
 10
273.5785953177258
 20
23.32947178244986
 10
274.24749163879596
 20
24.7671784489756
 10
274.91638795986626
 20
22.79494063745927
 10
275.58528428093643
 20
22.16961565071975
 10
276.25418060200667
 20
23.846279462021762
 10
276.9230769230769
 20
24.669320997648132
 10
277.59197324414714
 20
25.107900392343325
 10
278.2608695652174
 20
23.24809612081561
 10
278.9297658862876
 20
26.49565900968433
 10
279.59866220735785
 20
32.25056068327335
 10
280.2675585284281
 20
32.8679646126728
 10
280.9364548494983
 20
32.37944885743587
 10
281.60535117056855
 20
32.59192890889547
 10
282.2742474916388
 20
32.54320500926326
 10
282.943143812709
 20
30.937032424449615
 10
283.61204013377926
 20
34.11533849446938
 10
284.2809364548495
 20
34.27852699974573
 10
284.94983277591973
 20
31.71474026403343
 10
285.61872909698997
 20
28.95035754758741
 10
286.2876254180602
 20
28.160547354085725
 10
286.95652173913044
 20
24.023507493288495
 10
287.6254180602007
 20
20.749149842783243
 10
288.2943143812709
 20
15.676943127970883
 10
288.96321070234114
 20
11.773827644102274
 10
289.6321070234114
 20
7.89733800410343
 10
290.3010033444816
 20
6.14021268344281
 10
290.96989966555185
 20
2.020196896068228
 10
291.6387959866221
 20
-3.197406551815114
 10
292.3076923076923
 20
-0.9195878187607337
 10
292.97658862876256
 20
3.491792584770069
 10
293.6454849498328
 20
8.923665655033354
 10
294.314381270903
 20
12.33273171474952
 10
294.98327759197326
 20
18.056709952223922
 10
295.6521739130435
 20
23.968101653881302
 10
296.3210702341137
 20
29.22287832399162
 10
296.98996655518397
 20
31.429857294177847
 10
297.65886287625415
 20
33.548136081469934
 10
298.32775919732444
 20
39.12178604319909
 10
298.9966555183946
 20
42.432476166849185
 10
299.6655518394649
 20
45.6115845691683
 10
300.3344481605351
 20
49.20170891897462
 10
301.0033444816054
 20
48.94678701383108
 10
301.67224080267556
 20
48.29624992885851
 10
302.34113712374585
 20
51.558709101335864
 10
303.01003344481603
 20
52.13724967830275
 10
303.67892976588627
 20
53.58708760536258
 10
304.3478260869565
 20
52.95961809337289
 10
305.01672240802674
 20
53.85806394597418
 10
305.685618729097
 20
53.29879276936023
 10
306.3545150501672
 20
53.6298065194938
 10
307.02341137123744
 20
50.838225587169944
 10
307.6923076923077
 20
47.9601715744656
 10
308.3612040133779
 20
48.29955978635013
 10
309.03010033444815
 20
46.503112013451016
 10
309.6989966555184
 20
44.52247558282586
 10
310.3678929765886
 20
43.5746303891413
 10
311.03678929765886
 20
45.575073185066024
 10
311.7056856187291
 20
47.36676309060993
 10
312.3745819397993
 20
46.89221408458116
 10
313.04347826086956
 20
47.08552133822535
 10
313.7123745819398
 20
48.73912226962989
 10
314.38127090301003
 20
51.846845200642505
 10
315.05016722408027
 20
55.272377013680796
 10
315.7190635451505
 20
57.0163411967187
 10
316.38795986622074
 20
57.08825502030315
 10
317.056856187291
 20
58.60272155620082
 10
317.7257525083612
 20
60.92261898171182
 10
318.39464882943145
 20
59.70801447509448
 10
319.0635451505017
 20
59.38061704059152
 10
319.7324414715719
 20
62.936662448887176
 10
320.40133779264215
 20
66.79259709471758
 10
321.0702341137124
 20
67.22184879039608
 10
321.7391304347826
 20
69.67743731952238
 10
322.40802675585286
 20
74.46813928378708
 10
323.0769230769231
 20
76.88741911927656
 10
323.74581939799333
 20
78.98847214753334
 10
324.41471571906357
 20
81.82456191343208
 10
325.08361204013374
 20
84.28612021277183
 10
325.75250836120404
 20
86.55753435036674
 10
326.4214046822742
 20
92.0659988821244
 10
327.0903010033445
 20
96.50574288894285
 10
327.7591973244147
 20
99.65007742132465
 10
328.428093645485
 20
101.80403690904117
 10
329.09698996655516
 20
107.55945004123733
 10
329.76588628762545
 20
111.03777112014966
 10
330.4347826086956
 20
114.0234590749091
 10
331.1036789297659
 20
119.51760510328629
 10
331.7725752508361
 20
123.9635561168271
 10
332.4414715719064
 20
125.66285847535276
 10
333.11036789297657
 20
130.20800817652986
 10
333.77926421404686
 20
135.49225304057074
 10
334.44816053511704
 20
139.05067197492056
 10
335.11705685618733
 20
146.13279305808837
 10
335.7859531772575
 20
150.34198288638677
 10
336.45484949832775
 20
152.59604403420235
 10
337.123745819398
 20
156.18935864280965
 10
337.7926421404682
 20
159.9626516254292
 10
338.46153846153845
 20
165.44272665499216
 10
339.1304347826087
 20
169.18244859649405
 10
339.7993311036789
 20
173.64545246859274
 10
340.46822742474916
 20
177.4925015268458
 10
341.1371237458194
 20
178.5085996178881
 10
341.80602006688963
 20
182.21274075395206
 10
342.47491638795987
 20
184.66846861097483
 10
343.1438127090301
 20
188.449254760239
 10
343.81270903010034
 20
191.71779847116096
 10
344.4816053511706
 20
197.89409568337436
 10
345.1505016722408
 20
199.90671435962014
 10
345.81939799331104
 20
199.65925427600814
 10
346.4882943143813
 20
199.958337808893
 10
347.1571906354515
 20
202.65291565668736
 10
347.82608695652175
 20
205.49070648098677
 10
348.494983277592
 20
208.93826804579064
 10
349.1638795986622
 20
206.7646564395456
 10
349.83277591973246
 20
206.9075913416069
 10
350.5016722408027
 20
208.62027033702387
 10
351.17056856187287
 20
209.76252121516723
 10
351.83946488294316
 20
211.254506527893
 10
352.50836120401334
 20
212.07741393377466
 10
353.17725752508363
 20
211.81533530248169
 10
353.8461538461538
 20
211.80405046402234
 10
354.5150501672241
 20
209.21317059983414
 10
355.1839464882943
 20
208.2414428884315
 10
355.8528428093646
 20
210.60851790680957
 10
356.52173913043475
 20
211.97578849564297
 10
357.19063545150505
 20
209.34815231639035
 10
357.8595317725752
 20
204.47946422902913
 10
358.5284280936455
 20
202.05034265923666
 10
359.1973244147157
 20
202.13334493272387
 10
359.866220735786
 20
201.0261376918791
 10
360.53511705685617
 20
198.14243213207317
 10
361.20401337792646
 20
196.55426991274712
 10
361.87290969899664
 20
195.4670791721369
 10
362.54180602006693
 20
192.91768644474107
 10
363.2107023411371
 20
187.20408675593308
 10
363.8795986622074
 20
183.43001305932677
 10
364.5484949832776
 20
183.62773355498146
 10
365.2173913043478
 20
183.3386807656201
 10
365.88628762541805
 20
181.5676000981939
 10
366.5551839464883
 20
178.24807379076282
 10
367.2240802675585
 20
173.51879955353823
 10
367.89297658862876
 20
169.5938124356319
 10
368.561872909699
 20
167.20445028776325
 10
369.2307692307692
 20
165.22930321321238
 10
369.89966555183946
 20
162.58725809957923
 10
370.5685618729097
 20
158.32281753581466
 10
371.23745819397993
 20
156.19751532940194
 10
371.90635451505017
 20
154.85549150765007
 10
372.5752508361204
 20
152.42306546893448
 10
373.24414715719064
 20
151.39726342759025
 10
373.9130434782609
 20
150.24251991676695
 10
374.5819397993311
 20
147.7057104195087
 10
375.25083612040135
 20
145.10698933541715
 10
375.9197324414716
 20
142.31520154253926
 10
376.5886287625418
 20
139.90074072693685
 10
377.25752508361205
 20
140.2269222394835
 10
377.9264214046823
 20
139.70079206582142
 10
378.59531772575247
 20
137.3419796512604
 10
379.26421404682276
 20
136.72886051857816
 10
379.93311036789294
 20
136.4609394344831
 10
380.60200668896323
 20
136.32037560503483
 10
381.2709030100334
 20
132.49259712901295
 10
381.9397993311037
 20
130.7791243665815
 10
382.6086956521739
 20
131.7132169546286
 10
383.27759197324417
 20
131.92384843001398
 10
383.94648829431435
 20
130.19248124206342
 10
384.61538461538464
 20
128.48209732232934
 10
385.2842809364548
 20
127.47209877432141
 10
385.9531772575251
 20
127.30479187198532
 10
386.6220735785953
 20
125.17748037711421
 10
387.2909698996656
 20
125.68317917068461
 10
387.95986622073576
 20
124.61418919811264
 10
388.62876254180605
 20
123.41315865311725
 10
389.29765886287623
 20
122.98645499878775
 10
389.9665551839465
 20
123.61290296923488
 10
390.6354515050167
 20
124.92281784871511
 10
391.304347826087
 20
123.97080135380641
 10
391.9732441471572
 20
122.58137884577914
 10
392.6421404682274
 20
121.9019339574264
 10
393.31103678929765
 20
121.06214948199008
 10
393.9799331103679
 20
122.4665290608967
 10
394.6488294314381
 20
123.15681465715004
 10
395.31772575250835
 20
121.8617974071891
 10
395.9866220735786
 20
120.76443872916705
 10
396.6555183946488
 20
121.99678773909366
 10
397.32441471571906
 20
119.85676680838029
 10
397.9933110367893
 20
119.89869868273968
 10
398.66220735785953
 20
121.70420884250933
 10
399.33110367892976
 20
121.64732209375185
 10
400.0
 20
120.73845906025932
  0
LWPOLYLINE
  5
38
330
17
100
AcDbEntity
  8
MERGED_CATENARY_Y_SCALED
100
AcDbPolyline
 90
300
 70
0
 10
200.0
 20
348.9442963150984
 10
200.66889632107024
 20
348.51178143773143
 10
201.33779264214047
 20
348.08266306737784
 10
202.0066889632107
 20
347.6569410938476
 10
202.67558528428094
 20
347.2346154078299
 10
203.34448160535118
 20
346.8156859008815
 10
204.0133779264214
 20
346.4001524654325
 10
204.68227424749165
 20
345.9880149947866
 10
205.35117056856188
 20
345.57927338311515
 10
206.02006688963212
 20
345.17392752546573
 10
206.68896321070235
 20
344.77197731775647
 10
207.3578595317726
 20
344.3734226567791
 10
208.02675585284283
 20
343.97826344019563
 10
208.69565217391306
 20
343.58649956653596
 10
209.3645484949833
 20
343.198130935209
 10
210.03344481605353
 20
342.8131574464885
 10
210.70234113712374
 20
342.43157900152755
 10
211.37123745819397
 20
342.05339550234385
 10
212.0401337792642
 20
341.67860685183433
 10
212.70903010033445
 20
341.3072129537607
 10
213.37792642140468
 20
340.9392137127552
 10
214.04682274247492
 20
340.5746090343323
 10
214.71571906354515
 20
340.21339882486814
 10
215.3846153846154
 20
339.8555829916153
 10
216.05351170568562
 20
339.5011614426938
 10
216.72240802675586
 20
339.1501340870974
 10
217.3913043478261
 20
338.8025008346961
 10
218.06020066889633
 20
338.45826159622163
 10
218.72909698996656
 20
338.11741628328497
 10
219.39799331103677
 20
337.77996480836777
 10
220.066889632107
 20
337.44590708481905
 10
220.73578595317724
 20
337.11524302686166
 10
221.40468227424748
 20
336.7879725495915
 10
222.0735785953177
 20
336.46409556897515
 10
222.74247491638795
 20
336.1436120018499
 10
223.41137123745818
 20
335.82652176592023
 10
224.08026755852842
 20
335.5128247797674
 10
224.74916387959865
 20
335.20252096284594
 10
225.4180602006689
 20
334.8956102354722
 10
226.08695652173913
 20
334.59209251884454
 10
226.75585284280936
 20
334.29196773502923
 10
227.4247491638796
 20
333.995235806957
 10
228.09364548494983
 20
333.70189665843793
 10
228.76254180602007
 20
333.41195021414984
 10
229.4314381270903
 20
333.12539639964376
 10
230.10033444816054
 20
332.84223514133555
 10
230.76923076923077
 20
332.5624663665262
 10
231.438127090301
 20
332.28609000336667
 10
232.10702341137124
 20
332.0131059809021
 10
232.77591973244148
 20
331.74351422903015
 10
233.44481605351172
 20
331.47731467853123
 10
234.11371237458195
 20
331.21450726104695
 10
234.7826086956522
 20
330.9550919091046
 10
235.45150501672242
 20
330.69906855608417
 10
236.12040133779266
 20
330.4464371362479
 10
236.7892976588629
 20
330.1971975847314
 10
237.45819397993313
 20
329.9513498375321
 10
238.12709030100334
 20
329.70889383152695
 10
238.79598662207357
 20
329.4698295044543
 10
239.4648829431438
 20
329.23415679493195
 10
240.13377926421404
 20
329.0018756424453
 10
240.80267558528428
 20
328.77298598735035
 10
241.4715719063545
 20
328.54748777087644
 10
242.14046822742475
 20
328.32538093511755
 10
242.80936454849498
 20
328.1066654230471
 10
243.47826086956522
 20
327.8913411785031
 10
244.14715719063545
 20
327.6794081461941
 10
244.8160535117057
 20
327.47086627170495
 10
245.48494983277592
 20
327.2657155014854
 10
246.15384615384616
 20
327.0639557828582
 10
246.8227424749164
 20
326.8655870640173
 10
247.49163879598663
 20
326.6706092940265
 10
248.16053511705684
 20
326.4790224228205
 10
248.82943143812707
 20
326.2908264012075
 10
249.4983277591973
 20
326.10602118086297
 10
250.16722408026754
 20
325.92460671433025
 10
250.83612040133778
 20
325.7465829550319
 10
251.50501672240802
 20
325.5719498572523
 10
252.17391304347825
 20
325.400707376155
 10
252.8428093645485
 20
325.2328554677624
 10
253.51170568561872
 20
325.06839408898213
 10
254.18060200668896
 20
324.90732319757774
 10
254.8494983277592
 20
324.74964275219776
 10
255.51839464882943
 20
324.5953527123496
 10
256.18729096989966
 20
324.44445303841724
 10
256.8561872909699
 20
324.29694369165503
 10
257.52508361204013
 20
324.15282463418185
 10
258.19397993311037
 20
324.01209582899617
 10
258.8628762541806
 20
323.8747572399609
 10
259.53177257525084
 20
323.74080883181256
 10
260.2006688963211
 20
323.6102505701522
 10
260.8695652173913
 20
323.4830824214632
 10
261.53846153846155
 20
323.3593043530908
 10
262.2073578595318
 20
323.23891633324456
 10
262.876254180602
 20
323.1219183310195
 10
263.54515050167225
 20
323.0083103163722
 10
264.2140468227425
 20
322.89809226013
 10
264.8829431438127
 20
322.7912641339935
 10
265.55183946488296
 20
322.6878259105279
 10
266.2207357859532
 20
322.5877775631779
 10
266.88963210702343
 20
322.49111906625285
 10
267.55852842809367
 20
322.3978503949295
 10
268.2274247491639
 20
322.30797152526713
 10
268.8963210702341
 20
322.22148243417763
 10
269.5652173913044
 20
322.13838309945834
 10
270.23411371237455
 20
322.0586734997741
 10
270.90301003344484
 20
321.9823536146515
 10
271.571906354515
 20
321.90942342449637
 10
272.2408026755853
 20
321.8398829105822
 10
272.9096989966555
 20
321.77373205505296
 10
273.5785953177258
 20
321.7109708409232
 10
274.24749163879596
 20
321.6515992520781
 10
274.91638795986626
 20
321.5956172732701
 10
275.58528428093643
 20
321.54302489012827
 10
276.25418060200667
 20
321.49382208914056
 10
276.9230769230769
 20
321.4480088576857
 10
277.59197324414714
 20
321.4055851839868
 10
278.2608695652174
 20
321.36655105716363
 10
278.9297658862876
 20
321.33090646718045
 10
279.59866220735785
 20
321.2986514048923
 10
280.2675585284281
 20
321.26978586201596
 10
280.9364548494983
 20
321.24430983113876
 10
281.60535117056855
 20
321.22222330572157
 10
282.2742474916388
 20
321.203526280087
 10
282.943143812709
 20
321.18821874943967
 10
283.61204013377926
 20
321.17630070984916
 10
284.2809364548495
 20
321.16777215824953
 10
284.94983277591973
 20
321.1626330924572
 10
285.61872909698997
 20
321.16088351114735
 10
286.2876254180602
 20
321.16252341387724
 10
286.95652173913044
 20
321.16755280106315
 10
287.6254180602007
 20
321.17597167399776
 10
288.2943143812709
 20
321.18778003484124
 10
288.96321070234114
 20
321.2029778866301
 10
289.6321070234114
 20
321.2215652332627
 10
290.3010033444816
 20
321.2435420795107
 10
290.96989966555185
 20
321.26890843101944
 10
291.6387959866221
 20
321.2976642943046
 10
292.3076923076923
 20
321.32980967674365
 10
292.97658862876256
 20
321.36534458659924
 10
293.6454849498328
 20
321.40426903298993
 10
294.314381270903
 20
321.4465830259106
 10
294.98327759197326
 20
321.49228657622365
 10
295.6521739130435
 20
321.5413796956711
 10
296.3210702341137
 20
321.5938623968563
 10
296.98996655518397
 20
321.6497346932564
 10
297.65886287625415
 20
321.7089965992158
 10
298.32775919732444
 20
321.7716481299498
 10
298.9966555183946
 20
321.8376893015469
 10
299.6655518394649
 20
321.9071201309692
 10
300.3344481605351
 20
321.9799406360403
 10
301.0033444816054
 20
322.0561508354575
 10
301.67224080267556
 20
322.1357507487915
 10
302.34113712374585
 20
322.21874039648355
 10
303.01003344481603
 20
322.3051197998393
 10
303.67892976588627
 20
322.39488898104116
 10
304.3478260869565
 20
322.4880479631389
 10
305.01672240802674
 20
322.5845967700499
 10
305.685618729097
 20
322.6845354265711
 10
306.3545150501672
 20
322.7878639583606
 10
307.02341137123744
 20
322.89458239195073
 10
307.6923076923077
 20
323.0046907547437
 10
308.3612040133779
 20
323.11818907501254
 10
309.03010033444815
 20
323.2350773819037
 10
309.6989966555184
 20
323.3553557054253
 10
310.3678929765886
 20
323.47902407646495
 10
311.03678929765886
 20
323.6060825267776
 10
311.7056856187291
 20
323.73653108898577
 10
312.3745819397993
 20
323.8703697965889
 10
313.04347826086956
 20
324.00759868395323
 10
313.7123745819398
 20
324.1482177863074
 10
314.38127090301003
 20
324.2922271397707
 10
315.05016722408027
 20
324.43962678131265
 10
315.7190635451505
 20
324.5904167487848
 10
316.38795986622074
 20
324.74459708090353
 10
317.056856187291
 20
324.90216781726156
 10
317.7257525083612
 20
325.0631289983163
 10
318.39464882943145
 20
325.22748066539555
 10
319.0635451505017
 20
325.3952228607096
 10
319.7324414715719
 20
325.5663556273215
 10
320.40133779264215
 20
325.7408790091736
 10
321.0702341137124
 20
325.9187930510848
 10
321.7391304347826
 20
326.1000977987354
 10
322.40802675585286
 20
326.28479329867673
 10
323.0769230769231
 20
326.47287959833886
 10
323.74581939799333
 20
326.6643567460142
 10
324.41471571906357
 20
326.85922479086804
 10
325.08361204013374
 20
327.0574837829424
 10
325.75250836120404
 20
327.25913377313816
 10
326.4214046822742
 20
327.4641748132381
 10
327.0903010033445
 20
327.67260695588993
 10
327.7591973244147
 20
327.88443025461476
 10
328.428093645485
 20
328.0996447637983
 10
329.09698996655516
 20
328.31825053870875
 10
329.76588628762545
 20
328.54024763547267
 10
330.4347826086956
 20
328.76563611109634
 10
331.1036789297659
 20
328.9944160234504
 10
331.7725752508361
 20
329.22658743128227
 10
332.4414715719064
 20
329.46215039420645
 10
333.11036789297657
 20
329.7011049727055
 10
333.77926421404686
 20
329.94345122814394
 10
334.44816053511704
 20
330.18918922274514
 10
335.11705685618733
 20
330.438319019609
 10
335.7859531772575
 20
330.69084068270286
 10
336.45484949832775
 20
330.9467542768705
 10
337.123745819398
 20
331.2060598678232
 10
337.7926421404682
 20
331.468757522143
 10
338.46153846153845
 20
331.7348473072851
 10
339.1304347826087
 20
332.0043292915726
 10
339.7993311036789
 20
332.2772035441988
 10
340.46822742474916
 20
332.5534701352365
 10
341.1371237458194
 20
332.8331291356203
 10
341.80602006688963
 20
333.11618061715814
 10
342.47491638795987
 20
333.4026246525314
 10
343.1438127090301
 20
333.69246131528905
 10
343.81270903010034
 20
333.9856906798566
 10
344.4816053511706
 20
334.28231282152694
 10
345.1505016722408
 20
334.58232781646075
 10
345.81939799331104
 20
334.8857357416979
 10
346.4882943143813
 20
335.19253667514585
 10
347.1571906354515
 20
335.5027306955826
 10
347.82608695652175
 20
335.81631788265383
 10
348.494983277592
 20
336.13329831688145
 10
349.1638795986622
 20
336.453672079661
 10
349.83277591973246
 20
336.7774392532525
 10
350.5016722408027
 20
337.10459992079257
 10
351.17056856187287
 20
337.43515416628816
 10
351.83946488294316
 20
337.76910207461094
 10
352.50836120401334
 20
338.1064437315178
 10
353.17725752508363
 20
338.4471792236244
 10
353.8461538461538
 20
338.7913086384199
 10
354.5150501672241
 20
339.13883206427266
 10
355.1839464882943
 20
339.4897495904158
 10
355.8528428093646
 20
339.84406130695584
 10
356.52173913043475
 20
340.2017673048699
 10
357.19063545150505
 20
340.56286767600864
 10
357.8595317725752
 20
340.92736251309
 10
358.5284280936455
 20
341.2952519097056
 10
359.1973244147157
 20
341.6665359603234
 10
359.866220735786
 20
342.041214760279
 10
360.53511705685617
 20
342.4192884057785
 10
361.20401337792646
 20
342.8007569938984
 10
361.87290969899664
 20
343.18562062259474
 10
362.54180602006693
 20
343.5738793906881
 10
363.2107023411371
 20
343.9655333978695
 10
363.8795986622074
 20
344.3605827447123
 10
364.5484949832776
 20
344.75902753264586
 10
365.2173913043478
 20
345.1608678639874
 10
365.88628762541805
 20
345.56610384191595
 10
366.5551839464883
 20
345.9747355704841
 10
367.2240802675585
 20
346.3867631546179
 10
367.89297658862876
 20
346.80218670011664
 10
368.561872909699
 20
347.2210063136504
 10
369.2307692307692
 20
347.64322210275657
 10
369.89966555183946
 20
348.0688341758522
 10
370.5685618729097
 20
348.4978426422245
 10
371.23745819397993
 20
348.9302476120257
 10
371.90635451505017
 20
349.3660491962929
 10
372.5752508361204
 20
349.80524750692217
 10
373.24414715719064
 20
350.24784265669183
 10
373.9130434782609
 20
350.69383475924474
 10
374.5819397993311
 20
351.1432239291032
 10
375.25083612040135
 20
351.5960102816571
 10
375.9197324414716
 20
352.05219393316963
 10
376.5886287625418
 20
352.5117750007777
 10
377.25752508361205
 20
352.9747536024855
 10
377.9264214046823
 20
353.44112985717686
 10
378.59531772575247
 20
353.9109038846059
 10
379.26421404682276
 20
354.3840758053944
 10
379.93311036789294
 20
354.86064574104046
 10
380.60200668896323
 20
355.3406138139189
 10
381.2709030100334
 20
355.8239801472656
 10
381.9397993311037
 20
356.3107448652024
 10
382.6086956521739
 20
356.80090809271525
 10
383.27759197324417
 20
357.29446995566377
 10
383.94648829431435
 20
357.79143058078097
 10
384.61538461538464
 20
358.2917900956764
 10
385.2842809364548
 20
358.795548628824
 10
385.9531772575251
 20
359.3027063095801
 10
386.6220735785953
 20
359.8132632681659
 10
387.2909698996656
 20
360.32721963568144
 10
387.95986622073576
 20
360.8445755440948
 10
388.62876254180605
 20
361.36533112625034
 10
389.29765886287623
 20
361.88948651586264
 10
389.9665551839465
 20
362.4170418475231
 10
390.6354515050167
 20
362.9479972566904
 10
391.304347826087
 20
363.48235287970283
 10
391.9732441471572
 20
364.0201088537659
 10
392.6421404682274
 20
364.5612653169618
 10
393.31103678929765
 20
365.105822408246
 10
393.9799331103679
 20
365.65378026744474
 10
394.6488294314381
 20
366.20513903526034
 10
395.31772575250835
 20
366.7598988532657
 10
395.9866220735786
 20
367.31805986391043
 10
396.6555183946488
 20
367.87962221051134
 10
397.32441471571906
 20
368.4445860372647
 10
397.9933110367893
 20
369.0129514892402
 10
398.66220735785953
 20
369.58471871237526
 10
399.33110367892976
 20
370.1598878534836
 10
400.0
 20
370.73845906025826
  0
LINE
  5
39
330
17
100
AcDbEntity
  8
MERGED_SUPPORTS_Y_SCALED
100
AcDbLine
 10
400.0
 20
120.73845906025932
 30
0.0
 11
400.0
 21
370.7384590602593
 31
0.0
  0
LWPOLYLINE
  5
3A
330
17
100
AcDbEntity
  8
MERGED_GROUND_Y_SCALED
100
AcDbPolyline
 90
300
 70
0
 10
400.0
 20
120.73845906025932
 10
400.66889632107024
 20
120.95945937098243
 10
401.33779264214047
 20
118.6515105475511
 10
402.0066889632107
 20
119.76097489975787
 10
402.67558528428094
 20
119.46765015996199
 10
403.3444816053512
 20
120.1574337307092
 10
404.0133779264214
 20
119.96614650102472
 10
404.68227424749165
 20
119.1175056131853
 10
405.3511705685619
 20
118.9329516237535
 10
406.0200668896321
 20
118.94134138323977
 10
406.68896321070235
 20
120.86815624054464
 10
407.3578595317726
 20
123.14100846192434
 10
408.0267558528428
 20
119.96656588014659
 10
408.69565217391306
 20
115.80574112568199
 10
409.3645484949833
 20
118.19598367092382
 10
410.03344481605353
 20
118.12121556969664
 10
410.70234113712377
 20
115.39563181654779
 10
411.37123745819395
 20
115.42885727795974
 10
412.04013377926424
 20
115.24615664380612
 10
412.7090301003344
 20
114.81008001564916
 10
413.3779264214047
 20
116.3808478159562
 10
414.0468227424749
 20
116.37177646355784
 10
414.7157190635452
 20
114.99998400554153
 10
415.38461538461536
 20
114.71190550748841
 10
416.05351170568565
 20
114.72003020320564
 10
416.72240802675583
 20
115.34471071304516
 10
417.3913043478261
 20
115.29458304432389
 10
418.0602006688963
 20
113.596127711458
 10
418.7290969899666
 20
111.33461685586333
 10
419.39799331103677
 20
110.21759788966361
 10
420.066889632107
 20
110.56928444747473
 10
420.73578595317724
 20
110.5723368349475
 10
421.4046822742475
 20
110.92874507321837
 10
422.0735785953177
 20
111.35086603564993
 10
422.74247491638795
 20
112.8174220651836
 10
423.4113712374582
 20
113.2677750662796
 10
424.0802675585284
 20
112.00352959830772
 10
424.74916387959865
 20
108.59030866074121
 10
425.4180602006689
 20
105.45458906266316
 10
426.0869565217391
 20
104.99933983641219
 10
426.75585284280936
 20
105.2154597842982
 10
427.4247491638796
 20
105.73838577402685
 10
428.09364548494983
 20
105.87261747214836
 10
428.76254180602007
 20
105.40235426894283
 10
429.4314381270903
 20
105.10973501827067
 10
430.10033444816054
 20
103.45532796596774
 10
430.7692307692308
 20
101.8849501701423
 10
431.438127090301
 20
100.40726373650958
 10
432.10702341137124
 20
102.04149539445356
 10
432.7759197324415
 20
102.18095299266258
 10
433.4448160535117
 20
96.38521026885867
 10
434.11371237458195
 20
92.97421857110203
 10
434.7826086956522
 20
95.27089966503769
 10
435.4515050167224
 20
95.5345450668604
 10
436.12040133779266
 20
97.9320473309173
 10
436.7892976588629
 20
96.13502128822232
 10
437.4581939799331
 20
92.45044271821966
 10
438.12709030100336
 20
92.47241039105862
 10
438.79598662207354
 20
95.09049835800036
 10
439.46488294314383
 20
93.73107378855813
 10
440.133779264214
 20
92.14716915744249
 10
440.8026755852843
 20
90.73746326114359
 10
441.4715719063545
 20
87.86486269263469
 10
442.1404682274248
 20
86.74472139696431
 10
442.80936454849495
 20
87.5474797436935
 10
443.47826086956525
 20
85.54023829657882
 10
444.1471571906354
 20
83.4301239703138
 10
444.8160535117057
 20
82.54687975945714
 10
445.4849498327759
 20
82.42190267005938
 10
446.1538461538462
 20
81.01017079998917
 10
446.82274247491637
 20
79.16499705407878
 10
447.49163879598666
 20
81.43435294935514
 10
448.16053511705684
 20
80.48001209284806
 10
448.8294314381271
 20
78.1532484363281
 10
449.4983277591973
 20
77.5093287302586
 10
450.16722408026754
 20
76.16183985116638
 10
450.8361204013378
 20
75.08635868170803
 10
451.505016722408
 20
76.47512385697021
 10
452.17391304347825
 20
77.38032056370037
 10
452.8428093645485
 20
76.58441452947937
 10
453.5117056856187
 20
77.68204247614565
 10
454.18060200668896
 20
73.82192749490787
 10
454.8494983277592
 20
70.41091587339726
 10
455.5183946488294
 20
69.99965040581442
 10
456.18729096989966
 20
70.13466666858588
 10
456.8561872909699
 20
69.33002097498081
 10
457.52508361204013
 20
67.99827696416972
 10
458.19397993311037
 20
67.46344277599083
 10
458.8628762541806
 20
66.24364987120293
 10
459.53177257525084
 20
64.24846538046124
 10
460.2006688963211
 20
63.414405887034
 10
460.8695652173913
 20
61.74078278998603
 10
461.53846153846155
 20
61.78660581435906
 10
462.2073578595318
 20
60.39763616193682
 10
462.876254180602
 20
59.71096446452879
 10
463.54515050167225
 20
59.89409674917877
 10
464.2140468227425
 20
60.238084693454624
 10
464.8829431438127
 20
61.30746294704741
 10
465.55183946488296
 20
59.58509551169428
 10
466.2207357859532
 20
58.59509846573336
 10
466.88963210702343
 20
59.2972887545172
 10
467.55852842809367
 20
58.29889677162102
 10
468.2274247491639
 20
53.23243579071046
 10
468.8963210702341
 20
50.58466776123066
 10
469.5652173913044
 20
50.75703368547465
 10
470.23411371237455
 20
54.52717709438808
 10
470.90301003344484
 20
50.96924606674992
 10
471.571906354515
 20
50.56229286105978
 10
472.2408026755853
 20
48.774383125561656
 10
472.9096989966555
 20
47.878409518111084
 10
473.5785953177258
 20
46.75399987968494
 10
474.24749163879596
 20
49.15442772264286
 10
474.91638795986626
 20
47.19874319431444
 10
475.58528428093643
 20
44.747388723214634
 10
476.25418060200667
 20
46.220765922810415
 10
476.9230769230769
 20
44.880733933118826
 10
477.59197324414714
 20
39.627488581745276
 10
478.2608695652174
 20
38.45806911107325
 10
478.9297658862876
 20
40.81842145373333
 10
479.59866220735785
 20
40.13939962445487
 10
480.2675585284281
 20
40.17769511747646
 10
480.9364548494983
 20
41.622069403128435
 10
481.60535117056855
 20
39.63944739801793
 10
482.2742474916388
 20
38.28473680773745
 10
482.943143812709
 20
36.15124685908897
 10
483.61204013377926
 20
35.67775358879003
 10
484.2809364548495
 20
34.20746462168807
 10
484.94983277591973
 20
34.018723560593436
 10
485.61872909698997
 20
33.853826687503954
 10
486.2876254180602
 20
33.43499212504011
 10
486.95652173913044
 20
33.36132123403019
 10
487.6254180602007
 20
31.877027521803942
 10
488.2943143812709
 20
32.445311729277336
 10
488.96321070234114
 20
32.29271987230813
 10
489.6321070234114
 20
29.888532112159282
 10
490.3010033444816
 20
30.253452229640203
 10
490.96989966555185
 20
30.986242782101616
 10
491.6387959866221
 20
30.11234314444257
 10
492.3076923076923
 20
27.79364588175372
 10
492.97658862876256
 20
25.785265215186474
 10
493.6454849498328
 20
25.218532361615633
 10
494.314381270903
 20
25.996246349830386
 10
494.98327759197326
 20
27.29786466178043
 10
495.6521739130435
 20
24.82182724607941
 10
496.3210702341137
 20
23.37829274651327
 10
496.98996655518397
 20
23.38804907899405
 10
497.65886287625415
 20
25.218780060825182
 10
498.32775919732444
 20
22.92401248374391
 10
498.9966555183946
 20
19.79233022158696
 10
499.6655518394649
 20
20.52987035335848
 10
500.3344481605351
 20
20.623886862260385
 10
501.0033444816054
 20
19.062438282133105
 10
501.67224080267556
 20
18.965204051973522
 10
502.34113712374585
 20
20.04814822623794
 10
503.01003344481603
 20
20.91699862382045
 10
503.67892976588627
 20
20.1993765227305
 10
504.3478260869565
 20
18.355023800629294
 10
505.01672240802674
 20
17.025119441985495
 10
505.685618729097
 20
16.06683039790759
 10
506.3545150501672
 20
15.407365002010454
 10
507.02341137123744
 20
16.198463504448924
 10
507.6923076923077
 20
17.563509699370087
 10
508.3612040133779
 20
16.951278590209064
 10
509.03010033444815
 20
13.433365591054198
 10
509.6989966555184
 20
13.70892595772741
 10
510.3678929765886
 20
15.696593252129666
 10
511.03678929765886
 20
13.925594079125057
 10
511.7056856187291
 20
13.179737278431984
 10
512.3745819397993
 20
11.966032195609612
 10
513.0434782608695
 20
13.801023214349168
 10
513.7123745819398
 20
13.21462284263595
 10
514.3812709030101
 20
12.566377278700976
 10
515.0501672240803
 20
11.883322709077431
 10
515.7190635451504
 20
12.788931997566257
 10
516.3879598662207
 20
13.765565480722579
 10
517.056856187291
 20
13.283454711756416
 10
517.7257525083612
 20
11.793741366575066
 10
518.3946488294314
 20
13.554468122602259
 10
519.0635451505017
 20
11.715185314018255
 10
519.732441471572
 20
9.26146247808952
 10
520.4013377926422
 20
10.233940134096844
 10
521.0702341137123
 20
10.384744820313838
 10
521.7391304347826
 20
9.813981244137102
 10
522.4080267558529
 20
7.579176477169557
 10
523.0769230769231
 20
6.948242330745637
 10
523.7458193979933
 20
7.174122198135847
 10
524.4147157190636
 20
7.486566332941433
 10
525.0836120401337
 20
8.428924030756
 10
525.752508361204
 20
9.493837263409299
 10
526.4214046822742
 20
11.506156738878321
 10
527.0903010033445
 20
10.987209480847577
 10
527.7591973244147
 20
8.918093788610626
 10
528.428093645485
 20
8.00459915798083
 10
529.0969899665552
 20
7.705958531985171
 10
529.7658862876254
 20
6.028471803046308
 10
530.4347826086956
 20
6.136545231918495
 10
531.1036789297659
 20
5.462412661773623
 10
531.7725752508361
 20
4.683463404890615
 10
532.4414715719064
 20
7.243813419784233
 10
533.1103678929766
 20
8.249744919306758
 10
533.7792642140469
 20
5.809465159151138
 10
534.448160535117
 20
5.0794136988557925
 10
535.1170568561873
 20
3.991495877065303
 10
535.7859531772575
 20
3.647606878380093
 10
536.4548494983278
 20
6.291350668419065
 10
537.123745819398
 20
6.126690799688033
 10
537.7926421404682
 20
4.313867430040872
 10
538.4615384615385
 20
4.363051868762938
 10
539.1304347826087
 20
3.99817754128731
 10
539.7993311036789
 20
3.0807475261614026
 10
540.4682274247491
 20
2.0275201023925216
 10
541.1371237458194
 20
4.679962328711213
 10
541.8060200668897
 20
4.567374876824898
 10
542.4749163879599
 20
4.253641463019159
 10
543.14381270903
 20
5.144620009932529
 10
543.8127090301003
 20
5.261410926878898
 10
544.4816053511706
 20
6.120867902059465
 10
545.1505016722408
 20
6.401402711175248
 10
545.819397993311
 20
8.369387319088782
 10
546.4882943143813
 20
6.950918079504645
 10
547.1571906354516
 20
4.8366294802677885
 10
547.8260869565217
 20
2.6459691634438425
 10
548.4949832775919
 20
6.302587887327351
 10
549.1638795986622
 20
5.101203101750094
 10
549.8327759197325
 20
1.9762057132616198
 10
550.5016722408027
 20
0.42603005233141505
 10
551.1705685618729
 20
1.6853755371088541
 10
551.8394648829432
 20
2.526472122329208
 10
552.5083612040133
 20
4.5750722683272915
 10
553.1772575250836
 20
5.319670915955261
 10
553.8461538461538
 20
5.854980733641026
 10
554.5150501672241
 20
2.810388663607406
 10
555.1839464882943
 20
1.0625267824035123
 10
555.8528428093646
 20
2.1728907796656665
 10
556.5217391304348
 20
1.7622648948090593
 10
557.190635451505
 20
-0.42935788463701186
 10
557.8595317725752
 20
-0.15961641809404492
 10
558.5284280936455
 20
1.6988264573980474
 10
559.1973244147157
 20
1.117260220437997
 10
559.866220735786
 20
1.0379177448503998
 10
560.5351170568562
 20
-0.6930812457410822
 10
561.2040133779265
 20
1.4332034022136855
 10
561.8729096989966
 20
1.0194194208158203
 10
562.5418060200669
 20
3.546230195955062
 10
563.2107023411371
 20
3.678824406932087
 10
563.8795986622074
 20
1.0735155021474523
 10
564.5484949832776
 20
1.4665704227731324
 10
565.2173913043478
 20
1.7518809676890297
 10
565.886287625418
 20
1.8015071821300663
 10
566.5551839464883
 20
1.2300879795786421
 10
567.2240802675585
 20
0.09985987200004082
 10
567.8929765886287
 20
0.543513217713182
 10
568.561872909699
 20
1.6036618330460963
 10
569.2307692307693
 20
1.4344338576986317
 10
569.8996655518395
 20
0.8676486603282046
 10
570.5685618729096
 20
0.2926076914981347
 10
571.2374581939799
 20
0.18231110794621896
 10
571.9063545150502
 20
0.4108670151855366
 10
572.5752508361204
 20
-1.6864616572482358
 10
573.2441471571906
 20
-2.794957686861683
 10
573.9130434782609
 20
-2.3026275071421805
 10
574.5819397993312
 20
1.3228606150704483
 10
575.2508361204013
 20
2.0116728700453117
 10
575.9197324414715
 20
0.029816608346345835
 10
576.5886287625418
 20
-0.5598769326476788
 10
577.2575250836121
 20
-0.10528173763058218
 10
577.9264214046823
 20
-0.26759356408911306
 10
578.5953177257525
 20
-0.3017281731878696
 10
579.2642140468228
 20
-0.04976787981204183
 10
579.9331103678929
 20
1.9936269303883738
 10
580.6020066889632
 20
2.771831899881008
 10
581.2709030100334
 20
2.3772346121749672
 10
581.9397993311037
 20
-0.7486149183365003
 10
582.6086956521739
 20
0.16688629781247258
 10
583.2775919732442
 20
-1.078178045863221
 10
583.9464882943143
 20
-1.7121302283419226
 10
584.6153846153846
 20
-0.0013186055904360766
 10
585.2842809364548
 20
0.1263142155239587
 10
585.9531772575251
 20
-0.11501780773529856
 10
586.6220735785953
 20
1.9367656107972864
 10
587.2909698996656
 20
2.550164603433662
 10
587.9598662207358
 20
1.3115792089200777
 10
588.628762541806
 20
0.6092076945965621
 10
589.2976588628762
 20
1.3771438701350367
 10
589.9665551839465
 20
1.3987266494632387
 10
590.6354515050167
 20
0.9342461137065541
 10
591.304347826087
 20
1.196471810830503
 10
591.9732441471572
 20
1.1907445741464475
 10
592.6421404682274
 20
-0.46444503842565776
 10
593.3110367892976
 20
-1.2192759960658377
 10
593.9799331103679
 20
-1.0341904878304993
 10
594.6488294314381
 20
1.904170907664808
 10
595.3177257525083
 20
0.9456430032371832
 10
595.9866220735786
 20
0.26151244903824833
 10
596.6555183946489
 20
1.2536589726827827
 10
597.3244147157191
 20
1.4087752095754047
 10
597.9933110367892
 20
0.3185411606424387
 10
598.6622073578595
 20
1.2199622087473165
 10
599.3311036789298
 20
1.5679930805812603
 10
600.0
 20
1.094848079649353
  0
LWPOLYLINE
  5
3B
330
17
100
AcDbEntity
  8
MERGED_CATENARY_Y_SCALED
100
AcDbPolyline
 90
300
 70
0
 10
400.0
 20
370.7384590602593
 10
400.66889632107024
 20
369.6626901545187
 10
401.33779264214047
 20
368.59035415026267
 10
402.0066889632107
 20
367.52145077213595
 10
402.67558528428094
 20
366.4559797456803
 10
403.3444816053512
 20
365.3939407973078
 10
404.0133779264214
 20
364.33533365431293
 10
404.68227424749165
 20
363.2801580448813
 10
405.3511705685619
 20
362.2284136980659
 10
406.0200668896321
 20
361.180100343808
 10
406.68896321070235
 20
360.1352177129311
 10
407.3578595317726
 20
359.09376553713486
 10
408.0267558528428
 20
358.05574354900443
 10
408.69565217391306
 20
357.0211514820042
 10
409.3645484949833
 20
355.9899890704748
 10
410.03344481605353
 20
354.962256049648
 10
410.70234113712377
 20
353.9379521556231
 10
411.37123745819395
 20
352.9170771253878
 10
412.04013377926424
 20
351.8996306968115
 10
412.7090301003344
 20
350.88561260864054
 10
413.3779264214047
 20
349.8750226005002
 10
414.0468227424749
 20
348.86786041289827
 10
414.7157190635452
 20
347.86412578722457
 10
415.38461538461536
 20
346.8638184657483
 10
416.05351170568565
 20
345.86693819161223
 10
416.72240802675583
 20
344.8734847088501
 10
417.3913043478261
 20
343.8834577623661
 10
418.0602006688963
 20
342.8968570979497
 10
418.7290969899666
 20
341.91368246226665
 10
419.39799331103677
 20
340.93393360286507
 10
420.066889632107
 20
339.95761026817235
 10
420.73578595317724
 20
338.98471220749224
 10
421.4046822742475
 20
338.0152391710166
 10
422.0735785953177
 20
337.04919090980206
 10
422.74247491638795
 20
336.08656717580186
 10
423.4113712374582
 20
335.1273677218373
 10
424.0802675585284
 20
334.17159230160854
 10
424.74916387959865
 20
333.21924066970126
 10
425.4180602006689
 20
332.27031258157723
 10
426.0869565217391
 20
331.3248077935748
 10
426.75585284280936
 20
330.3827260629175
 10
427.4247491638796
 20
329.44406714769934
 10
428.09364548494983
 20
328.5088308069024
 10
428.76254180602007
 20
327.5770168003793
 10
429.4314381270903
 20
326.6486248888708
 10
430.10033444816054
 20
325.72365483398534
 10
430.7692307692308
 20
324.8021063982163
 10
431.438127090301
 20
323.88397934493673
 10
432.10702341137124
 20
322.96927343839565
 10
432.7759197324415
 20
322.0579884437217
 10
433.4448160535117
 20
321.15012412691965
 10
434.11371237458195
 20
320.24568025487696
 10
434.7826086956522
 20
319.34465659535414
 10
435.4515050167224
 20
318.447052916994
 10
436.12040133779266
 20
317.5528689893129
 10
436.7892976588629
 20
316.66210458271536
 10
437.4581939799331
 20
315.77475946847045
 10
438.12709030100336
 20
314.8908334187324
 10
438.79598662207354
 20
314.01032620653785
 10
439.46488294314383
 20
313.1332376057909
 10
440.133779264214
 20
312.2595673912837
 10
440.8026755852843
 20
311.38931533867327
 10
441.4715719063545
 20
310.52248122451044
 10
442.1404682274248
 20
309.65906482621074
 10
442.80936454849495
 20
308.7990659220748
 10
443.47826086956525
 20
307.94248429127697
 10
444.1471571906354
 20
307.0893197138706
 10
444.8160535117057
 20
306.23957197078266
 10
445.4849498327759
 20
305.3932408438253
 10
446.1538461538462
 20
304.5503261156812
 10
446.82274247491637
 20
303.7108275699151
 10
447.49163879598666
 20
302.87474499096254
 10
448.16053511705684
 20
302.0420781641383
 10
448.8294314381271
 20
301.2128268756421
 10
449.4983277591973
 20
300.38699091254455
 10
450.16722408026754
 20
299.56457006278663
 10
450.8361204013378
 20
298.7455641151973
 10
451.505016722408
 20
297.92997285947615
 10
452.17391304347825
 20
297.1177960862022
 10
452.8428093645485
 20
296.30903358683065
 10
453.5117056856187
 20
295.5036851536932
 10
454.18060200668896
 20
294.70175057999506
 10
454.8494983277592
 20
293.9032296598235
 10
455.5183946488294
 20
293.10812218813953
 10
456.18729096989966
 20
292.31642796078313
 10
456.8561872909699
 20
291.5281467744651
 10
457.52508361204013
 20
290.74327842677826
 10
458.19397993311037
 20
289.9618227161862
 10
458.8628762541806
 20
289.18377944203746
 10
459.53177257525084
 20
288.40914840454536
 10
460.2006688963211
 20
287.63792940480846
 10
460.8695652173913
 20
286.8701222448015
 10
461.53846153846155
 20
286.1057267273669
 10
462.2073578595318
 20
285.3447426562295
 10
462.876254180602
 20
284.58716983599334
 10
463.54515050167225
 20
283.8330080721299
 10
464.2140468227425
 20
283.08225717099015
 10
464.8829431438127
 20
282.3349169398043
 10
465.55183946488296
 20
281.5909871866762
 10
466.2207357859532
 20
280.8504677205799
 10
466.88963210702343
 20
280.1133583513749
 10
467.55852842809367
 20
279.37965888978823
 10
468.2274247491639
 20
278.6493691474261
 10
468.8963210702341
 20
277.9224889367713
 10
469.5652173913044
 20
277.199018071177
 10
470.23411371237455
 20
276.47895636488164
 10
470.90301003344484
 20
275.76230363298527
 10
471.571906354515
 20
275.04905969147336
 10
472.2408026755853
 20
274.33922435720746
 10
472.9096989966555
 20
273.63279744791987
 10
473.5785953177258
 20
272.92977878221626
 10
474.24749163879596
 20
272.2301681795816
 10
474.91638795986626
 20
271.53396546037436
 10
475.58528428093643
 20
270.8411704458294
 10
476.25418060200667
 20
270.1517829580549
 10
476.9230769230769
 20
269.4658028200357
 10
477.59197324414714
 20
268.7832298556299
 10
478.2608695652174
 20
268.104063889569
 10
478.9297658862876
 20
267.4283047474639
 10
479.59866220735785
 20
266.7559522557991
 10
480.2675585284281
 20
266.0870062419293
 10
480.9364548494983
 20
265.42146653408895
 10
481.60535117056855
 20
264.7593329613854
 10
482.2742474916388
 20
264.10060535379705
 10
482.943143812709
 20
263.44528354218716
 10
483.61204013377926
 20
262.7933673582808
 10
484.2809364548495
 20
262.1448566346884
 10
484.94983277591973
 20
261.4997512048817
 10
485.61872909698997
 20
260.85805090322697
 10
486.2876254180602
 20
260.21975556493993
 10
486.95652173913044
 20
259.58486502613357
 10
487.6254180602007
 20
258.9533791237796
 10
488.2943143812709
 20
258.32529769573193
 10
488.96321070234114
 20
257.70062058071494
 10
489.6321070234114
 20
257.07934761832666
 10
490.3010033444816
 20
256.4614786490472
 10
490.96989966555185
 20
255.84701351421546
 10
491.6387959866221
 20
255.23595205606148
 10
492.3076923076923
 20
254.6282941176741
 10
492.97658862876256
 20
254.02403954303014
 10
493.6454849498328
 20
253.42318817696832
 10
494.314381270903
 20
252.82573986520651
 10
494.98327759197326
 20
252.23169445433624
 10
495.6521739130435
 20
251.64105179182516
 10
496.3210702341137
 20
251.0538117260088
 10
496.98996655518397
 20
250.46997410610174
 10
497.65886287625415
 20
249.88953878218933
 10
498.32775919732444
 20
249.3125056052331
 10
498.9966555183946
 20
248.73887442706518
 10
499.6655518394649
 20
248.16864510039125
 10
500.3344481605351
 20
247.60181747879327
 10
501.0033444816054
 20
247.03839141672364
 10
501.67224080267556
 20
246.4783667695114
 10
502.34113712374585
 20
245.9217433933588
 10
503.01003344481603
 20
245.36852114533582
 10
503.67892976588627
 20
244.81869988339167
 10
504.3478260869565
 20
244.27227946634912
 10
505.01672240802674
 20
243.7292597538955
 10
505.685618729097
 20
243.1896406066063
 10
506.3545150501672
 20
242.65342188591876
 10
507.02341137123744
 20
242.12060345414352
 10
507.6923076923077
 20
241.59118517447058
 10
508.3612040133779
 20
241.06516691095752
 10
509.03010033444815
 20
240.54254852853535
 10
509.6989966555184
 20
240.02332989301743
 10
510.3678929765886
 20
239.50751087107278
 10
511.03678929765886
 20
238.99509133025876
 10
511.7056856187291
 20
238.4860711390002
 10
512.3745819397993
 20
237.98045016658955
 10
513.0434782608695
 20
237.47822828319855
 10
513.7123745819398
 20
236.97940535987533
 10
514.3812709030101
 20
236.48398126852985
 10
515.0501672240803
 20
235.99195588195127
 10
515.7190635451504
 20
235.50332907380223
 10
516.3879598662207
 20
235.01810071861883
 10
517.056856187291
 20
234.5362706917989
 10
517.7257525083612
 20
234.05783886963135
 10
518.3946488294314
 20
233.58280512926387
 10
519.0635451505017
 20
233.1111693487176
 10
519.732441471572
 20
232.6429314068929
 10
520.4013377926422
 20
232.17809118356084
 10
521.0702341137123
 20
231.71664855935703
 10
521.7391304347826
 20
231.2586034157964
 10
522.4080267558529
 20
230.8039556352703
 10
523.0769230769231
 20
230.35270510103186
 10
523.7458193979933
 20
229.90485169721632
 10
524.4147157190636
 20
229.46039530882658
 10
525.0836120401337
 20
229.01933582173325
 10
525.752508361204
 20
228.58167312268898
 10
526.4214046822742
 20
228.14740709931124
 10
527.0903010033445
 20
227.7165376400938
 10
527.7591973244147
 20
227.28906463440097
 10
528.428093645485
 20
226.86498797246767
 10
529.0969899665552
 20
226.44430754540508
 10
529.7658862876254
 20
226.02702324519203
 10
530.4347826086956
 20
225.6131349646808
 10
531.1036789297659
 20
225.2026425975942
 10
531.7725752508361
 20
224.79554603853146
 10
532.4414715719064
 20
224.39184518296224
 10
533.1103678929766
 20
223.9915399272239
 10
533.7792642140469
 20
223.594630168533
 10
534.448160535117
 20
223.2011158049679
 10
535.1170568561873
 20
222.81099673548934
 10
535.7859531772575
 20
222.42427285992537
 10
536.4548494983278
 20
222.0409440789718
 10
537.123745819398
 20
221.66101029420383
 10
537.7926421404682
 20
221.2844714080611
 10
538.4615384615385
 20
220.9113273238628
 10
539.1304347826087
 20
220.5415779457926
 10
539.7993311036789
 20
220.17522317890777
 10
540.4682274247491
 20
219.81226292914482
 10
541.1371237458194
 20
219.4526971032961
 10
541.8060200668897
 20
219.09652560904215
 10
542.4749163879599
 20
218.74374835492515
 10
543.14381270903
 20
218.3943652503579
 10
543.8127090301003
 20
218.04837620563245
 10
544.4816053511706
 20
217.70578113190848
 10
545.1505016722408
 20
217.36657994121617
 10
545.819397993311
 20
217.03077254645623
 10
546.4882943143813
 20
216.6983588613999
 10
547.1571906354516
 20
216.36933880070063
 10
547.8260869565217
 20
216.0437122798649
 10
548.4949832775919
 20
215.72147921528722
 10
549.1638795986622
 20
215.40263952422674
 10
549.8327759197325
 20
215.0871931248103
 10
550.5016722408027
 20
214.775139936044
 10
551.1705685618729
 20
214.46647987779562
 10
551.8394648829432
 20
214.1612128708124
 10
552.5083612040133
 20
213.85933883671197
 10
553.1772575250836
 20
213.56085769797954
 10
553.8461538461538
 20
213.26576937797392
 10
554.5150501672241
 20
212.9740738009214
 10
555.1839464882943
 20
212.68577089192465
 10
555.8528428093646
 20
212.40086057695692
 10
556.5217391304348
 20
212.1193427828561
 10
557.190635451505
 20
211.84121743734235
 10
557.8595317725752
 20
211.56648446899453
 10
558.5284280936455
 20
211.295143807271
 10
559.1973244147157
 20
211.02719538250042
 10
559.866220735786
 20
210.76263912587928
 10
560.5351170568562
 20
210.50147496947727
 10
561.2040133779265
 20
210.2437028462319
 10
561.8729096989966
 20
209.98932268995696
 10
562.5418060200669
 20
209.73833443533383
 10
563.2107023411371
 20
209.49073801791738
 10
563.8795986622074
 20
209.2465333741271
 10
564.5484949832776
 20
209.00572044126181
 10
565.2173913043478
 20
208.76829915748505
 10
565.886287625418
 20
208.53426946183077
 10
566.5551839464883
 20
208.3036312942153
 10
567.2240802675585
 20
208.07638459540783
 10
567.8929765886287
 20
207.85252930706267
 10
568.561872909699
 20
207.632065371696
 10
569.2307692307693
 20
207.41499273270034
 10
569.8996655518395
 20
207.2013113343416
 10
570.5685618729096
 20
206.99102112174447
 10
571.2374581939799
 20
206.784122040919
 10
571.9063545150502
 20
206.5806140387338
 10
572.5752508361204
 20
206.38049706293413
 10
573.2441471571906
 20
206.18377106214137
 10
573.9130434782609
 20
205.99043598583293
 10
574.5819397993312
 20
205.8004917843714
 10
575.2508361204013
 20
205.61393840898103
 10
575.9197324414715
 20
205.43077581176246
 10
576.5886287625418
 20
205.25100394568398
 10
577.2575250836121
 20
205.07462276458142
 10
577.9264214046823
 20
204.90163222317
 10
578.5953177257525
 20
204.73203227702658
 10
579.2642140468228
 20
204.56582288260736
 10
579.9331103678929
 20
204.40300399722744
 10
580.6020066889632
 20
204.243575579084
 10
581.2709030100334
 20
204.087537587239
 10
581.9397993311037
 20
203.9348899816249
 10
582.6086956521739
 20
203.78563272304757
 10
583.2775919732442
 20
203.6397657731835
 10
583.9464882943143
 20
203.49728909457082
 10
584.6153846153846
 20
203.35820265063575
 10
585.2842809364548
 20
203.22250640565466
 10
585.9531772575251
 20
203.09020032478895
 10
586.6220735785953
 20
202.96128437406767
 10
587.2909698996656
 20
202.83575852038751
 10
587.9598662207358
 20
202.71362273151266
 10
588.628762541806
 20
202.5948769760867
 10
589.2976588628762
 20
202.47952122362074
 10
589.9665551839465
 20
202.36755544448766
 10
590.6354515050167
 20
202.25897960993967
 10
591.304347826087
 20
202.15379369210245
 10
591.9732441471572
 20
202.05199766396336
 10
592.6421404682274
 20
201.9535914993832
 10
593.3110367892976
 20
201.85857517309628
 10
593.9799331103679
 20
201.7669486607045
 10
594.6488294314381
 20
201.67871193867734
 10
595.3177257525083
 20
201.5938649843635
 10
595.9866220735786
 20
201.51240777597067
 10
596.6555183946489
 20
201.43434029258574
 10
597.3244147157191
 20
201.3596625141632
 10
597.9933110367892
 20
201.28837442153102
 10
598.6622073578595
 20
201.22047599637597
 10
599.3311036789298
 20
201.15596722126992
 10
600.0
 20
201.0948480796495
  0
LINE
  5
3C
330
17
100
AcDbEntity
  8
MERGED_SUPPORTS_Y_SCALED
100
AcDbLine
 10
600.0
 20
1.094848079649353
 30
0.0
 11
600.0
 21
201.09484807964935
 31
0.0
  0
ENDSEC
  0
SECTION
  2
OBJECTS
  0
DICTIONARY
  5
A
330
0
100
AcDbDictionary
281
1
  3
ACAD_COLOR
350
B
  3
ACAD_GROUP
350
C
  3
ACAD_LAYOUT
350
D
  3
ACAD_MATERIAL
350
E
  3
ACAD_MLEADERSTYLE
350
F
  3
ACAD_MLINESTYLE
350
10
  3
ACAD_PLOTSETTINGS
350
11
  3
ACAD_PLOTSTYLENAME
350
12
  3
ACAD_SCALELIST
350
14
  3
ACAD_TABLESTYLE
350
15
  3
ACAD_VISUALSTYLE
350
16
  3
EZDXF_META
350
2D
  0
DICTIONARY
  5
B
330
A
100
AcDbDictionary
281
1
  0
DICTIONARY
  5
C
330
A
100
AcDbDictionary
281
1
  0
DICTIONARY
  5
D
330
A
100
AcDbDictionary
281
1
  3
Model
350
1A
  3
Layout1
350
1E
  0
DICTIONARY
  5
E
330
A
100
AcDbDictionary
281
1
  3
ByBlock
350
1F
  3
ByLayer
350
20
  3
Global
350
21
  0
DICTIONARY
  5
F
330
A
100
AcDbDictionary
281
1
  3
Standard
350
2C
  0
DICTIONARY
  5
10
330
A
100
AcDbDictionary
281
1
  3
Standard
350
22
  0
DICTIONARY
  5
11
330
A
100
AcDbDictionary
281
1
  0
ACDBDICTIONARYWDFLT
  5
12
330
A
100
AcDbDictionary
281
1
  3
Normal
350
13
100
AcDbDictionaryWithDefault
340
13
  0
ACDBPLACEHOLDER
  5
13
330
12
  0
DICTIONARY
  5
14
330
A
100
AcDbDictionary
281
1
  0
DICTIONARY
  5
15
330
A
100
AcDbDictionary
281
1
  0
DICTIONARY
  5
16
330
A
100
AcDbDictionary
281
1
  0
LAYOUT
  5
1A
330
D
100
AcDbPlotSettings
  1

  4
A3
  6

 40
7.5
 41
20.0
 42
7.5
 43
20.0
 44
420.0
 45
297.0
 46
0.0
 47
0.0
 48
0.0
 49
0.0
140
0.0
141
0.0
142
1.0
143
1.0
 70
1024
 72
1
 73
0
 74
5
  7

 75
16
 76
0
 77
2
 78
300
147
1.0
148
0.0
149
0.0
100
AcDbLayout
  1
Model
 70
1
 71
0
 10
0.0
 20
0.0
 11
420.0
 21
297.0
 12
0.0
 22
0.0
 32
0.0
 14
1e+20
 24
1e+20
 34
1e+20
 15
-1e+20
 25
-1e+20
 35
-1e+20
146
0.0
 13
0.0
 23
0.0
 33
0.0
 16
1.0
 26
0.0
 36
0.0
 17
0.0
 27
1.0
 37
0.0
 76
1
330
17
  0
LAYOUT
  5
1E
330
D
100
AcDbPlotSettings
  1

  4
A3
  6

 40
7.5
 41
20.0
 42
7.5
 43
20.0
 44
420.0
 45
297.0
 46
0.0
 47
0.0
 48
0.0
 49
0.0
140
0.0
141
0.0
142
1.0
143
1.0
 70
0
 72
1
 73
0
 74
5
  7

 75
16
 76
0
 77
2
 78
300
147
1.0
148
0.0
149
0.0
100
AcDbLayout
  1
Layout1
 70
1
 71
1
 10
0.0
 20
0.0
 11
420.0
 21
297.0
 12
0.0
 22
0.0
 32
0.0
 14
1e+20
 24
1e+20
 34
1e+20
 15
-1e+20
 25
-1e+20
 35
-1e+20
146
0.0
 13
0.0
 23
0.0
 33
0.0
 16
1.0
 26
0.0
 36
0.0
 17
0.0
 27
1.0
 37
0.0
 76
1
330
1B
  0
MATERIAL
  5
1F
102
{ACAD_REACTORS
330
E
102
}
330
E
100
AcDbMaterial
  1
ByBlock
  2

 70
0
 40
1.0
 71
1
 41
1.0
 91
-1023410177
 42
1.0
 72
1
  3

 73
1
 74
1
 75
1
 44
0.5
 73
0
 45
1.0
 46
1.0
 77
1
  4

 78
1
 79
1
170
1
 48
1.0
171
1
  6

172
1
173
1
174
1
140
1.0
141
1.0
175
1
  7

176
1
177
1
178
1
143
1.0
179
1
  8

270
1
271
1
272
1
145
1.0
146
1.0
273
1
  9

274
1
275
1
276
1
 42
1.0
 72
1
  3

 73
1
 74
1
 75
1
 94
63
  0
MATERIAL
  5
20
102
{ACAD_REACTORS
330
E
102
}
330
E
100
AcDbMaterial
  1
ByLayer
  2

 70
0
 40
1.0
 71
1
 41
1.0
 91
-1023410177
 42
1.0
 72
1
  3

 73
1
 74
1
 75
1
 44
0.5
 73
0
 45
1.0
 46
1.0
 77
1
  4

 78
1
 79
1
170
1
 48
1.0
171
1
  6

172
1
173
1
174
1
140
1.0
141
1.0
175
1
  7

176
1
177
1
178
1
143
1.0
179
1
  8

270
1
271
1
272
1
145
1.0
146
1.0
273
1
  9

274
1
275
1
276
1
 42
1.0
 72
1
  3

 73
1
 74
1
 75
1
 94
63
  0
MATERIAL
  5
21
102
{ACAD_REACTORS
330
E
102
}
330
E
100
AcDbMaterial
  1
Global
  2

 70
0
 40
1.0
 71
1
 41
1.0
 91
-1023410177
 42
1.0
 72
1
  3

 73
1
 74
1
 75
1
 44
0.5
 73
0
 45
1.0
 46
1.0
 77
1
  4

 78
1
 79
1
170
1
 48
1.0
171
1
  6

172
1
173
1
174
1
140
1.0
141
1.0
175
1
  7

176
1
177
1
178
1
143
1.0
179
1
  8

270
1
271
1
272
1
145
1.0
146
1.0
273
1
  9

274
1
275
1
276
1
 42
1.0
 72
1
  3

 73
1
 74
1
 75
1
 94
63
  0
MLINESTYLE
  5
22
102
{ACAD_REACTORS
330
10
102
}
330
10
100
AcDbMlineStyle
  2
Standard
 70
0
  3

 62
256
 51
90.0
 52
90.0
 71
2
 49
0.5
 62
256
  6
BYLAYER
 49
-0.5
 62
256
  6
BYLAYER
  0
MLEADERSTYLE
  5
2C
102
{ACAD_REACTORS
330
F
102
}
330
F
100
AcDbMLeaderStyle
179
2
170
2
171
1
172
0
 90
2
 40
0.0
 41
0.0
173
1
 91
-1056964608
 92
-2
290
1
 42
2.0
291
1
 43
8.0
  3
Standard
 44
4.0
300

342
29
174
1
175
1
176
0
178
1
 93
-1056964608
 45
4.0
292
0
297
0
 46
4.0
 94
-1056964608
 47
1.0
 49
1.0
140
1.0
294
1
141
0.0
177
0
142
1.0
295
0
296
0
143
3.75
271
0
272
9
273
9
  0
DICTIONARY
  5
2D
330
A
100
AcDbDictionary
280
1
281
1
  3
CREATED_BY_EZDXF
350
2E
  3
WRITTEN_BY_EZDXF
350
3F
  0
DICTIONARYVAR
  5
2E
330
2D
100
DictionaryVariables
280
0
  1
1.4.4 @ 2026-05-21T13:13:00.347345+00:00
  0
DICTIONARYVAR
  5
3F
330
2D
100
DictionaryVariables
280
0
  1
1.4.4 @ 2026-05-21T13:13:00.356252+00:00
  0
ENDSEC
  0
EOF
