  0
SECTION
  2
HEADER
  9
$ACADVER
  1
AC1024
  9
$ACADMAINTVER
 70
6
  9
$DWGCODEPAGE
  3
ANSI_1252
  9
$LASTSAVEDBY
  1
ezdxf
  9
$INSBASE
 10
0.0
 20
0.0
 30
0.0
  9
$EXTMIN
 10
1e+20
 20
1e+20
 30
1e+20
  9
$EXTMAX
 10
-1e+20
 20
-1e+20
 30
-1e+20
  9
$LIMMIN
 10
0.0
 20
0.0
  9
$LIMMAX
 10
420.0
 20
297.0
  9
$ORTHOMODE
 70
0
  9
$REGENMODE
 70
1
  9
$FILLMODE
 70
1
  9
$QTEXTMODE
 70
0
  9
$MIRRTEXT
 70
1
  9
$LTSCALE
 40
1.0
  9
$ATTMODE
 70
1
  9
$TEXTSIZE
 40
2.5
  9
$TRACEWID
 40
1.0
  9
$TEXTSTYLE
  7
Standard
  9
$CLAYER
  8
0
  9
$CELTYPE
  6
ByLayer
  9
$CECOLOR
 62
256
  9
$CELTSCALE
 40
1.0
  9
$DISPSILH
 70
0
  9
$DIMSCALE
 40
1.0
  9
$DIMASZ
 40
2.5
  9
$DIMEXO
 40
0.625
  9
$DIMDLI
 40
3.75
  9
$DIMRND
 40
0.0
  9
$DIMDLE
 40
0.0
  9
$DIMEXE
 40
1.25
  9
$DIMTP
 40
0.0
  9
$DIMTM
 40
0.0
  9
$DIMTXT
 40
2.5
  9
$DIMCEN
 40
2.5
  9
$DIMTSZ
 40
0.0
  9
$DIMTOL
 70
0
  9
$DIMLIM
 70
0
  9
$DIMTIH
 70
0
  9
$DIMTOH
 70
0
  9
$DIMSE1
 70
0
  9
$DIMSE2
 70
0
  9
$DIMTAD
 70
1
  9
$DIMZIN
 70
8
  9
$DIMBLK
  1

  9
$DIMASO
 70
1
  9
$DIMSHO
 70
1
  9
$DIMPOST
  1

  9
$DIMAPOST
  1

  9
$DIMALT
 70
0
  9
$DIMALTD
 70
3
  9
$DIMALTF
 40
0.03937007874
  9
$DIMLFAC
 40
1.0
  9
$DIMTOFL
 70
1
  9
$DIMTVP
 40
0.0
  9
$DIMTIX
 70
0
  9
$DIMSOXD
 70
0
  9
$DIMSAH
 70
0
  9
$DIMBLK1
  1

  9
$DIMBLK2
  1

  9
$DIMSTYLE
  2
ISO-25
  9
$DIMCLRD
 70
0
  9
$DIMCLRE
 70
0
  9
$DIMCLRT
 70
0
  9
$DIMTFAC
 40
1.0
  9
$DIMGAP
 40
0.625
  9
$DIMJUST
 70
0
  9
$DIMSD1
 70
0
  9
$DIMSD2
 70
0
  9
$DIMTOLJ
 70
0
  9
$DIMTZIN
 70
8
  9
$DIMALTZ
 70
0
  9
$DIMALTTZ
 70
0
  9
$DIMUPT
 70
0
  9
$DIMDEC
 70
2
  9
$DIMTDEC
 70
2
  9
$DIMALTU
 70
2
  9
$DIMALTTD
 70
3
  9
$DIMTXSTY
  7
Standard
  9
$DIMAUNIT
 70
0
  9
$DIMADEC
 70
0
  9
$DIMALTRND
 40
0.0
  9
$DIMAZIN
 70
0
  9
$DIMDSEP
 70
44
  9
$DIMATFIT
 70
3
  9
$DIMFRAC
 70
0
  9
$DIMLDRBLK
  1

  9
$DIMLUNIT
 70
2
  9
$DIMLWD
 70
-2
  9
$DIMLWE
 70
-2
  9
$DIMTMOVE
 70
0
  9
$DIMFXL
 40
1.0
  9
$DIMFXLON
 70
0
  9
$DIMJOGANG
 40
0.785398163397
  9
$DIMTFILL
 70
0
  9
$DIMTFILLCLR
 70
0
  9
$DIMARCSYM
 70
0
  9
$DIMLTYPE
  6

  9
$DIMLTEX1
  6

  9
$DIMLTEX2
  6

  9
$DIMTXTDIRECTION
 70
0
  9
$LUNITS
 70
2
  9
$LUPREC
 70
4
  9
$SKETCHINC
 40
1.0
  9
$FILLETRAD
 40
10.0
  9
$AUNITS
 70
0
  9
$AUPREC
 70
2
  9
$MENU
  1
.
  9
$ELEVATION
 40
0.0
  9
$PELEVATION
 40
0.0
  9
$THICKNESS
 40
0.0
  9
$LIMCHECK
 70
0
  9
$CHAMFERA
 40
0.0
  9
$CHAMFERB
 40
0.0
  9
$CHAMFERC
 40
0.0
  9
$CHAMFERD
 40
0.0
  9
$SKPOLY
 70
0
  9
$TDCREATE
 40
2461181.435578704
  9
$TDUCREATE
 40
2458532.153996898
  9
$TDUPDATE
 40
2461181.435578704
  9
$TDUUPDATE
 40
2458532.1544311
  9
$TDINDWG
 40
0.0
  9
$TDUSRTIMER
 40
0.0
  9
$USRTIMER
 70
1
  9
$ANGBASE
 50
0.0
  9
$ANGDIR
 70
0
  9
$PDMODE
 70
0
  9
$PDSIZE
 40
0.0
  9
$PLINEWID
 40
0.0
  9
$SPLFRAME
 70
0
  9
$SPLINETYPE
 70
6
  9
$SPLINESEGS
 70
8
  9
$HANDSEED
  5
3D
  9
$SURFTAB1
 70
6
  9
$SURFTAB2
 70
6
  9
$SURFTYPE
 70
6
  9
$SURFU
 70
6
  9
$SURFV
 70
6
  9
$UCSBASE
  2

  9
$UCSNAME
  2

  9
$UCSORG
 10
0.0
 20
0.0
 30
0.0
  9
$UCSXDIR
 10
1.0
 20
0.0
 30
0.0
  9
$UCSYDIR
 10
0.0
 20
1.0
 30
0.0
  9
$UCSORTHOREF
  2

  9
$UCSORTHOVIEW
 70
0
  9
$UCSORGTOP
 10
0.0
 20
0.0
 30
0.0
  9
$UCSORGBOTTOM
 10
0.0
 20
0.0
 30
0.0
  9
$UCSORGLEFT
 10
0.0
 20
0.0
 30
0.0
  9
$UCSORGRIGHT
 10
0.0
 20
0.0
 30
0.0
  9
$UCSORGFRONT
 10
0.0
 20
0.0
 30
0.0
  9
$UCSORGBACK
 10
0.0
 20
0.0
 30
0.0
  9
$PUCSBASE
  2

  9
$PUCSNAME
  2

  9
$PUCSORG
 10
0.0
 20
0.0
 30
0.0
  9
$PUCSXDIR
 10
1.0
 20
0.0
 30
0.0
  9
$PUCSYDIR
 10
0.0
 20
1.0
 30
0.0
  9
$PUCSORTHOREF
  2

  9
$PUCSORTHOVIEW
 70
0
  9
$PUCSORGTOP
 10
0.0
 20
0.0
 30
0.0
  9
$PUCSORGBOTTOM
 10
0.0
 20
0.0
 30
0.0
  9
$PUCSORGLEFT
 10
0.0
 20
0.0
 30
0.0
  9
$PUCSORGRIGHT
 10
0.0
 20
0.0
 30
0.0
  9
$PUCSORGFRONT
 10
0.0
 20
0.0
 30
0.0
  9
$PUCSORGBACK
 10
0.0
 20
0.0
 30
0.0
  9
$USERI1
 70
0
  9
$USERI2
 70
0
  9
$USERI3
 70
0
  9
$USERI4
 70
0
  9
$USERI5
 70
0
  9
$USERR1
 40
0.0
  9
$USERR2
 40
0.0
  9
$USERR3
 40
0.0
  9
$USERR4
 40
0.0
  9
$USERR5
 40
0.0
  9
$WORLDVIEW
 70
1
  9
$SHADEDGE
 70
3
  9
$SHADEDIF
 70
70
  9
$TILEMODE
 70
1
  9
$MAXACTVP
 70
64
  9
$PINSBASE
 10
0.0
 20
0.0
 30
0.0
  9
$PLIMCHECK
 70
0
  9
$PEXTMIN
 10
1e+20
 20
1e+20
 30
1e+20
  9
$PEXTMAX
 10
-1e+20
 20
-1e+20
 30
-1e+20
  9
$PLIMMIN
 10
0.0
 20
0.0
  9
$PLIMMAX
 10
420.0
 20
297.0
  9
$UNITMODE
 70
0
  9
$VISRETAIN
 70
1
  9
$PLINEGEN
 70
0
  9
$PSLTSCALE
 70
1
  9
$TREEDEPTH
 70
3020
  9
$CMLSTYLE
  2
Standard
  9
$CMLJUST
 70
0
  9
$CMLSCALE
 40
20.0
  9
$PROXYGRAPHICS
 70
1
  9
$MEASUREMENT
 70
1
  9
$CELWEIGHT
370
-1
  9
$ENDCAPS
280
0
  9
$JOINSTYLE
280
0
  9
$LWDISPLAY
290
0
  9
$INSUNITS
 70
6
  9
$HYPERLINKBASE
  1

  9
$STYLESHEET
  1

  9
$XEDIT
290
1
  9
$CEPSNTYPE
380
0
  9
$PSTYLEMODE
290
1
  9
$FINGERPRINTGUID
  2
{ACA94D3E-5DE6-4AE6-8DCA-0FEA5E1B51F8}
  9
$VERSIONGUID
  2
{84AA7585-234B-41CE-9C6D-F69591012C98}
  9
$EXTNAMES
290
1
  9
$PSVPSCALE
 40
0.0
  9
$OLESTARTUP
290
0
  9
$SORTENTS
280
127
  9
$INDEXCTL
280
0
  9
$HIDETEXT
280
1
  9
$XCLIPFRAME
280
1
  9
$HALOGAP
280
0
  9
$OBSCOLOR
 70
257
  9
$OBSLTYPE
280
0
  9
$INTERSECTIONDISPLAY
280
0
  9
$INTERSECTIONCOLOR
 70
257
  9
$DIMASSOC
280
2
  9
$PROJECTNAME
  1

  9
$CAMERADISPLAY
290
0
  9
$LENSLENGTH
 40
50.0
  9
$CAMERAHEIGHT
 40
0.0
  9
$STEPSPERSEC
 40
24.0
  9
$STEPSIZE
 40
100.0
  9
$3DDWFPREC
 40
2.0
  9
$PSOLWIDTH
 40
0.005
  9
$PSOLHEIGHT
 40
0.08
  9
$LOFTANG1
 40
1.570796326795
  9
$LOFTANG2
 40
1.570796326795
  9
$LOFTMAG1
 40
0.0
  9
$LOFTMAG2
 40
0.0
  9
$LOFTPARAM
 70
7
  9
$LOFTNORMALS
280
1
  9
$LATITUDE
 40
37.795
  9
$LONGITUDE
 40
-122.394
  9
$NORTHDIRECTION
 40
0.0
  9
$TIMEZONE
 70
-8000
  9
$LIGHTGLYPHDISPLAY
280
1
  9
$TILEMODELIGHTSYNCH
280
1
  9
$CMATERIAL
347
20
  9
$SOLIDHIST
280
0
  9
$SHOWHIST
280
1
  9
$DWFFRAME
280
2
  9
$DGNFRAME
280
2
  9
$REALWORLDSCALE
290
1
  9
$INTERFERECOLOR
 62
256
  9
$CSHADOW
280
0
  9
$SHADOWPLANELOCATION
 40
0.0
  0
ENDSEC
  0
SECTION
  2
CLASSES
  0
CLASS
  1
ACDBDICTIONARYWDFLT
  2
AcDbDictionaryWithDefault
  3
ObjectDBX Classes
 90
0
 91
0
280
0
281
0
  0
CLASS
  1
SUN
  2
AcDbSun
  3
SCENEOE
 90
1153
 91
0
280
0
281
0
  0
CLASS
  1
VISUALSTYLE
  2
AcDbVisualStyle
  3
ObjectDBX Classes
 90
4095
 91
0
280
0
281
0
  0
CLASS
  1
MATERIAL
  2
AcDbMaterial
  3
ObjectDBX Classes
 90
1153
 91
0
280
0
281
0
  0
CLASS
  1
SCALE
  2
AcDbScale
  3
ObjectDBX Classes
 90
1153
 91
0
280
0
281
0
  0
CLASS
  1
TABLESTYLE
  2
AcDbTableStyle
  3
ObjectDBX Classes
 90
4095
 91
0
280
0
281
0
  0
CLASS
  1
MLEADERSTYLE
  2
AcDbMLeaderStyle
  3
ACDB_MLEADERSTYLE_CLASS
 90
4095
 91
0
280
0
281
0
  0
CLASS
  1
DICTIONARYVAR
  2
AcDbDictionaryVar
  3
ObjectDBX Classes
 90
0
 91
0
280
0
281
0
  0
CLASS
  1
CELLSTYLEMAP
  2
AcDbCellStyleMap
  3
ObjectDBX Classes
 90
1152
 91
0
280
0
281
0
  0
CLASS
  1
MENTALRAYRENDERSETTINGS
  2
AcDbMentalRayRenderSettings
  3
SCENEOE
 90
1024
 91
0
280
0
281
0
  0
CLASS
  1
ACDBDETAILVIEWSTYLE
  2
AcDbDetailViewStyle
  3
ObjectDBX Classes
 90
1025
 91
0
280
0
281
0
  0
CLASS
  1
ACDBSECTIONVIEWSTYLE
  2
AcDbSectionViewStyle
  3
ObjectDBX Classes
 90
1025
 91
0
280
0
281
0
  0
CLASS
  1
RASTERVARIABLES
  2
AcDbRasterVariables
  3
ISM
 90
0
 91
0
280
0
281
0
  0
CLASS
  1
ACDBPLACEHOLDER
  2
AcDbPlaceHolder
  3
ObjectDBX Classes
 90
0
 91
0
280
0
281
0
  0
CLASS
  1
LAYOUT
  2
AcDbLayout
  3
ObjectDBX Classes
 90
0
 91
0
280
0
281
0
  0
ENDSEC
  0
SECTION
  2
TABLES
  0
TABLE
  2
VPORT
  5
8
330
0
100
AcDbSymbolTable
 70
1
  0
VPORT
  5
23
330
8
100
AcDbSymbolTableRecord
100
AcDbViewportTableRecord
  2
*Active
 70
0
 10
0.0
 20
0.0
 11
1.0
 21
1.0
 12
0.0
 22
0.0
 13
0.0
 23
0.0
 14
0.5
 24
0.5
 15
0.5
 25
0.5
 16
0.0
 26
0.0
 36
1.0
 17
0.0
 27
0.0
 37
0.0
 40
1000.0
 41
1.34
 42
50.0
 43
0.0
 44
0.0
 50
0.0
 51
0.0
 71
0
 72
1000
 73
1
 74
3
 75
0
 76
0
 77
0
 78
0
281
0
 65
0
146
0.0
  0
ENDTAB
  0
TABLE
  2
LTYPE
  5
2
330
0
100
AcDbSymbolTable
 70
3
  0
LTYPE
  5
24
330
2
100
AcDbSymbolTableRecord
100
AcDbLinetypeTableRecord
  2
ByBlock
 70
0
  3

 72
65
 73
0
 40
0.0
  0
LTYPE
  5
25
330
2
100
AcDbSymbolTableRecord
100
AcDbLinetypeTableRecord
  2
ByLayer
 70
0
  3

 72
65
 73
0
 40
0.0
  0
LTYPE
  5
26
330
2
100
AcDbSymbolTableRecord
100
AcDbLinetypeTableRecord
  2
Continuous
 70
0
  3

 72
65
 73
0
 40
0.0
  0
ENDTAB
  0
TABLE
  2
LAYER
  5
1
330
0
100
AcDbSymbolTable
 70
6
  0
LAYER
  5
27
330
1
100
AcDbSymbolTableRecord
100
AcDbLayerTableRecord
  2
0
 70
0
 62
7
  6
Continuous
370
-3
390
13
347
21
  0
LAYER
  5
28
330
1
100
AcDbSymbolTableRecord
100
AcDbLayerTableRecord
  2
Defpoints
 70
0
 62
7
  6
Continuous
290
0
370
-3
390
13
347
21
  0
LAYER
  5
2F
330
1
100
AcDbSymbolTableRecord
100
AcDbLayerTableRecord
  2
MERGED_GROUND
 70
0
 62
7
  6
Continuous
370
-3
390
13
347
21
  0
LAYER
  5
30
330
1
100
AcDbSymbolTableRecord
100
AcDbLayerTableRecord
  2
MERGED_CATENARY
 70
0
 62
7
  6
Continuous
370
-3
390
13
347
21
  0
LAYER
  5
31
330
1
100
AcDbSymbolTableRecord
100
AcDbLayerTableRecord
  2
MERGED_SUPPORTS
 70
0
 62
7
  6
Continuous
370
-3
390
13
347
21
  0
LAYER
  5
32
330
1
100
AcDbSymbolTableRecord
100
AcDbLayerTableRecord
  2
MERGED_LABELS
 70
0
 62
7
  6
Continuous
370
-3
390
13
347
21
  0
ENDTAB
  0
TABLE
  2
STYLE
  5
5
330
0
100
AcDbSymbolTable
 70
1
  0
STYLE
  5
29
330
5
100
AcDbSymbolTableRecord
100
AcDbTextStyleTableRecord
  2
Standard
 70
0
 40
0.0
 41
1.0
 50
0.0
 71
0
 42
2.5
  3
txt
  4

  0
ENDTAB
  0
TABLE
  2
VIEW
  5
7
330
0
100
AcDbSymbolTable
 70
0
  0
ENDTAB
  0
TABLE
  2
UCS
  5
6
330
0
100
AcDbSymbolTable
 70
0
  0
ENDTAB
  0
TABLE
  2
APPID
  5
3
330
0
100
AcDbSymbolTable
 70
3
  0
APPID
  5
2A
330
3
100
AcDbSymbolTableRecord
100
AcDbRegAppTableRecord
  2
ACAD
 70
0
  0
APPID
  5
3A
330
3
100
AcDbSymbolTableRecord
100
AcDbRegAppTableRecord
  2
HATCHBACKGROUNDCOLOR
 70
0
  0
APPID
  5
3B
330
3
100
AcDbSymbolTableRecord
100
AcDbRegAppTableRecord
  2
EZDXF
 70
0
  0
ENDTAB
  0
TABLE
  2
DIMSTYLE
  5
4
330
0
100
AcDbSymbolTable
 70
1
100
AcDbDimStyleTable
  0
DIMSTYLE
105
2B
330
4
100
AcDbSymbolTableRecord
100
AcDbDimStyleTableRecord
  2
Standard
 70
0
 40
1.0
 41
2.5
 42
0.625
 43
3.75
 44
1.25
 45
0.0
 46
0.0
 47
0.0
 48
0.0
 49
2.5
140
2.5
141
2.5
142
0.0
143
0.03937007874
144
1.0
145
0.0
146
1.0
147
0.625
148
0.0
 69
0
 70
0
 71
0
 72
0
 73
0
 74
0
 75
0
 76
0
 77
1
 78
8
 79
3
170
0
171
3
172
1
173
0
174
0
175
0
176
0
177
0
178
0
179
2
271
2
272
2
273
2
274
3
275
0
276
0
277
2
278
44
279
0
280
0
281
0
282
0
283
0
284
8
285
0
286
0
288
0
289
3
290
0
371
-2
372
-2
  0
ENDTAB
  0
TABLE
  2
BLOCK_RECORD
  5
9
330
0
100
AcDbSymbolTable
 70
2
  0
BLOCK_RECORD
  5
17
330
9
100
AcDbSymbolTableRecord
100
AcDbBlockTableRecord
  2
*Model_Space
340
1A
 70
0
280
1
281
0
  0
BLOCK_RECORD
  5
1B
330
9
100
AcDbSymbolTableRecord
100
AcDbBlockTableRecord
  2
*Paper_Space
340
1E
 70
0
280
1
281
0
  0
ENDTAB
  0
ENDSEC
  0
SECTION
  2
BLOCKS
  0
BLOCK
  5
18
330
17
100
AcDbEntity
  8
0
100
AcDbBlockBegin
  2
*Model_Space
 70
0
 10
0.0
 20
0.0
 30
0.0
  3
*Model_Space
  1

  0
ENDBLK
  5
19
330
17
100
AcDbEntity
  8
0
100
AcDbBlockEnd
  0
BLOCK
  5
1C
330
1B
100
AcDbEntity
  8
0
100
AcDbBlockBegin
  2
*Paper_Space
 70
0
 10
0.0
 20
0.0
 30
0.0
  3
*Paper_Space
  1

  0
ENDBLK
  5
1D
330
1B
100
AcDbEntity
  8
0
100
AcDbBlockEnd
  0
ENDSEC
  0
SECTION
  2
ENTITIES
  0
LWPOLYLINE
  5
33
330
17
100
AcDbEntity
  8
MERGED_GROUND
100
AcDbPolyline
 90
300
 70
0
 10
0.0
 20
1.5270867860910917
 10
0.050306384469870326
 20
1.5277991340808794
 10
0.10061276893974197
 20
1.5282968715641863
 10
0.1509191534096123
 20
1.5285806822595147
 10
0.2012255378794826
 20
1.5286513708694085
 10
0.2515319223493526
 20
1.5285098629049003
 10
0.3018383068192246
 20
1.528157204418373
 10
0.3521446912890946
 20
1.5275945616450637
 10
0.40245107575896494
 20
1.5268232205535195
 10
0.4527574602288353
 20
1.525844586305439
 10
0.5030638446987069
 20
1.5246601826253996
 10
0.5533702291685773
 20
1.5232716510810755
 10
0.6036766136384476
 20
1.5216807502746543
 10
0.6539829981083193
 20
1.519889354946233
 10
0.7042893825781896
 20
1.5178994549900802
 10
0.75459576704806
 20
1.5157131543847349
 10
0.80490215151793
 20
1.5133326700379954
 10
0.855208535987802
 20
1.5107603305479493
 10
0.905514920457672
 20
1.5079985748812696
 10
0.9558213049275424
 20
1.5050499509700905
 10
1.0061276893974127
 20
1.5019171142288539
 10
1.0564340738672844
 20
1.498602825992602
 10
1.1067404583371547
 20
1.4951099518782582
 10
1.157046842807025
 20
1.491441460070525
 10
1.207353227276895
 20
1.4876004195340853
 10
1.2576596117467669
 20
1.4835899981538823
 10
1.3079659962166372
 20
1.4794134608052991
 10
1.3582723806865071
 20
1.475074167356136
 10
1.408578765156379
 20
1.4705755706023473
 10
1.4588851496262494
 20
1.4659212141395495
 10
1.5091915340961193
 20
1.4611147301723724
 10
1.5594979185659896
 20
1.4561598372637836
 10
1.6098043030358613
 20
1.4510603380265605
 10
1.6601106875057317
 20
1.445820116759133
 10
1.710417071975602
 20
1.4404431370280601
 10
1.760723456445472
 20
1.4349334391994624
 10
1.8110298409153438
 20
1.4292951379217431
 10
1.8613362253852141
 20
1.42353241956199
 10
1.911642609855084
 20
1.4176495395984652
 10
1.9619489943249544
 20
1.4116508199716309
 10
2.0122553787948263
 20
1.4055406463961755
 10
2.0625617632646964
 20
1.3993234656365308
 10
2.1128681477345665
 20
1.3930037827483854
 10
2.163174532204438
 20
1.3865861582887264
 10
2.213480916674308
 20
1.3800752054969379
 10
2.2637873011441783
 20
1.3734755874495037
 10
2.3140936856140484
 20
1.3667920141908652
 10
2.3644000700839185
 20
1.3600292398429965
 10
2.41470645455379
 20
1.3531920596962321
 10
2.46501283902366
 20
1.3462853072839147
 10
2.515319223493532
 20
1.3393138514433958
 10
2.565625607963402
 20
1.3322825933659264
 10
2.6159319924332722
 20
1.3251964636379518
 10
2.6662383769031424
 20
1.318060419276325
 10
2.7165447613730125
 20
1.3108794407599111
 10
2.7668511458428844
 20
1.3036585290600562
 10
2.8171575303127545
 20
1.296402702672356
 10
2.8674639147826246
 20
1.2891169946521335
 10
2.9177702992524965
 20
1.281806449656013
 10
2.9680766837223667
 20
1.2744761209919329
 10
3.018383068192237
 20
1.2671310676799183
 10
3.068689452662107
 20
1.2597763515258842
 10
3.118995837131979
 20
1.2524170342107093
 10
3.169302221601849
 20
1.245058174396774
 10
3.219608606071719
 20
1.2377048248541136
 10
3.269914990541589
 20
1.2303620296082882
 10
3.320221375011461
 20
1.2230348211120277
 10
3.370527759481331
 20
1.215728217442655
 10
3.4208341439512013
 20
1.2084472195272393
 10
3.4711405284210715
 20
1.2011968083973832
 10
3.521446912890943
 20
1.1939819424754805
 10
3.571753297360813
 20
1.1868075548942383
 10
3.622059681830683
 20
1.1796785508511816
 10
3.672366066300555
 20
1.1725998049998252
 10
3.722672450770425
 20
1.165576158879102
 10
3.7729788352402953
 20
1.1586124183826085
 10
3.8232852197101654
 20
1.1517133512691413
 10
3.8735916041800356
 20
1.1448836847159514
 10
3.9238979886499075
 20
1.1381281029160601
 10
3.9742043731197776
 20
1.1314512447209444
 10
4.024510757589649
 20
1.1248577013297938
 10
4.074817142059519
 20
1.118352014026515
 10
4.125123526529389
 20
1.1119386719655673
 10
4.175429910999259
 20
1.105622110007655
 10
4.2257362954691295
 20
1.0994067066062367
 10
4.2760426799390014
 20
1.093296781745741
 10
4.326349064408872
 20
1.0872965949323172
 10
4.3766554488787435
 20
1.0814103432378759
 10
4.426961833348614
 20
1.075642159398113
 10
4.477268217818484
 20
1.069996109965146
 10
4.527574602288354
 20
1.0644761935153204
 10
4.577880986758224
 20
1.059086338912688
 10
4.628187371228094
 20
1.0538304036285833
 10
4.678493755697964
 20
1.048712172117673
 10
4.728800140167836
 20
1.0437353542507843
 10
4.779106524637708
 20
1.038903583804755
 10
4.829412909107578
 20
1.0342204170094935
 10
4.879719293577448
 20
1.0296893311523736
 10
4.930025678047318
 20
1.0253137232400296
 10
4.9803320625171885
 20
1.0210969087175616
 10
5.03063844698706
 20
1.0170421202451132
 10
5.0809448314569305
 20
1.0131525065317069
 10
5.1312512159268024
 20
1.0094311312261954
 10
5.181557600396673
 20
1.005880971865126
 10
5.231863984866543
 20
1.0025049188772472
 10
5.282170369336413
 20
0.9993057746443763
 10
5.332476753806283
 20
0.9962862526182592
 10
5.382783138276155
 20
0.9934489764930357
 10
5.433089522746025
 20
0.9907964794328703
 10
5.483395907215897
 20
0.9883312033542666
 10
5.533702291685767
 20
0.9860554982625435
 10
5.584008676155637
 20
0.9839716216419144
 10
5.634315060625507
 20
0.9820817378985744
 10
5.684621445095377
 20
0.9803879178561635
 10
5.7349278295652475
 20
0.9788921383029418
 10
5.785234214035118
 20
0.977596281589984
 10
5.8355405985049895
 20
0.9765021352796699
 10
5.885846982974861
 20
0.9756113918437143
 10
5.9361533674447315
 20
0.9749256484099692
 10
5.986459751914602
 20
0.9744464065571897
 10
6.036766136384472
 20
0.9741750721569465
 10
6.087072520854342
 20
0.9741129552618449
 10
6.137378905324212
 20
0.9742612700391828
 10
6.187685289794084
 20
0.9746211347491844
 10
6.237991674263956
 20
0.9751935717669076
 10
6.288298058733826
 20
0.9759795076469306
 10
6.338604443203696
 20
0.9769797732298998
 10
6.388910827673566
 20
0.9781951037900194
 10
6.439217212143436
 20
0.9796261392225492
 10
6.4895235966133065
 20
0.9812734242703806
 10
6.539829981083177
 20
0.9831374087887433
 10
6.5901363655530485
 20
0.9852184480471092
 10
6.640442750022919
 20
0.9875168030673442
 10
6.6907491344927905
 20
0.9900326409971655
 10
6.741055518962661
 20
0.9927660355179706
 10
6.791361903432531
 20
0.995716967286093
 10
6.841668287902401
 20
0.9988853244065581
 10
6.891974672372271
 20
1.0022709029384091
 10
6.942281056842143
 20
1.0058734074306945
 10
6.992587441312013
 20
1.0096924514881895
 10
7.042893825781885
 20
1.0137275583659762
 10
7.093200210251755
 20
1.01797816159197
 10
7.143506594721625
 20
1.022443605616536
 10
7.193812979191495
 20
1.0271231464883168
 10
7.244119363661365
 20
1.0320159525554344
 10
7.294425748131237
 20
1.0371211051912235
 10
7.344732132601109
 20
1.0424375995436823
 10
7.395038517070979
 20
1.0479643453078409
 10
7.4453449015408495
 20
1.0537001675202575
 10
7.49565128601072
 20
1.0596438073748793
 10
7.54595767048059
 20
1.0657939230595197
 10
7.59626405495046
 20
1.0721490906122249
 10
7.64657043942033
 20
1.0787078047968133
 10
7.696876823890202
 20
1.0854684799969105
 10
7.747183208360072
 20
1.0924294511277979
 10
7.797489592829944
 20
1.099588974565435
 10
7.847795977299814
 20
1.1069452290920248
 10
7.898102361769684
 20
1.1144963168575146
 10
7.948408746239554
 20
1.1222402643564493
 10
7.998715130709424
 20
1.130175023419609
 10
8.049021515179296
 20
1.1382984722198919
 10
8.099327899649166
 20
1.1466084162919143
 10
8.149634284119037
 20
1.1551025895648352
 10
8.199940668588908
 20
1.1637786554079155
 10
8.250247053058779
 20
1.172634207688359
 10
8.300553437528649
 20
1.181666771840992
 10
8.35085982199852
 20
1.190873805949365
 10
8.40116620646839
 20
1.2002527018378737
 10
8.45147259093826
 20
1.2098007861745208
 10
8.501778975408133
 20
1.2195153215839585
 10
8.552085359878003
 20
1.2293935077704643
 10
8.602391744347873
 20
1.2394324826505299
 10
8.652698128817743
 20
1.24962932349475
 10
8.703004513287615
 20
1.2599810480787277
 10
8.753310897757485
 20
1.270484615842706
 10
8.803617282227355
 20
1.2811369290596861
 10
8.853923666697227
 20
1.2919348340117698
 10
8.904230051167097
 20
1.302875122174501
 10
8.954536435636967
 20
1.3139545314089922
 10
9.004842820106838
 20
1.325169747161621
 10
9.055149204576708
 20
1.3365174036711107
 10
9.105455589046578
 20
1.3479940851828063
 10
9.155761973516448
 20
1.359596327169974
 10
9.20606835798632
 20
1.3713206175619592
 10
9.25637474245619
 20
1.383163397979046
 10
9.30668112692606
 20
1.3951210649738686
 10
9.35698751139593
 20
1.407189971279236
 10
9.407293895865802
 20
1.4193664270622204
 10
9.457600280335672
 20
1.4316467011843919
 10
9.507906664805542
 20
1.4440270224680578
 10
9.558213049275414
 20
1.456503580968383
 10
9.608519433745284
 20
1.4690725292512694
 10
9.658825818215155
 20
1.481729983676865
 10
9.709132202685026
 20
1.4944720256885808
 10
9.759438587154897
 20
1.5072947031074841
 10
9.809744971624767
 20
1.520194031431951
 10
9.860051356094637
 20
1.5331659951424388
 10
9.910357740564509
 20
1.5462065490112398
 10
9.960664125034379
 20
1.559311619417089
 10
10.010970509504249
 20
1.5724771056644733
 10
10.06127689397412
 20
1.5856988813074853
 10
10.111583278443991
 20
1.598972795478077
 10
10.161889662913861
 20
1.612294674218532
 10
10.212196047383731
 20
1.625660321817988
 10
10.262502431853603
 20
1.6390655221528243
 10
10.312808816323473
 20
1.6525060400307103
 10
10.363115200793343
 20
1.6659776225381202
 10
10.413421585263215
 20
1.679476000391083
 10
10.463727969733085
 20
1.6929968892889384
 10
10.514034354202956
 20
1.7065359912708649
 10
10.564340738672827
 20
1.7200889960749017
 10
10.614647123142698
 20
1.733651582499205
 10
10.664953507612568
 20
1.7472194197652506
 10
10.715259892082438
 20
1.7607881688826699
 10
10.76556627655231
 20
1.7743534840154085
 10
10.81587266102218
 20
1.7879110138488654
 10
10.86617904549205
 20
1.8014564029576656
 10
10.916485429961922
 20
1.8149852931736927
 10
10.966791814431792
 20
1.8284933249539916
 10
11.017098198901662
 20
1.8419761387481468
 10
11.067404583371532
 20
1.8554293763647
 10
11.117710967841402
 20
1.8688486823361767
 10
11.168017352311272
 20
1.8822297052822563
 10
11.218323736781143
 20
1.8955680992706134
 10
11.268630121251014
 20
1.9088595251749303
 10
11.318936505720885
 20
1.9220996520295677
 10
11.369242890190755
 20
1.9352841583803666
 10
11.419549274660627
 20
1.9484087336310207
 10
11.469855659130497
 20
1.9614690793844598
 10
11.520162043600367
 20
1.9744609107786562
 10
11.570468428070237
 20
1.9873799578162459
 10
11.620774812540109
 20
2.000221966687351
 10
11.671081197009979
 20
2.012982701084955
 10
11.72138758147985
 20
2.025657943512194
 10
11.771693965949721
 20
2.038243496580874
 10
11.822000350419591
 20
2.0507351843005406
 10
11.872306734889461
 20
2.0631288533574033
 10
11.922613119359331
 20
2.075420374382389
 10
11.972919503829203
 20
2.087605643207609
 10
12.023225888299073
 20
2.099680582110489
 10
12.073532272768944
 20
2.1116411410448164
 10
12.123838657238815
 20
2.123483298857942
 10
12.174145041708686
 20
2.1352030644933526
 10
12.224451426178556
 20
2.1467964781778535
 10
12.274757810648426
 20
2.158259612592539
 10
12.325064195118298
 20
2.169588574026791
 10
12.375370579588168
 20
2.1807795035144624
 10
12.425676964058038
 20
2.1918285779514766
 10
12.47598334852791
 20
2.2027320111940027
 10
12.52628973299778
 20
2.2134860551364057
 10
12.57659611746765
 20
2.22408700076816
 10
12.626902501937522
 20
2.234531179208909
 10
12.677208886407392
 20
2.2448149627208553
 10
12.727515270877262
 20
2.2549347656976897
 10
12.777821655347132
 20
2.2648870456292443
 10
12.828128039817004
 20
2.274668304041082
 10
12.878434424286874
 20
2.2842750874082243
 10
12.928740808756745
 20
2.293703988042276
 10
12.979047193226615
 20
2.3029516449511314
 10
13.029353577696485
 20
2.31201474467057
 10
13.079659962166355
 20
2.3208900220669606
 10
13.129966346636225
 20
2.3295742611103902
 10
13.180272731106097
 20
2.3380642956175093
 10
13.230579115575967
 20
2.346357009963421
 10
13.280885500045837
 20
2.354449339761964
 10
13.33119188451571
 20
2.3623382725137727
 10
13.38149826898558
 20
2.370020848221497
 10
13.43180465345545
 20
2.377494159971649
 10
13.482111037925321
 20
2.384755354482505
 10
13.532417422395191
 20
2.3918016326175873
 10
13.582723806865062
 20
2.398630249864258
 10
13.633030191334932
 20
2.4052385167769823
 10
13.683336575804804
 20
2.4116237993849015
 10
13.733642960274674
 20
2.417783519563349
 10
13.783949344744544
 20
2.4237151553690257
 10
13.834255729214416
 20
2.429416241338581
 10
13.884562113684286
 20
2.4348843687503914
 10
13.934868498154156
 20
2.440117185849393
 10
13.985174882624026
 20
2.4451123980348655
 10
14.035481267093898
 20
2.4498677680111274
 10
14.085787651563768
 20
2.454381115901157
 10
14.136094036033638
 20
2.4586503193232057
 10
14.18640042050351
 20
2.462673313430562
 10
14.23670680497338
 20
2.466448090914624
 10
14.28701318944325
 20
2.469972701971588
 10
14.33731957391312
 20
2.4732452542330514
 10
14.387625958382992
 20
2.476263912660937
 10
14.437932342852863
 20
2.4790268994072107
 10
14.488238727322733
 20
2.481532493638929
 10
14.538545111792605
 20
2.483779031329217
 10
14.588851496262475
 20
2.4857649050148813
 10
14.639157880732345
 20
2.4874885635214037
 10
14.689464265202217
 20
2.4889485116561554
 10
14.739770649672087
 20
2.490143309870747
 10
14.790077034141957
 20
2.49107157389351
 10
14.840383418611827
 20
2.4917319743331663
 10
14.890689803081699
 20
2.492123236254851
 10
14.940996187551569
 20
2.492244138729706
 10
14.99130257202144
 20
2.492093514359357
 10
15.04160895649131
 20
2.491670248776654
  0
LWPOLYLINE
  5
34
330
17
100
AcDbEntity
  8
MERGED_CATENARY
100
AcDbPolyline
 90
300
 70
0
 10
0.0
 20
6.5270867860910915
 10
0.050306384469870326
 20
6.51765340095951
 10
0.10061276893974197
 20
6.508305830691005
 10
0.1509191534096123
 20
6.499044049000901
 10
0.2012255378794826
 20
6.489868029845757
 10
0.2515319223493526
 20
6.4807777474233
 10
0.3018383068192246
 20
6.471773176172324
 10
0.3521446912890946
 20
6.462854290772647
 10
0.40245107575896494
 20
6.454021066145027
 10
0.4527574602288353
 20
6.445273477451105
 10
0.5030638446987069
 20
6.436611500093309
 10
0.5533702291685773
 20
6.428035109714797
 10
0.6036766136384476
 20
6.419544282199407
 10
0.6539829981083193
 20
6.411138993671556
 10
0.7042893825781896
 20
6.402819220496211
 10
0.75459576704806
 20
6.394584939278779
 10
0.80490215151793
 20
6.386436126865082
 10
0.855208535987802
 20
6.378372760341268
 10
0.905514920457672
 20
6.370394817033741
 10
0.9558213049275424
 20
6.362502274509133
 10
1.0061276893974127
 20
6.3546951105741964
 10
1.0564340738672844
 20
6.346973303275766
 10
1.1067404583371547
 20
6.339336830900696
 10
1.157046842807025
 20
6.331785671975798
 10
1.207353227276895
 20
6.324319805267774
 10
1.2576596117467669
 20
6.31693920978316
 10
1.3079659962166372
 20
6.309643864768283
 10
1.3582723806865071
 20
6.302433749709166
 10
1.408578765156379
 20
6.2953088443315055
 10
1.4588851496262494
 20
6.288269128600596
 10
1.5091915340961193
 20
6.28131458272129
 10
1.5594979185659896
 20
6.274445187137919
 10
1.6098043030358613
 20
6.2676609225342474
 10
1.6601106875057317
 20
6.260961769833434
 10
1.710417071975602
 20
6.254347710197969
 10
1.760723456445472
 20
6.2478187250296005
 10
1.8110298409153438
 20
6.241374795969309
 10
1.8613362253852141
 20
6.235015904897249
 10
1.911642609855084
 20
6.22874203393269
 10
1.9619489943249544
 20
6.222553165433976
 10
2.0122553787948263
 20
6.216449281998477
 10
2.0625617632646964
 20
6.21043036646252
 10
2.1128681477345665
 20
6.204496401901357
 10
2.163174532204438
 20
6.1986473716291375
 10
2.213480916674308
 20
6.192883259198808
 10
2.2637873011441783
 20
6.18720404840213
 10
2.3140936856140484
 20
6.181609723269576
 10
2.3644000700839185
 20
6.176100268070323
 10
2.41470645455379
 20
6.170675667312197
 10
2.46501283902366
 20
6.165335905741619
 10
2.515319223493532
 20
6.160080968343581
 10
2.565625607963402
 20
6.154910840341589
 10
2.6159319924332722
 20
6.149825507197631
 10
2.6662383769031424
 20
6.144824954612128
 10
2.7165447613730125
 20
6.1399091685239
 10
2.7668511458428844
 20
6.135078135110122
 10
2.8171575303127545
 20
6.130331840786284
 10
2.8674639147826246
 20
6.1256702722061664
 10
2.9177702992524965
 20
6.121093416261788
 10
2.9680766837223667
 20
6.116601260083358
 10
3.018383068192237
 20
6.112193791039285
 10
3.068689452662107
 20
6.107870996736086
 10
3.118995837131979
 20
6.1036328650183815
 10
3.169302221601849
 20
6.099479383968866
 10
3.219608606071719
 20
6.095410541908261
 10
3.269914990541589
 20
6.091426327395285
 10
3.320221375011461
 20
6.087526729226621
 10
3.370527759481331
 20
6.083711736436893
 10
3.4208341439512013
 20
6.079981338298629
 10
3.4711405284210715
 20
6.07633552432222
 10
3.521446912890943
 20
6.072774284255912
 10
3.571753297360813
 20
6.069297608085764
 10
3.622059681830683
 20
6.06590548603562
 10
3.672366066300555
 20
6.062597908567092
 10
3.722672450770425
 20
6.059374866379514
 10
3.7729788352402953
 20
6.056236350409926
 10
3.8232852197101654
 20
6.053182351833064
 10
3.8735916041800356
 20
6.050212862061308
 10
3.9238979886499075
 20
6.047327872744671
 10
3.9742043731197776
 20
6.044527375770784
 10
4.024510757589649
 20
6.041811363264859
 10
4.074817142059519
 20
6.039179827589663
 10
4.125123526529389
 20
6.036632761345519
 10
4.175429910999259
 20
6.034170157370266
 10
4.2257362954691295
 20
6.0317920087392505
 10
4.2760426799390014
 20
6.02949830876529
 10
4.326349064408872
 20
6.027289050998669
 10
4.3766554488787435
 20
6.0251642292271175
 10
4.426961833348614
 20
6.023123837475807
 10
4.477268217818484
 20
6.021167870007302
 10
4.527574602288354
 20
6.01929632132156
 10
4.577880986758224
 20
6.017509186155939
 10
4.628187371228094
 20
6.015806459485139
 10
4.678493755697964
 20
6.014188136521223
 10
4.728800140167836
 20
6.012654212713583
 10
4.779106524637708
 20
6.011204683748945
 10
4.829412909107578
 20
6.0098395455513405
 10
4.879719293577448
 20
6.0085587942821
 10
4.930025678047318
 20
6.0073624263398475
 10
4.9803320625171885
 20
6.006250438360491
 10
5.03063844698706
 20
6.005222827217192
 10
5.0809448314569305
 20
6.004279590020397
 10
5.1312512159268024
 20
6.003420724117786
 10
5.181557600396673
 20
6.002646227094292
 10
5.231863984866543
 20
6.001956096772089
 10
5.282170369336413
 20
6.001350331210577
 10
5.332476753806283
 20
6.000828928706397
 10
5.382783138276155
 20
6.000391887793398
 10
5.433089522746025
 20
6.000039207242661
 10
5.483395907215897
 20
5.999770886062467
 10
5.533702291685767
 20
5.9995869234983115
 10
5.584008676155637
 20
5.999487319032923
 10
5.634315060625507
 20
5.999472072386211
 10
5.684621445095377
 20
5.999541183515297
 10
5.7349278295652475
 20
5.999694652614526
 10
5.785234214035118
 20
5.999932480115432
 10
5.8355405985049895
 20
6.000254666686774
 10
5.885846982974861
 20
6.000661213234521
 10
5.9361533674447315
 20
6.001152120901851
 10
5.986459751914602
 20
6.001727391069153
 10
6.036766136384472
 20
6.002387025354047
 10
6.087072520854342
 20
6.003131025611376
 10
6.137378905324212
 20
6.003959393933213
 10
6.187685289794084
 20
6.004872132648868
 10
6.237991674263956
 20
6.005869244324894
 10
6.288298058733826
 20
6.006950731765096
 10
6.338604443203696
 20
6.0081165980105276
 10
6.388910827673566
 20
6.0093668463395336
 10
6.439217212143436
 20
6.0107014802677075
 10
6.4895235966133065
 20
6.012120503547941
 10
6.539829981083177
 20
6.0136239201704225
 10
6.5901363655530485
 20
6.015211734362657
 10
6.640442750022919
 20
6.016883950589445
 10
6.6907491344927905
 20
6.018640573552942
 10
6.741055518962661
 20
6.0204816081926396
 10
6.791361903432531
 20
6.022407059685392
 10
6.841668287902401
 20
6.024416933445421
 10
6.891974672372271
 20
6.026511235124347
 10
6.942281056842143
 20
6.028689970611184
 10
6.992587441312013
 20
6.030953146032379
 10
7.042893825781885
 20
6.033300767751809
 10
7.093200210251755
 20
6.0357328423708125
 10
7.143506594721625
 20
6.0382493767282055
 10
7.193812979191495
 20
6.040850377900288
 10
7.244119363661365
 20
6.043535853200883
 10
7.294425748131237
 20
6.046305810181355
 10
7.344732132601109
 20
6.049160256630603
 10
7.395038517070979
 20
6.052099200575131
 10
7.4453449015408495
 20
6.0551226502790225
 10
7.49565128601072
 20
6.058230614243997
 10
7.54595767048059
 20
6.061423101209417
 10
7.59626405495046
 20
6.064700120152308
 10
7.64657043942033
 20
6.068061680287419
 10
7.696876823890202
 20
6.071507791067196
 10
7.747183208360072
 20
6.075038462181847
 10
7.797489592829944
 20
6.078653703559364
 10
7.847795977299814
 20
6.082353525365521
 10
7.898102361769684
 20
6.086137938003952
 10
7.948408746239554
 20
6.090006952116141
 10
7.998715130709424
 20
6.093960578581469
 10
8.049021515179296
 20
6.097998828517234
 10
8.099327899649166
 20
6.1021217132787005
 10
8.149634284119037
 20
6.106329244459107
 10
8.199940668588908
 20
6.110621433889724
 10
8.250247053058779
 20
6.114998293639856
 10
8.300553437528649
 20
6.11945983601692
 10
8.35085982199852
 20
6.124006073566438
 10
8.40116620646839
 20
6.1286370190720865
 10
8.45147259093826
 20
6.133352685555734
 10
8.501778975408133
 20
6.1381530862774945
 10
8.552085359878003
 20
6.143038234735737
 10
8.602391744347873
 20
6.148008144667127
 10
8.652698128817743
 20
6.153062830046684
 10
8.703004513287615
 20
6.158202305087807
 10
8.753310897757485
 20
6.163426584242314
 10
8.803617282227355
 20
6.16873568220049
 10
8.853923666697227
 20
6.1741296138911235
 10
8.904230051167097
 20
6.17960839448155
 10
8.954536435636967
 20
6.185172039377692
 10
9.004842820106838
 20
6.190820564224103
 10
9.055149204576708
 20
6.1965539849040105
 10
9.105455589046578
 20
6.202372317539372
 10
9.155761973516448
 20
6.2082755784909
 10
9.20606835798632
 20
6.2142637843581285
 10
9.25637474245619
 20
6.220336951979436
 10
9.30668112692606
 20
6.226495098432135
 10
9.35698751139593
 20
6.232738241032462
 10
9.407293895865802
 20
6.239066397335672
 10
9.457600280335672
 20
6.245479585136059
 10
9.507906664805542
 20
6.251977822467051
 10
9.558213049275414
 20
6.258561127601185
 10
9.608519433745284
 20
6.265229519050232
 10
9.658825818215155
 20
6.271983015565214
 10
9.709132202685026
 20
6.278821636136466
 10
9.759438587154897
 20
6.285745399993667
 10
9.809744971624767
 20
6.2927543266059285
 10
9.860051356094637
 20
6.2998484356818265
 10
9.910357740564509
 20
6.307027747169477
 10
9.960664125034379
 20
6.314292281256565
 10
10.010970509504249
 20
6.3216420583704105
 10
10.06127689397412
 20
6.329077099178054
 10
10.111583278443991
 20
6.336597424586261
 10
10.161889662913861
 20
6.344203055741632
 10
10.212196047383731
 20
6.351894014030636
 10
10.262502431853603
 20
6.359670321079673
 10
10.312808816323473
 20
6.367531998755144
 10
10.363115200793343
 20
6.375479069163487
 10
10.413421585263215
 20
6.383511554651285
 10
10.463727969733085
 20
6.391629477805287
 10
10.514034354202956
 20
6.399832861452483
 10
10.564340738672827
 20
6.408121728660169
 10
10.614647123142698
 20
6.416496102736041
 10
10.664953507612568
 20
6.424956007228204
 10
10.715259892082438
 20
6.433501465925272
 10
10.76556627655231
 20
6.442132502856447
 10
10.81587266102218
 20
6.450849142291567
 10
10.86617904549205
 20
6.459651408741159
 10
10.916485429961922
 20
6.468539326956545
 10
10.966791814431792
 20
6.477512921929892
 10
11.017098198901662
 20
6.486572218894277
 10
11.067404583371532
 20
6.495717243323761
 10
11.117710967841402
 20
6.5049480209334885
 10
11.168017352311272
 20
6.514264577679704
 10
11.218323736781143
 20
6.52366693975987
 10
11.268630121251014
 20
6.533155133612739
 10
11.318936505720885
 20
6.542729185918396
 10
11.369242890190755
 20
6.552389123598358
 10
11.419549274660627
 20
6.562134973815665
 10
11.469855659130497
 20
6.571966763974907
 10
11.520162043600367
 20
6.581884521722351
 10
11.570468428070237
 20
6.591888274945996
 10
11.620774812540109
 20
6.601978051775644
 10
11.671081197009979
 20
6.612153880582998
 10
11.72138758147985
 20
6.622415789981732
 10
11.771693965949721
 20
6.6327638088275656
 10
11.822000350419591
 20
6.643197966218356
 10
11.872306734889461
 20
6.653718291494181
 10
11.922613119359331
 20
6.664324814237409
 10
11.972919503829203
 20
6.675017564272791
 10
12.023225888299073
 20
6.685796571667541
 10
12.073532272768944
 20
6.696661866731427
 10
12.123838657238815
 20
6.707613480016851
 10
12.174145041708686
 20
6.718651442318931
 10
12.224451426178556
 20
6.729775784675589
 10
12.274757810648426
 20
6.740986538367658
 10
12.325064195118298
 20
6.752283734918926
 10
12.375370579588168
 20
6.76366740609628
 10
12.425676964058038
 20
6.775137583909755
 10
12.47598334852791
 20
6.7866943006126315
 10
12.52628973299778
 20
6.798337588701534
 10
12.57659611746765
 20
6.810067480916521
 10
12.626902501937522
 20
6.821884010241181
 10
12.677208886407392
 20
6.833787209902708
 10
12.727515270877262
 20
6.845777113372009
 10
12.777821655347132
 20
6.8578537543638065
 10
12.828128039817004
 20
6.870017166836712
 10
12.878434424286874
 20
6.882267384993338
 10
12.928740808756745
 20
6.894604443280378
 10
12.979047193226615
 20
6.9070283763887215
 10
13.029353577696485
 20
6.919539219253542
 10
13.079659962166355
 20
6.932137007054401
 10
13.129966346636225
 20
6.944821775215341
 10
13.180272731106097
 20
6.957593559404977
 10
13.230579115575967
 20
6.970452395536614
 10
13.280885500045837
 20
6.983398319768356
 10
13.33119188451571
 20
6.99643136850315
 10
13.38149826898558
 20
7.0095515783889875
 10
13.43180465345545
 20
7.022758986318896
 10
13.482111037925321
 20
7.03605362943113
 10
13.532417422395191
 20
7.049435545109246
 10
13.582723806865062
 20
7.062904770982174
 10
13.633030191334932
 20
7.076461344924393
 10
13.683336575804804
 20
7.090105305055964
 10
13.733642960274674
 20
7.10383668974269
 10
13.783949344744544
 20
7.117655537596198
 10
13.834255729214416
 20
7.131561887474066
 10
13.884562113684286
 20
7.145555778479908
 10
13.934868498154156
 20
7.159637249963506
 10
13.985174882624026
 20
7.1738063415208995
 10
14.035481267093898
 20
7.1880630929945335
 10
14.085787651563768
 20
7.202407544473312
 10
14.136094036033638
 20
7.216839736292776
 10
14.18640042050351
 20
7.231359709035164
 10
14.23670680497338
 20
7.245967503529563
 10
14.28701318944325
 20
7.260663160852009
 10
14.33731957391312
 20
7.275446722325579
 10
14.387625958382992
 20
7.290318229520555
 10
14.437932342852863
 20
7.3052777242545055
 10
14.488238727322733
 20
7.3203252485924155
 10
14.538545111792605
 20
7.335460844846805
 10
14.588851496262475
 20
7.35068455557783
 10
14.639157880732345
 20
7.365996423593447
 10
14.689464265202217
 20
7.3813964919494754
 10
14.739770649672087
 20
7.396884803949763
 10
14.790077034141957
 20
7.41246140314629
 10
14.840383418611827
 20
7.4281263333392875
 10
14.890689803081699
 20
7.443879638577381
 10
14.940996187551569
 20
7.4597213631576755
 10
14.99130257202144
 20
7.475651551625939
 10
15.04160895649131
 20
7.491670248776657
  0
LINE
  5
35
330
17
100
AcDbEntity
  8
MERGED_SUPPORTS
100
AcDbLine
 10
0.0
 20
1.5270867860910917
 30
0.0
 11
0.0
 21
6.5270867860910915
 31
0.0
  0
LINE
  5
36
330
17
100
AcDbEntity
  8
MERGED_SUPPORTS
100
AcDbLine
 10
15.04160895649131
 20
2.491670248776654
 30
0.0
 11
15.04160895649131
 21
7.4916702487766536
 31
0.0
  0
LWPOLYLINE
  5
37
330
17
100
AcDbEntity
  8
MERGED_GROUND
100
AcDbPolyline
 90
300
 70
0
 10
15.04160895649131
 20
2.491670248776654
 10
15.10180962538763
 20
2.4907611894816686
 10
15.162010294283952
 20
2.4894516821481782
 10
15.222210963180272
 20
2.487739591693047
 10
15.282411632076593
 20
2.4856228468798287
 10
15.342612300972915
 20
2.4830994370934256
 10
15.402812969869236
 20
2.4801674090248187
 10
15.463013638765556
 20
2.4768248632748397
 10
15.523214307661878
 20
2.473069950886486
 10
15.583414976558199
 20
2.4689008698159265
 10
15.64361564545452
 20
2.464315861352916
 10
15.703816314350842
 20
2.459313206501953
 10
15.764016983247162
 20
2.453891222336067
 10
15.824217652143483
 20
2.448048258335777
 10
15.884418321039805
 20
2.4417826927262736
 10
15.944618989936126
 20
2.4350929288264855
 10
16.004819658832446
 20
2.4279773914242613
 10
16.065020327728767
 20
2.4204345231923887
 10
16.12522099662509
 20
2.4124627811607704
 10
16.18542166552141
 20
2.4040606332605265
 10
16.24562233441773
 20
2.3952265549562948
 10
16.305823003314053
 20
2.3859590259834804
 10
16.366023672210375
 20
2.3762565272075973
 10
16.426224341106693
 20
2.366117537623271
 10
16.486425010003014
 20
2.3555405315108304
 10
16.546625678899336
 20
2.344523975768729
 10
16.606826347795657
 20
2.333066327440336
 10
16.66702701669198
 20
2.3211660314538674
 10
16.7272276855883
 20
2.3088215185944354
 10
16.78742835448462
 20
2.2960312037273063
 10
16.847629023380943
 20
2.2827934842915925
 10
16.90782969227726
 20
2.26910673908359
 10
16.968030361173582
 20
2.2549693273489817
 10
17.028231030069904
 20
2.2403795882030093
 10
17.088431698966225
 20
2.2253358403975887
 10
17.148632367862547
 20
2.2098363824540925
 10
17.208833036758868
 20
2.193879493180253
 10
17.26903370565519
 20
2.1774634325892444
 10
17.32923437455151
 20
2.1605864432385893
 10
17.389435043447833
 20
2.1432467520059912
 10
17.449635712344154
 20
2.125442572318583
 10
17.509836381240472
 20
2.1071721068514386
 10
17.570037050136794
 20
2.088433550710368
 10
17.630237719033115
 20
2.0692250951132176
 10
17.690438387929436
 20
2.049544931582922
 10
17.750639056825758
 20
2.029391256664543
 10
17.81083972572208
 20
2.008762277177424
 10
17.8710403946184
 20
1.9876562160123723
 10
17.93124106351472
 20
1.966071318482502
 10
17.99144173241104
 20
1.9440058592350205
 10
18.05164240130736
 20
1.921458149729729
 10
18.111843070203683
 20
1.8984265462885328
 10
18.172043739100005
 20
1.874909458718572
 10
18.232244407996326
 20
1.8509053595099232
 10
18.292445076892648
 20
1.8264127936070156
 10
18.35264574578897
 20
1.8014303887510514
 10
18.41284641468529
 20
1.7759568663888132
 10
18.473047083581612
 20
1.749991053141213
 10
18.53324775247793
 20
1.723531892822916
 10
18.59344842137425
 20
1.696578459002226
 10
18.653649090270573
 20
1.669129968088274
 10
18.713849759166894
 20
1.6411857929303277
 10
18.774050428063216
 20
1.612745476911782
 10
18.834251096959537
 20
1.5838087485191084
 10
18.89445176585586
 20
1.5543755363637164
 10
18.95465243475218
 20
1.5244459846323464
 10
19.0148531036485
 20
1.494020468939262
 10
19.07505377254482
 20
1.4630996125511688
 10
19.13525444144114
 20
1.431684302953409
 10
19.195455110337463
 20
1.3997757087236753
 10
19.255655779233784
 20
1.3673752966771642
 10
19.315856448130106
 20
1.334484849244793
 10
19.376057117026427
 20
1.3011064820438902
 10
19.43625778592275
 20
1.2672426615985497
 10
19.49645845481907
 20
1.232896223164742
 10
19.55665912371539
 20
1.1980703886131943
 10
19.616859792611713
 20
1.162768784321087
 10
19.67706046150803
 20
1.1269954590217282
 10
19.737261130404352
 20
1.0907549015595888
 10
19.797461799300674
 20
1.0540520584964077
 10
19.857662468196995
 20
1.016892351512531
 10
19.917863137093317
 20
0.9792816945462419
 10
19.97806380598964
 20
0.9412265106125491
 10
20.038264474885956
 20
0.9027337482418065
 10
20.098465143782278
 20
0.8638108974775545
 10
20.1586658126786
 20
0.8244660053722088
 10
20.21886648157492
 20
0.7847076909185828
 10
20.279067150471242
 20
0.744545159354848
 10
20.339267819367564
 20
0.7039882157802784
 10
20.399468488263885
 20
0.6630472780191015
 10
20.459669157160207
 20
0.6217333886699941
 10
20.519869826056528
 20
0.5800582262791099
 10
20.58007049495285
 20
0.538034115575193
 10
20.64027116384917
 20
0.49567403670613097
 10
20.70047183274549
 20
0.4529916334174018
 10
20.76067250164181
 20
0.4100012201141504
 10
20.820873170538132
 20
0.3667177877501807
 10
20.881073839434453
 20
0.3231570084888806
 10
20.941274508330775
 20
0.27933523908315916
 10
21.001475177227096
 20
0.23526952292363768
 10
21.061675846123418
 20
0.19097759070686138
 10
21.121876515019736
 20
0.146477859677957
 10
21.182077183916057
 20
0.10178943140509888
 10
21.24227785281238
 20
0.05693208804628491
 10
21.3024785217087
 20
0.011926287072262731
 10
21.36267919060502
 20
-0.03320684558695963
 10
21.422879859501343
 20
-0.07844552400085214
 10
21.483080528397664
 20
-0.12376731232720983
 10
21.543281197293986
 20
-0.16914913655183272
 10
21.603481866190307
 20
-0.2145672978954758
 10
21.66368253508663
 20
-0.25999748789999955
 10
21.72388320398295
 20
-0.30541480520109343
 10
21.78408387287927
 20
-0.35079377399014255
 10
21.84428454177559
 20
-0.39610836416299633
 10
21.90448521067191
 20
-0.4413320131483882
 10
21.964685879568233
 20
-0.48643764940374024
 10
22.024886548464554
 20
-0.5313977175609245
 10
22.085087217360876
 20
-0.5761842051994207
 10
22.145287886257197
 20
-0.6207686712190515
 10
22.205488555153515
 20
-0.6651222757792916
 10
22.265689224049837
 20
-0.7092158117668955
 10
22.325889892946158
 20
-0.7530197377483877
 10
22.38609056184248
 20
-0.7965042123588177
 10
22.4462912307388
 20
-0.8396391300730507
 10
22.506491899635122
 20
-0.8823941583008761
 10
22.566692568531444
 20
-0.924738775742267
 10
22.626893237427765
 20
-0.9666423119343633
 10
22.687093906324087
 20
-1.0080739879170442
 10
22.74729457522041
 20
-1.0490029579395224
 10
22.80749524411673
 20
-1.0893983521260002
 10
22.867695913013048
 20
-1.1292293200143868
 10
22.92789658190937
 20
-1.1684650748781054
 10
22.98809725080569
 20
-1.2070749387373858
 10
23.048297919702012
 20
-1.2450283879630228
 10
23.108498588598334
 20
-1.282295099372397
 10
23.16869925749465
 20
-1.318844996714728
 10
23.228899926390973
 20
-1.354648297439931
 10
23.289100595287294
 20
-1.3896755596431754
 10
23.349301264183616
 20
-1.4238977290753527
 10
23.409501933079937
 20
-1.4572861861080018
 10
23.46970260197626
 20
-1.4898127925400035
 10
23.52990327087258
 20
-1.5214499381324622
 10
23.590103939768902
 20
-1.552170586757591
 10
23.650304608665223
 20
-1.5819483220473025
 10
23.710505277561545
 20
-1.610757392427328
 10
23.770705946457866
 20
-1.6385727554232954
 10
23.830906615354188
 20
-1.6653701211260805
 10
23.89110728425051
 20
-1.6911259947051154
 10
23.951307953146827
 20
-1.7158177178599534
 10
24.01150862204315
 20
-1.7394235091024988
 10
24.07170929093947
 20
-1.7619225027646703
 10
24.13190995983579
 20
-1.7832947866290978
 10
24.192110628732113
 20
-1.8035214380835374
 10
24.25231129762843
 20
-1.8225845587031775
 10
24.312511966524752
 20
-1.840467307168825
 10
24.372712635421074
 20
-1.8571539304330402
 10
24.432913304317395
 20
-1.8726297930507811
 10
24.493113973213717
 20
-1.886881404595783
 10
24.55331464211004
 20
-1.8998964450889366
 10
24.61351531100636
 20
-1.9116637883701637
 10
24.67371597990268
 20
-1.9221735233508093
 10
24.733916648799003
 20
-1.9314169730892694
 10
24.794117317695324
 20
-1.9393867116385195
 10
24.854317986591646
 20
-1.9460765786202905
 10
24.914518655487967
 20
-1.9514816914869217
 10
24.97471932438429
 20
-1.95559845543831
 10
25.034919993280607
 20
-1.9584245709678791
 10
25.095120662176928
 20
-1.9599590390181163
 10
25.15532133107325
 20
-1.9602021637328586
 10
25.21552199996957
 20
-1.9591555528002527
 10
25.27572266886589
 20
-1.9568221153869998
 10
25.33592333776221
 20
-1.9532060576712453
 10
25.396124006658532
 20
-1.94831287598813
 10
25.456324675554853
 20
-1.9421493476086533
 10
25.516525344451175
 20
-1.9347235191790475
 10
25.576726013347496
 20
-1.9260446928542905
 10
25.636926682243818
 20
-1.9161234101656972
 10
25.69712735114014
 20
-1.9049714336686956
 10
25.75732802003646
 20
-1.8926017264228592
 10
25.817528688932782
 20
-1.8790284293620874
 10
25.877729357829104
 20
-1.8642668366183721
 10
25.937930026725425
 20
-1.8483333688679502
 10
25.998130695621747
 20
-1.8312455447737257
 10
26.058331364518068
 20
-1.8130219506026601
 10
26.118532033414386
 20
-1.7936822081013704
 10
26.178732702310707
 20
-1.7732469407174047
 10
26.23893337120703
 20
-1.751737738257587
 10
26.29913404010335
 20
-1.7291771200784085
 10
26.35933470899967
 20
-1.7055884969067079
 10
26.41953537789599
 20
-1.6809961313917894
 10
26.47973604679231
 20
-1.6554250974926852
 10
26.539936715688633
 20
-1.6289012388064568
 10
26.600137384584954
 20
-1.6014511259452795
 10
26.660338053481276
 20
-1.5731020130714854
 10
26.720538722377597
 20
-1.5438817937008769
 10
26.78073939127392
 20
-1.5138189558853026
 10
26.84094006017024
 20
-1.4829425368858653
 10
26.90114072906656
 20
-1.4512820774481179
 10
26.961341397962883
 20
-1.4188675757902205
 10
27.021542066859205
 20
-1.3857294414143198
 10
27.081742735755526
 20
-1.3518984488503052
 10
27.141943404651844
 20
-1.3174056914397076
 10
27.202144073548165
 20
-1.2822825352657343
 10
27.262344742444487
 20
-1.2465605733333884
 10
27.32254541134081
 20
-1.2102715801012085
 10
27.38274608023713
 20
-1.1734474664635302
 10
27.442946749133448
 20
-1.1361202352791948
 10
27.50314741802977
 20
-1.098321937539421
 10
27.56334808692609
 20
-1.060084629264098
 10
27.623548755822412
 20
-1.0214403292120349
 10
27.683749424718734
 20
-0.9824209774868169
 10
27.743950093615055
 20
-0.9430583951157853
 10
27.804150762511377
 20
-0.9033842446753898
 10
27.864351431407698
 20
-0.863429992031689
 10
27.92455210030402
 20
-0.8232268692602032
 10
27.98475276920034
 20
-0.7828058388046177
 10
28.044953438096663
 20
-0.7421975589290033
 10
28.105154106992984
 20
-0.7014323505133663
 10
28.165354775889305
 20
-0.6605401652373407
 10
28.225555444785623
 20
-0.6195505551918844
 10
28.285756113681945
 20
-0.5784926439537993
 10
28.345956782578266
 20
-0.5373950991528921
 10
28.406157451474588
 20
-0.4962861065565658
 10
28.466358120370906
 20
-0.455193345691689
 10
28.526558789267227
 20
-0.4141439670186454
 10
28.58675945816355
 20
-0.37316457066764397
 10
28.64696012705987
 20
-0.33228118674257157
 10
28.70716079595619
 20
-0.2915192571930355
 10
28.767361464852513
 20
-0.25090361925067706
 10
28.827562133748835
 20
-0.21045849042142362
 10
28.887762802645156
 20
-0.1702074550210928
 10
28.947963471541478
 20
-0.13017345223759536
 10
29.0081641404378
 20
-0.09037876569909364
 10
29.06836480933412
 20
-0.05084501452364509
 10
29.128565478230442
 20
-0.011593145822332174
 10
29.188766147126763
 20
0.027356571375570682
 10
29.248966816023085
 20
0.06598455080997434
 10
29.309167484919403
 20
0.10427189232747491
 10
29.369368153815724
 20
0.142200383909316
 10
29.429568822712046
 20
0.17975250243267082
 10
29.489769491608367
 20
0.21691141321044338
 10
29.549970160504685
 20
0.25366096835685026
 10
29.610170829401007
 20
0.28998570402792145
 10
29.670371498297328
 20
0.3258708365876747
 10
29.73057216719365
 20
0.3613022577521494
 10
29.79077283608997
 20
0.396266528764631
 10
29.850973504986293
 20
0.4307508736563852
 10
29.911174173882614
 20
0.46474317164792256
 10
29.971374842778935
 20
0.4982319487463701
 10
30.031575511675257
 20
0.5312063685947966
 10
30.09177618057158
 20
0.5636562226294688
 10
30.1519768494679
 20
0.595571919600896
 10
30.21217751836422
 20
0.6269444745142332
 10
30.272378187260543
 20
0.6577654970441515
 10
30.33257885615686
 20
0.6880271794785987
 10
30.392779525053182
 20
0.717722284245078
 10
30.452980193949504
 20
0.7468441310720629
 10
30.513180862845825
 20
0.7753865838370513
 10
30.573381531742147
 20
0.8033440371514708
 10
30.633582200638465
 20
0.8307114027312387
 10
30.693782869534786
 20
0.857484095600261
 10
30.753983538431108
 20
0.8836580201724886
 10
30.81418420732743
 20
0.9092295562564392
 10
30.87438487622375
 20
0.9341955450242305
 10
30.934585545120072
 20
0.9585532749852697
 10
30.994786214016393
 20
0.9823004680027588
 10
31.054986882912715
 20
1.005435265389138
 10
31.115187551809036
 20
1.027956214114485
 10
31.175388220705358
 20
1.049862253159771
 10
31.23558888960168
 20
1.0711527000447036
 10
31.295789558497997
 20
1.0918272375577183
 10
31.35599022739432
 20
1.1118859007134774
 10
31.41619089629064
 20
1.1313290639610507
 10
31.47639156518696
 20
1.1501574286637801
 10
31.536592234083283
 20
1.1683720108696427
 10
31.596792902979605
 20
1.1859741293887969
 10
31.656993571875926
 20
1.2029653941928826
 10
31.717194240772248
 20
1.219347695148571
 10
31.77739490966857
 20
1.23512319109584
 10
31.837595578564887
 20
1.2502942992794572
 10
31.89779624746121
 20
1.2648636851402661
 10
31.95799691635753
 20
1.2788342524709737
 10
32.01819758525385
 20
1.2922091339393995
 10
32.07839825415017
 20
1.3049916819803855
 10
32.138598923046494
 20
1.3171854600559627
 10
32.198799591942816
 20
1.328794234281791
 10
32.25900026083914
 20
1.3398219654164183
 10
32.31920092973546
 20
1.3502728012085208
 10
32.37940159863177
 20
1.3601510690959744
 10
32.4396022675281
 20
1.3694612692493893
 10
32.499802936424416
 20
1.3782080679516344
 10
32.560003605320745
 20
1.3863962913038184
 10
32.62020427421706
 20
1.3940309192472742
 10
32.68040494311339
 20
1.4011170798902286
 10
32.7406056120097
 20
1.407660044127081
 10
32.80080628090603
 20
1.4136652205375544
 10
32.861006949802345
 20
1.419138150552382
 10
32.921207618698666
 20
1.4240845038717165
 10
32.98140828759499
 20
1.4285100741220291
 10
33.04160895649131
 20
1.4324207747369426
  0
LWPOLYLINE
  5
38
330
17
100
AcDbEntity
  8
MERGED_CATENARY
100
AcDbPolyline
 90
300
 70
0
 10
15.04160895649131
 20
7.4916702487766536
 10
15.10180962538763
 20
7.425609097579584
 10
15.162010294283952
 20
7.360084806700247
 10
15.222210963180272
 20
7.295095001452186
 10
15.282411632076593
 20
7.230637326519409
 10
15.342612300972915
 20
7.1667094458710245
 10
15.402812969869236
 20
7.103309042676589
 10
15.463013638765556
 20
7.040433819222134
 10
15.523214307661878
 20
6.978081496826882
 10
15.583414976558199
 20
6.916249815760698
 10
15.64361564545452
 20
6.854936535162162
 10
15.703816314350842
 20
6.7941394329573646
 10
15.764016983247162
 20
6.733856305779393
 10
15.824217652143483
 20
6.674084968888449
 10
15.884418321039805
 20
6.614823256092704
 10
15.944618989936126
 20
6.556069019669762
 10
16.004819658832446
 20
6.497820130288849
 10
16.065020327728767
 20
6.440074476933626
 10
16.12522099662509
 20
6.382829966825692
 10
16.18542166552141
 20
6.3260845253487314
 10
16.24562233441773
 20
6.26983609597334
 10
16.305823003314053
 20
6.214082640182481
 10
16.366023672210375
 20
6.158822137397609
 10
16.426224341106693
 20
6.104052584905448
 10
16.486425010003014
 20
6.049771997785404
 10
16.546625678899336
 20
5.99597840883763
 10
16.606826347795657
 20
5.942669868511736
 10
16.66702701669198
 20
5.889844444836127
 10
16.7272276855883
 20
5.837500223348
 10
16.78742835448462
 20
5.78563530702394
 10
16.847629023380943
 20
5.734247816211189
 10
16.90782969227726
 20
5.6833358885595135
 10
16.968030361173582
 20
5.632897678953719
 10
17.028231030069904
 20
5.5829313594467695
 10
17.088431698966225
 20
5.533435119193555
 10
17.148632367862547
 20
5.484407164385243
 10
17.208833036758868
 20
5.435845718184298
 10
17.26903370565519
 20
5.387749020660053
 10
17.32923437455151
 20
5.340115328724957
 10
17.389435043447833
 20
5.2929429160713815
 10
17.449635712344154
 20
5.2462300731090705
 10
17.509836381240472
 20
5.199975106903178
 10
17.570037050136794
 20
5.154176341112913
 10
17.630237719033115
 20
5.108832115930781
 10
17.690438387929436
 20
5.06394078802245
 10
17.750639056825758
 20
5.019500730467166
 10
17.81083972572208
 20
4.97551033269882
 10
17.8710403946184
 20
4.931968000447553
 10
17.93124106351472
 20
4.888872155681994
 10
17.99144173241104
 20
4.84622123655207
 10
18.05164240130736
 20
4.804013697332392
 10
18.111843070203683
 20
4.762248008366243
 10
18.172043739100005
 20
4.720922656010142
 10
18.232244407996326
 20
4.6800361425789845
 10
18.292445076892648
 20
4.639586986291766
 10
18.35264574578897
 20
4.5995737212178796
 10
18.41284641468529
 20
4.559994897223989
 10
18.473047083581612
 20
4.520849079921474
 10
18.53324775247793
 20
4.482134850614448
 10
18.59344842137425
 20
4.443850806248335
 10
18.653649090270573
 20
4.405995559359037
 10
18.713849759166894
 20
4.368567738022628
 10
18.774050428063216
 20
4.331565985805659
 10
18.834251096959537
 20
4.294988961715973
 10
18.89445176585586
 20
4.25883534015413
 10
18.95465243475218
 20
4.223103810865347
 10
19.0148531036485
 20
4.187793078892024
 10
19.07505377254482
 20
4.152901864526806
 10
19.13525444144114
 20
4.118428903266212
 10
19.195455110337463
 20
4.084372945764796
 10
19.255655779233784
 20
4.050732757789883
 10
19.315856448130106
 20
4.017507120176833
 10
19.376057117026427
 20
3.9846948287848516
 10
19.43625778592275
 20
3.9522946944533555
 10
19.49645845481907
 20
3.9203055429588796
 10
19.55665912371539
 20
3.888726214972511
 10
19.616859792611713
 20
3.857555566017885
 10
19.67706046150803
 20
3.8267924664297004
 10
19.737261130404352
 20
3.7964358013127764
 10
19.797461799300674
 20
3.766484470501661
 10
19.857662468196995
 20
3.7369373885207446
 10
19.917863137093317
 20
3.7077934845449234
 10
19.97806380598964
 20
3.6790517023608027
 10
20.038264474885956
 20
3.650711000328406
 10
20.098465143782278
 20
3.6227703513434273
 10
20.1586658126786
 20
3.595228742800012
 10
20.21886648157492
 20
3.5680851765540544
 10
20.279067150471242
 20
3.541338668887024
 10
20.339267819367564
 20
3.514988250470319
 10
20.399468488263885
 20
3.489032966330128
 10
20.459669157160207
 20
3.463471875812827
 10
20.519869826056528
 20
3.438304052550889
 10
20.58007049495285
 20
3.4135285844293106
 10
20.64027116384917
 20
3.389144573552547
 10
20.70047183274549
 20
3.3651511362119857
 10
20.76067250164181
 20
3.341547402853915
 10
20.820873170538132
 20
3.3183325180479972
 10
20.881073839434453
 20
3.2955056404562866
 10
20.941274508330775
 20
3.2730659428027264
 10
21.001475177227096
 20
3.2510126118431693
 10
21.061675846123418
 20
3.2293448483359066
 10
21.121876515019736
 20
3.2080618670126992
 10
21.182077183916057
 20
3.1871628965503196
 10
21.24227785281238
 20
3.166647179542603
 10
21.3024785217087
 20
3.1465139724729885
 10
21.36267919060502
 20
3.1267625456875803
 10
21.422879859501343
 20
3.1073921833687024
 10
21.483080528397664
 20
3.088402183508958
 10
21.543281197293986
 20
3.069791857885784
 10
21.603481866190307
 20
3.051560532036508
 10
21.66368253508663
 20
3.0337075452339124
 10
21.72388320398295
 20
3.016232250462283
 10
21.78408387287927
 20
2.999134014393958
 10
21.84428454177559
 20
2.9824122173663836
 10
21.90448521067191
 20
2.9660662533596494
 10
21.964685879568233
 20
2.950095529974528
 10
22.024886548464554
 20
2.934499468411005
 10
22.085087217360876
 20
2.919277503447304
 10
22.145287886257197
 20
2.9044290834193998
 10
22.205488555153515
 20
2.8899536702010287
 10
22.265689224049837
 20
2.8758507391841825
 10
22.325889892946158
 20
2.8621197792600994
 10
22.38609056184248
 20
2.848760292800736
 10
22.4462912307388
 20
2.8357717956407402
 10
22.506491899635122
 20
2.823153817059898
 10
22.566692568531444
 20
2.810905899766074
 10
22.626893237427765
 20
2.7990275998786407
 10
22.687093906324087
 20
2.787518486912397
 10
22.74729457522041
 20
2.7763781437619506
 10
22.80749524411673
 20
2.7656061666866227
 10
22.867695913013048
 20
2.7552021652958003
 10
22.92789658190937
 20
2.7451657625347914
 10
22.98809725080569
 20
2.7354965946711673
 10
23.048297919702012
 20
2.726194311281569
 10
23.108498588598334
 20
2.7172585752390166
 10
23.16869925749465
 20
2.7086890627006888
 10
23.228899926390973
 20
2.7004854630961805
 10
23.289100595287294
 20
2.692647479116257
 10
23.349301264183616
 20
2.685174826702077
 10
23.409501933079937
 20
2.6780672350348866
 10
23.46970260197626
 20
2.671324446526222
 10
23.52990327087258
 20
2.6649462168085614
 10
23.590103939768902
 20
2.6589323147264743
 10
23.650304608665223
 20
2.653282522328242
 10
23.710505277561545
 20
2.6479966348579564
 10
23.770705946457866
 20
2.6430744607481094
 10
23.830906615354188
 20
2.638515821612639
 10
23.89110728425051
 20
2.634320552240468
 10
23.951307953146827
 20
2.6304885005895207
 10
24.01150862204315
 20
2.6270195277812025
 10
24.07170929093947
 20
2.6239135080953835
 10
24.13190995983579
 20
2.6211703289658206
 10
24.192110628732113
 20
2.6187898909760987
 10
24.25231129762843
 20
2.6167721078560158
 10
24.312511966524752
 20
2.6151169064784563
 10
24.372712635421074
 20
2.613824226856747
 10
24.432913304317395
 20
2.6128940221424823
 10
24.493113973213717
 20
2.612326258623814
 10
24.55331464211004
 20
2.6121209157242475
 10
24.61351531100636
 20
2.6122779860018897
 10
24.67371597990268
 20
2.612797475149171
 10
24.733916648799003
 20
2.613679401993063
 10
24.794117317695324
 20
2.614923798495754
 10
24.854317986591646
 20
2.6165307097558044
 10
24.914518655487967
 20
2.6185001940097985
 10
24.97471932438429
 20
2.62083232263443
 10
25.034919993280607
 20
2.623527180149108
 10
25.095120662176928
 20
2.6265848642190104
 10
25.15532133107325
 20
2.630005485658633
 10
25.21552199996957
 20
2.6337891684357895
 10
25.27572266886589
 20
2.6379360496761217
 10
25.33592333776221
 20
2.6424462796680537
 10
25.396124006658532
 20
2.6473200218682558
 10
25.456324675554853
 20
2.6525574529075513
 10
25.516525344451175
 20
2.658158762597327
 10
25.576726013347496
 20
2.664124153936409
 10
25.636926682243818
 20
2.6704538431184255
 10
25.69712735114014
 20
2.6771480595396335
 10
25.75732802003646
 20
2.6842070458072387
 10
25.817528688932782
 20
2.691631057748183
 10
25.877729357829104
 20
2.699420364418421
 10
25.937930026725425
 20
2.7075752481126703
 10
25.998130695621747
 20
2.716096004374633
 10
26.058331364518068
 20
2.724982942007723
 10
26.118532033414386
 20
2.7342363830862437
 10
26.178732702310707
 20
2.7438566629670658
 10
26.23893337120703
 20
2.7538441303017835
 10
26.29913404010335
 20
2.764199147049342
 10
26.35933470899967
 20
2.7749220884891623
 10
26.41953537789599
 20
2.7860133432347434
 10
26.47973604679231
 20
2.797473313247738
 10
26.539936715688633
 20
2.80930241385253
 10
26.600137384584954
 20
2.821501073751276
 10
26.660338053481276
 20
2.8340697350394484
 10
26.720538722377597
 20
2.8470088532218596
 10
26.78073939127392
 20
2.860318897229166
 10
26.84094006017024
 20
2.87400034943486
 10
26.90114072906656
 20
2.8880537056727595
 10
26.961341397962883
 20
2.902479475254971
 10
27.021542066859205
 20
2.9172781809903525
 10
27.081742735755526
 20
2.9324503592034556
 10
27.141943404651844
 20
2.9479965597539692
 10
27.202144073548165
 20
2.9639173460566415
 10
27.262344742444487
 20
2.9802132951017013
 10
27.32254541134081
 20
2.996884997475764
 10
27.38274608023713
 20
3.013933057383249
 10
27.442946749133448
 20
3.0313580926682593
 10
27.50314741802977
 20
3.0491607348369842
 10
27.56334808692609
 20
3.0673416290805844
 10
27.623548755822412
 20
3.0859014342985702
 10
27.683749424718734
 20
3.1048408231226854
 10
27.743950093615055
 20
3.1241604819412827
 10
27.804150762511377
 20
3.143861110924202
 10
27.864351431407698
 20
3.1639434240481368
 10
27.92455210030402
 20
3.1844081491225196
 10
27.98475276920034
 20
3.205256027815895
 10
28.044953438096663
 20
3.226487815682797
 10
28.105154106992984
 20
3.2481042821911355
 10
28.165354775889305
 20
3.2701062107500767
 10
28.225555444785623
 20
3.292494398738439
 10
28.285756113681945
 20
3.315269657533595
 10
28.345956782578266
 20
3.3384328125408658
 10
28.406157451474588
 20
3.361984703223442
 10
28.466358120370906
 20
3.3859261831328125
 10
28.526558789267227
 20
3.410258119939684
 10
28.58675945816355
 20
3.4349813954654396
 10
28.64696012705987
 20
3.460096905714092
 10
28.70716079595619
 20
3.4856055609047543
 10
28.767361464852513
 20
3.5115082855046253
 10
28.827562133748835
 20
3.537806018262508
 10
28.887762802645156
 20
3.56449971224281
 10
28.947963471541478
 20
3.591590334860102
 10
29.0081641404378
 20
3.6190788679141606
 10
29.06836480933412
 20
3.646966307625572
 10
29.128565478230442
 20
3.6752536646718115
 10
29.188766147126763
 20
3.703941964223898
 10
29.248966816023085
 20
3.733032245983523
 10
29.309167484919403
 20
3.7625255642207422
 10
29.369368153815724
 20
3.792422987812194
 10
29.429568822712046
 20
3.822725600279815
 10
29.489769491608367
 20
3.8534344998301218
 10
29.549970160504685
 20
3.884550799394013
 10
29.610170829401007
 20
3.916075626667095
 10
29.670371498297328
 20
3.9480101241505583
 10
29.73057216719365
 20
3.9803554491925786
 10
29.79077283608997
 20
4.0131127740302635
 10
29.850973504986293
 20
4.046283285832136
 10
29.911174173882614
 20
4.0798681867411535
 10
29.971374842778935
 20
4.113868693918286
 10
30.031575511675257
 20
4.148286039586617
 10
30.09177618057158
 20
4.183121471076003
 10
30.1519768494679
 20
4.218376250868287
 10
30.21217751836422
 20
4.254051656643041
 10
30.272378187260543
 20
4.290148981323874
 10
30.33257885615686
 20
4.326669533125296
 10
30.392779525053182
 20
4.363614635600119
 10
30.452980193949504
 20
4.400985627687437
 10
30.513180862845825
 20
4.438783863761135
 10
30.573381531742147
 20
4.477010713678988
 10
30.633582200638465
 20
4.515667562832295
 10
30.693782869534786
 20
4.554755812196101
 10
30.753983538431108
 20
4.594276878379953
 10
30.81418420732743
 20
4.6342321936792485
 10
30.87438487622375
 20
4.674623206127153
 10
30.934585545120072
 20
4.715451379547062
 10
30.994786214016393
 20
4.756718193605662
 10
31.054986882912715
 20
4.798425143866554
 10
31.115187551809036
 20
4.84057374184445
 10
31.175388220705358
 20
4.8831655150599556
 10
31.23558888960168
 20
4.926202007094938
 10
31.295789558497997
 20
4.969684777648444
 10
31.35599022739432
 20
5.0136154025932615
 10
31.41619089629064
 20
5.057995474032992
 10
31.47639156518696
 20
5.102826600359778
 10
31.536592234083283
 20
5.148110406312581
 10
31.596792902979605
 20
5.193848533036068
 10
31.656993571875926
 20
5.240042638140087
 10
31.717194240772248
 20
5.286694395759746
 10
31.77739490966857
 20
5.33380549661608
 10
31.837595578564887
 20
5.3813776480773186
 10
31.89779624746121
 20
5.429412574220789
 10
31.95799691635753
 20
5.477912015895365
 10
32.01819758525385
 20
5.526877730784583
 10
32.07839825415017
 20
5.576311493470332
 10
32.138598923046494
 20
5.626215095497164
 10
32.198799591942816
 20
5.6765903454372335
 10
32.25900026083914
 20
5.727439068955831
 10
32.31920092973546
 20
5.778763108877547
 10
32.37940159863177
 20
5.83056432525308
 10
32.4396022675281
 20
5.882844595426615
 10
32.499802936424416
 20
5.935605814103884
 10
32.560003605320745
 20
5.988849893420818
 10
32.62020427421706
 20
6.0425787630128625
 10
32.68040494311339
 20
6.09679437008489
 10
32.7406056120097
 20
6.1514986794817865
 10
32.80080628090603
 20
6.206693673759651
 10
32.861006949802345
 20
6.26238135325764
 10
32.921207618698666
 20
6.318563736170488
 10
32.98140828759499
 20
6.375242858621615
 10
33.04160895649131
 20
6.43242077473694
  0
LINE
  5
39
330
17
100
AcDbEntity
  8
MERGED_SUPPORTS
100
AcDbLine
 10
33.04160895649131
 20
1.4324207747369426
 30
0.0
 11
33.04160895649131
 21
6.432420774736943
 31
0.0
  0
ENDSEC
  0
SECTION
  2
OBJECTS
  0
DICTIONARY
  5
A
330
0
100
AcDbDictionary
281
1
  3
ACAD_COLOR
350
B
  3
ACAD_GROUP
350
C
  3
ACAD_LAYOUT
350
D
  3
ACAD_MATERIAL
350
E
  3
ACAD_MLEADERSTYLE
350
F
  3
ACAD_MLINESTYLE
350
10
  3
ACAD_PLOTSETTINGS
350
11
  3
ACAD_PLOTSTYLENAME
350
12
  3
ACAD_SCALELIST
350
14
  3
ACAD_TABLESTYLE
350
15
  3
ACAD_VISUALSTYLE
350
16
  3
EZDXF_META
350
2D
  0
DICTIONARY
  5
B
330
A
100
AcDbDictionary
281
1
  0
DICTIONARY
  5
C
330
A
100
AcDbDictionary
281
1
  0
DICTIONARY
  5
D
330
A
100
AcDbDictionary
281
1
  3
Model
350
1A
  3
Layout1
350
1E
  0
DICTIONARY
  5
E
330
A
100
AcDbDictionary
281
1
  3
ByBlock
350
1F
  3
ByLayer
350
20
  3
Global
350
21
  0
DICTIONARY
  5
F
330
A
100
AcDbDictionary
281
1
  3
Standard
350
2C
  0
DICTIONARY
  5
10
330
A
100
AcDbDictionary
281
1
  3
Standard
350
22
  0
DICTIONARY
  5
11
330
A
100
AcDbDictionary
281
1
  0
ACDBDICTIONARYWDFLT
  5
12
330
A
100
AcDbDictionary
281
1
  3
Normal
350
13
100
AcDbDictionaryWithDefault
340
13
  0
ACDBPLACEHOLDER
  5
13
330
12
  0
DICTIONARY
  5
14
330
A
100
AcDbDictionary
281
1
  0
DICTIONARY
  5
15
330
A
100
AcDbDictionary
281
1
  0
DICTIONARY
  5
16
330
A
100
AcDbDictionary
281
1
  0
LAYOUT
  5
1A
330
D
100
AcDbPlotSettings
  1

  4
A3
  6

 40
7.5
 41
20.0
 42
7.5
 43
20.0
 44
420.0
 45
297.0
 46
0.0
 47
0.0
 48
0.0
 49
0.0
140
0.0
141
0.0
142
1.0
143
1.0
 70
1024
 72
1
 73
0
 74
5
  7

 75
16
 76
0
 77
2
 78
300
147
1.0
148
0.0
149
0.0
100
AcDbLayout
  1
Model
 70
1
 71
0
 10
0.0
 20
0.0
 11
420.0
 21
297.0
 12
0.0
 22
0.0
 32
0.0
 14
1e+20
 24
1e+20
 34
1e+20
 15
-1e+20
 25
-1e+20
 35
-1e+20
146
0.0
 13
0.0
 23
0.0
 33
0.0
 16
1.0
 26
0.0
 36
0.0
 17
0.0
 27
1.0
 37
0.0
 76
1
330
17
  0
LAYOUT
  5
1E
330
D
100
AcDbPlotSettings
  1

  4
A3
  6

 40
7.5
 41
20.0
 42
7.5
 43
20.0
 44
420.0
 45
297.0
 46
0.0
 47
0.0
 48
0.0
 49
0.0
140
0.0
141
0.0
142
1.0
143
1.0
 70
0
 72
1
 73
0
 74
5
  7

 75
16
 76
0
 77
2
 78
300
147
1.0
148
0.0
149
0.0
100
AcDbLayout
  1
Layout1
 70
1
 71
1
 10
0.0
 20
0.0
 11
420.0
 21
297.0
 12
0.0
 22
0.0
 32
0.0
 14
1e+20
 24
1e+20
 34
1e+20
 15
-1e+20
 25
-1e+20
 35
-1e+20
146
0.0
 13
0.0
 23
0.0
 33
0.0
 16
1.0
 26
0.0
 36
0.0
 17
0.0
 27
1.0
 37
0.0
 76
1
330
1B
  0
MATERIAL
  5
1F
102
{ACAD_REACTORS
330
E
102
}
330
E
100
AcDbMaterial
  1
ByBlock
  2

 70
0
 40
1.0
 71
1
 41
1.0
 91
-1023410177
 42
1.0
 72
1
  3

 73
1
 74
1
 75
1
 44
0.5
 73
0
 45
1.0
 46
1.0
 77
1
  4

 78
1
 79
1
170
1
 48
1.0
171
1
  6

172
1
173
1
174
1
140
1.0
141
1.0
175
1
  7

176
1
177
1
178
1
143
1.0
179
1
  8

270
1
271
1
272
1
145
1.0
146
1.0
273
1
  9

274
1
275
1
276
1
 42
1.0
 72
1
  3

 73
1
 74
1
 75
1
 94
63
  0
MATERIAL
  5
20
102
{ACAD_REACTORS
330
E
102
}
330
E
100
AcDbMaterial
  1
ByLayer
  2

 70
0
 40
1.0
 71
1
 41
1.0
 91
-1023410177
 42
1.0
 72
1
  3

 73
1
 74
1
 75
1
 44
0.5
 73
0
 45
1.0
 46
1.0
 77
1
  4

 78
1
 79
1
170
1
 48
1.0
171
1
  6

172
1
173
1
174
1
140
1.0
141
1.0
175
1
  7

176
1
177
1
178
1
143
1.0
179
1
  8

270
1
271
1
272
1
145
1.0
146
1.0
273
1
  9

274
1
275
1
276
1
 42
1.0
 72
1
  3

 73
1
 74
1
 75
1
 94
63
  0
MATERIAL
  5
21
102
{ACAD_REACTORS
330
E
102
}
330
E
100
AcDbMaterial
  1
Global
  2

 70
0
 40
1.0
 71
1
 41
1.0
 91
-1023410177
 42
1.0
 72
1
  3

 73
1
 74
1
 75
1
 44
0.5
 73
0
 45
1.0
 46
1.0
 77
1
  4

 78
1
 79
1
170
1
 48
1.0
171
1
  6

172
1
173
1
174
1
140
1.0
141
1.0
175
1
  7

176
1
177
1
178
1
143
1.0
179
1
  8

270
1
271
1
272
1
145
1.0
146
1.0
273
1
  9

274
1
275
1
276
1
 42
1.0
 72
1
  3

 73
1
 74
1
 75
1
 94
63
  0
MLINESTYLE
  5
22
102
{ACAD_REACTORS
330
10
102
}
330
10
100
AcDbMlineStyle
  2
Standard
 70
0
  3

 62
256
 51
90.0
 52
90.0
 71
2
 49
0.5
 62
256
  6
BYLAYER
 49
-0.5
 62
256
  6
BYLAYER
  0
MLEADERSTYLE
  5
2C
102
{ACAD_REACTORS
330
F
102
}
330
F
100
AcDbMLeaderStyle
179
2
170
2
171
1
172
0
 90
2
 40
0.0
 41
0.0
173
1
 91
-1056964608
 92
-2
290
1
 42
2.0
291
1
 43
8.0
  3
Standard
 44
4.0
300

342
29
174
1
175
1
176
0
178
1
 93
-1056964608
 45
4.0
292
0
297
0
 46
4.0
 94
-1056964608
 47
1.0
 49
1.0
140
1.0
294
1
141
0.0
177
0
142
1.0
295
0
296
0
143
3.75
271
0
272
9
273
9
  0
DICTIONARY
  5
2D
330
A
100
AcDbDictionary
280
1
281
1
  3
CREATED_BY_EZDXF
350
2E
  3
WRITTEN_BY_EZDXF
350
3C
  0
DICTIONARYVAR
  5
2E
330
2D
100
DictionaryVariables
280
0
  1
1.4.4 @ 2026-05-20T10:27:14.724585+00:00
  0
DICTIONARYVAR
  5
3C
330
2D
100
DictionaryVariables
280
0
  1
1.4.4 @ 2026-05-20T10:27:14.731040+00:00
  0
ENDSEC
  0
EOF
